G04*
G04 #@! TF.GenerationSoftware,Altium Limited,Altium Designer,24.10.1 (45)*
G04*
G04 Layer_Color=128*
%FSLAX25Y25*%
%MOIN*%
G70*
G04*
G04 #@! TF.SameCoordinates,9D620B6C-925D-48BC-BBC5-478D005D5007*
G04*
G04*
G04 #@! TF.FilePolarity,Positive*
G04*
G01*
G75*
%ADD17C,0.00500*%
D17*
X344193Y32244D02*
X348917D01*
X346555Y29882D02*
Y34606D01*
X334193Y32244D02*
X338917D01*
X336555Y29882D02*
Y34606D01*
X324193Y32244D02*
X328917D01*
X326555Y29882D02*
Y34606D01*
X314193Y32244D02*
X318917D01*
X316555Y29882D02*
Y34606D01*
X304193Y32244D02*
X308917D01*
X306555Y29882D02*
Y34606D01*
X294193Y32244D02*
X298917D01*
X296555Y29882D02*
Y34606D01*
X284193Y32244D02*
X288917D01*
X286555Y29882D02*
Y34606D01*
X274193Y32244D02*
X278917D01*
X276555Y29882D02*
Y34606D01*
X264193Y32244D02*
X268917D01*
X266555Y29882D02*
Y34606D01*
X254193Y32244D02*
X258917D01*
X256555Y29882D02*
Y34606D01*
X254193Y22244D02*
X258917D01*
X256555Y19882D02*
Y24606D01*
X264193Y22244D02*
X268917D01*
X266555Y19882D02*
Y24606D01*
X274193Y22244D02*
X278917D01*
X276555Y19882D02*
Y24606D01*
X284193Y22244D02*
X288917D01*
X286555Y19882D02*
Y24606D01*
X294193Y22244D02*
X298917D01*
X296555Y19882D02*
Y24606D01*
X304193Y22244D02*
X308917D01*
X306555Y19882D02*
Y24606D01*
X314193Y22244D02*
X318917D01*
X316555Y19882D02*
Y24606D01*
X324193Y22244D02*
X328917D01*
X326555Y19882D02*
Y24606D01*
X334193Y22244D02*
X338917D01*
X336555Y19882D02*
Y24606D01*
X344193Y22244D02*
X348917D01*
X346555Y19882D02*
Y24606D01*
X142618Y14764D02*
X144980D01*
X143799Y13583D02*
Y15945D01*
X68209Y14764D02*
X70571D01*
X69390Y13583D02*
Y15945D01*
X120374Y51772D02*
X135728D01*
X128051Y44094D02*
Y59449D01*
X77461Y51772D02*
X92815D01*
X85138Y44094D02*
Y59449D01*
X402165Y289764D02*
X415945D01*
X409055Y282874D02*
Y296654D01*
X8858Y289764D02*
X22638D01*
X15748Y282874D02*
Y296654D01*
X8858Y15748D02*
X22638D01*
X15748Y8858D02*
Y22638D01*
X402165Y15748D02*
X415945D01*
X409055Y8858D02*
Y22638D01*
X14970Y213386D02*
X20070D01*
X17520Y210836D02*
Y215936D01*
X14970Y227186D02*
X20070D01*
X17520Y224636D02*
Y229736D01*
X117244Y286024D02*
X121968D01*
X119606Y283661D02*
Y288386D01*
X137244Y286024D02*
X141969D01*
X139606Y283661D02*
Y288386D01*
X107244Y286024D02*
X111969D01*
X109606Y283661D02*
Y288386D01*
X127244Y286024D02*
X131968D01*
X129606Y283661D02*
Y288386D01*
X16249Y170768D02*
X21349D01*
X18799Y168218D02*
Y173318D01*
X16249Y156968D02*
X21349D01*
X18799Y154418D02*
Y159518D01*
X61447Y293209D02*
X66547D01*
X63997Y290659D02*
Y295759D01*
X47647Y293209D02*
X52747D01*
X50197Y290659D02*
Y295759D01*
X43110Y173327D02*
X43898D01*
X43504Y172933D02*
Y173721D01*
X48228Y173327D02*
X49016D01*
X48622Y172933D02*
Y173721D01*
X43110Y168209D02*
X43898D01*
X43504Y167815D02*
Y168602D01*
X48228Y168209D02*
X49016D01*
X48622Y167815D02*
Y168602D01*
X43110Y163091D02*
X43898D01*
X43504Y162697D02*
Y163484D01*
X48228Y163091D02*
X49016D01*
X48622Y162697D02*
Y163484D01*
X43110Y157973D02*
X43898D01*
X43504Y157579D02*
Y158366D01*
X48228Y157973D02*
X49016D01*
X48622Y157579D02*
Y158366D01*
X44980Y228248D02*
X45768D01*
X45374Y227854D02*
Y228642D01*
X50098Y228248D02*
X50886D01*
X50492Y227854D02*
Y228642D01*
X44980Y223130D02*
X45768D01*
X45374Y222736D02*
Y223524D01*
X50098Y223130D02*
X50886D01*
X50492Y222736D02*
Y223524D01*
X44980Y218012D02*
X45768D01*
X45374Y217618D02*
Y218406D01*
X50098Y218012D02*
X50886D01*
X50492Y217618D02*
Y218406D01*
X44980Y212894D02*
X45768D01*
X45374Y212500D02*
Y213287D01*
X50098Y212894D02*
X50886D01*
X50492Y212500D02*
Y213287D01*
X68012Y267323D02*
X68799D01*
X68405Y266929D02*
Y267717D01*
X68012Y262205D02*
X68799D01*
X68405Y261811D02*
Y262598D01*
X62894Y267323D02*
X63681D01*
X63287Y266929D02*
Y267717D01*
X62894Y262205D02*
X63681D01*
X63287Y261811D02*
Y262598D01*
X57776Y267323D02*
X58563D01*
X58169Y266929D02*
Y267717D01*
X57776Y262205D02*
X58563D01*
X58169Y261811D02*
Y262598D01*
X52658Y267323D02*
X53445D01*
X53051Y266929D02*
Y267717D01*
X52658Y262205D02*
X53445D01*
X53051Y261811D02*
Y262598D01*
X185531Y20768D02*
X189075D01*
X187303Y18996D02*
Y22539D01*
X202854Y20768D02*
X206398D01*
X204626Y18996D02*
Y22539D01*
X207087Y31201D02*
X208465D01*
X207776Y30512D02*
Y31890D01*
X176476Y21654D02*
X177854D01*
X177165Y20965D02*
Y22343D01*
X213878Y20965D02*
X215256D01*
X214567Y20276D02*
Y21654D01*
X197244Y10335D02*
X198622D01*
X197933Y9646D02*
Y11024D01*
X189862Y10335D02*
X191240D01*
X190551Y9646D02*
Y11024D01*
X175394Y94882D02*
X176772D01*
X176083Y94193D02*
Y95571D01*
X173524Y98917D02*
X174902D01*
X174213Y98228D02*
Y99606D01*
X202559Y50886D02*
X203937D01*
X203248Y50197D02*
Y51575D01*
X396358Y38780D02*
X397933D01*
X397146Y37992D02*
Y39567D01*
X389862Y38780D02*
X391437D01*
X390650Y37992D02*
Y39567D01*
X382087Y38878D02*
X383661D01*
X382874Y38091D02*
Y39665D01*
X395768Y79429D02*
X397342D01*
X396555Y78642D02*
Y80216D01*
X387106Y79528D02*
X388681D01*
X387894Y78740D02*
Y80315D01*
X374803Y41929D02*
X376378D01*
X375590Y41142D02*
Y42717D01*
X380413Y76378D02*
X381988D01*
X381201Y75590D02*
Y77165D01*
X377953Y90551D02*
X379331D01*
X378642Y89862D02*
Y91240D01*
X358268Y85433D02*
X359646D01*
X358957Y84744D02*
Y86122D01*
X392717Y101279D02*
X394291D01*
X393504Y100492D02*
Y102067D01*
X382185Y101279D02*
X383760D01*
X382972Y100492D02*
Y102067D01*
X371260Y101279D02*
X372835D01*
X372047Y100492D02*
Y102067D01*
X393602Y142717D02*
X395177D01*
X394390Y141929D02*
Y143504D01*
X381693Y142717D02*
X383268D01*
X382480Y141929D02*
Y143504D01*
X372342Y142618D02*
X373917D01*
X373130Y141831D02*
Y143405D01*
X363484Y139272D02*
X365059D01*
X364272Y138484D02*
Y140059D01*
X363583Y104528D02*
X365158D01*
X364370Y103740D02*
Y105315D01*
X374803Y77362D02*
X376181D01*
X375492Y76673D02*
Y78051D01*
X362598Y84744D02*
X363976D01*
X363287Y84055D02*
Y85433D01*
X364469Y79626D02*
X365846D01*
X365158Y78937D02*
Y80315D01*
X343898Y69488D02*
X345276D01*
X344587Y68799D02*
Y70177D01*
X352756Y86221D02*
X354134D01*
X353445Y85532D02*
Y86909D01*
X343701Y97539D02*
X345079D01*
X344390Y96850D02*
Y98228D01*
X329626Y53347D02*
X331004D01*
X330315Y52658D02*
Y54035D01*
X293898Y121653D02*
X295276D01*
X294587Y120965D02*
Y122343D01*
X336910Y133563D02*
X338287D01*
X337598Y132874D02*
Y134252D01*
X273819Y145177D02*
X275197D01*
X274508Y144488D02*
Y145866D01*
X300098Y132677D02*
X301476D01*
X300787Y131988D02*
Y133366D01*
X300886Y137894D02*
X302264D01*
X301575Y137205D02*
Y138583D01*
X245472Y83957D02*
X246850D01*
X246161Y83268D02*
Y84646D01*
X263287Y150591D02*
X264665D01*
X263976Y149902D02*
Y151279D01*
X245079Y153937D02*
X246457D01*
X245768Y153248D02*
Y154626D01*
X305610Y93799D02*
X306988D01*
X306299Y93110D02*
Y94488D01*
X269587Y79921D02*
X270965D01*
X270276Y79232D02*
Y80610D01*
X265158Y86614D02*
X266535D01*
X265846Y85925D02*
Y87303D01*
X277658Y95374D02*
X279035D01*
X278346Y94685D02*
Y96063D01*
X273917Y92126D02*
X275295D01*
X274606Y91437D02*
Y92815D01*
X268307Y115453D02*
X269685D01*
X268996Y114764D02*
Y116142D01*
X263091Y113386D02*
X264469D01*
X263779Y112697D02*
Y114075D01*
X221850Y100197D02*
X223228D01*
X222539Y99508D02*
Y100886D01*
X228150Y102953D02*
X229528D01*
X228839Y102264D02*
Y103642D01*
X274213Y135630D02*
X275590D01*
X274902Y134941D02*
Y136319D01*
X267147Y129605D02*
X268525D01*
X267836Y128916D02*
Y130294D01*
X261910Y127559D02*
X263287D01*
X262598Y126870D02*
Y128248D01*
X256205Y112594D02*
X257583D01*
X256894Y111905D02*
Y113283D01*
X248951Y112860D02*
X250329D01*
X249640Y112171D02*
Y113549D01*
X225984Y162205D02*
X227362D01*
X226673Y161516D02*
Y162894D01*
X232677Y167618D02*
X234055D01*
X233366Y166929D02*
Y168307D01*
X210630Y175394D02*
X212008D01*
X211319Y174705D02*
Y176083D01*
X220374Y78543D02*
X221752D01*
X221063Y77854D02*
Y79232D01*
X211417Y111319D02*
X212795D01*
X212106Y110630D02*
Y112008D01*
X174114Y110925D02*
X175492D01*
X174803Y110236D02*
Y111614D01*
X243799Y72835D02*
X245177D01*
X244488Y72146D02*
Y73524D01*
X406791Y177953D02*
X408169D01*
X407480Y177264D02*
Y178642D01*
X405709Y253445D02*
X407087D01*
X406398Y252756D02*
Y254134D01*
X340453Y240354D02*
X341831D01*
X341142Y239665D02*
Y241043D01*
X332776Y240551D02*
X334154D01*
X333465Y239862D02*
Y241240D01*
X340650Y244291D02*
X342028D01*
X341339Y243602D02*
Y244980D01*
X332874Y244291D02*
X334252D01*
X333563Y243602D02*
Y244980D01*
X322342Y226673D02*
X323721D01*
X323031Y225984D02*
Y227362D01*
X350098Y162106D02*
X351476D01*
X350787Y161417D02*
Y162795D01*
X292323Y181201D02*
X293701D01*
X293012Y180512D02*
Y181890D01*
X292618Y166831D02*
X293996D01*
X293307Y166142D02*
Y167520D01*
X292618Y171850D02*
X293996D01*
X293307Y171161D02*
Y172539D01*
X263091Y217520D02*
X264469D01*
X263779Y216831D02*
Y218209D01*
X246949Y227067D02*
X248327D01*
X247638Y226378D02*
Y227756D01*
X246949Y219587D02*
X248327D01*
X247638Y218898D02*
Y220276D01*
X286417Y225098D02*
X287795D01*
X287106Y224410D02*
Y225787D01*
X264075Y225197D02*
X265453D01*
X264764Y224508D02*
Y225886D01*
X298819Y234744D02*
X300197D01*
X299508Y234055D02*
Y235433D01*
X281004Y274803D02*
X282382D01*
X281693Y274114D02*
Y275492D01*
X264075Y247047D02*
X265453D01*
X264764Y246358D02*
Y247736D01*
X261417Y239567D02*
X262795D01*
X262106Y238878D02*
Y240256D01*
X265650Y197933D02*
X267028D01*
X266339Y197244D02*
Y198622D01*
X259449Y197244D02*
X260827D01*
X260138Y196555D02*
Y197933D01*
X254035Y196653D02*
X255413D01*
X254724Y195965D02*
Y197343D01*
X310039Y262500D02*
X311417D01*
X310728Y261811D02*
Y263189D01*
X259941Y256496D02*
X261319D01*
X260630Y255807D02*
Y257185D01*
X267126Y234842D02*
X268504D01*
X267815Y234154D02*
Y235531D01*
X275295Y234744D02*
X276673D01*
X275984Y234055D02*
Y235433D01*
X281447Y234301D02*
X282825D01*
X282136Y233612D02*
Y234990D01*
X270866Y261614D02*
X272244D01*
X271555Y260925D02*
Y262303D01*
X279921Y265354D02*
X281299D01*
X280610Y264665D02*
Y266043D01*
X295472Y265945D02*
X296850D01*
X296161Y265256D02*
Y266634D01*
X233957Y231201D02*
X235335D01*
X234646Y230512D02*
Y231890D01*
X233563Y194882D02*
X234941D01*
X234252Y194193D02*
Y195571D01*
X279921Y71949D02*
X281299D01*
X280610Y71260D02*
Y72638D01*
X305512Y64764D02*
X306890D01*
X306201Y64075D02*
Y65453D01*
X305413Y68701D02*
X306791D01*
X306102Y68012D02*
Y69390D01*
X248327Y38484D02*
X249705D01*
X249016Y37795D02*
Y39173D01*
X222146Y52559D02*
X223524D01*
X222835Y51870D02*
Y53248D01*
X222342Y56693D02*
X223721D01*
X223031Y56004D02*
Y57382D01*
X221555Y61811D02*
X222933D01*
X222244Y61122D02*
Y62500D01*
X221654Y66043D02*
X223031D01*
X222342Y65354D02*
Y66732D01*
X207972Y48425D02*
X209350D01*
X208661Y47736D02*
Y49114D01*
X196457Y98524D02*
X197441D01*
X196949Y98032D02*
Y99016D01*
X162303Y134646D02*
X163681D01*
X162992Y133957D02*
Y135335D01*
X160335Y82480D02*
X161713D01*
X161024Y81791D02*
Y83169D01*
X229921Y255217D02*
X231299D01*
X230610Y254528D02*
Y255906D01*
X200197Y255413D02*
X201575D01*
X200886Y254724D02*
Y256102D01*
X158858Y67323D02*
X160236D01*
X159547Y66634D02*
Y68012D01*
X158957Y60728D02*
X160335D01*
X159646Y60039D02*
Y61417D01*
X180413Y105118D02*
X181791D01*
X181102Y104429D02*
Y105807D01*
X200870Y98015D02*
X201854D01*
X201362Y97523D02*
Y98507D01*
X221654Y87106D02*
X223031D01*
X222342Y86417D02*
Y87795D01*
X188386Y144587D02*
X189764D01*
X189075Y143898D02*
Y145276D01*
X173130Y145866D02*
X174508D01*
X173819Y145177D02*
Y146555D01*
X177854Y50394D02*
X179232D01*
X178543Y49705D02*
Y51083D01*
X184646Y50394D02*
X186024D01*
X185335Y49705D02*
Y51083D01*
X158957Y207185D02*
X160335D01*
X159646Y206496D02*
Y207874D01*
X184547Y227854D02*
X185925D01*
X185236Y227165D02*
Y228543D01*
X184055Y220768D02*
X185433D01*
X184744Y220079D02*
Y221457D01*
X172343Y276476D02*
X173721D01*
X173031Y275787D02*
Y277165D01*
X211811Y264567D02*
X213189D01*
X212500Y263878D02*
Y265256D01*
X148327Y287894D02*
X149705D01*
X149016Y287205D02*
Y288583D01*
X148425Y294291D02*
X149803D01*
X149114Y293602D02*
Y294980D01*
X186713Y289469D02*
X188091D01*
X187402Y288779D02*
Y290158D01*
X177559Y289370D02*
X178937D01*
X178248Y288681D02*
Y290059D01*
X168307Y289469D02*
X169685D01*
X168996Y288779D02*
Y290158D01*
X213386Y281594D02*
X214764D01*
X214075Y280906D02*
Y282283D01*
X169193Y206890D02*
X170571D01*
X169882Y206201D02*
Y207579D01*
X159350Y187303D02*
X160728D01*
X160039Y186614D02*
Y187992D01*
X174311Y159744D02*
X175689D01*
X175000Y159055D02*
Y160433D01*
X151279Y155217D02*
X152657D01*
X151969Y154528D02*
Y155905D01*
X143996Y137992D02*
X145374D01*
X144685Y137303D02*
Y138681D01*
X136221Y138287D02*
X137598D01*
X136909Y137598D02*
Y138976D01*
X128642Y137894D02*
X130020D01*
X129331Y137205D02*
Y138583D01*
X120965Y137894D02*
X122343D01*
X121653Y137205D02*
Y138583D01*
X8563Y250689D02*
X9941D01*
X9252Y250000D02*
Y251378D01*
X80118Y247638D02*
X81496D01*
X80807Y246949D02*
Y248327D01*
X64075Y206890D02*
X65453D01*
X64764Y206201D02*
Y207579D01*
X44094Y201476D02*
X45472D01*
X44783Y200787D02*
Y202165D01*
X67520Y234055D02*
X68898D01*
X68209Y233366D02*
Y234744D01*
X83661Y292323D02*
X85039D01*
X84350Y291634D02*
Y293012D01*
X78543Y292323D02*
X79921D01*
X79232Y291634D02*
Y293012D01*
X58858Y282382D02*
X59842D01*
X59350Y281890D02*
Y282874D01*
X48425Y245866D02*
X49803D01*
X49114Y245177D02*
Y246555D01*
X26476Y257185D02*
X27854D01*
X27165Y256496D02*
Y257874D01*
X34941Y257185D02*
X36319D01*
X35630Y256496D02*
Y257874D01*
X28051Y203445D02*
X29429D01*
X28740Y202756D02*
Y204134D01*
X25394Y218701D02*
X26772D01*
X26083Y218012D02*
Y219390D01*
X72539Y150000D02*
X73917D01*
X73228Y149311D02*
Y150689D01*
X65847Y150098D02*
X67224D01*
X66535Y149409D02*
Y150787D01*
X57579Y150295D02*
X58957D01*
X58268Y149606D02*
Y150984D01*
X58465Y188287D02*
X59842D01*
X59153Y187598D02*
Y188976D01*
X28740Y162894D02*
X30118D01*
X29429Y162205D02*
Y163583D01*
X13583Y185039D02*
X14961D01*
X14272Y184350D02*
Y185728D01*
X115748Y68504D02*
X117126D01*
X116437Y67815D02*
Y69193D01*
X115748Y75394D02*
X117126D01*
X116437Y74705D02*
Y76083D01*
X115650Y83071D02*
X117027D01*
X116339Y82382D02*
Y83760D01*
X115354Y91732D02*
X116732D01*
X116043Y91043D02*
Y92421D01*
X55905Y63386D02*
X56890D01*
X56398Y62894D02*
Y63878D01*
X34843Y203346D02*
X36024D01*
X35433Y202756D02*
Y203937D01*
X39075Y118701D02*
X40059D01*
X39567Y118209D02*
Y119193D01*
X39173Y123524D02*
X40157D01*
X39665Y123031D02*
Y124016D01*
X39370Y128248D02*
X40354D01*
X39862Y127756D02*
Y128740D01*
X44488Y118701D02*
X45472D01*
X44980Y118209D02*
Y119193D01*
X44488Y123524D02*
X45472D01*
X44980Y123031D02*
Y124016D01*
X44587Y128347D02*
X45571D01*
X45079Y127854D02*
Y128839D01*
X87205Y101673D02*
X88386D01*
X87795Y101083D02*
Y102264D01*
X87205Y94587D02*
X88386D01*
X87795Y93996D02*
Y95177D01*
X87205Y87106D02*
X88386D01*
X87795Y86516D02*
Y87697D01*
X87303Y80118D02*
X88484D01*
X87894Y79528D02*
Y80709D01*
X87402Y70177D02*
X88583D01*
X87992Y69587D02*
Y70768D01*
X81890Y70079D02*
X83071D01*
X82480Y69488D02*
Y70669D01*
X81791Y80020D02*
X82972D01*
X82382Y79429D02*
Y80610D01*
X81693Y87008D02*
X82874D01*
X82284Y86417D02*
Y87598D01*
X81693Y94488D02*
X82874D01*
X82284Y93898D02*
Y95079D01*
X81693Y101575D02*
X82874D01*
X82284Y100984D02*
Y102165D01*
X44783Y93287D02*
X45571D01*
X45177Y92894D02*
Y93681D01*
X40453Y93287D02*
X41240D01*
X40846Y92894D02*
Y93681D01*
X36122Y93287D02*
X36909D01*
X36516Y92894D02*
Y93681D01*
X44783Y97618D02*
X45571D01*
X45177Y97224D02*
Y98012D01*
X40453Y97618D02*
X41240D01*
X40846Y97224D02*
Y98012D01*
X36122Y97618D02*
X36909D01*
X36516Y97224D02*
Y98012D01*
X44783Y101949D02*
X45571D01*
X45177Y101555D02*
Y102342D01*
X40453Y101949D02*
X41240D01*
X40846Y101555D02*
Y102342D01*
X36122Y101949D02*
X36909D01*
X36516Y101555D02*
Y102342D01*
X44783Y106280D02*
X45571D01*
X45177Y105886D02*
Y106673D01*
X40453Y106280D02*
X41240D01*
X40846Y105886D02*
Y106673D01*
X36122Y106280D02*
X36909D01*
X36516Y105886D02*
Y106673D01*
M02*
