G04*
G04 #@! TF.GenerationSoftware,Altium Limited,Altium Designer,24.10.1 (45)*
G04*
G04 Layer_Color=32896*
%FSLAX25Y25*%
%MOIN*%
G70*
G04*
G04 #@! TF.SameCoordinates,2D4B152F-DA3A-4926-AC14-268B840A774E*
G04*
G04*
G04 #@! TF.FilePolarity,Positive*
G04*
G01*
G75*
%ADD10C,0.00000*%
G36*
X279281Y253217D02*
Y250648D01*
Y248082D01*
Y245516D01*
Y242953D01*
Y240387D01*
Y237830D01*
X278083D01*
Y240387D01*
X278074D01*
Y244242D01*
X278075D01*
Y245516D01*
X278068D01*
Y249360D01*
X278085D01*
Y250648D01*
X278072D01*
Y253217D01*
X278065D01*
Y257037D01*
X279281D01*
Y253217D01*
D02*
G37*
G36*
X300640Y253207D02*
Y250646D01*
Y248082D01*
Y245518D01*
Y242953D01*
Y240402D01*
Y237819D01*
X299486D01*
Y240402D01*
X299461D01*
Y244242D01*
X299481D01*
Y245518D01*
X299477D01*
Y249360D01*
X299478D01*
Y251919D01*
X299478D01*
Y253207D01*
X299474D01*
Y257037D01*
X300640D01*
Y253207D01*
D02*
G37*
D10*
X284842Y254626D02*
G03*
X284842Y254626I-1476J0D01*
G01*
D02*
G03*
X284842Y254626I-1476J0D01*
G01*
M02*
