M48
;Layer_Color=9474304
;FILE_FORMAT=2:5
INCH,TZ
;TYPE=PLATED
T01F00S00C0.00787
T02F00S00C0.00984
T03F00S00C0.01181
T04F00S00C0.01378
T05F00S00C0.01575
T07F00S00C0.04724
T08F00S00C0.05100
T09F00S00C0.13780
T10F00S00C0.15354
;TYPE=NON_PLATED
T11F00S00C0.03543
%
T01
X36516Y93287
X40846
X45177
Y97618
X40846
X36516
Y101949
X40846
X45177
Y106280
X40846
X36516
X43504Y157973
Y163091
Y168209
Y173327
X48622
Y168209
Y163091
Y157973
X50492Y212894
Y218012
Y223130
Y228248
X45374
Y223130
Y218012
Y212894
X53051Y262205
Y267323
X58169
X63287
X68405
Y262205
X63287
X58169
T02
X56398Y63386
X196949Y98524
X201362Y98015
X44980Y118701
Y123524
X45079Y128347
X39862Y128248
X39665Y123524
X39567Y118701
X59350Y282382
T03
X82480Y70079
X87992Y70177
X87894Y80118
X82382Y80020
X82284Y87008
X87795Y87106
Y94587
X82284Y94488
Y101575
X87795Y101673
X35433Y203346
T04
X177165Y21654
X190551Y10335
X197933
X207776Y31201
X208661Y48425
X203248Y50886
X185335Y50394
X178543
X222835Y52559
X214567Y20965
X249016Y38484
X330315Y53347
X375492Y77362
X378642Y90551
X407480Y177953
X350787Y162106
X337598Y133563
X300787Y132677
X301575Y137894
X294587Y121653
X268996Y115453
X263779Y113386
X256894Y112594
X249640Y112860
X262598Y127559
X267836Y129605
X274902Y135630
X274508Y145177
X263976Y150591
X245768Y153937
X233366Y167618
X226673Y162205
X234252Y194882
X293012Y181201
X293307Y171850
Y166831
X306299Y93799
X306102Y68701
X306201Y64764
X280610Y71949
X270276Y79921
X265846Y86614
X274606Y92126
X278346Y95374
X246161Y83957
X244488Y72835
X222342Y66043
X222244Y61811
X223031Y56693
X221063Y78543
X222342Y87106
X222539Y100197
X228839Y102953
X344390Y97539
X353445Y86221
X358957Y85433
X363287Y84744
X365158Y79626
X344587Y69488
X212106Y111319
X181102Y105118
X174803Y110925
X174213Y98917
X176083Y94882
X161024Y82480
X159547Y67323
X159646Y60728
X116437Y68504
Y75394
X116339Y83071
X116043Y91732
X121653Y137894
X129331
X136909Y138287
X144685Y137992
X162992Y134646
X173819Y145866
X175000Y159744
X151969Y155217
X160039Y187303
X159646Y207185
X169882Y206890
X211319Y175394
X189075Y144587
X73228Y150000
X66535Y150098
X58268Y150295
X59153Y188287
X64764Y206890
X44783Y201476
X28740Y203445
X14272Y185039
X29429Y162894
X26083Y218701
X27165Y257185
X35630
X49114Y245866
X9252Y250689
X80807Y247638
X68209Y234055
X79232Y292323
X84350
X149114Y294291
X149016Y287894
X168996Y289469
X178248Y289370
X187402Y289469
X173031Y276476
X200886Y255413
X185236Y227854
X184744Y220768
X234646Y231201
X247638Y227067
Y219587
X257874Y244685
X255118Y254823
X263583Y260335
X277264Y265650
X270571Y247835
X271063Y240354
X275590Y231890
X285433Y240059
X316634Y248622
X311811Y259842
X333563Y244291
X333465Y240551
X341142Y240354
X341339Y244291
X323031Y226673
X230610Y255217
X212500Y264567
X214075Y281594
X406398Y253445
T05
X375590Y41929
X382874Y38878
X390650Y38780
X397146
X396555Y79429
X387894Y79528
X381201Y76378
X382972Y101279
X393504
X372047
X373130Y142618
X382480Y142717
X394390
X364272Y139272
X364370Y104528
T07
X256555Y22244
Y32244
X266555
X276555
X286555
X296555
X306555
X316555
X326555
X336555
X346555
Y22244
X336555
X326555
X316555
X306555
X296555
X286555
X276555
X266555
X139606Y286024
X129606
X119606
X109606
T08
X18799Y156968
Y170768
X17520Y213386
Y227186
X50197Y293209
X63997
T09
X15748Y15748
X409055
X15748Y289764
X409055
T10
X85138Y51772
X128051
T11
X187303Y20768
X204626
M30
