G04*
G04 #@! TF.GenerationSoftware,Altium Limited,Altium Designer,24.10.1 (45)*
G04*
G04 Layer_Color=16711935*
%FSLAX25Y25*%
%MOIN*%
G70*
G04*
G04 #@! TF.SameCoordinates,5AC42D03-02A1-48EB-AEC6-02F924EB4CEF*
G04*
G04*
G04 #@! TF.FilePolarity,Negative*
G04*
G01*
G75*
%ADD23R,0.02268X0.02661*%
%ADD26R,0.02661X0.02268*%
%ADD27R,0.02819X0.02661*%
%ADD29R,0.20299X0.09807*%
%ADD35R,0.02661X0.02819*%
%ADD40R,0.03842X0.04236*%
%ADD45R,0.01874X0.01480*%
%ADD68C,0.08173*%
%ADD69O,0.05417X0.10535*%
%ADD70C,0.19654*%
%ADD71R,0.19654X0.19654*%
%ADD72C,0.20079*%
%ADD73C,0.08961*%
%ADD74O,0.08173X0.12110*%
%ADD75C,0.01480*%
%ADD76C,0.03842*%
%ADD77C,0.05299*%
%ADD78C,0.04236*%
%ADD79C,0.02661*%
%ADD80C,0.01874*%
%ADD170R,0.01480X0.01874*%
%ADD171C,0.02769*%
D23*
X229035Y194685D02*
D03*
X225098D02*
D03*
X179823Y43307D02*
D03*
X183760D02*
D03*
D26*
X265059Y235827D02*
D03*
Y231890D02*
D03*
X270965Y231890D02*
D03*
Y235827D02*
D03*
D27*
X238484Y164311D02*
D03*
Y167776D02*
D03*
X243110Y164311D02*
D03*
Y167776D02*
D03*
X221260Y162303D02*
D03*
Y165768D02*
D03*
X171063Y156063D02*
D03*
Y152598D02*
D03*
X168504Y107224D02*
D03*
Y110689D02*
D03*
D29*
X412402Y41898D02*
D03*
Y76410D02*
D03*
X412992Y104791D02*
D03*
Y139303D02*
D03*
D35*
X203091Y43799D02*
D03*
X206555D02*
D03*
X213130Y98130D02*
D03*
X216595D02*
D03*
X212933Y92913D02*
D03*
X216398D02*
D03*
X212933Y87992D02*
D03*
X216398D02*
D03*
X213543Y117717D02*
D03*
X210079D02*
D03*
D40*
X228740Y246850D02*
D03*
X234055D02*
D03*
X189961Y246752D02*
D03*
X195276D02*
D03*
D45*
X272441Y40748D02*
D03*
X275984D02*
D03*
D68*
X346555Y32244D02*
D03*
X336555D02*
D03*
X326555D02*
D03*
X316555D02*
D03*
X306555D02*
D03*
X296555D02*
D03*
X286555D02*
D03*
X276555D02*
D03*
X266555D02*
D03*
X256555D02*
D03*
Y22244D02*
D03*
X266555D02*
D03*
X276555D02*
D03*
X286555D02*
D03*
X296555D02*
D03*
X306555D02*
D03*
X316555D02*
D03*
X326555D02*
D03*
X336555D02*
D03*
X346555D02*
D03*
D69*
X143799Y14764D02*
D03*
X69390D02*
D03*
D70*
X128051Y51772D02*
D03*
D71*
X85138D02*
D03*
D72*
X409055Y289764D02*
D03*
X15748D02*
D03*
Y15748D02*
D03*
X409055D02*
D03*
D73*
X17520Y213386D02*
D03*
Y227186D02*
D03*
X18799Y170768D02*
D03*
Y156968D02*
D03*
X63997Y293209D02*
D03*
X50197D02*
D03*
D74*
X119606Y286024D02*
D03*
X139606D02*
D03*
X109606D02*
D03*
X129606D02*
D03*
D75*
X43504Y173327D02*
D03*
X48622D02*
D03*
X43504Y168209D02*
D03*
X48622D02*
D03*
X43504Y163091D02*
D03*
X48622D02*
D03*
X43504Y157973D02*
D03*
X48622D02*
D03*
X45374Y228248D02*
D03*
X50492D02*
D03*
X45374Y223130D02*
D03*
X50492D02*
D03*
X45374Y218012D02*
D03*
X50492D02*
D03*
X45374Y212894D02*
D03*
X50492D02*
D03*
X68405Y267323D02*
D03*
Y262205D02*
D03*
X63287Y267323D02*
D03*
Y262205D02*
D03*
X58169Y267323D02*
D03*
Y262205D02*
D03*
X53051Y267323D02*
D03*
Y262205D02*
D03*
D76*
X187303Y20768D02*
D03*
X204626D02*
D03*
D77*
X106693Y37795D02*
D03*
X27953Y77165D02*
D03*
X116535Y18110D02*
D03*
X67323Y195276D02*
D03*
Y234646D02*
D03*
X87008Y116535D02*
D03*
X96850Y254331D02*
D03*
X57480Y18110D02*
D03*
X96850Y175591D02*
D03*
X126378Y116535D02*
D03*
X27953Y37795D02*
D03*
X96850Y18110D02*
D03*
X18110Y96850D02*
D03*
X126378Y195276D02*
D03*
X18110Y57480D02*
D03*
X47638Y37795D02*
D03*
Y77165D02*
D03*
X77165Y18110D02*
D03*
X96850Y214961D02*
D03*
X67323Y155905D02*
D03*
X116535Y57480D02*
D03*
X87008Y195276D02*
D03*
X116535Y254331D02*
D03*
X37795Y18110D02*
D03*
X57480Y57480D02*
D03*
X67323Y37795D02*
D03*
X106693Y116535D02*
D03*
X77165Y175591D02*
D03*
X126378Y37795D02*
D03*
X37795Y57480D02*
D03*
X126378Y77165D02*
D03*
X116535Y214961D02*
D03*
X360455Y123715D02*
D03*
X354177Y117355D02*
D03*
X346669Y112508D02*
D03*
X337880Y114129D02*
D03*
X355090Y101917D02*
D03*
X367810Y114475D02*
D03*
X370603Y129457D02*
D03*
X415286Y130864D02*
D03*
X406349D02*
D03*
X397629Y128905D02*
D03*
X388692D02*
D03*
X379783Y129604D02*
D03*
X380397Y114491D02*
D03*
X389306Y115190D02*
D03*
X398244D02*
D03*
X406963Y113231D02*
D03*
X415900D02*
D03*
D78*
X416961Y67434D02*
D03*
X409087D02*
D03*
X401218Y67154D02*
D03*
X394065Y63861D02*
D03*
X386192D02*
D03*
X378317D02*
D03*
X362569Y63861D02*
D03*
X362525Y53462D02*
D03*
X370399Y53462D02*
D03*
X378273D02*
D03*
X386147D02*
D03*
X394021D02*
D03*
X401511Y51032D02*
D03*
X409383Y50873D02*
D03*
X417257D02*
D03*
D79*
X162377Y82087D02*
D03*
X285433Y240059D02*
D03*
X257874Y244685D02*
D03*
X277264Y265650D02*
D03*
X255118Y254823D02*
D03*
X263583Y260335D02*
D03*
X275590Y231890D02*
D03*
X271063Y240354D02*
D03*
X270571Y247835D02*
D03*
X206102Y31299D02*
D03*
X177165Y21654D02*
D03*
X214567Y20965D02*
D03*
X197933Y10335D02*
D03*
X190551D02*
D03*
X176083Y94882D02*
D03*
X174213Y98917D02*
D03*
X203248Y50886D02*
D03*
X378642Y90551D02*
D03*
X358957Y85433D02*
D03*
X375492Y77362D02*
D03*
X363287Y84744D02*
D03*
X365158Y79626D02*
D03*
X344587Y69488D02*
D03*
X353445Y86221D02*
D03*
X344390Y97539D02*
D03*
X330315Y53347D02*
D03*
X294587Y121653D02*
D03*
X337598Y133563D02*
D03*
X274508Y145177D02*
D03*
X300787Y132677D02*
D03*
X301575Y137894D02*
D03*
X246161Y83957D02*
D03*
X263976Y150591D02*
D03*
X245768Y153937D02*
D03*
X306299Y93799D02*
D03*
X270276Y79921D02*
D03*
X265846Y86614D02*
D03*
X278346Y95374D02*
D03*
X274606Y92126D02*
D03*
X268996Y115453D02*
D03*
X263779Y113386D02*
D03*
X222539Y100197D02*
D03*
X228839Y102953D02*
D03*
X274902Y135630D02*
D03*
X267836Y129605D02*
D03*
X262598Y127559D02*
D03*
X256894Y112594D02*
D03*
X249640Y112860D02*
D03*
X226673Y162205D02*
D03*
X233366Y167618D02*
D03*
X211319Y175394D02*
D03*
X221063Y78543D02*
D03*
X212106Y111319D02*
D03*
X174803Y110925D02*
D03*
X244488Y72835D02*
D03*
X407480Y177953D02*
D03*
X406398Y253445D02*
D03*
X341142Y240354D02*
D03*
X333465Y240551D02*
D03*
X341339Y244291D02*
D03*
X333563D02*
D03*
X323031Y226673D02*
D03*
X350787Y162106D02*
D03*
X293012Y181201D02*
D03*
X293307Y166831D02*
D03*
Y171850D02*
D03*
X247638Y227067D02*
D03*
Y219587D02*
D03*
X316634Y248622D02*
D03*
X311811Y259842D02*
D03*
X234646Y231201D02*
D03*
X234252Y194882D02*
D03*
X280610Y71949D02*
D03*
X306201Y64764D02*
D03*
X306102Y68701D02*
D03*
X249016Y38484D02*
D03*
X222835Y52559D02*
D03*
X223031Y56693D02*
D03*
X222244Y61811D02*
D03*
X222342Y66043D02*
D03*
X208661Y48425D02*
D03*
X196949Y98524D02*
D03*
X162992Y134646D02*
D03*
X230610Y255217D02*
D03*
X200886Y255413D02*
D03*
X159547Y67323D02*
D03*
X159646Y60728D02*
D03*
X181102Y105118D02*
D03*
X201362Y98015D02*
D03*
X222342Y87106D02*
D03*
X189075Y144587D02*
D03*
X173819Y145866D02*
D03*
X185335Y50394D02*
D03*
X178543D02*
D03*
X159646Y207185D02*
D03*
X185236Y227854D02*
D03*
X184744Y220768D02*
D03*
X173031Y276476D02*
D03*
X212500Y264567D02*
D03*
X149016Y287894D02*
D03*
X149114Y294291D02*
D03*
X187402Y289469D02*
D03*
X178248Y289370D02*
D03*
X168996Y289469D02*
D03*
X214075Y281594D02*
D03*
X169882Y206890D02*
D03*
X160039Y187303D02*
D03*
X175000Y159744D02*
D03*
X151969Y155217D02*
D03*
X144685Y137992D02*
D03*
X136909Y138287D02*
D03*
X129331Y137894D02*
D03*
X121653D02*
D03*
X84350Y292323D02*
D03*
X79232D02*
D03*
X27165Y257185D02*
D03*
X35630D02*
D03*
X28740Y203445D02*
D03*
X35433Y203346D02*
D03*
X87795Y101673D02*
D03*
Y94587D02*
D03*
Y87106D02*
D03*
X87894Y80118D02*
D03*
X87992Y70177D02*
D03*
X82480Y70079D02*
D03*
X82382Y80020D02*
D03*
X82284Y87008D02*
D03*
Y94488D02*
D03*
Y101575D02*
D03*
D80*
X39567Y118701D02*
D03*
X39665Y123524D02*
D03*
X39862Y128248D02*
D03*
X44980Y118701D02*
D03*
Y123524D02*
D03*
X45079Y128347D02*
D03*
D170*
X201181Y92913D02*
D03*
Y89370D02*
D03*
X196555Y92618D02*
D03*
Y89075D02*
D03*
D171*
X45177Y93287D02*
D03*
X40846D02*
D03*
X36516D02*
D03*
X45177Y97618D02*
D03*
X40846D02*
D03*
X36516D02*
D03*
X45177Y101949D02*
D03*
X40846D02*
D03*
X36516D02*
D03*
X45177Y106280D02*
D03*
X40846D02*
D03*
X36516D02*
D03*
M02*
