G04*
G04 #@! TF.GenerationSoftware,Altium Limited,Altium Designer,24.10.1 (45)*
G04*
G04 Layer_Physical_Order=2*
G04 Layer_Color=32768*
%FSLAX25Y25*%
%MOIN*%
G70*
G04*
G04 #@! TF.SameCoordinates,2D4B152F-DA3A-4926-AC14-268B840A774E*
G04*
G04*
G04 #@! TF.FilePolarity,Negative*
G04*
G01*
G75*
%ADD130C,0.04000*%
%ADD149C,0.06724*%
G04:AMPARAMS|DCode=150|XSize=107.244mil|YSize=107.244mil|CornerRadius=0mil|HoleSize=0mil|Usage=FLASHONLY|Rotation=0.000|XOffset=0mil|YOffset=0mil|HoleType=Round|Shape=Relief|Width=10mil|Gap=10mil|Entries=4|*
%AMTHD150*
7,0,0,0.10724,0.08724,0.01000,45*
%
%ADD150THD150*%
%ADD151R,0.04362X0.08299*%
G04:AMPARAMS|DCode=152|XSize=213.543mil|YSize=213.543mil|CornerRadius=0mil|HoleSize=0mil|Usage=FLASHONLY|Rotation=0.000|XOffset=0mil|YOffset=0mil|HoleType=Round|Shape=Relief|Width=10mil|Gap=10mil|Entries=4|*
%AMTHD152*
7,0,0,0.21354,0.19354,0.01000,45*
%
%ADD152THD152*%
%ADD153C,0.17354*%
%ADD154C,0.15780*%
%ADD155C,0.07100*%
%ADD156C,0.02787*%
%ADD157C,0.05543*%
G04:AMPARAMS|DCode=158|XSize=73.779mil|YSize=73.779mil|CornerRadius=0mil|HoleSize=0mil|Usage=FLASHONLY|Rotation=0.000|XOffset=0mil|YOffset=0mil|HoleType=Round|Shape=Relief|Width=10mil|Gap=10mil|Entries=4|*
%AMTHD158*
7,0,0,0.07378,0.05378,0.01000,45*
%
%ADD158THD158*%
%ADD159C,0.03378*%
G04:AMPARAMS|DCode=160|XSize=75.748mil|YSize=75.748mil|CornerRadius=0mil|HoleSize=0mil|Usage=FLASHONLY|Rotation=0.000|XOffset=0mil|YOffset=0mil|HoleType=Round|Shape=Relief|Width=10mil|Gap=10mil|Entries=4|*
%AMTHD160*
7,0,0,0.07575,0.05575,0.01000,45*
%
%ADD160THD160*%
%ADD161C,0.02984*%
G04:AMPARAMS|DCode=162|XSize=69.843mil|YSize=69.843mil|CornerRadius=0mil|HoleSize=0mil|Usage=FLASHONLY|Rotation=0.000|XOffset=0mil|YOffset=0mil|HoleType=Round|Shape=Relief|Width=10mil|Gap=10mil|Entries=4|*
%AMTHD162*
7,0,0,0.06984,0.04984,0.01000,45*
%
%ADD162THD162*%
%ADD163C,0.03181*%
G04:AMPARAMS|DCode=164|XSize=67.874mil|YSize=67.874mil|CornerRadius=0mil|HoleSize=0mil|Usage=FLASHONLY|Rotation=0.000|XOffset=0mil|YOffset=0mil|HoleType=Round|Shape=Relief|Width=10mil|Gap=10mil|Entries=4|*
%AMTHD164*
7,0,0,0.06787,0.04787,0.01000,45*
%
%ADD164THD164*%
D130*
X5394Y305906D02*
G03*
X394Y300905I0J-5000D01*
G01*
X424803D02*
G03*
X419803Y305906I-5000J0D01*
G01*
Y0D02*
G03*
X424803Y5000I0J5000D01*
G01*
X394D02*
G03*
X5394Y0I5000J0D01*
G01*
X394Y5000D02*
Y300905D01*
X5394Y305906D02*
X419803D01*
X424803Y5000D02*
Y300905D01*
X5394Y0D02*
X419803D01*
D149*
X346555Y32244D02*
D03*
X336555D02*
D03*
X326555D02*
D03*
X316555D02*
D03*
X306555D02*
D03*
X296555D02*
D03*
X286555D02*
D03*
X276555D02*
D03*
X266555D02*
D03*
X256555D02*
D03*
X346555Y22244D02*
D03*
X119606Y286024D02*
D03*
X109606D02*
D03*
X129606D02*
D03*
D150*
X256555Y22244D02*
D03*
X266555D02*
D03*
X276555D02*
D03*
X286555D02*
D03*
X296555D02*
D03*
X306555D02*
D03*
X316555D02*
D03*
X326555D02*
D03*
X336555D02*
D03*
X139606Y286024D02*
D03*
D151*
X143799Y14764D02*
D03*
X69390D02*
D03*
D152*
X128051Y51772D02*
D03*
D153*
X85138D02*
D03*
D154*
X409055Y289764D02*
D03*
X15748D02*
D03*
Y15748D02*
D03*
X409055D02*
D03*
D155*
X17520Y213386D02*
D03*
Y227186D02*
D03*
X18799Y170768D02*
D03*
Y156968D02*
D03*
X63997Y293209D02*
D03*
X50197D02*
D03*
D156*
X43504Y173327D02*
D03*
X48622D02*
D03*
X43504Y168209D02*
D03*
X48622D02*
D03*
X43504Y163091D02*
D03*
X48622D02*
D03*
X43504Y157973D02*
D03*
X48622D02*
D03*
X45374Y228248D02*
D03*
X50492D02*
D03*
X45374Y223130D02*
D03*
X50492D02*
D03*
X45374Y218012D02*
D03*
X50492D02*
D03*
X45374Y212894D02*
D03*
X50492D02*
D03*
X68405Y267323D02*
D03*
Y262205D02*
D03*
X63287Y267323D02*
D03*
Y262205D02*
D03*
X58169Y267323D02*
D03*
Y262205D02*
D03*
X53051Y267323D02*
D03*
Y262205D02*
D03*
D157*
X187303Y20768D02*
D03*
X204626D02*
D03*
D158*
X285433Y240059D02*
D03*
X207776Y31201D02*
D03*
X177165Y21654D02*
D03*
X214567Y20965D02*
D03*
X197933Y10335D02*
D03*
X190551D02*
D03*
X174213Y98917D02*
D03*
X203248Y50886D02*
D03*
X378642Y90551D02*
D03*
X375492Y77362D02*
D03*
X365158Y79626D02*
D03*
X330315Y53347D02*
D03*
X337598Y133563D02*
D03*
X306299Y93799D02*
D03*
X233366Y167618D02*
D03*
X221063Y78543D02*
D03*
X244488Y72835D02*
D03*
X407480Y177953D02*
D03*
X406398Y253445D02*
D03*
X341142Y240354D02*
D03*
X333465Y240551D02*
D03*
X341339Y244291D02*
D03*
X333563D02*
D03*
X350787Y162106D02*
D03*
X293012Y181201D02*
D03*
X247638Y227067D02*
D03*
X311811Y259842D02*
D03*
X234646Y231201D02*
D03*
X280610Y71949D02*
D03*
X159547Y67323D02*
D03*
X173819Y145866D02*
D03*
X185236Y227854D02*
D03*
X149016Y287894D02*
D03*
X149114Y294291D02*
D03*
X187402Y289469D02*
D03*
X178248Y289370D02*
D03*
X168996Y289469D02*
D03*
X214075Y281594D02*
D03*
X169882Y206890D02*
D03*
X160039Y187303D02*
D03*
X151969Y155217D02*
D03*
X9252Y250689D02*
D03*
X80807Y247638D02*
D03*
X64764Y206890D02*
D03*
X44783Y201476D02*
D03*
X68209Y234055D02*
D03*
X49114Y245866D02*
D03*
X26083Y218701D02*
D03*
X73228Y150000D02*
D03*
X66535Y150098D02*
D03*
X58268Y150295D02*
D03*
X59153Y188287D02*
D03*
X29429Y162894D02*
D03*
X14272Y185039D02*
D03*
X116437Y68504D02*
D03*
Y75394D02*
D03*
X116339Y83071D02*
D03*
X116043Y91732D02*
D03*
D159*
X257874Y244685D02*
D03*
X277264Y265650D02*
D03*
X255118Y254823D02*
D03*
X263583Y260335D02*
D03*
X275590Y231890D02*
D03*
X271063Y240354D02*
D03*
X270571Y247835D02*
D03*
X176083Y94882D02*
D03*
X358957Y85433D02*
D03*
X363287Y84744D02*
D03*
X344587Y69488D02*
D03*
X353445Y86221D02*
D03*
X344390Y97539D02*
D03*
X294587Y121653D02*
D03*
X274508Y145177D02*
D03*
X300787Y132677D02*
D03*
X301575Y137894D02*
D03*
X246161Y83957D02*
D03*
X263976Y150591D02*
D03*
X245768Y153937D02*
D03*
X270276Y79921D02*
D03*
X265846Y86614D02*
D03*
X278346Y95374D02*
D03*
X274606Y92126D02*
D03*
X268996Y115453D02*
D03*
X263779Y113386D02*
D03*
X222539Y100197D02*
D03*
X228839Y102953D02*
D03*
X274902Y135630D02*
D03*
X267836Y129605D02*
D03*
X262598Y127559D02*
D03*
X256894Y112594D02*
D03*
X249640Y112860D02*
D03*
X226673Y162205D02*
D03*
X211319Y175394D02*
D03*
X212106Y111319D02*
D03*
X174803Y110925D02*
D03*
X323031Y226673D02*
D03*
X293307Y166831D02*
D03*
Y171850D02*
D03*
X247638Y219587D02*
D03*
X316634Y248622D02*
D03*
X234252Y194882D02*
D03*
X306201Y64764D02*
D03*
X306102Y68701D02*
D03*
X249016Y38484D02*
D03*
X222835Y52559D02*
D03*
X223031Y56693D02*
D03*
X222244Y61811D02*
D03*
X222342Y66043D02*
D03*
X208661Y48425D02*
D03*
X162992Y134646D02*
D03*
X161024Y82480D02*
D03*
X230610Y255217D02*
D03*
X200886Y255413D02*
D03*
X159646Y60728D02*
D03*
X181102Y105118D02*
D03*
X222342Y87106D02*
D03*
X189075Y144587D02*
D03*
X178543Y50394D02*
D03*
X185335D02*
D03*
X159646Y207185D02*
D03*
X184744Y220768D02*
D03*
X173031Y276476D02*
D03*
X212500Y264567D02*
D03*
X175000Y159744D02*
D03*
X144685Y137992D02*
D03*
X136909Y138287D02*
D03*
X129331Y137894D02*
D03*
X121653D02*
D03*
X84350Y292323D02*
D03*
X79232D02*
D03*
X27165Y257185D02*
D03*
X35630D02*
D03*
X28740Y203445D02*
D03*
D160*
X397146Y38780D02*
D03*
X390650D02*
D03*
X382874Y38878D02*
D03*
X396555Y79429D02*
D03*
X387894Y79528D02*
D03*
X375590Y41929D02*
D03*
X381201Y76378D02*
D03*
X393504Y101279D02*
D03*
X382972D02*
D03*
X372047D02*
D03*
X394390Y142717D02*
D03*
X382480D02*
D03*
X373130Y142618D02*
D03*
X364272Y139272D02*
D03*
X364370Y104528D02*
D03*
D161*
X196949Y98524D02*
D03*
X201362Y98015D02*
D03*
X39567Y118701D02*
D03*
X39665Y123524D02*
D03*
X39862Y128248D02*
D03*
X44980Y118701D02*
D03*
Y123524D02*
D03*
X45079Y128347D02*
D03*
D162*
X59350Y282382D02*
D03*
X56398Y63386D02*
D03*
D163*
X35433Y203346D02*
D03*
X87795Y101673D02*
D03*
Y94587D02*
D03*
Y87106D02*
D03*
X87894Y80118D02*
D03*
X87992Y70177D02*
D03*
X82480Y70079D02*
D03*
X82382Y80020D02*
D03*
X82284Y87008D02*
D03*
Y94488D02*
D03*
Y101575D02*
D03*
D164*
X45177Y93287D02*
D03*
X40846D02*
D03*
X36516D02*
D03*
X45177Y97618D02*
D03*
X40846D02*
D03*
X36516D02*
D03*
X45177Y101949D02*
D03*
X40846D02*
D03*
X36516D02*
D03*
X45177Y106280D02*
D03*
X40846D02*
D03*
X36516D02*
D03*
M02*
