G04*
G04 #@! TF.GenerationSoftware,Altium Limited,Altium Designer,24.10.1 (45)*
G04*
G04 Layer_Color=255*
%FSLAX25Y25*%
%MOIN*%
G70*
G04*
G04 #@! TF.SameCoordinates,9D620B6C-925D-48BC-BBC5-478D005D5007*
G04*
G04*
G04 #@! TF.FilePolarity,Positive*
G04*
G01*
G75*
%ADD83R,0.20000X0.09508*%
%ADD86R,0.02362X0.01968*%
%ADD93R,0.02362X0.02520*%
%ADD95R,0.02520X0.02362*%
%ADD96R,0.01968X0.02362*%
%ADD100R,0.03543X0.03937*%
%ADD109R,0.01575X0.01181*%
%ADD139C,0.07874*%
%ADD140O,0.05118X0.10236*%
%ADD141C,0.19354*%
%ADD142R,0.19354X0.19354*%
%ADD143C,0.19685*%
%ADD144C,0.08661*%
%ADD145O,0.07874X0.11811*%
%ADD146C,0.01181*%
%ADD147C,0.03543*%
%ADD171R,0.02953X0.02362*%
%ADD172R,0.01181X0.01575*%
D83*
X412402Y41898D02*
D03*
Y76410D02*
D03*
X412992Y104791D02*
D03*
Y139303D02*
D03*
D86*
X281102Y225394D02*
D03*
Y229331D02*
D03*
X274902Y225295D02*
D03*
Y229232D02*
D03*
X268996Y225197D02*
D03*
Y229134D02*
D03*
D93*
X203091Y43799D02*
D03*
X206555D02*
D03*
X213130Y98130D02*
D03*
X216595D02*
D03*
X212933Y92913D02*
D03*
X216398D02*
D03*
X212933Y87992D02*
D03*
X216398D02*
D03*
X213543Y117717D02*
D03*
X210079D02*
D03*
D95*
X238484Y164311D02*
D03*
Y167776D02*
D03*
X243110Y164311D02*
D03*
Y167776D02*
D03*
X221260Y162303D02*
D03*
Y165768D02*
D03*
X171063Y156063D02*
D03*
Y152598D02*
D03*
X168504Y107224D02*
D03*
Y110689D02*
D03*
D96*
X229035Y194685D02*
D03*
X225098D02*
D03*
X183858Y43209D02*
D03*
X179921D02*
D03*
D100*
X228740Y246850D02*
D03*
X234055D02*
D03*
X189961Y246752D02*
D03*
X195276D02*
D03*
D109*
X272441Y40748D02*
D03*
X275984D02*
D03*
D139*
X346555Y32244D02*
D03*
X336555D02*
D03*
X326555D02*
D03*
X316555D02*
D03*
X306555D02*
D03*
X296555D02*
D03*
X286555D02*
D03*
X276555D02*
D03*
X266555D02*
D03*
X256555D02*
D03*
Y22244D02*
D03*
X266555D02*
D03*
X276555D02*
D03*
X286555D02*
D03*
X296555D02*
D03*
X306555D02*
D03*
X316555D02*
D03*
X326555D02*
D03*
X336555D02*
D03*
X346555D02*
D03*
D140*
X143799Y14764D02*
D03*
X69390D02*
D03*
D141*
X128051Y51772D02*
D03*
D142*
X85138D02*
D03*
D143*
X409055Y289764D02*
D03*
X15748D02*
D03*
Y15748D02*
D03*
X409055D02*
D03*
D144*
X17520Y213386D02*
D03*
Y227186D02*
D03*
X18799Y170768D02*
D03*
Y156968D02*
D03*
X63997Y293209D02*
D03*
X50197D02*
D03*
D145*
X119606Y286024D02*
D03*
X139606D02*
D03*
X109606D02*
D03*
X129606D02*
D03*
D146*
X43504Y173327D02*
D03*
X48622D02*
D03*
X43504Y168209D02*
D03*
X48622D02*
D03*
X43504Y163091D02*
D03*
X48622D02*
D03*
X43504Y157973D02*
D03*
X48622D02*
D03*
X45374Y228248D02*
D03*
X50492D02*
D03*
X45374Y223130D02*
D03*
X50492D02*
D03*
X45374Y218012D02*
D03*
X50492D02*
D03*
X45374Y212894D02*
D03*
X50492D02*
D03*
X68405Y267323D02*
D03*
Y262205D02*
D03*
X63287Y267323D02*
D03*
Y262205D02*
D03*
X58169Y267323D02*
D03*
Y262205D02*
D03*
X53051Y267323D02*
D03*
Y262205D02*
D03*
D147*
X187303Y20768D02*
D03*
X204626D02*
D03*
D171*
X290059Y266535D02*
D03*
X285531D02*
D03*
D172*
X201181Y92913D02*
D03*
Y89370D02*
D03*
X196555Y92618D02*
D03*
Y89075D02*
D03*
M02*
