G04*
G04 #@! TF.GenerationSoftware,Altium Limited,Altium Designer,24.10.1 (45)*
G04*
G04 Layer_Color=8421504*
%FSLAX25Y25*%
%MOIN*%
G70*
G04*
G04 #@! TF.SameCoordinates,5AC42D03-02A1-48EB-AEC6-02F924EB4CEF*
G04*
G04*
G04 #@! TF.FilePolarity,Positive*
G04*
G01*
G75*
%ADD21O,0.01284X0.06402*%
%ADD22O,0.06402X0.01284*%
%ADD23R,0.02268X0.02661*%
%ADD24R,0.04236X0.03842*%
%ADD25R,0.04236X0.01677*%
%ADD26R,0.02661X0.02268*%
%ADD27R,0.02819X0.02661*%
%ADD28R,0.19984X0.09315*%
%ADD29R,0.20299X0.09807*%
%ADD30R,0.05024X0.06795*%
%ADD31R,0.03700X0.06300*%
%ADD32R,0.21953X0.08173*%
%ADD33O,0.07386X0.01480*%
%ADD34O,0.01480X0.07386*%
%ADD35R,0.02661X0.02819*%
%ADD36R,0.02268X0.09158*%
%ADD37R,0.08173X0.15260*%
%ADD38R,0.08173X0.06205*%
G04:AMPARAMS|DCode=39|XSize=58.11mil|YSize=85.67mil|CornerRadius=15.28mil|HoleSize=0mil|Usage=FLASHONLY|Rotation=90.000|XOffset=0mil|YOffset=0mil|HoleType=Round|Shape=RoundedRectangle|*
%AMROUNDEDRECTD39*
21,1,0.05811,0.05512,0,0,90.0*
21,1,0.02756,0.08567,0,0,90.0*
1,1,0.03055,0.02756,0.01378*
1,1,0.03055,0.02756,-0.01378*
1,1,0.03055,-0.02756,-0.01378*
1,1,0.03055,-0.02756,0.01378*
%
%ADD39ROUNDEDRECTD39*%
%ADD40R,0.03842X0.04236*%
%ADD41R,0.05024X0.04236*%
%ADD42O,0.03449X0.02465*%
%ADD43R,0.03449X0.02465*%
%ADD44R,0.03449X0.03842*%
%ADD45R,0.01874X0.01480*%
%ADD46R,0.04899X0.01699*%
%ADD47R,0.02858X0.01677*%
%ADD48R,0.03842X0.03449*%
%ADD49R,0.01874X0.02268*%
%ADD50R,0.04433X0.06598*%
G04:AMPARAMS|DCode=51|XSize=64.02mil|YSize=26.61mil|CornerRadius=2.09mil|HoleSize=0mil|Usage=FLASHONLY|Rotation=180.000|XOffset=0mil|YOffset=0mil|HoleType=Round|Shape=RoundedRectangle|*
%AMROUNDEDRECTD51*
21,1,0.06402,0.02244,0,0,180.0*
21,1,0.05984,0.02661,0,0,180.0*
1,1,0.00417,-0.02992,0.01122*
1,1,0.00417,0.02992,0.01122*
1,1,0.00417,0.02992,-0.01122*
1,1,0.00417,-0.02992,-0.01122*
%
%ADD51ROUNDEDRECTD51*%
G04:AMPARAMS|DCode=52|XSize=64.02mil|YSize=26.61mil|CornerRadius=2.09mil|HoleSize=0mil|Usage=FLASHONLY|Rotation=90.000|XOffset=0mil|YOffset=0mil|HoleType=Round|Shape=RoundedRectangle|*
%AMROUNDEDRECTD52*
21,1,0.06402,0.02244,0,0,90.0*
21,1,0.05984,0.02661,0,0,90.0*
1,1,0.00417,0.01122,0.02992*
1,1,0.00417,0.01122,-0.02992*
1,1,0.00417,-0.01122,-0.02992*
1,1,0.00417,-0.01122,0.02992*
%
%ADD52ROUNDEDRECTD52*%
%ADD53R,0.06598X0.04433*%
%ADD54R,0.02858X0.03449*%
G04:AMPARAMS|DCode=55|XSize=81.73mil|YSize=101.42mil|CornerRadius=21.18mil|HoleSize=0mil|Usage=FLASHONLY|Rotation=0.000|XOffset=0mil|YOffset=0mil|HoleType=Round|Shape=RoundedRectangle|*
%AMROUNDEDRECTD55*
21,1,0.08173,0.05906,0,0,0.0*
21,1,0.03937,0.10142,0,0,0.0*
1,1,0.04236,0.01968,-0.02953*
1,1,0.04236,-0.01968,-0.02953*
1,1,0.04236,-0.01968,0.02953*
1,1,0.04236,0.01968,0.02953*
%
%ADD55ROUNDEDRECTD55*%
%ADD56R,0.03449X0.02858*%
%ADD57R,0.04039X0.03842*%
%ADD58R,0.09945X0.08764*%
%ADD59R,0.01874X0.02307*%
%ADD60R,0.10142X0.06992*%
%ADD61O,0.04236X0.02268*%
%ADD62O,0.05811X0.02268*%
%ADD63R,0.10535X0.04630*%
%ADD64R,0.11323X0.04630*%
G04:AMPARAMS|DCode=65|XSize=58.11mil|YSize=85.67mil|CornerRadius=15.28mil|HoleSize=0mil|Usage=FLASHONLY|Rotation=180.000|XOffset=0mil|YOffset=0mil|HoleType=Round|Shape=RoundedRectangle|*
%AMROUNDEDRECTD65*
21,1,0.05811,0.05512,0,0,180.0*
21,1,0.02756,0.08567,0,0,180.0*
1,1,0.03055,-0.01378,0.02756*
1,1,0.03055,0.01378,0.02756*
1,1,0.03055,0.01378,-0.02756*
1,1,0.03055,-0.01378,-0.02756*
%
%ADD65ROUNDEDRECTD65*%
G36*
X67421Y259429D02*
X54035D01*
Y270098D01*
X67421D01*
Y259429D01*
D02*
G37*
G36*
X53268Y213878D02*
X42598D01*
Y227264D01*
X53268D01*
Y213878D01*
D02*
G37*
G36*
X51398Y158957D02*
X40728D01*
Y172343D01*
X51398D01*
Y158957D01*
D02*
G37*
G36*
X341437Y93898D02*
X335925D01*
Y94291D01*
X332382D01*
Y96260D01*
X335925D01*
Y96654D01*
X341437D01*
Y93898D01*
D02*
G37*
G36*
X297736Y96260D02*
X301279D01*
Y94291D01*
X297736D01*
Y93898D01*
X292224D01*
Y96654D01*
X297736D01*
Y96260D01*
D02*
G37*
G36*
X34558Y108594D02*
X34569Y108594D01*
X34573Y108593D01*
X34577Y108592D01*
X34587Y108589D01*
X34598Y108586D01*
X34601Y108585D01*
X34605Y108584D01*
X34615Y108579D01*
X34624Y108574D01*
X34628Y108572D01*
X34631Y108570D01*
X34639Y108563D01*
X34648Y108556D01*
X34738Y108475D01*
X34935Y108343D01*
X35151Y108254D01*
X35384Y108207D01*
X35501Y108202D01*
X47539D01*
X47569Y108199D01*
X47597Y108190D01*
X47623Y108176D01*
X47646Y108158D01*
X47664Y108135D01*
X47678Y108109D01*
X47687Y108080D01*
X47690Y108051D01*
Y91516D01*
X47687Y91486D01*
X47678Y91458D01*
X47664Y91432D01*
X47646Y91409D01*
X47623Y91391D01*
X47597Y91377D01*
X47569Y91368D01*
X47539Y91365D01*
X35501D01*
X35384Y91360D01*
X35151Y91313D01*
X34935Y91224D01*
X34738Y91092D01*
X34648Y91011D01*
X34639Y91004D01*
X34631Y90997D01*
X34628Y90995D01*
X34624Y90993D01*
X34615Y90988D01*
X34605Y90983D01*
X34601Y90982D01*
X34598Y90980D01*
X34587Y90978D01*
X34577Y90975D01*
X34573Y90974D01*
X34569Y90973D01*
X34558Y90973D01*
X34547Y90972D01*
X33366Y90972D01*
X33337Y90975D01*
X33309Y90983D01*
X33283Y90997D01*
X33260Y91016D01*
X33241Y91039D01*
X33227Y91065D01*
X33219Y91093D01*
X33216Y91122D01*
Y108445D01*
X33219Y108474D01*
X33227Y108502D01*
X33241Y108528D01*
X33260Y108551D01*
X33283Y108570D01*
X33309Y108584D01*
X33337Y108592D01*
X33366Y108595D01*
X34547D01*
X34558Y108594D01*
D02*
G37*
G36*
X341437Y89370D02*
X335925D01*
Y89764D01*
X332382D01*
Y92126D01*
X335925D01*
Y92520D01*
X341437D01*
Y89370D01*
D02*
G37*
G36*
X297736Y92126D02*
X301279D01*
Y89764D01*
X297736D01*
Y89370D01*
X292224D01*
Y92520D01*
X297736D01*
Y92126D01*
D02*
G37*
G36*
X341437Y85039D02*
X335925D01*
Y85433D01*
X332382D01*
Y87795D01*
X335925D01*
Y88189D01*
X341437D01*
Y85039D01*
D02*
G37*
G36*
X297736Y87795D02*
X301279D01*
Y85433D01*
X297736D01*
Y85039D01*
X292224D01*
Y88189D01*
X297736D01*
Y87795D01*
D02*
G37*
G36*
X341437Y80709D02*
X335925D01*
Y81102D01*
X332382D01*
Y83465D01*
X335925D01*
Y83858D01*
X341437D01*
Y80709D01*
D02*
G37*
G36*
X297736Y83465D02*
X301279D01*
Y81102D01*
X297736D01*
Y80709D01*
X292224D01*
Y83858D01*
X297736D01*
Y83465D01*
D02*
G37*
G36*
X341437Y76378D02*
X335925D01*
Y76772D01*
X332382D01*
Y79134D01*
X335925D01*
Y79528D01*
X341437D01*
Y76378D01*
D02*
G37*
G36*
X297736Y79134D02*
X301279D01*
Y76772D01*
X297736D01*
Y76378D01*
X292224D01*
Y79528D01*
X297736D01*
Y79134D01*
D02*
G37*
G36*
X341437Y72047D02*
X335925D01*
Y72441D01*
X332382D01*
Y74803D01*
X335925D01*
Y75197D01*
X341437D01*
Y72047D01*
D02*
G37*
G36*
X297736Y74803D02*
X301279D01*
Y72441D01*
X297736D01*
Y72047D01*
X292224D01*
Y75197D01*
X297736D01*
Y74803D01*
D02*
G37*
G36*
X341437Y67717D02*
X335925D01*
Y68110D01*
X332382D01*
Y70473D01*
X335925D01*
Y70866D01*
X341437D01*
Y67717D01*
D02*
G37*
G36*
X297736Y70473D02*
X301279D01*
Y68110D01*
X297736D01*
Y67717D01*
X292224D01*
Y70866D01*
X297736D01*
Y70473D01*
D02*
G37*
G36*
X341437Y63386D02*
X335925D01*
Y63780D01*
X332382D01*
Y66142D01*
X335925D01*
Y66536D01*
X341437D01*
Y63386D01*
D02*
G37*
G36*
X297736Y66142D02*
X301279D01*
Y63780D01*
X297736D01*
Y63386D01*
X292224D01*
Y66536D01*
X297736D01*
Y66142D01*
D02*
G37*
G36*
X341437Y59252D02*
X335925D01*
Y59646D01*
X332382D01*
Y61614D01*
X335925D01*
Y62008D01*
X341437D01*
Y59252D01*
D02*
G37*
G36*
X297736Y61614D02*
X301279D01*
Y59646D01*
X297736D01*
Y59252D01*
X292224D01*
Y62008D01*
X297736D01*
Y61614D01*
D02*
G37*
D21*
X201772Y90158D02*
D03*
X199803D02*
D03*
X197835D02*
D03*
X195866D02*
D03*
X193898D02*
D03*
X191929D02*
D03*
X189961D02*
D03*
X187992D02*
D03*
X186024D02*
D03*
X184055D02*
D03*
X182087D02*
D03*
X180118D02*
D03*
Y58465D02*
D03*
X182087D02*
D03*
X184055D02*
D03*
X186024D02*
D03*
X187992D02*
D03*
X189961D02*
D03*
X191929D02*
D03*
X193898D02*
D03*
X195866D02*
D03*
X197835D02*
D03*
X199803D02*
D03*
X201772D02*
D03*
D22*
X175098Y85138D02*
D03*
Y83169D02*
D03*
Y81201D02*
D03*
Y79232D02*
D03*
Y77264D02*
D03*
Y75295D02*
D03*
Y73327D02*
D03*
Y71358D02*
D03*
Y69390D02*
D03*
Y67421D02*
D03*
Y65453D02*
D03*
Y63484D02*
D03*
X206791D02*
D03*
Y65453D02*
D03*
Y67421D02*
D03*
Y69390D02*
D03*
Y71358D02*
D03*
Y73327D02*
D03*
Y75295D02*
D03*
Y77264D02*
D03*
Y79232D02*
D03*
Y81201D02*
D03*
Y83169D02*
D03*
Y85138D02*
D03*
D23*
X259646Y252559D02*
D03*
X263583D02*
D03*
X174016Y184744D02*
D03*
X170079D02*
D03*
X368307Y73524D02*
D03*
X364370D02*
D03*
X77854Y253051D02*
D03*
X73917D02*
D03*
D24*
X311811Y254134D02*
D03*
Y248819D02*
D03*
X339272Y232480D02*
D03*
Y227165D02*
D03*
X58366Y136516D02*
D03*
Y141831D02*
D03*
X129232Y145177D02*
D03*
Y150492D02*
D03*
X121752Y145177D02*
D03*
Y150492D02*
D03*
X74409Y136516D02*
D03*
Y141831D02*
D03*
D25*
X278248Y255118D02*
D03*
Y252559D02*
D03*
Y250000D02*
D03*
Y247441D02*
D03*
Y244882D02*
D03*
Y242323D02*
D03*
Y239764D02*
D03*
X300492D02*
D03*
Y242323D02*
D03*
Y244882D02*
D03*
Y247441D02*
D03*
Y250000D02*
D03*
Y252559D02*
D03*
Y255118D02*
D03*
D26*
X270374Y261909D02*
D03*
Y257972D02*
D03*
X60532Y238484D02*
D03*
Y234547D02*
D03*
X215650Y77658D02*
D03*
Y81595D02*
D03*
X59153Y184055D02*
D03*
Y180118D02*
D03*
D27*
X306102Y248957D02*
D03*
Y252421D02*
D03*
X166043Y62539D02*
D03*
Y66004D02*
D03*
X303937Y178110D02*
D03*
Y174646D02*
D03*
X298622Y178012D02*
D03*
Y174547D02*
D03*
X182972Y147776D02*
D03*
Y151240D02*
D03*
X175886Y204587D02*
D03*
Y201122D02*
D03*
X191240Y224764D02*
D03*
Y221299D02*
D03*
X197244Y224921D02*
D03*
Y221457D02*
D03*
X203051Y224665D02*
D03*
Y221201D02*
D03*
D28*
X412402Y59153D02*
D03*
X412992Y122047D02*
D03*
D29*
X412402Y76407D02*
D03*
Y41898D02*
D03*
X412992Y139301D02*
D03*
Y104791D02*
D03*
D30*
X378150Y122047D02*
D03*
X367126D02*
D03*
D31*
X338898Y165770D02*
D03*
X333898D02*
D03*
X328898D02*
D03*
X323898D02*
D03*
X318898D02*
D03*
X313898D02*
D03*
X308898D02*
D03*
X303898D02*
D03*
X298898D02*
D03*
Y106670D02*
D03*
X303898D02*
D03*
X308898D02*
D03*
X313898D02*
D03*
X318898D02*
D03*
X323898D02*
D03*
X328898D02*
D03*
X333898D02*
D03*
X338898D02*
D03*
D32*
X174409Y117913D02*
D03*
X211811D02*
D03*
X230709Y246949D02*
D03*
X193307D02*
D03*
D33*
X243504Y206594D02*
D03*
Y204626D02*
D03*
Y202658D02*
D03*
Y200689D02*
D03*
Y198721D02*
D03*
Y196752D02*
D03*
Y194783D02*
D03*
Y192815D02*
D03*
Y190847D02*
D03*
Y188878D02*
D03*
Y186909D02*
D03*
Y184941D02*
D03*
Y182973D02*
D03*
Y181004D02*
D03*
Y179035D02*
D03*
Y177067D02*
D03*
Y175099D02*
D03*
Y173130D02*
D03*
Y171161D02*
D03*
Y169193D02*
D03*
Y167224D02*
D03*
Y165256D02*
D03*
Y163287D02*
D03*
Y161319D02*
D03*
Y159350D02*
D03*
X184055D02*
D03*
Y161319D02*
D03*
Y163287D02*
D03*
Y165256D02*
D03*
Y167224D02*
D03*
Y169193D02*
D03*
Y171161D02*
D03*
Y173130D02*
D03*
Y175099D02*
D03*
Y177067D02*
D03*
Y179035D02*
D03*
Y181004D02*
D03*
Y182973D02*
D03*
Y184941D02*
D03*
Y186909D02*
D03*
Y188878D02*
D03*
Y190847D02*
D03*
Y192815D02*
D03*
Y194783D02*
D03*
Y196752D02*
D03*
Y198721D02*
D03*
Y200689D02*
D03*
Y202658D02*
D03*
Y204626D02*
D03*
Y206594D02*
D03*
D34*
X237402Y153248D02*
D03*
X235433D02*
D03*
X233465D02*
D03*
X231496D02*
D03*
X229528D02*
D03*
X227559D02*
D03*
X225590D02*
D03*
X223622D02*
D03*
X221654D02*
D03*
X219685D02*
D03*
X217717D02*
D03*
X215748D02*
D03*
X213779D02*
D03*
X211811D02*
D03*
X209842D02*
D03*
X207874D02*
D03*
X205906D02*
D03*
X203937D02*
D03*
X201969D02*
D03*
X200000D02*
D03*
X198031D02*
D03*
X196063D02*
D03*
X194095D02*
D03*
X192126D02*
D03*
X190157D02*
D03*
Y212697D02*
D03*
X192126D02*
D03*
X194095D02*
D03*
X196063D02*
D03*
X198031D02*
D03*
X200000D02*
D03*
X201969D02*
D03*
X203937D02*
D03*
X205906D02*
D03*
X207874D02*
D03*
X209842D02*
D03*
X211811D02*
D03*
X213779D02*
D03*
X215748D02*
D03*
X217717D02*
D03*
X219685D02*
D03*
X221654D02*
D03*
X223622D02*
D03*
X225590D02*
D03*
X227559D02*
D03*
X229528D02*
D03*
X231496D02*
D03*
X233465D02*
D03*
X235433D02*
D03*
X237402D02*
D03*
D35*
X183307Y98228D02*
D03*
X186772D02*
D03*
X361811Y58662D02*
D03*
X358347D02*
D03*
X352756Y58760D02*
D03*
X349291D02*
D03*
X285472Y69488D02*
D03*
X288937D02*
D03*
X285472Y64272D02*
D03*
X288937D02*
D03*
X222992Y222146D02*
D03*
X219528D02*
D03*
X233681Y222638D02*
D03*
X230217D02*
D03*
X209547Y275787D02*
D03*
X206083D02*
D03*
D36*
X192815Y31299D02*
D03*
X195965D02*
D03*
X189665D02*
D03*
X199114D02*
D03*
X202264D02*
D03*
D37*
X110925Y145079D02*
D03*
D38*
X86122Y136024D02*
D03*
Y145079D02*
D03*
Y154134D02*
D03*
D39*
X195177Y294587D02*
D03*
Y276870D02*
D03*
X159350D02*
D03*
Y294587D02*
D03*
D40*
X41732Y248721D02*
D03*
X36417D02*
D03*
X76968Y260827D02*
D03*
X82284D02*
D03*
X40551Y180512D02*
D03*
X35236D02*
D03*
X40945Y194685D02*
D03*
X35630D02*
D03*
X41732Y235138D02*
D03*
X36417D02*
D03*
X82087Y274902D02*
D03*
X76772D02*
D03*
D41*
X310728Y175295D02*
D03*
Y183169D02*
D03*
X331693Y227362D02*
D03*
Y235236D02*
D03*
D42*
X357874Y80807D02*
D03*
Y77067D02*
D03*
Y73327D02*
D03*
X348425D02*
D03*
Y77067D02*
D03*
D43*
Y80807D02*
D03*
D44*
X367520Y67815D02*
D03*
X372441D02*
D03*
X75689Y102362D02*
D03*
Y109055D02*
D03*
D45*
X355512Y90650D02*
D03*
X359055D02*
D03*
X209744Y270374D02*
D03*
X206201D02*
D03*
D46*
X372309Y90904D02*
D03*
Y93504D02*
D03*
Y96104D02*
D03*
X364109D02*
D03*
Y93504D02*
D03*
Y90904D02*
D03*
D47*
X367520Y58661D02*
D03*
Y62008D02*
D03*
D48*
X348327Y65551D02*
D03*
X355020D02*
D03*
D49*
X288681Y74508D02*
D03*
X285531D02*
D03*
D50*
X91339Y283760D02*
D03*
X79724D02*
D03*
X26870Y248819D02*
D03*
X15256D02*
D03*
X75886Y93405D02*
D03*
X64272D02*
D03*
X75787Y81791D02*
D03*
X64173D02*
D03*
X75886Y69882D02*
D03*
X64272D02*
D03*
X96260Y91339D02*
D03*
X107874D02*
D03*
X95965Y80413D02*
D03*
X107579D02*
D03*
X95768Y69390D02*
D03*
X107382D02*
D03*
D51*
X35433Y158150D02*
D03*
Y163150D02*
D03*
Y168150D02*
D03*
Y173150D02*
D03*
X56693D02*
D03*
Y168150D02*
D03*
Y163150D02*
D03*
Y158150D02*
D03*
X37303Y213071D02*
D03*
Y218071D02*
D03*
Y223071D02*
D03*
Y228071D02*
D03*
X58563D02*
D03*
Y223071D02*
D03*
Y218071D02*
D03*
Y213071D02*
D03*
D52*
X53228Y275394D02*
D03*
X58228D02*
D03*
X63228D02*
D03*
X68228D02*
D03*
Y254134D02*
D03*
X63228D02*
D03*
X58228D02*
D03*
X53228D02*
D03*
D53*
X24705Y197244D02*
D03*
Y185630D02*
D03*
D54*
X35335Y187598D02*
D03*
X40650D02*
D03*
X36122Y242028D02*
D03*
X41437D02*
D03*
X76673Y267815D02*
D03*
X81988D02*
D03*
D55*
X178445Y30925D02*
D03*
Y9469D02*
D03*
X213484D02*
D03*
Y30925D02*
D03*
D56*
X66929Y141831D02*
D03*
Y136516D02*
D03*
X136614Y150197D02*
D03*
Y144882D02*
D03*
D57*
X144193Y145622D02*
D03*
Y158024D02*
D03*
D58*
X71358Y123228D02*
D03*
X54429D02*
D03*
D59*
X63976Y102854D02*
D03*
X67913D02*
D03*
X65945Y107972D02*
D03*
D60*
X115059Y104626D02*
D03*
X99311D02*
D03*
D61*
X55610Y92283D02*
D03*
Y97284D02*
D03*
Y102284D02*
D03*
Y107283D02*
D03*
D62*
X32382D02*
D03*
Y102284D02*
D03*
Y97284D02*
D03*
Y92283D02*
D03*
D63*
X410236Y242815D02*
D03*
Y234941D02*
D03*
Y227067D02*
D03*
Y219193D02*
D03*
Y211319D02*
D03*
Y203445D02*
D03*
Y195571D02*
D03*
Y187697D02*
D03*
X349606D02*
D03*
Y195571D02*
D03*
Y203445D02*
D03*
Y211319D02*
D03*
Y219193D02*
D03*
Y227067D02*
D03*
Y234941D02*
D03*
D64*
X350000Y242815D02*
D03*
D65*
X238484Y92913D02*
D03*
X256201D02*
D03*
Y57087D02*
D03*
X238484D02*
D03*
M02*
