G04*
G04 #@! TF.GenerationSoftware,Altium Limited,Altium Designer,24.10.1 (45)*
G04*
G04 Layer_Physical_Order=1*
G04 Layer_Color=255*
%FSLAX25Y25*%
%MOIN*%
G70*
G04*
G04 #@! TF.SameCoordinates,9D620B6C-925D-48BC-BBC5-478D005D5007*
G04*
G04*
G04 #@! TF.FilePolarity,Positive*
G04*
G01*
G75*
%ADD22R,0.03700X0.06300*%
%ADD82R,0.19685X0.09016*%
%ADD83R,0.20000X0.09508*%
%ADD84R,0.04724X0.06496*%
%ADD85R,0.21654X0.07874*%
%ADD86R,0.02362X0.01968*%
%ADD87R,0.07087X0.02756*%
%ADD88R,0.07087X0.03150*%
%ADD89O,0.07087X0.01181*%
%ADD90O,0.01181X0.07087*%
%ADD91R,0.01181X0.06693*%
%ADD92R,0.06693X0.01181*%
%ADD93R,0.02362X0.02520*%
%ADD94R,0.01968X0.08858*%
%ADD95R,0.02520X0.02362*%
%ADD96R,0.01968X0.02362*%
%ADD97R,0.07874X0.14961*%
%ADD98R,0.07874X0.05906*%
G04:AMPARAMS|DCode=99|XSize=55.12mil|YSize=82.68mil|CornerRadius=13.78mil|HoleSize=0mil|Usage=FLASHONLY|Rotation=90.000|XOffset=0mil|YOffset=0mil|HoleType=Round|Shape=RoundedRectangle|*
%AMROUNDEDRECTD99*
21,1,0.05512,0.05512,0,0,90.0*
21,1,0.02756,0.08268,0,0,90.0*
1,1,0.02756,0.02756,0.01378*
1,1,0.02756,0.02756,-0.01378*
1,1,0.02756,-0.02756,-0.01378*
1,1,0.02756,-0.02756,0.01378*
%
%ADD99ROUNDEDRECTD99*%
%ADD100R,0.03543X0.03937*%
%ADD101R,0.02657X0.00984*%
%ADD102R,0.00984X0.02264*%
%ADD103R,0.05512X0.02953*%
%ADD104R,0.04724X0.03937*%
%ADD105R,0.03937X0.03543*%
%ADD106O,0.03150X0.02165*%
%ADD107R,0.03150X0.02165*%
%ADD108R,0.03150X0.03543*%
%ADD109R,0.01575X0.01181*%
%ADD110R,0.04600X0.01400*%
%ADD111R,0.02559X0.01378*%
%ADD112R,0.03543X0.03150*%
%ADD113R,0.01575X0.01968*%
%ADD114R,0.04134X0.06299*%
%ADD115R,0.11614X0.19291*%
G04:AMPARAMS|DCode=116|XSize=61.02mil|YSize=23.62mil|CornerRadius=0.59mil|HoleSize=0mil|Usage=FLASHONLY|Rotation=180.000|XOffset=0mil|YOffset=0mil|HoleType=Round|Shape=RoundedRectangle|*
%AMROUNDEDRECTD116*
21,1,0.06102,0.02244,0,0,180.0*
21,1,0.05984,0.02362,0,0,180.0*
1,1,0.00118,-0.02992,0.01122*
1,1,0.00118,0.02992,0.01122*
1,1,0.00118,0.02992,-0.01122*
1,1,0.00118,-0.02992,-0.01122*
%
%ADD116ROUNDEDRECTD116*%
%ADD117R,0.19291X0.11614*%
G04:AMPARAMS|DCode=118|XSize=61.02mil|YSize=23.62mil|CornerRadius=0.59mil|HoleSize=0mil|Usage=FLASHONLY|Rotation=90.000|XOffset=0mil|YOffset=0mil|HoleType=Round|Shape=RoundedRectangle|*
%AMROUNDEDRECTD118*
21,1,0.06102,0.02244,0,0,90.0*
21,1,0.05984,0.02362,0,0,90.0*
1,1,0.00118,0.01122,0.02992*
1,1,0.00118,0.01122,-0.02992*
1,1,0.00118,-0.01122,-0.02992*
1,1,0.00118,-0.01122,0.02992*
%
%ADD118ROUNDEDRECTD118*%
%ADD119R,0.06299X0.04134*%
%ADD120R,0.02559X0.03150*%
G04:AMPARAMS|DCode=121|XSize=78.74mil|YSize=98.43mil|CornerRadius=19.68mil|HoleSize=0mil|Usage=FLASHONLY|Rotation=0.000|XOffset=0mil|YOffset=0mil|HoleType=Round|Shape=RoundedRectangle|*
%AMROUNDEDRECTD121*
21,1,0.07874,0.05906,0,0,0.0*
21,1,0.03937,0.09843,0,0,0.0*
1,1,0.03937,0.01968,-0.02953*
1,1,0.03937,-0.01968,-0.02953*
1,1,0.03937,-0.01968,0.02953*
1,1,0.03937,0.01968,0.02953*
%
%ADD121ROUNDEDRECTD121*%
%ADD122R,0.03150X0.02559*%
%ADD123R,0.03740X0.03543*%
%ADD124R,0.09646X0.08465*%
%ADD125R,0.01575X0.02008*%
%ADD126R,0.09843X0.06693*%
%ADD127O,0.03937X0.01968*%
%ADD128O,0.05512X0.01968*%
%ADD129R,0.10236X0.04331*%
%ADD130R,0.11024X0.04331*%
G04:AMPARAMS|DCode=131|XSize=55.12mil|YSize=82.68mil|CornerRadius=13.78mil|HoleSize=0mil|Usage=FLASHONLY|Rotation=180.000|XOffset=0mil|YOffset=0mil|HoleType=Round|Shape=RoundedRectangle|*
%AMROUNDEDRECTD131*
21,1,0.05512,0.05512,0,0,180.0*
21,1,0.02756,0.08268,0,0,180.0*
1,1,0.02756,-0.01378,0.02756*
1,1,0.02756,0.01378,0.02756*
1,1,0.02756,0.01378,-0.02756*
1,1,0.02756,-0.01378,-0.02756*
%
%ADD131ROUNDEDRECTD131*%
%ADD132C,0.01000*%
%ADD133C,0.04000*%
%ADD134C,0.02800*%
%ADD135C,0.03000*%
%ADD136C,0.05000*%
%ADD137C,0.02000*%
%ADD138C,0.00435*%
%ADD139C,0.07874*%
%ADD140O,0.05118X0.10236*%
%ADD141C,0.19354*%
%ADD142R,0.19354X0.19354*%
%ADD143C,0.19685*%
%ADD144C,0.08661*%
%ADD145O,0.07874X0.11811*%
%ADD146C,0.01181*%
%ADD147C,0.03543*%
%ADD148C,0.02362*%
%ADD149C,0.03150*%
%ADD150C,0.01575*%
%ADD151C,0.01968*%
G36*
X202439Y295494D02*
Y287774D01*
X200000Y285335D01*
X145768D01*
X144193Y283760D01*
Y280512D01*
X142815Y279134D01*
X138386D01*
X137008Y280512D01*
Y284646D01*
Y290158D01*
X145079Y298228D01*
X199705D01*
X202439Y295494D01*
D02*
G37*
G36*
X207776Y277658D02*
Y277638D01*
Y273937D01*
Y268996D01*
X207874Y268898D01*
X207283Y268307D01*
X204429D01*
X203543Y269193D01*
Y271063D01*
X202165Y272441D01*
X156299D01*
X153937Y274803D01*
Y279921D01*
X155413Y281398D01*
X204035D01*
X207776Y277658D01*
D02*
G37*
G36*
X87161Y290305D02*
Y285586D01*
X79331Y277756D01*
Y258366D01*
X79429Y258268D01*
X78248Y257087D01*
X74508D01*
X73228Y258366D01*
Y270079D01*
X71850Y271457D01*
X66535D01*
X65945Y272047D01*
Y278445D01*
X66634Y279134D01*
X74606D01*
X76181Y280709D01*
Y288484D01*
X76181Y296654D01*
X87161D01*
Y290305D01*
D02*
G37*
G36*
X356791Y245768D02*
Y234744D01*
X353839Y231791D01*
X331594D01*
X328150Y235236D01*
Y238583D01*
X328051Y238779D01*
Y242815D01*
X331988Y246752D01*
X355807D01*
X356791Y245768D01*
D02*
G37*
G36*
X39272Y231398D02*
X41535Y229134D01*
Y226181D01*
X40748Y225394D01*
X34252D01*
X32185Y227461D01*
X32185Y236811D01*
X24114Y244882D01*
Y261221D01*
X39272D01*
Y231398D01*
D02*
G37*
G36*
X356693Y228051D02*
Y224410D01*
X355906Y223622D01*
X319390D01*
Y229823D01*
X354921D01*
X356693Y228051D01*
D02*
G37*
G36*
X189390Y223130D02*
Y222992D01*
X193091D01*
Y223130D01*
X201201Y223130D01*
Y222894D01*
X204902D01*
Y222894D01*
X205259Y222792D01*
X205709Y222342D01*
Y219094D01*
X204921Y218307D01*
X202869D01*
X202884Y216199D01*
X202824Y216110D01*
X202733Y215650D01*
Y210608D01*
X202333Y210320D01*
X201204Y210325D01*
Y215650D01*
X201181Y215766D01*
Y218307D01*
X199508D01*
X198819Y217618D01*
Y215766D01*
X198796Y215650D01*
Y210312D01*
X198327Y209842D01*
X195866D01*
X195299Y210410D01*
Y215650D01*
X195276Y215766D01*
Y216929D01*
X193701Y218504D01*
X182185D01*
Y223130D01*
X189390D01*
D02*
G37*
G36*
X38189Y200984D02*
Y183071D01*
X38189D01*
Y177953D01*
X38189D01*
Y176476D01*
X39469Y175197D01*
Y171850D01*
X38189Y170571D01*
X32382D01*
X30217Y172736D01*
Y191043D01*
X27362Y193898D01*
X19882D01*
X18110Y195669D01*
Y199016D01*
X20079Y200984D01*
X26083D01*
Y206201D01*
X38189D01*
Y200984D01*
D02*
G37*
G36*
X315551Y176279D02*
Y173031D01*
X313976Y171457D01*
X302854D01*
X301279Y169882D01*
Y162598D01*
X292815Y162598D01*
X290650Y164764D01*
Y173524D01*
X293209Y176083D01*
X306004D01*
X308366Y178445D01*
X313386D01*
X315551Y176279D01*
D02*
G37*
G36*
X62795Y158760D02*
X90847D01*
X91535Y158071D01*
Y152953D01*
X89862Y151279D01*
X80512D01*
X77953Y148721D01*
X77953Y141043D01*
X76378Y139469D01*
X55315D01*
X52756Y142027D01*
Y159153D01*
Y159449D01*
X53445Y160138D01*
X61417D01*
X62795Y158760D01*
D02*
G37*
G36*
X117520Y151870D02*
Y148721D01*
X118405Y147835D01*
X140551D01*
X141831Y149114D01*
X146653D01*
X148622Y147146D01*
Y137402D01*
X146161Y134941D01*
X115256Y134941D01*
X105315D01*
X99606Y140650D01*
X82382D01*
X81004Y142028D01*
Y144488D01*
Y148130D01*
X82382Y149508D01*
X98425D01*
X103150Y154232D01*
X115157D01*
X117520Y151870D01*
D02*
G37*
G36*
X61221Y126083D02*
Y113681D01*
X62303Y112598D01*
X78150D01*
X79232Y111516D01*
Y107382D01*
X78776Y106925D01*
X74016D01*
X73626Y106848D01*
X73394Y106693D01*
X69390D01*
X68701Y106004D01*
X53347D01*
X48425Y110925D01*
Y116339D01*
X36909D01*
Y130709D01*
X56595D01*
X61221Y126083D01*
D02*
G37*
G36*
X65553Y103738D02*
Y101179D01*
X65261Y100886D01*
X59257Y100881D01*
X59252Y100886D01*
X58366Y100000D01*
Y91339D01*
X57284Y90256D01*
X54035D01*
X52658Y91634D01*
Y103051D01*
X54134Y104528D01*
X64764D01*
X65553Y103738D01*
D02*
G37*
G36*
X34645Y108356D02*
X34864Y108210D01*
X35107Y108109D01*
X35366Y108058D01*
X35498Y108051D01*
X47539D01*
Y91516D01*
X35498D01*
X35366Y91509D01*
X35107Y91458D01*
X34864Y91357D01*
X34645Y91211D01*
X34547Y91122D01*
X33366Y91122D01*
Y108445D01*
X34547D01*
X34645Y108356D01*
D02*
G37*
G36*
X121850Y107579D02*
Y67913D01*
X117520Y63583D01*
X106398D01*
X104724Y65256D01*
Y94488D01*
X108957Y98721D01*
Y108661D01*
X110236Y109941D01*
X119488D01*
X121850Y107579D01*
D02*
G37*
G36*
X290945Y75492D02*
Y72342D01*
X292028Y71260D01*
X309941D01*
Y62697D01*
X287402D01*
X287244Y62907D01*
Y66122D01*
X287106D01*
Y67638D01*
X287244D01*
Y71339D01*
X287106D01*
Y74902D01*
Y75689D01*
X287500Y76083D01*
X290354D01*
X290945Y75492D01*
D02*
G37*
G36*
X105118Y107972D02*
Y98032D01*
X101575Y94488D01*
Y45276D01*
X94882Y38583D01*
X77559D01*
X71653Y44488D01*
Y103543D01*
X74016Y105905D01*
X88583D01*
X92913Y110236D01*
X102854D01*
X105118Y107972D01*
D02*
G37*
G36*
X182776Y34941D02*
Y15650D01*
X207677D01*
X209449Y17421D01*
Y22244D01*
X206890Y24803D01*
X199705Y24803D01*
X197736Y26772D01*
Y35827D01*
X198425Y36516D01*
X216142D01*
X218307Y34350D01*
Y8858D01*
X215748Y6299D01*
X175492D01*
X172638Y9154D01*
Y36811D01*
X180905D01*
X182776Y34941D01*
D02*
G37*
D22*
X338898Y165770D02*
D03*
X333898D02*
D03*
X328898D02*
D03*
X323898D02*
D03*
X318898D02*
D03*
X313898D02*
D03*
X308898D02*
D03*
X303898D02*
D03*
X298898D02*
D03*
Y106670D02*
D03*
X303898D02*
D03*
X308898D02*
D03*
X313898D02*
D03*
X318898D02*
D03*
X323898D02*
D03*
X328898D02*
D03*
X333898D02*
D03*
X338898D02*
D03*
D82*
X412402Y59153D02*
D03*
X412992Y122047D02*
D03*
D83*
X412402Y76407D02*
D03*
Y41898D02*
D03*
X412992Y139301D02*
D03*
Y104791D02*
D03*
D84*
X378150Y122047D02*
D03*
X367126D02*
D03*
D85*
X174409Y117913D02*
D03*
X211811D02*
D03*
X230709Y246949D02*
D03*
X193307D02*
D03*
D86*
X287106Y232776D02*
D03*
Y228839D02*
D03*
X292224Y232874D02*
D03*
Y228937D02*
D03*
X60532Y238484D02*
D03*
Y234547D02*
D03*
X215650Y77658D02*
D03*
Y81595D02*
D03*
X59153Y184055D02*
D03*
Y180118D02*
D03*
D87*
X335531Y95276D02*
D03*
Y60630D02*
D03*
X298130D02*
D03*
Y95276D02*
D03*
D88*
X335531Y90945D02*
D03*
Y86614D02*
D03*
Y82284D02*
D03*
Y77953D02*
D03*
Y73622D02*
D03*
Y69291D02*
D03*
Y64961D02*
D03*
X298130D02*
D03*
Y69291D02*
D03*
Y73622D02*
D03*
Y77953D02*
D03*
Y82284D02*
D03*
Y86614D02*
D03*
Y90945D02*
D03*
D89*
X243504Y206594D02*
D03*
Y204626D02*
D03*
Y202658D02*
D03*
Y200689D02*
D03*
Y198721D02*
D03*
Y196752D02*
D03*
Y194783D02*
D03*
Y192815D02*
D03*
Y190847D02*
D03*
Y188878D02*
D03*
Y186909D02*
D03*
Y184941D02*
D03*
Y182973D02*
D03*
Y181004D02*
D03*
Y179035D02*
D03*
Y177067D02*
D03*
Y175099D02*
D03*
Y173130D02*
D03*
Y171161D02*
D03*
Y169193D02*
D03*
Y167224D02*
D03*
Y165256D02*
D03*
Y163287D02*
D03*
Y161319D02*
D03*
Y159350D02*
D03*
X184055D02*
D03*
Y161319D02*
D03*
Y163287D02*
D03*
Y165256D02*
D03*
Y167224D02*
D03*
Y169193D02*
D03*
Y171161D02*
D03*
Y173130D02*
D03*
Y175099D02*
D03*
Y177067D02*
D03*
Y179035D02*
D03*
Y181004D02*
D03*
Y182973D02*
D03*
Y184941D02*
D03*
Y186909D02*
D03*
Y188878D02*
D03*
Y190847D02*
D03*
Y192815D02*
D03*
Y194783D02*
D03*
Y196752D02*
D03*
Y198721D02*
D03*
Y200689D02*
D03*
Y202658D02*
D03*
Y204626D02*
D03*
Y206594D02*
D03*
D90*
X237402Y153248D02*
D03*
X235433D02*
D03*
X233465D02*
D03*
X231496D02*
D03*
X229528D02*
D03*
X227559D02*
D03*
X225590D02*
D03*
X223622D02*
D03*
X221654D02*
D03*
X219685D02*
D03*
X217717D02*
D03*
X215748D02*
D03*
X213779D02*
D03*
X211811D02*
D03*
X209842D02*
D03*
X207874D02*
D03*
X205906D02*
D03*
X203937D02*
D03*
X201969D02*
D03*
X200000D02*
D03*
X198031D02*
D03*
X196063D02*
D03*
X194095D02*
D03*
X192126D02*
D03*
X190157D02*
D03*
Y212697D02*
D03*
X192126D02*
D03*
X194095D02*
D03*
X196063D02*
D03*
X198031D02*
D03*
X200000D02*
D03*
X201969D02*
D03*
X203937D02*
D03*
X205906D02*
D03*
X207874D02*
D03*
X209842D02*
D03*
X211811D02*
D03*
X213779D02*
D03*
X215748D02*
D03*
X217717D02*
D03*
X219685D02*
D03*
X221654D02*
D03*
X223622D02*
D03*
X225590D02*
D03*
X227559D02*
D03*
X229528D02*
D03*
X231496D02*
D03*
X233465D02*
D03*
X235433D02*
D03*
X237402D02*
D03*
D91*
X201772Y90799D02*
D03*
X199803D02*
D03*
X197835D02*
D03*
X195866D02*
D03*
X193898D02*
D03*
X191929D02*
D03*
X189961D02*
D03*
X187992D02*
D03*
X186024D02*
D03*
X184055D02*
D03*
X182087D02*
D03*
X180118D02*
D03*
Y57429D02*
D03*
X182087D02*
D03*
X184055D02*
D03*
X186024D02*
D03*
X187992D02*
D03*
X189961D02*
D03*
X191929D02*
D03*
X193898D02*
D03*
X195866D02*
D03*
X197835D02*
D03*
X199803D02*
D03*
X201772D02*
D03*
D92*
X174260Y84941D02*
D03*
Y82973D02*
D03*
Y81004D02*
D03*
Y79036D02*
D03*
Y77067D02*
D03*
Y75098D02*
D03*
Y73130D02*
D03*
Y71161D02*
D03*
Y69193D02*
D03*
Y67224D02*
D03*
Y65256D02*
D03*
Y63287D02*
D03*
X207630D02*
D03*
Y65256D02*
D03*
Y67224D02*
D03*
Y69193D02*
D03*
Y71161D02*
D03*
Y73130D02*
D03*
Y75098D02*
D03*
Y77067D02*
D03*
Y79036D02*
D03*
Y81004D02*
D03*
Y82973D02*
D03*
Y84941D02*
D03*
D93*
X183307Y98228D02*
D03*
X186772D02*
D03*
X267657Y252953D02*
D03*
X271122D02*
D03*
X299567Y258957D02*
D03*
X296102D02*
D03*
X361811Y58662D02*
D03*
X358347D02*
D03*
X352756Y58760D02*
D03*
X349291D02*
D03*
X285472Y69488D02*
D03*
X288937D02*
D03*
X285472Y64272D02*
D03*
X288937D02*
D03*
X222992Y222146D02*
D03*
X219528D02*
D03*
X233681Y222638D02*
D03*
X230217D02*
D03*
X209547Y275787D02*
D03*
X206083D02*
D03*
D94*
X192815Y31299D02*
D03*
X195965D02*
D03*
X189665D02*
D03*
X199114D02*
D03*
X202264D02*
D03*
D95*
X166043Y62539D02*
D03*
Y66004D02*
D03*
X286122Y267087D02*
D03*
Y263622D02*
D03*
X303937Y178110D02*
D03*
Y174646D02*
D03*
X298622Y178012D02*
D03*
Y174547D02*
D03*
X182972Y147776D02*
D03*
Y151240D02*
D03*
X175886Y204587D02*
D03*
Y201122D02*
D03*
X191240Y224764D02*
D03*
Y221299D02*
D03*
X197244Y224921D02*
D03*
Y221457D02*
D03*
X203051Y224665D02*
D03*
Y221201D02*
D03*
D96*
X174016Y184744D02*
D03*
X170079D02*
D03*
X368307Y73524D02*
D03*
X364370D02*
D03*
X77854Y253051D02*
D03*
X73917D02*
D03*
D97*
X110925Y145079D02*
D03*
D98*
X86122Y136024D02*
D03*
Y145079D02*
D03*
Y154134D02*
D03*
D99*
X195177Y294587D02*
D03*
Y276870D02*
D03*
X159350D02*
D03*
Y294587D02*
D03*
D100*
X41732Y248721D02*
D03*
X36417D02*
D03*
X312500Y246752D02*
D03*
X307185D02*
D03*
X312205Y253839D02*
D03*
X306890D02*
D03*
X76968Y260827D02*
D03*
X82284D02*
D03*
X40551Y180512D02*
D03*
X35236D02*
D03*
X40945Y194685D02*
D03*
X35630D02*
D03*
X41732Y235138D02*
D03*
X36417D02*
D03*
X82087Y274902D02*
D03*
X76772D02*
D03*
D101*
X289272Y256102D02*
D03*
Y254134D02*
D03*
Y252165D02*
D03*
Y250197D02*
D03*
Y248228D02*
D03*
Y246260D02*
D03*
Y244291D02*
D03*
Y242323D02*
D03*
Y240354D02*
D03*
X276969D02*
D03*
Y242323D02*
D03*
Y244291D02*
D03*
Y246260D02*
D03*
Y248228D02*
D03*
Y250197D02*
D03*
Y252165D02*
D03*
Y254134D02*
D03*
Y256102D02*
D03*
Y258071D02*
D03*
X289272D02*
D03*
D102*
X286073Y240108D02*
D03*
X284104D02*
D03*
X282136D02*
D03*
X280167D02*
D03*
Y258317D02*
D03*
X282136D02*
D03*
X284104D02*
D03*
X286073D02*
D03*
D103*
X298130Y252264D02*
D03*
Y246555D02*
D03*
D104*
X310728Y175295D02*
D03*
Y183169D02*
D03*
X331693Y227362D02*
D03*
Y235236D02*
D03*
D105*
X339272Y232480D02*
D03*
Y227165D02*
D03*
X58366Y136516D02*
D03*
Y141831D02*
D03*
X129232Y145177D02*
D03*
Y150492D02*
D03*
X121752Y145177D02*
D03*
Y150492D02*
D03*
X74409Y136516D02*
D03*
Y141831D02*
D03*
D106*
X357874Y80807D02*
D03*
Y77067D02*
D03*
Y73327D02*
D03*
X348425D02*
D03*
Y77067D02*
D03*
D107*
Y80807D02*
D03*
D108*
X367520Y67815D02*
D03*
X372441D02*
D03*
X75689Y102362D02*
D03*
Y109055D02*
D03*
D109*
X355512Y90650D02*
D03*
X359055D02*
D03*
X209744Y270374D02*
D03*
X206201D02*
D03*
D110*
X372309Y90904D02*
D03*
Y93504D02*
D03*
Y96104D02*
D03*
X364109D02*
D03*
Y93504D02*
D03*
Y90904D02*
D03*
D111*
X367618Y59252D02*
D03*
Y62598D02*
D03*
D112*
X348327Y65551D02*
D03*
X355020D02*
D03*
D113*
X288681Y74508D02*
D03*
X285531D02*
D03*
D114*
X91339Y283760D02*
D03*
X79724D02*
D03*
X28346Y248819D02*
D03*
X16732D02*
D03*
X75886Y93405D02*
D03*
X64272D02*
D03*
X75787Y81791D02*
D03*
X64173D02*
D03*
X75886Y69882D02*
D03*
X64272D02*
D03*
X96260Y91339D02*
D03*
X107874D02*
D03*
X95965Y80413D02*
D03*
X107579D02*
D03*
X95768Y69390D02*
D03*
X107382D02*
D03*
D115*
X46063Y165650D02*
D03*
X47933Y220571D02*
D03*
D116*
X35433Y158150D02*
D03*
Y163150D02*
D03*
Y168150D02*
D03*
Y173150D02*
D03*
X56693D02*
D03*
Y168150D02*
D03*
Y163150D02*
D03*
Y158150D02*
D03*
X37303Y213071D02*
D03*
Y218071D02*
D03*
Y223071D02*
D03*
Y228071D02*
D03*
X58563D02*
D03*
Y223071D02*
D03*
Y218071D02*
D03*
Y213071D02*
D03*
D117*
X60728Y264764D02*
D03*
D118*
X53228Y275394D02*
D03*
X58228D02*
D03*
X63228D02*
D03*
X68228D02*
D03*
Y254134D02*
D03*
X63228D02*
D03*
X58228D02*
D03*
X53228D02*
D03*
D119*
X24705Y197244D02*
D03*
Y185630D02*
D03*
D120*
X35335Y187598D02*
D03*
X40650D02*
D03*
X36122Y242028D02*
D03*
X41437D02*
D03*
X76673Y267815D02*
D03*
X81988D02*
D03*
D121*
X178445Y30925D02*
D03*
Y9469D02*
D03*
X213484D02*
D03*
Y30925D02*
D03*
D122*
X66929Y141831D02*
D03*
Y136516D02*
D03*
X136614Y150197D02*
D03*
Y144882D02*
D03*
D123*
X144193Y145622D02*
D03*
Y158024D02*
D03*
D124*
X71358Y123228D02*
D03*
X54429D02*
D03*
D125*
X63976Y102854D02*
D03*
X67913D02*
D03*
X65945Y107972D02*
D03*
D126*
X115059Y104626D02*
D03*
X99311D02*
D03*
D127*
X55610Y92283D02*
D03*
Y97284D02*
D03*
Y102284D02*
D03*
Y107283D02*
D03*
D128*
X32382D02*
D03*
Y102284D02*
D03*
Y97284D02*
D03*
Y92283D02*
D03*
D129*
X410236Y242815D02*
D03*
Y234941D02*
D03*
Y227067D02*
D03*
Y219193D02*
D03*
Y211319D02*
D03*
Y203445D02*
D03*
Y195571D02*
D03*
Y187697D02*
D03*
X349606D02*
D03*
Y195571D02*
D03*
Y203445D02*
D03*
Y211319D02*
D03*
Y219193D02*
D03*
Y227067D02*
D03*
Y234941D02*
D03*
D130*
X350000Y242815D02*
D03*
D131*
X238484Y92913D02*
D03*
X256201D02*
D03*
Y57087D02*
D03*
X238484D02*
D03*
D132*
X174213Y98917D02*
X177165Y101870D01*
X185630D01*
X186772Y98228D02*
Y100728D01*
X185630Y101870D02*
X186772Y100728D01*
X176083Y94882D02*
X179429Y98228D01*
X201476Y50886D02*
X203248D01*
X199803Y52559D02*
X201476Y50886D01*
X197335Y50743D02*
X197835Y51243D01*
X197335Y46465D02*
X202689Y41110D01*
X197835Y51243D02*
Y57429D01*
X197335Y46465D02*
Y50743D01*
X281693Y60630D02*
X298130D01*
X270276Y72047D02*
Y79921D01*
Y72047D02*
X281693Y60630D01*
X367520Y67815D02*
X367618Y67716D01*
Y62598D02*
Y67716D01*
X367028Y58662D02*
X367618Y59252D01*
X361811Y58662D02*
X367028D01*
X375689Y93504D02*
X378642Y90551D01*
X372309Y93504D02*
X375689D01*
X372407Y79592D02*
Y90904D01*
X359309D02*
X364109D01*
X359055Y90650D02*
X359309Y90904D01*
X349902Y91142D02*
X352264Y93504D01*
X364109D01*
X349902Y84941D02*
Y91142D01*
X358957Y85433D02*
X359055Y85532D01*
Y90650D01*
X372441Y74311D02*
X375492Y77362D01*
X372441Y67815D02*
Y74311D01*
X359744Y80807D02*
X363287Y84350D01*
Y84744D01*
X357874Y77067D02*
X362598D01*
X365158Y79626D01*
X368307Y75492D02*
X372407Y79592D01*
X368307Y73524D02*
Y75492D01*
X359744Y80807D02*
X359744Y80807D01*
X357874Y80807D02*
X359744D01*
X344587Y66831D02*
X345866Y65551D01*
X344587Y66831D02*
Y69488D01*
X345866Y65551D02*
X348327D01*
X346282Y58760D02*
X349291D01*
X340081Y64961D02*
X346282Y58760D01*
X335531Y64961D02*
X340081D01*
X355512Y88287D02*
Y90650D01*
X353445Y86221D02*
X355512Y88287D01*
X348327Y65551D02*
X348425Y65650D01*
Y73327D01*
X355020Y65551D02*
Y69685D01*
X367520Y67815D02*
X368307Y68602D01*
Y73524D01*
X357874Y73327D02*
X358071Y73524D01*
X364370D01*
X212500Y126870D02*
X227362D01*
X248031Y106201D01*
X279429D01*
X225098Y125197D02*
X248622Y101673D01*
X279134D01*
X211122Y125197D02*
X225098D01*
X233366Y167618D02*
X235433Y165551D01*
Y153248D02*
Y165551D01*
X233366Y153347D02*
Y158760D01*
X230610Y161516D02*
X233366Y158760D01*
Y153347D02*
X233465Y153248D01*
X327067Y99902D02*
X342028D01*
X344390Y97539D01*
X352264Y72441D02*
Y78937D01*
Y72441D02*
X355020Y69685D01*
X327854Y55807D02*
X330315Y53347D01*
X327854Y55807D02*
Y62598D01*
X357874Y73327D02*
X357973Y73228D01*
X349902Y84941D02*
X352264Y82579D01*
X343996Y84941D02*
X349902D01*
X352264Y78937D02*
Y82579D01*
X350394Y77067D02*
X352264Y78937D01*
X339370Y77953D02*
X342028Y80610D01*
Y82972D01*
X343996Y84941D01*
X335531Y77953D02*
X339370D01*
X348425Y77067D02*
X350394D01*
X325689Y73622D02*
X335531D01*
X341240D01*
X348425Y80807D01*
X358248Y58760D02*
X358347Y58662D01*
X352756Y58760D02*
X358248D01*
X305118Y77953D02*
X327067Y99902D01*
X298130Y77953D02*
X305118D01*
X294587Y121653D02*
X300197D01*
X303898Y117953D01*
X270571Y133661D02*
X277165Y127067D01*
X291043D01*
X335236Y60925D02*
X335531Y60630D01*
X329528Y60925D02*
X335236D01*
X327854Y62598D02*
X329528Y60925D01*
X327854Y62598D02*
Y67913D01*
X329232Y69291D01*
X335531D01*
X333898Y129862D02*
X337598Y133563D01*
X333898Y106670D02*
Y129862D01*
X236122Y143504D02*
X272835D01*
X274508Y145177D01*
X231496Y148130D02*
X236122Y143504D01*
X225590Y147835D02*
X231890Y141535D01*
X268996D01*
X274902Y135630D01*
X223622Y146949D02*
X231102Y139469D01*
X264764D01*
X270571Y133661D01*
X230020Y137795D02*
X259646D01*
X267836Y129605D01*
X221654Y146161D02*
X230020Y137795D01*
X254134Y136024D02*
X262598Y127559D01*
X219685Y144980D02*
X228642Y136024D01*
X254134D01*
X231496Y148130D02*
Y153248D01*
X225590Y147835D02*
Y153248D01*
X223622Y146949D02*
Y153248D01*
X221654Y146161D02*
Y153248D01*
X219685Y144980D02*
Y153248D01*
X323898Y106670D02*
Y118032D01*
X309252Y132677D02*
X323898Y118032D01*
X300787Y132677D02*
X309252D01*
X328898Y106670D02*
Y119429D01*
X310433Y137894D02*
X328898Y119429D01*
X301575Y137894D02*
X310433D01*
X291043Y127067D02*
X302362D01*
X243504Y159350D02*
X255217D01*
X262598Y151969D01*
X263976Y150591D01*
X237500Y153150D02*
X244980D01*
X245768Y153937D01*
X302362Y127067D02*
X308898Y120531D01*
Y106670D02*
Y120531D01*
X304823Y95276D02*
X306299Y93799D01*
X298130Y95276D02*
X304823D01*
X284547Y96260D02*
X294193Y86614D01*
X298130D01*
X265650Y69095D02*
Y86417D01*
X265846Y86614D01*
X278346Y91437D02*
X287500Y82284D01*
X278346Y91437D02*
Y95374D01*
X274606Y87402D02*
Y92126D01*
Y87402D02*
X284055Y77953D01*
X279134Y101673D02*
X284547Y96260D01*
X250295Y134153D02*
X268996Y115453D01*
X216634Y134153D02*
X250295D01*
X244882Y132283D02*
X263779Y113386D01*
X215650Y132283D02*
X244882D01*
X279429Y106201D02*
X288976Y96653D01*
X294685Y90945D01*
X298130D01*
X228839Y102953D02*
X232972Y98819D01*
X222539Y100197D02*
X228445Y94291D01*
Y55807D02*
Y94291D01*
X232972Y49937D02*
Y98819D01*
X207874Y142913D02*
X216634Y134153D01*
X214469Y130315D02*
X239173D01*
X213386Y128642D02*
X233858D01*
X239173Y130315D02*
X256894Y112594D01*
X233858Y128642D02*
X249640Y112860D01*
X224146Y41110D02*
X232972Y49937D01*
X265650Y69095D02*
X280610Y54134D01*
X200000Y139370D02*
Y153248D01*
Y139370D02*
X212500Y126870D01*
X198031Y138287D02*
Y153248D01*
Y138287D02*
X211122Y125197D01*
X205906Y142028D02*
X215650Y132283D01*
X203937Y140847D02*
X214469Y130315D01*
X201969Y140059D02*
X213386Y128642D01*
X303898Y106670D02*
Y117953D01*
X201969Y140059D02*
Y153248D01*
X203937Y140847D02*
Y153248D01*
X205906Y142028D02*
Y153248D01*
X207874Y142913D02*
Y153248D01*
X237402D02*
X237500Y153150D01*
X227362Y161516D02*
X230610D01*
X226673Y162205D02*
X227362Y161516D01*
X211319Y175394D02*
X220866Y184941D01*
X243504D01*
X218012Y81595D02*
X221063Y78543D01*
X215650Y81595D02*
X218012D01*
X82087Y275098D02*
X87303D01*
X82087Y267815D02*
Y274902D01*
X191339Y224665D02*
X203051D01*
X41732Y235138D02*
Y248721D01*
X40551Y180512D02*
Y194685D01*
X64272Y73232D02*
Y93405D01*
X209646Y117913D02*
X211811D01*
X193898Y102165D02*
X209646Y117913D01*
X174409D02*
X175984D01*
X191929Y101969D01*
X212106Y111319D02*
Y117618D01*
X174409Y117913D02*
X174803Y117520D01*
X211811Y117913D02*
X212106Y117618D01*
X174803Y110925D02*
Y117520D01*
X225197Y52559D02*
X228445Y55807D01*
X224146Y41110D02*
X253181Y12075D01*
X407480Y177953D02*
X410236Y180709D01*
X276969Y258071D02*
X279921D01*
X274902D02*
X276969D01*
X410236Y180709D02*
Y181988D01*
X410236Y181988D02*
X410236Y181988D01*
X410236Y181988D02*
Y187697D01*
X406398Y253445D02*
X410236Y249606D01*
Y242815D02*
Y249606D01*
X342562Y162106D02*
X350787D01*
X338898Y165770D02*
X342562Y162106D01*
X293012Y181201D02*
X296201Y178012D01*
X298622D01*
X303839D02*
X303937Y178110D01*
X298622Y178012D02*
X303839D01*
X303937Y178110D02*
X305669D01*
X310728Y183169D01*
X247244Y198721D02*
X263779Y215256D01*
Y217520D01*
X222835Y52559D02*
X225197D01*
X247638Y219587D02*
X249508Y217717D01*
Y208465D02*
Y217717D01*
X247638Y206594D02*
X249508Y208465D01*
X243504Y206594D02*
X247638D01*
X249016Y204626D02*
X251772Y207382D01*
X243504Y204626D02*
X249016D01*
X251772Y207382D02*
Y222933D01*
X247638Y227067D02*
X251772Y222933D01*
X284744Y232776D02*
X287106D01*
X248721Y196752D02*
X284744Y232776D01*
X229870Y206594D02*
X243504D01*
X217717Y208563D02*
X219685Y206594D01*
X229870D01*
X217717Y208563D02*
Y212697D01*
X227559Y208905D02*
Y212697D01*
Y208905D02*
X229870Y206594D01*
X287106Y225098D02*
Y228839D01*
X287205Y228937D01*
X292224D01*
Y232874D02*
X297638D01*
X292224D02*
Y239173D01*
X287106Y232776D02*
Y235925D01*
X243504Y196752D02*
X248721D01*
X296949Y219193D02*
X349606D01*
X256496Y178740D02*
X296949Y219193D01*
X297638Y232874D02*
X299508Y234744D01*
X282382Y195866D02*
X324803D01*
X341043Y179626D01*
X356594D01*
X299567Y258957D02*
X302264D01*
X305807Y262500D02*
X310728D01*
X302264Y258957D02*
X305807Y262500D01*
X281693Y274803D02*
X286122Y270374D01*
Y267087D02*
Y270374D01*
X243504Y198721D02*
X247244D01*
X264764Y247047D02*
X265945Y248228D01*
X276969D01*
X262106Y239567D02*
X264862Y242323D01*
X276969D01*
X257283Y188878D02*
X266339Y197933D01*
X243504Y188878D02*
X257283D01*
X253740Y190847D02*
X260138Y197244D01*
X243504Y190847D02*
X253740D01*
X250886Y192815D02*
X254724Y196653D01*
X243504Y192815D02*
X250886D01*
X291043Y240354D02*
X292224Y239173D01*
X286073Y236959D02*
X287106Y235925D01*
X286073Y236959D02*
Y240108D01*
X289272Y240354D02*
X291043D01*
X310728Y262500D02*
X312205Y261024D01*
Y253839D02*
Y261024D01*
Y253839D02*
X312500Y253543D01*
Y246752D02*
Y253543D01*
X298130Y246555D02*
X298327Y246752D01*
X307185D01*
X303445Y253839D02*
X306890D01*
X301870Y252264D02*
X303445Y253839D01*
X298130Y252264D02*
X301870D01*
X260630Y256496D02*
X264114D01*
X267657Y252953D01*
X274508Y252165D02*
X276969D01*
X273721Y252953D02*
X274508Y252165D01*
X271122Y252953D02*
X273721D01*
X267815Y234842D02*
Y235039D01*
X277362Y234744D02*
X280167Y237549D01*
X275984Y234744D02*
X277362D01*
X282136Y234695D02*
Y240108D01*
X280167Y237549D02*
Y240108D01*
X267815Y235039D02*
X273130Y240354D01*
X276969D01*
X271555Y261417D02*
Y261614D01*
Y261417D02*
X274902Y258071D01*
X279921D02*
X280167Y258317D01*
X278248Y250197D02*
X281988Y253937D01*
X276969Y250197D02*
X278248D01*
X280167Y255758D02*
X281988Y253937D01*
X286073D01*
X280167Y255758D02*
Y258317D01*
X286073Y253937D02*
Y258317D01*
Y251329D02*
Y253937D01*
X287205Y250197D02*
X289272D01*
X287205Y250197D02*
X287205Y250197D01*
X286073Y251329D02*
X287205Y250197D01*
X289272Y252165D02*
X291732D01*
X297342Y246555D01*
X298130D01*
X296260Y254134D02*
X298130Y252264D01*
X289272Y254134D02*
X296260D01*
X280610Y265354D02*
X282136Y263829D01*
Y258317D02*
Y263829D01*
X293169Y256102D02*
X296063Y258996D01*
X289272Y256102D02*
X293169D01*
X293839Y263622D02*
X296161Y265945D01*
X293760Y263622D02*
X293839D01*
X296063Y258996D02*
Y261319D01*
X293760Y263622D02*
X296063Y261319D01*
X286122Y263622D02*
X293760D01*
X284104Y258317D02*
Y261604D01*
X286122Y263622D01*
X233465Y231201D02*
X234646D01*
X231004Y228740D02*
X233465Y231201D01*
X225689Y228740D02*
X231004D01*
X233681Y222638D02*
Y226063D01*
X231004Y228740D02*
X233681Y226063D01*
X222992Y226043D02*
X225689Y228740D01*
X222992Y222146D02*
Y226043D01*
X234350Y194783D02*
X234350Y194783D01*
X243504D01*
X292028Y211319D02*
X336417D01*
X258563Y177854D02*
X292028Y211319D01*
X256496Y178740D02*
Y178740D01*
X282283Y198425D02*
X326083D01*
X260728Y176870D02*
X282283Y198425D01*
X395079Y211319D02*
X405315D01*
X358957Y175197D02*
X395079Y211319D01*
X405315D02*
X410236D01*
X338583Y175197D02*
X358957D01*
X358169Y177362D02*
X400000Y219193D01*
X339567Y177362D02*
X358169D01*
X322539Y191240D02*
X338583Y175197D01*
X323228Y193701D02*
X339567Y177362D01*
X283760Y191240D02*
X322539D01*
X255807Y163287D02*
X283760Y191240D01*
X243504Y163287D02*
X255807D01*
X356594Y179626D02*
X404035Y227067D01*
X355610Y182283D02*
X363189Y189862D01*
X326083Y198425D02*
X342224Y182283D01*
X355610D01*
X400000Y219193D02*
X410236D01*
X363189Y189862D02*
Y194455D01*
X403675Y234941D01*
X410236D01*
X404035Y227067D02*
X410236D01*
X283268Y193701D02*
X323228D01*
X254823Y165256D02*
X283268Y193701D01*
X243504Y165256D02*
X254823D01*
X253740Y167224D02*
X282382Y195866D01*
X243504Y167224D02*
X253740D01*
X280610Y54134D02*
X306201D01*
X325689Y73622D01*
X280610Y71949D02*
X283071Y69488D01*
X285472D01*
Y64272D02*
Y69488D01*
Y74449D02*
X285531Y74508D01*
X285472Y69488D02*
Y74449D01*
X284055Y77953D02*
X298130D01*
X287500Y82284D02*
X298130D01*
X243504Y169193D02*
X253051D01*
X260728Y176870D01*
X251870Y171161D02*
X258563Y177854D01*
X336417Y211319D02*
X349606D01*
X243504Y171161D02*
X251870D01*
X250886Y173130D02*
X256496Y178740D01*
X243504Y173130D02*
X250886D01*
X321819Y43472D02*
X353083D01*
X362630Y19555D02*
Y33925D01*
X353083Y43472D02*
X362630Y33925D01*
X214469Y65256D02*
X223031Y56693D01*
X207630Y65256D02*
X214469D01*
X211713Y63287D02*
X222441Y52559D01*
X222835D01*
X207630Y67224D02*
X216831D01*
X222244Y61811D01*
X207630Y69193D02*
X218996D01*
X222342Y65847D01*
Y66043D01*
X316555Y32244D02*
Y38209D01*
X321819Y43472D01*
X253181Y12075D02*
X355150D01*
X202689Y41110D02*
X224146D01*
X355150Y12075D02*
X362630Y19555D01*
X207630Y63287D02*
X211713D01*
X199803Y52559D02*
Y57429D01*
X201772D02*
X208661Y50539D01*
Y48425D02*
Y50539D01*
X207630Y84941D02*
X220177D01*
X222342Y87106D01*
X197835Y90799D02*
Y97638D01*
X196949Y98524D02*
X197835Y97638D01*
X203642Y84941D02*
X207630D01*
X201772Y86811D02*
Y90799D01*
Y86811D02*
X203642Y84941D01*
X179429Y98228D02*
X183307D01*
X181102Y105118D02*
X185630D01*
X189961Y90799D02*
Y100787D01*
X185630Y105118D02*
X189961Y100787D01*
X151673Y123327D02*
X162992Y134646D01*
X151673Y56398D02*
Y123327D01*
Y56398D02*
X164665Y43406D01*
X184646D01*
X191929Y50689D01*
Y57429D01*
X230610Y247047D02*
X230709Y246949D01*
X230610Y247047D02*
Y255217D01*
X193307Y246949D02*
Y247835D01*
X200886Y255413D01*
X161024Y82480D02*
X168405Y75098D01*
X174260D01*
X159547Y67323D02*
X163386Y71161D01*
X174260D01*
X159547Y67323D02*
X160866Y66004D01*
X166043D01*
X159646Y60728D02*
X161457Y62539D01*
X166043D01*
X166791Y63287D01*
X174260D01*
X166791Y65256D02*
X174260D01*
X166043Y66004D02*
X166791Y65256D01*
X191929Y90799D02*
Y101969D01*
X193898Y90799D02*
Y102165D01*
X187992Y90799D02*
Y95177D01*
X186772Y96398D02*
X187992Y95177D01*
X186772Y96398D02*
Y98228D01*
X183307Y97402D02*
Y98228D01*
Y97402D02*
X186024Y94685D01*
Y90799D02*
Y94685D01*
X199803Y90799D02*
Y96457D01*
X201362Y98015D01*
X77854Y253051D02*
Y253248D01*
Y250197D02*
Y253051D01*
X207630Y77067D02*
X213189D01*
X213780Y77658D01*
X215650D01*
X214272Y82973D02*
X215650Y81595D01*
X207630Y82973D02*
X214272D01*
X185276Y151240D02*
X189075Y147441D01*
Y144587D02*
Y147441D01*
X182972Y151240D02*
X185276D01*
X182972D02*
Y158268D01*
X181063Y145866D02*
X182972Y147776D01*
X173819Y145866D02*
X181063D01*
X178543Y50394D02*
X180118Y51968D01*
Y57429D01*
X184055Y51673D02*
X185335Y50394D01*
X184055Y51673D02*
Y57429D01*
X227559Y219980D02*
X230217Y222638D01*
X227559Y212697D02*
Y219980D01*
X222992Y219796D02*
Y222146D01*
X219685Y216489D02*
X222992Y219796D01*
X219685Y212697D02*
Y216489D01*
X217717Y220335D02*
X219528Y222146D01*
X217717Y212697D02*
Y220335D01*
X58228Y250039D02*
X68012Y240256D01*
X75000D01*
X58228Y250039D02*
Y254134D01*
X159646Y207185D02*
X165709Y201122D01*
X175886D01*
X185236Y227854D02*
X188327Y224764D01*
X191240D01*
X191339Y224665D01*
X200492Y234252D02*
X211811Y222933D01*
X183661Y234252D02*
X200492D01*
X159350Y258563D02*
X183661Y234252D01*
X184055Y204626D02*
X195721D01*
X200000Y208905D01*
Y212697D01*
X63779Y238484D02*
X68209Y234055D01*
X60532Y238484D02*
X63779D01*
X120473Y229331D02*
X155020Y194783D01*
X75000Y240256D02*
X85925Y229331D01*
X120473D01*
X155020Y194783D02*
X184055D01*
X169193Y178543D02*
X176575Y171161D01*
X118602Y178543D02*
X169193D01*
X176575Y171161D02*
X184055D01*
X73169Y218071D02*
X116339Y174902D01*
X168602D01*
X174311Y169193D01*
X215748Y231988D02*
X230709Y246949D01*
X215748Y212697D02*
Y231988D01*
X211811Y212697D02*
Y222933D01*
X193307Y246949D02*
X213779Y226476D01*
Y212697D02*
Y226476D01*
X209744Y267323D02*
Y270374D01*
Y267323D02*
X212500Y264567D01*
X214075Y276969D02*
Y281594D01*
X212894Y275787D02*
X214075Y276969D01*
X209547Y275787D02*
X212894D01*
X159350Y258563D02*
Y276870D01*
X119606Y267303D02*
Y286024D01*
Y267303D02*
X180315Y206594D01*
X184055D01*
X182283Y212697D02*
X190157D01*
X129606Y265374D02*
X182283Y212697D01*
X129606Y265374D02*
Y286024D01*
X169882Y206890D02*
X172185Y204587D01*
X175886D01*
X160039Y187303D02*
X162598Y184744D01*
X170079D01*
X56693Y163150D02*
X183917D01*
X184055Y163287D01*
X56693Y168150D02*
X56929Y167913D01*
X70177D01*
X72835Y165256D01*
X184055D01*
X174311Y169193D02*
X184055D01*
X159055Y196752D02*
X184055D01*
X122146Y233661D02*
X159055Y196752D01*
X86024Y233661D02*
X122146D01*
X74075Y223071D02*
X118602Y178543D01*
X58563Y223071D02*
X74075D01*
X68150Y218071D02*
X73169D01*
X58563D02*
X68150D01*
X174016Y184744D02*
X174213Y184941D01*
X184055D01*
X176575Y161319D02*
X184055D01*
X175000Y159744D02*
X176575Y161319D01*
X182972Y158268D02*
X184055Y159350D01*
X175886Y204587D02*
X175925Y204626D01*
X184055D01*
X180020Y202658D02*
X184055D01*
X178484Y201122D02*
X180020Y202658D01*
X175886Y201122D02*
X178484D01*
X144193Y158024D02*
X149161D01*
X151969Y155217D01*
X144193Y157776D02*
Y158024D01*
X136614Y150197D02*
X144193Y157776D01*
X121752Y150492D02*
X129232D01*
X136319D02*
X136614Y150197D01*
X129232Y150492D02*
X136319D01*
X58366Y136221D02*
Y136516D01*
X9252Y250590D02*
Y250689D01*
Y250590D02*
X11024Y248819D01*
X16732D01*
X91339Y279134D02*
Y283760D01*
X87303Y275098D02*
X91339Y279134D01*
X80413Y247638D02*
X80807D01*
X77854Y250197D02*
X80413Y247638D01*
X82087Y274902D02*
Y275098D01*
X81988Y267815D02*
X82284Y267520D01*
Y257677D02*
Y260827D01*
X77854Y253248D02*
X82284Y257677D01*
Y260827D02*
Y267520D01*
X64764Y206890D02*
Y208740D01*
X60433Y213071D02*
X64764Y208740D01*
X58563Y213071D02*
X60433D01*
X40945Y197736D02*
X44685Y201476D01*
X44783D01*
X40945Y194685D02*
Y197736D01*
X63228Y249272D02*
X69488Y243012D01*
X76673D01*
X86024Y233661D01*
X63228Y249272D02*
Y254134D01*
X68228D02*
X70394D01*
X71476Y253051D02*
X73917D01*
X70394Y254134D02*
X71476Y253051D01*
X58228Y281260D02*
X59350Y282382D01*
X58228Y275394D02*
Y281260D01*
X47720Y247260D02*
Y250830D01*
Y247260D02*
X49114Y245866D01*
X47720Y250830D02*
X51795D01*
X43645D02*
X47720D01*
X53228Y252264D02*
Y254134D01*
X51795Y250830D02*
X53228Y252264D01*
X41732Y248917D02*
X43645Y250830D01*
X41732Y248721D02*
Y248917D01*
X60532Y233363D02*
Y234547D01*
X58563Y231395D02*
X60532Y233363D01*
X58563Y228071D02*
Y231395D01*
X26083Y218701D02*
X26713Y218071D01*
X37303D01*
X59153Y184055D02*
Y188287D01*
X29429Y162894D02*
X29685Y163150D01*
X35433D01*
X14272Y185039D02*
X14862Y185630D01*
X24705D01*
X56398Y63386D02*
X58858D01*
X64272Y68799D01*
Y69882D01*
Y73232D01*
X64272Y73232D01*
X56693Y173150D02*
Y175492D01*
X59153Y177953D02*
Y180118D01*
X56693Y175492D02*
X59153Y177953D01*
D133*
X375590Y41929D02*
X412303D01*
X381201Y76378D02*
X381230Y76407D01*
X412313D01*
X364301Y139301D02*
X412992D01*
X364370Y104528D02*
X412728D01*
D134*
X367618Y59252D02*
X412303D01*
D135*
X364272Y139272D02*
X364301Y139301D01*
X412728Y104528D02*
X412992Y104791D01*
X351749Y106670D02*
X367126Y122047D01*
X338898Y106670D02*
X351749D01*
D136*
X378150Y122047D02*
X412992D01*
D137*
X250984Y92913D02*
X256201D01*
X246161Y83957D02*
Y88091D01*
X250984Y92913D01*
X256201Y57087D02*
Y92913D01*
X238484Y75000D02*
Y92913D01*
Y57087D02*
Y75000D01*
X242323D02*
X244488Y72835D01*
X238484Y75000D02*
X242323D01*
X276555Y32244D02*
Y36732D01*
X256201Y57087D02*
X276555Y36732D01*
X58366Y136516D02*
X61614D01*
X71358Y126772D01*
Y123228D02*
Y126772D01*
X58366Y136516D02*
X66929D01*
X63228Y275394D02*
Y292440D01*
X63997Y293209D01*
X52461Y293012D02*
X53228Y292244D01*
Y275394D02*
Y292244D01*
X31260Y223071D02*
X37303D01*
X27145Y227186D02*
X31260Y223071D01*
X17520Y227186D02*
X27145D01*
X17520Y213386D02*
X17835Y213071D01*
X37303D01*
X18799Y170768D02*
X21417Y168150D01*
X35433D01*
X19981Y158150D02*
X35433D01*
X18799Y156968D02*
X19981Y158150D01*
X77070Y136024D02*
X86122D01*
X76578Y136516D02*
X77070Y136024D01*
X74409Y136516D02*
X76578D01*
X66929D02*
X74409D01*
D138*
X192815Y39567D02*
X193898Y40650D01*
X192815Y31299D02*
Y39567D01*
X193898Y40650D02*
Y57429D01*
X195866Y31398D02*
X195965Y31299D01*
X195866Y31398D02*
Y57429D01*
D139*
X346555Y32244D02*
D03*
X336555D02*
D03*
X326555D02*
D03*
X316555D02*
D03*
X306555D02*
D03*
X296555D02*
D03*
X286555D02*
D03*
X276555D02*
D03*
X266555D02*
D03*
X256555D02*
D03*
Y22244D02*
D03*
X266555D02*
D03*
X276555D02*
D03*
X286555D02*
D03*
X296555D02*
D03*
X306555D02*
D03*
X316555D02*
D03*
X326555D02*
D03*
X336555D02*
D03*
X346555D02*
D03*
D140*
X143799Y14764D02*
D03*
X69390D02*
D03*
D141*
X128051Y51772D02*
D03*
D142*
X85138D02*
D03*
D143*
X409055Y289764D02*
D03*
X15748D02*
D03*
Y15748D02*
D03*
X409055D02*
D03*
D144*
X17520Y213386D02*
D03*
Y227186D02*
D03*
X18799Y170768D02*
D03*
Y156968D02*
D03*
X63997Y293209D02*
D03*
X50197D02*
D03*
D145*
X119606Y286024D02*
D03*
X139606D02*
D03*
X109606D02*
D03*
X129606D02*
D03*
D146*
X43504Y173327D02*
D03*
X48622D02*
D03*
X43504Y168209D02*
D03*
X48622D02*
D03*
X43504Y163091D02*
D03*
X48622D02*
D03*
X43504Y157973D02*
D03*
X48622D02*
D03*
X45374Y228248D02*
D03*
X50492D02*
D03*
X45374Y223130D02*
D03*
X50492D02*
D03*
X45374Y218012D02*
D03*
X50492D02*
D03*
X45374Y212894D02*
D03*
X50492D02*
D03*
X68405Y267323D02*
D03*
Y262205D02*
D03*
X63287Y267323D02*
D03*
Y262205D02*
D03*
X58169Y267323D02*
D03*
Y262205D02*
D03*
X53051Y267323D02*
D03*
Y262205D02*
D03*
D147*
X187303Y20768D02*
D03*
X204626D02*
D03*
D148*
X207776Y31201D02*
D03*
X177165Y21654D02*
D03*
X214567Y20965D02*
D03*
X197933Y10335D02*
D03*
X190551D02*
D03*
X176083Y94882D02*
D03*
X174213Y98917D02*
D03*
X203248Y50886D02*
D03*
X378642Y90551D02*
D03*
X358957Y85433D02*
D03*
X375492Y77362D02*
D03*
X363287Y84744D02*
D03*
X365158Y79626D02*
D03*
X344587Y69488D02*
D03*
X353445Y86221D02*
D03*
X344390Y97539D02*
D03*
X330315Y53347D02*
D03*
X294587Y121653D02*
D03*
X337598Y133563D02*
D03*
X274508Y145177D02*
D03*
X300787Y132677D02*
D03*
X301575Y137894D02*
D03*
X246161Y83957D02*
D03*
X263976Y150591D02*
D03*
X245768Y153937D02*
D03*
X306299Y93799D02*
D03*
X270276Y79921D02*
D03*
X265846Y86614D02*
D03*
X278346Y95374D02*
D03*
X274606Y92126D02*
D03*
X268996Y115453D02*
D03*
X263779Y113386D02*
D03*
X222539Y100197D02*
D03*
X228839Y102953D02*
D03*
X274902Y135630D02*
D03*
X267836Y129605D02*
D03*
X262598Y127559D02*
D03*
X256894Y112594D02*
D03*
X249640Y112860D02*
D03*
X226673Y162205D02*
D03*
X233366Y167618D02*
D03*
X211319Y175394D02*
D03*
X221063Y78543D02*
D03*
X212106Y111319D02*
D03*
X174803Y110925D02*
D03*
X244488Y72835D02*
D03*
X407480Y177953D02*
D03*
X406398Y253445D02*
D03*
X341142Y240354D02*
D03*
X333465Y240551D02*
D03*
X341339Y244291D02*
D03*
X333563D02*
D03*
X323031Y226673D02*
D03*
X350787Y162106D02*
D03*
X293012Y181201D02*
D03*
X293307Y166831D02*
D03*
Y171850D02*
D03*
X263779Y217520D02*
D03*
X247638Y227067D02*
D03*
Y219587D02*
D03*
X287106Y225098D02*
D03*
X264764Y225197D02*
D03*
X299508Y234744D02*
D03*
X281693Y274803D02*
D03*
X264764Y247047D02*
D03*
X262106Y239567D02*
D03*
X266339Y197933D02*
D03*
X260138Y197244D02*
D03*
X254724Y196653D02*
D03*
X310728Y262500D02*
D03*
X260630Y256496D02*
D03*
X267815Y234842D02*
D03*
X275984Y234744D02*
D03*
X282136Y234301D02*
D03*
X271555Y261614D02*
D03*
X280610Y265354D02*
D03*
X296161Y265945D02*
D03*
X234646Y231201D02*
D03*
X234252Y194882D02*
D03*
X280610Y71949D02*
D03*
X306201Y64764D02*
D03*
X306102Y68701D02*
D03*
X249016Y38484D02*
D03*
X222835Y52559D02*
D03*
X223031Y56693D02*
D03*
X222244Y61811D02*
D03*
X222342Y66043D02*
D03*
X208661Y48425D02*
D03*
X162992Y134646D02*
D03*
X161024Y82480D02*
D03*
X230610Y255217D02*
D03*
X200886Y255413D02*
D03*
X159547Y67323D02*
D03*
X159646Y60728D02*
D03*
X181102Y105118D02*
D03*
X222342Y87106D02*
D03*
X189075Y144587D02*
D03*
X173819Y145866D02*
D03*
X178543Y50394D02*
D03*
X185335D02*
D03*
X159646Y207185D02*
D03*
X185236Y227854D02*
D03*
X184744Y220768D02*
D03*
X173031Y276476D02*
D03*
X212500Y264567D02*
D03*
X149016Y287894D02*
D03*
X149114Y294291D02*
D03*
X187402Y289469D02*
D03*
X178248Y289370D02*
D03*
X168996Y289469D02*
D03*
X214075Y281594D02*
D03*
X169882Y206890D02*
D03*
X160039Y187303D02*
D03*
X175000Y159744D02*
D03*
X151969Y155217D02*
D03*
X144685Y137992D02*
D03*
X136909Y138287D02*
D03*
X129331Y137894D02*
D03*
X121653D02*
D03*
X9252Y250689D02*
D03*
X80807Y247638D02*
D03*
X64764Y206890D02*
D03*
X44783Y201476D02*
D03*
X68209Y234055D02*
D03*
X84350Y292323D02*
D03*
X79232D02*
D03*
X49114Y245866D02*
D03*
X27165Y257185D02*
D03*
X35630D02*
D03*
X28740Y203445D02*
D03*
X26083Y218701D02*
D03*
X73228Y150000D02*
D03*
X66535Y150098D02*
D03*
X58268Y150295D02*
D03*
X59153Y188287D02*
D03*
X29429Y162894D02*
D03*
X14272Y185039D02*
D03*
X116437Y68504D02*
D03*
Y75394D02*
D03*
X116339Y83071D02*
D03*
X116043Y91732D02*
D03*
X35433Y203346D02*
D03*
X87795Y101673D02*
D03*
Y94587D02*
D03*
Y87106D02*
D03*
X87894Y80118D02*
D03*
X87992Y70177D02*
D03*
X82480Y70079D02*
D03*
X82382Y80020D02*
D03*
X82284Y87008D02*
D03*
Y94488D02*
D03*
Y101575D02*
D03*
D149*
X397146Y38780D02*
D03*
X390650D02*
D03*
X382874Y38878D02*
D03*
X396555Y79429D02*
D03*
X387894Y79528D02*
D03*
X375590Y41929D02*
D03*
X381201Y76378D02*
D03*
X393504Y101279D02*
D03*
X382972D02*
D03*
X372047D02*
D03*
X394390Y142717D02*
D03*
X382480D02*
D03*
X373130Y142618D02*
D03*
X364272Y139272D02*
D03*
X364370Y104528D02*
D03*
D150*
X196949Y98524D02*
D03*
X201362Y98015D02*
D03*
X59350Y282382D02*
D03*
X56398Y63386D02*
D03*
X39567Y118701D02*
D03*
X39665Y123524D02*
D03*
X39862Y128248D02*
D03*
X44980Y118701D02*
D03*
Y123524D02*
D03*
X45079Y128347D02*
D03*
D151*
X45177Y93287D02*
D03*
X40846D02*
D03*
X36516D02*
D03*
X45177Y97618D02*
D03*
X40846D02*
D03*
X36516D02*
D03*
X45177Y101949D02*
D03*
X40846D02*
D03*
X36516D02*
D03*
X45177Y106280D02*
D03*
X40846D02*
D03*
X36516D02*
D03*
M02*
