G04*
G04 #@! TF.GenerationSoftware,Altium Limited,Altium Designer,24.10.1 (45)*
G04*
G04 Layer_Color=8388736*
%FSLAX25Y25*%
%MOIN*%
G70*
G04*
G04 #@! TF.SameCoordinates,9D620B6C-925D-48BC-BBC5-478D005D5007*
G04*
G04*
G04 #@! TF.FilePolarity,Negative*
G04*
G01*
G75*
%ADD19R,0.19984X0.09315*%
%ADD20R,0.20299X0.09807*%
%ADD21R,0.05024X0.06795*%
%ADD22R,0.03700X0.06300*%
%ADD23R,0.21953X0.08173*%
%ADD24R,0.02661X0.02268*%
%ADD25O,0.07386X0.01480*%
%ADD26O,0.01480X0.07386*%
%ADD29R,0.02661X0.02819*%
%ADD30R,0.02268X0.09158*%
%ADD31R,0.02819X0.02661*%
%ADD32R,0.02268X0.02661*%
%ADD33R,0.08173X0.15260*%
%ADD34R,0.08173X0.06205*%
G04:AMPARAMS|DCode=35|XSize=58.11mil|YSize=85.67mil|CornerRadius=15.28mil|HoleSize=0mil|Usage=FLASHONLY|Rotation=90.000|XOffset=0mil|YOffset=0mil|HoleType=Round|Shape=RoundedRectangle|*
%AMROUNDEDRECTD35*
21,1,0.05811,0.05512,0,0,90.0*
21,1,0.02756,0.08567,0,0,90.0*
1,1,0.03055,0.02756,0.01378*
1,1,0.03055,0.02756,-0.01378*
1,1,0.03055,-0.02756,-0.01378*
1,1,0.03055,-0.02756,0.01378*
%
%ADD35ROUNDEDRECTD35*%
%ADD36R,0.03842X0.04236*%
%ADD37R,0.02957X0.01284*%
%ADD38R,0.01284X0.02563*%
%ADD39R,0.05811X0.03252*%
%ADD40R,0.05024X0.04236*%
%ADD41R,0.04236X0.03842*%
%ADD42O,0.03449X0.02465*%
%ADD43R,0.03449X0.02465*%
%ADD44R,0.03449X0.03842*%
%ADD45R,0.01874X0.01480*%
%ADD46R,0.04899X0.01699*%
%ADD47R,0.02858X0.01677*%
%ADD48R,0.03842X0.03449*%
%ADD49R,0.01874X0.02268*%
%ADD50R,0.04433X0.06598*%
%ADD53R,0.06598X0.04433*%
%ADD54R,0.02858X0.03449*%
G04:AMPARAMS|DCode=55|XSize=81.73mil|YSize=101.42mil|CornerRadius=21.18mil|HoleSize=0mil|Usage=FLASHONLY|Rotation=0.000|XOffset=0mil|YOffset=0mil|HoleType=Round|Shape=RoundedRectangle|*
%AMROUNDEDRECTD55*
21,1,0.08173,0.05906,0,0,0.0*
21,1,0.03937,0.10142,0,0,0.0*
1,1,0.04236,0.01968,-0.02953*
1,1,0.04236,-0.01968,-0.02953*
1,1,0.04236,-0.01968,0.02953*
1,1,0.04236,0.01968,0.02953*
%
%ADD55ROUNDEDRECTD55*%
%ADD56R,0.03449X0.02858*%
%ADD57R,0.04039X0.03842*%
%ADD58R,0.09945X0.08764*%
%ADD59R,0.01874X0.02307*%
%ADD60R,0.10142X0.06992*%
%ADD61O,0.04236X0.02268*%
%ADD62O,0.05811X0.02268*%
%ADD63R,0.10535X0.04630*%
%ADD64R,0.11323X0.04630*%
G04:AMPARAMS|DCode=65|XSize=58.11mil|YSize=85.67mil|CornerRadius=15.28mil|HoleSize=0mil|Usage=FLASHONLY|Rotation=180.000|XOffset=0mil|YOffset=0mil|HoleType=Round|Shape=RoundedRectangle|*
%AMROUNDEDRECTD65*
21,1,0.05811,0.05512,0,0,180.0*
21,1,0.02756,0.08567,0,0,180.0*
1,1,0.03055,-0.01378,0.02756*
1,1,0.03055,0.01378,0.02756*
1,1,0.03055,0.01378,-0.02756*
1,1,0.03055,-0.01378,-0.02756*
%
%ADD65ROUNDEDRECTD65*%
%ADD66R,0.07386X0.03055*%
%ADD67R,0.07386X0.03449*%
%ADD68R,0.01781X0.07293*%
%ADD69R,0.07293X0.01781*%
%ADD70C,0.08173*%
%ADD71O,0.05417X0.10535*%
%ADD72C,0.19654*%
%ADD73R,0.19654X0.19654*%
%ADD74C,0.20079*%
%ADD75C,0.08961*%
%ADD76O,0.08173X0.12110*%
%ADD77C,0.01480*%
%ADD78C,0.03842*%
%ADD79C,0.02661*%
%ADD80C,0.03449*%
%ADD81C,0.01874*%
G36*
X69520Y278717D02*
X69528D01*
X69539Y278713D01*
X69547D01*
X69559Y278709D01*
X69567Y278705D01*
X69579Y278701D01*
X69587Y278693D01*
X69595Y278689D01*
X69602Y278681D01*
X69610Y278677D01*
X69618Y278669D01*
X69626Y278661D01*
X69634Y278654D01*
X69642Y278646D01*
X69646Y278638D01*
X69653Y278630D01*
X69657Y278622D01*
X69665Y278614D01*
X69669Y278602D01*
X69673Y278594D01*
X69677Y278583D01*
Y278575D01*
X69681Y278563D01*
Y278555D01*
X69685Y278543D01*
Y272244D01*
X69681Y272232D01*
Y272224D01*
X69677Y272213D01*
Y272205D01*
X69673Y272193D01*
X69669Y272185D01*
X69665Y272173D01*
X69657Y272165D01*
X69653Y272158D01*
X69646Y272150D01*
X69642Y272142D01*
X69634Y272134D01*
X69626Y272126D01*
X69618Y272118D01*
X69610Y272110D01*
X69602Y272106D01*
X69595Y272098D01*
X69587Y272094D01*
X69579Y272087D01*
X69567Y272083D01*
X69559Y272079D01*
X69547Y272075D01*
X69539D01*
X69528Y272071D01*
X69520D01*
X69508Y272067D01*
X66949D01*
X66937Y272071D01*
X66929D01*
X66917Y272075D01*
X66909D01*
X66898Y272079D01*
X66890Y272083D01*
X66878Y272087D01*
X66870Y272094D01*
X66862Y272098D01*
X66854Y272106D01*
X66847Y272110D01*
X66839Y272118D01*
X66831Y272126D01*
X66823Y272134D01*
X66815Y272142D01*
X66811Y272150D01*
X66803Y272158D01*
X66799Y272165D01*
X66791Y272173D01*
X66787Y272185D01*
X66783Y272193D01*
X66780Y272205D01*
Y272213D01*
X66776Y272224D01*
Y272232D01*
X66772Y272244D01*
Y278543D01*
X66776Y278555D01*
Y278563D01*
X66780Y278575D01*
Y278583D01*
X66783Y278594D01*
X66787Y278602D01*
X66791Y278614D01*
X66799Y278622D01*
X66803Y278630D01*
X66811Y278638D01*
X66815Y278646D01*
X66823Y278654D01*
X66831Y278661D01*
X66839Y278669D01*
X66847Y278677D01*
X66854Y278681D01*
X66862Y278689D01*
X66870Y278693D01*
X66878Y278701D01*
X66890Y278705D01*
X66898Y278709D01*
X66909Y278713D01*
X66917D01*
X66929Y278717D01*
X66937D01*
X66949Y278720D01*
X69508D01*
X69520Y278717D01*
D02*
G37*
G36*
X64520D02*
X64527D01*
X64539Y278713D01*
X64547D01*
X64559Y278709D01*
X64567Y278705D01*
X64579Y278701D01*
X64587Y278693D01*
X64595Y278689D01*
X64602Y278681D01*
X64610Y278677D01*
X64618Y278669D01*
X64626Y278661D01*
X64634Y278654D01*
X64642Y278646D01*
X64646Y278638D01*
X64653Y278630D01*
X64657Y278622D01*
X64665Y278614D01*
X64669Y278602D01*
X64673Y278594D01*
X64677Y278583D01*
Y278575D01*
X64681Y278563D01*
Y278555D01*
X64685Y278543D01*
Y272244D01*
X64681Y272232D01*
Y272224D01*
X64677Y272213D01*
Y272205D01*
X64673Y272193D01*
X64669Y272185D01*
X64665Y272173D01*
X64657Y272165D01*
X64653Y272158D01*
X64646Y272150D01*
X64642Y272142D01*
X64634Y272134D01*
X64626Y272126D01*
X64618Y272118D01*
X64610Y272110D01*
X64602Y272106D01*
X64595Y272098D01*
X64587Y272094D01*
X64579Y272087D01*
X64567Y272083D01*
X64559Y272079D01*
X64547Y272075D01*
X64539D01*
X64527Y272071D01*
X64520D01*
X64508Y272067D01*
X61949D01*
X61937Y272071D01*
X61929D01*
X61917Y272075D01*
X61909D01*
X61898Y272079D01*
X61890Y272083D01*
X61878Y272087D01*
X61870Y272094D01*
X61862Y272098D01*
X61854Y272106D01*
X61847Y272110D01*
X61839Y272118D01*
X61831Y272126D01*
X61823Y272134D01*
X61815Y272142D01*
X61811Y272150D01*
X61803Y272158D01*
X61799Y272165D01*
X61791Y272173D01*
X61787Y272185D01*
X61783Y272193D01*
X61779Y272205D01*
Y272213D01*
X61776Y272224D01*
Y272232D01*
X61772Y272244D01*
Y278543D01*
X61776Y278555D01*
Y278563D01*
X61779Y278575D01*
Y278583D01*
X61783Y278594D01*
X61787Y278602D01*
X61791Y278614D01*
X61799Y278622D01*
X61803Y278630D01*
X61811Y278638D01*
X61815Y278646D01*
X61823Y278654D01*
X61831Y278661D01*
X61839Y278669D01*
X61847Y278677D01*
X61854Y278681D01*
X61862Y278689D01*
X61870Y278693D01*
X61878Y278701D01*
X61890Y278705D01*
X61898Y278709D01*
X61909Y278713D01*
X61917D01*
X61929Y278717D01*
X61937D01*
X61949Y278720D01*
X64508D01*
X64520Y278717D01*
D02*
G37*
G36*
X59520D02*
X59527D01*
X59539Y278713D01*
X59547D01*
X59559Y278709D01*
X59567Y278705D01*
X59579Y278701D01*
X59587Y278693D01*
X59595Y278689D01*
X59602Y278681D01*
X59610Y278677D01*
X59618Y278669D01*
X59626Y278661D01*
X59634Y278654D01*
X59642Y278646D01*
X59646Y278638D01*
X59654Y278630D01*
X59658Y278622D01*
X59665Y278614D01*
X59669Y278602D01*
X59673Y278594D01*
X59677Y278583D01*
Y278575D01*
X59681Y278563D01*
Y278555D01*
X59685Y278543D01*
Y272244D01*
X59681Y272232D01*
Y272224D01*
X59677Y272213D01*
Y272205D01*
X59673Y272193D01*
X59669Y272185D01*
X59665Y272173D01*
X59658Y272165D01*
X59654Y272158D01*
X59646Y272150D01*
X59642Y272142D01*
X59634Y272134D01*
X59626Y272126D01*
X59618Y272118D01*
X59610Y272110D01*
X59602Y272106D01*
X59595Y272098D01*
X59587Y272094D01*
X59579Y272087D01*
X59567Y272083D01*
X59559Y272079D01*
X59547Y272075D01*
X59539D01*
X59527Y272071D01*
X59520D01*
X59508Y272067D01*
X56949D01*
X56937Y272071D01*
X56929D01*
X56917Y272075D01*
X56909D01*
X56898Y272079D01*
X56890Y272083D01*
X56878Y272087D01*
X56870Y272094D01*
X56862Y272098D01*
X56854Y272106D01*
X56846Y272110D01*
X56839Y272118D01*
X56831Y272126D01*
X56823Y272134D01*
X56815Y272142D01*
X56811Y272150D01*
X56803Y272158D01*
X56799Y272165D01*
X56791Y272173D01*
X56787Y272185D01*
X56783Y272193D01*
X56779Y272205D01*
Y272213D01*
X56776Y272224D01*
Y272232D01*
X56772Y272244D01*
Y278543D01*
X56776Y278555D01*
Y278563D01*
X56779Y278575D01*
Y278583D01*
X56783Y278594D01*
X56787Y278602D01*
X56791Y278614D01*
X56799Y278622D01*
X56803Y278630D01*
X56811Y278638D01*
X56815Y278646D01*
X56823Y278654D01*
X56831Y278661D01*
X56839Y278669D01*
X56846Y278677D01*
X56854Y278681D01*
X56862Y278689D01*
X56870Y278693D01*
X56878Y278701D01*
X56890Y278705D01*
X56898Y278709D01*
X56909Y278713D01*
X56917D01*
X56929Y278717D01*
X56937D01*
X56949Y278720D01*
X59508D01*
X59520Y278717D01*
D02*
G37*
G36*
X54520D02*
X54527D01*
X54539Y278713D01*
X54547D01*
X54559Y278709D01*
X54567Y278705D01*
X54579Y278701D01*
X54587Y278693D01*
X54594Y278689D01*
X54602Y278681D01*
X54610Y278677D01*
X54618Y278669D01*
X54626Y278661D01*
X54634Y278654D01*
X54642Y278646D01*
X54646Y278638D01*
X54654Y278630D01*
X54658Y278622D01*
X54665Y278614D01*
X54669Y278602D01*
X54673Y278594D01*
X54677Y278583D01*
Y278575D01*
X54681Y278563D01*
Y278555D01*
X54685Y278543D01*
Y272244D01*
X54681Y272232D01*
Y272224D01*
X54677Y272213D01*
Y272205D01*
X54673Y272193D01*
X54669Y272185D01*
X54665Y272173D01*
X54658Y272165D01*
X54654Y272158D01*
X54646Y272150D01*
X54642Y272142D01*
X54634Y272134D01*
X54626Y272126D01*
X54618Y272118D01*
X54610Y272110D01*
X54602Y272106D01*
X54594Y272098D01*
X54587Y272094D01*
X54579Y272087D01*
X54567Y272083D01*
X54559Y272079D01*
X54547Y272075D01*
X54539D01*
X54527Y272071D01*
X54520D01*
X54508Y272067D01*
X51949D01*
X51937Y272071D01*
X51929D01*
X51917Y272075D01*
X51909D01*
X51898Y272079D01*
X51890Y272083D01*
X51878Y272087D01*
X51870Y272094D01*
X51862Y272098D01*
X51854Y272106D01*
X51846Y272110D01*
X51839Y272118D01*
X51831Y272126D01*
X51823Y272134D01*
X51815Y272142D01*
X51811Y272150D01*
X51803Y272158D01*
X51799Y272165D01*
X51791Y272173D01*
X51787Y272185D01*
X51784Y272193D01*
X51780Y272205D01*
Y272213D01*
X51776Y272224D01*
Y272232D01*
X51772Y272244D01*
Y278543D01*
X51776Y278555D01*
Y278563D01*
X51780Y278575D01*
Y278583D01*
X51784Y278594D01*
X51787Y278602D01*
X51791Y278614D01*
X51799Y278622D01*
X51803Y278630D01*
X51811Y278638D01*
X51815Y278646D01*
X51823Y278654D01*
X51831Y278661D01*
X51839Y278669D01*
X51846Y278677D01*
X51854Y278681D01*
X51862Y278689D01*
X51870Y278693D01*
X51878Y278701D01*
X51890Y278705D01*
X51898Y278709D01*
X51909Y278713D01*
X51917D01*
X51929Y278717D01*
X51937D01*
X51949Y278720D01*
X54508D01*
X54520Y278717D01*
D02*
G37*
G36*
X67421Y259429D02*
X54035D01*
Y270098D01*
X67421D01*
Y259429D01*
D02*
G37*
G36*
X69520Y257457D02*
X69528D01*
X69539Y257453D01*
X69547D01*
X69559Y257449D01*
X69567Y257445D01*
X69579Y257441D01*
X69587Y257433D01*
X69595Y257429D01*
X69602Y257421D01*
X69610Y257417D01*
X69618Y257410D01*
X69626Y257402D01*
X69634Y257394D01*
X69642Y257386D01*
X69646Y257378D01*
X69653Y257370D01*
X69657Y257362D01*
X69665Y257354D01*
X69669Y257343D01*
X69673Y257335D01*
X69677Y257323D01*
Y257315D01*
X69681Y257303D01*
Y257295D01*
X69685Y257283D01*
Y250984D01*
X69681Y250972D01*
Y250965D01*
X69677Y250953D01*
Y250945D01*
X69673Y250933D01*
X69669Y250925D01*
X69665Y250913D01*
X69657Y250905D01*
X69653Y250898D01*
X69646Y250890D01*
X69642Y250882D01*
X69634Y250874D01*
X69626Y250866D01*
X69618Y250858D01*
X69610Y250850D01*
X69602Y250847D01*
X69595Y250839D01*
X69587Y250835D01*
X69579Y250827D01*
X69567Y250823D01*
X69559Y250819D01*
X69547Y250815D01*
X69539D01*
X69528Y250811D01*
X69520D01*
X69508Y250807D01*
X66949D01*
X66937Y250811D01*
X66929D01*
X66917Y250815D01*
X66909D01*
X66898Y250819D01*
X66890Y250823D01*
X66878Y250827D01*
X66870Y250835D01*
X66862Y250839D01*
X66854Y250847D01*
X66847Y250850D01*
X66839Y250858D01*
X66831Y250866D01*
X66823Y250874D01*
X66815Y250882D01*
X66811Y250890D01*
X66803Y250898D01*
X66799Y250905D01*
X66791Y250913D01*
X66787Y250925D01*
X66783Y250933D01*
X66780Y250945D01*
Y250953D01*
X66776Y250965D01*
Y250972D01*
X66772Y250984D01*
Y257283D01*
X66776Y257295D01*
Y257303D01*
X66780Y257315D01*
Y257323D01*
X66783Y257335D01*
X66787Y257343D01*
X66791Y257354D01*
X66799Y257362D01*
X66803Y257370D01*
X66811Y257378D01*
X66815Y257386D01*
X66823Y257394D01*
X66831Y257402D01*
X66839Y257410D01*
X66847Y257417D01*
X66854Y257421D01*
X66862Y257429D01*
X66870Y257433D01*
X66878Y257441D01*
X66890Y257445D01*
X66898Y257449D01*
X66909Y257453D01*
X66917D01*
X66929Y257457D01*
X66937D01*
X66949Y257461D01*
X69508D01*
X69520Y257457D01*
D02*
G37*
G36*
X64520D02*
X64527D01*
X64539Y257453D01*
X64547D01*
X64559Y257449D01*
X64567Y257445D01*
X64579Y257441D01*
X64587Y257433D01*
X64595Y257429D01*
X64602Y257421D01*
X64610Y257417D01*
X64618Y257410D01*
X64626Y257402D01*
X64634Y257394D01*
X64642Y257386D01*
X64646Y257378D01*
X64653Y257370D01*
X64657Y257362D01*
X64665Y257354D01*
X64669Y257343D01*
X64673Y257335D01*
X64677Y257323D01*
Y257315D01*
X64681Y257303D01*
Y257295D01*
X64685Y257283D01*
Y250984D01*
X64681Y250972D01*
Y250965D01*
X64677Y250953D01*
Y250945D01*
X64673Y250933D01*
X64669Y250925D01*
X64665Y250913D01*
X64657Y250905D01*
X64653Y250898D01*
X64646Y250890D01*
X64642Y250882D01*
X64634Y250874D01*
X64626Y250866D01*
X64618Y250858D01*
X64610Y250850D01*
X64602Y250847D01*
X64595Y250839D01*
X64587Y250835D01*
X64579Y250827D01*
X64567Y250823D01*
X64559Y250819D01*
X64547Y250815D01*
X64539D01*
X64527Y250811D01*
X64520D01*
X64508Y250807D01*
X61949D01*
X61937Y250811D01*
X61929D01*
X61917Y250815D01*
X61909D01*
X61898Y250819D01*
X61890Y250823D01*
X61878Y250827D01*
X61870Y250835D01*
X61862Y250839D01*
X61854Y250847D01*
X61847Y250850D01*
X61839Y250858D01*
X61831Y250866D01*
X61823Y250874D01*
X61815Y250882D01*
X61811Y250890D01*
X61803Y250898D01*
X61799Y250905D01*
X61791Y250913D01*
X61787Y250925D01*
X61783Y250933D01*
X61779Y250945D01*
Y250953D01*
X61776Y250965D01*
Y250972D01*
X61772Y250984D01*
Y257283D01*
X61776Y257295D01*
Y257303D01*
X61779Y257315D01*
Y257323D01*
X61783Y257335D01*
X61787Y257343D01*
X61791Y257354D01*
X61799Y257362D01*
X61803Y257370D01*
X61811Y257378D01*
X61815Y257386D01*
X61823Y257394D01*
X61831Y257402D01*
X61839Y257410D01*
X61847Y257417D01*
X61854Y257421D01*
X61862Y257429D01*
X61870Y257433D01*
X61878Y257441D01*
X61890Y257445D01*
X61898Y257449D01*
X61909Y257453D01*
X61917D01*
X61929Y257457D01*
X61937D01*
X61949Y257461D01*
X64508D01*
X64520Y257457D01*
D02*
G37*
G36*
X59520D02*
X59527D01*
X59539Y257453D01*
X59547D01*
X59559Y257449D01*
X59567Y257445D01*
X59579Y257441D01*
X59587Y257433D01*
X59595Y257429D01*
X59602Y257421D01*
X59610Y257417D01*
X59618Y257410D01*
X59626Y257402D01*
X59634Y257394D01*
X59642Y257386D01*
X59646Y257378D01*
X59654Y257370D01*
X59658Y257362D01*
X59665Y257354D01*
X59669Y257343D01*
X59673Y257335D01*
X59677Y257323D01*
Y257315D01*
X59681Y257303D01*
Y257295D01*
X59685Y257283D01*
Y250984D01*
X59681Y250972D01*
Y250965D01*
X59677Y250953D01*
Y250945D01*
X59673Y250933D01*
X59669Y250925D01*
X59665Y250913D01*
X59658Y250905D01*
X59654Y250898D01*
X59646Y250890D01*
X59642Y250882D01*
X59634Y250874D01*
X59626Y250866D01*
X59618Y250858D01*
X59610Y250850D01*
X59602Y250847D01*
X59595Y250839D01*
X59587Y250835D01*
X59579Y250827D01*
X59567Y250823D01*
X59559Y250819D01*
X59547Y250815D01*
X59539D01*
X59527Y250811D01*
X59520D01*
X59508Y250807D01*
X56949D01*
X56937Y250811D01*
X56929D01*
X56917Y250815D01*
X56909D01*
X56898Y250819D01*
X56890Y250823D01*
X56878Y250827D01*
X56870Y250835D01*
X56862Y250839D01*
X56854Y250847D01*
X56846Y250850D01*
X56839Y250858D01*
X56831Y250866D01*
X56823Y250874D01*
X56815Y250882D01*
X56811Y250890D01*
X56803Y250898D01*
X56799Y250905D01*
X56791Y250913D01*
X56787Y250925D01*
X56783Y250933D01*
X56779Y250945D01*
Y250953D01*
X56776Y250965D01*
Y250972D01*
X56772Y250984D01*
Y257283D01*
X56776Y257295D01*
Y257303D01*
X56779Y257315D01*
Y257323D01*
X56783Y257335D01*
X56787Y257343D01*
X56791Y257354D01*
X56799Y257362D01*
X56803Y257370D01*
X56811Y257378D01*
X56815Y257386D01*
X56823Y257394D01*
X56831Y257402D01*
X56839Y257410D01*
X56846Y257417D01*
X56854Y257421D01*
X56862Y257429D01*
X56870Y257433D01*
X56878Y257441D01*
X56890Y257445D01*
X56898Y257449D01*
X56909Y257453D01*
X56917D01*
X56929Y257457D01*
X56937D01*
X56949Y257461D01*
X59508D01*
X59520Y257457D01*
D02*
G37*
G36*
X54520D02*
X54527D01*
X54539Y257453D01*
X54547D01*
X54559Y257449D01*
X54567Y257445D01*
X54579Y257441D01*
X54587Y257433D01*
X54594Y257429D01*
X54602Y257421D01*
X54610Y257417D01*
X54618Y257410D01*
X54626Y257402D01*
X54634Y257394D01*
X54642Y257386D01*
X54646Y257378D01*
X54654Y257370D01*
X54658Y257362D01*
X54665Y257354D01*
X54669Y257343D01*
X54673Y257335D01*
X54677Y257323D01*
Y257315D01*
X54681Y257303D01*
Y257295D01*
X54685Y257283D01*
Y250984D01*
X54681Y250972D01*
Y250965D01*
X54677Y250953D01*
Y250945D01*
X54673Y250933D01*
X54669Y250925D01*
X54665Y250913D01*
X54658Y250905D01*
X54654Y250898D01*
X54646Y250890D01*
X54642Y250882D01*
X54634Y250874D01*
X54626Y250866D01*
X54618Y250858D01*
X54610Y250850D01*
X54602Y250847D01*
X54594Y250839D01*
X54587Y250835D01*
X54579Y250827D01*
X54567Y250823D01*
X54559Y250819D01*
X54547Y250815D01*
X54539D01*
X54527Y250811D01*
X54520D01*
X54508Y250807D01*
X51949D01*
X51937Y250811D01*
X51929D01*
X51917Y250815D01*
X51909D01*
X51898Y250819D01*
X51890Y250823D01*
X51878Y250827D01*
X51870Y250835D01*
X51862Y250839D01*
X51854Y250847D01*
X51846Y250850D01*
X51839Y250858D01*
X51831Y250866D01*
X51823Y250874D01*
X51815Y250882D01*
X51811Y250890D01*
X51803Y250898D01*
X51799Y250905D01*
X51791Y250913D01*
X51787Y250925D01*
X51784Y250933D01*
X51780Y250945D01*
Y250953D01*
X51776Y250965D01*
Y250972D01*
X51772Y250984D01*
Y257283D01*
X51776Y257295D01*
Y257303D01*
X51780Y257315D01*
Y257323D01*
X51784Y257335D01*
X51787Y257343D01*
X51791Y257354D01*
X51799Y257362D01*
X51803Y257370D01*
X51811Y257378D01*
X51815Y257386D01*
X51823Y257394D01*
X51831Y257402D01*
X51839Y257410D01*
X51846Y257417D01*
X51854Y257421D01*
X51862Y257429D01*
X51870Y257433D01*
X51878Y257441D01*
X51890Y257445D01*
X51898Y257449D01*
X51909Y257453D01*
X51917D01*
X51929Y257457D01*
X51937D01*
X51949Y257461D01*
X54508D01*
X54520Y257457D01*
D02*
G37*
G36*
X61724Y229524D02*
X61732D01*
X61744Y229520D01*
X61752D01*
X61764Y229516D01*
X61772Y229512D01*
X61783Y229508D01*
X61791Y229500D01*
X61799Y229496D01*
X61807Y229488D01*
X61815Y229484D01*
X61823Y229476D01*
X61831Y229468D01*
X61839Y229461D01*
X61847Y229453D01*
X61850Y229445D01*
X61858Y229437D01*
X61862Y229429D01*
X61870Y229421D01*
X61874Y229410D01*
X61878Y229402D01*
X61882Y229390D01*
Y229382D01*
X61886Y229370D01*
Y229362D01*
X61890Y229350D01*
Y229343D01*
Y229331D01*
Y226811D01*
Y226799D01*
Y226791D01*
X61886Y226780D01*
Y226772D01*
X61882Y226760D01*
Y226752D01*
X61878Y226740D01*
X61874Y226732D01*
X61870Y226720D01*
X61862Y226713D01*
X61858Y226705D01*
X61850Y226697D01*
X61847Y226689D01*
X61839Y226681D01*
X61831Y226673D01*
X61823Y226665D01*
X61815Y226658D01*
X61807Y226654D01*
X61799Y226646D01*
X61791Y226642D01*
X61783Y226634D01*
X61772Y226630D01*
X61764Y226626D01*
X61752Y226622D01*
X61744D01*
X61732Y226618D01*
X61724D01*
X61713Y226614D01*
X55413D01*
X55402Y226618D01*
X55394D01*
X55382Y226622D01*
X55374D01*
X55362Y226626D01*
X55354Y226630D01*
X55343Y226634D01*
X55335Y226642D01*
X55327Y226646D01*
X55319Y226654D01*
X55311Y226658D01*
X55303Y226665D01*
X55295Y226673D01*
X55287Y226681D01*
X55279Y226689D01*
X55276Y226697D01*
X55268Y226705D01*
X55264Y226713D01*
X55256Y226720D01*
X55252Y226732D01*
X55248Y226740D01*
X55244Y226752D01*
Y226760D01*
X55240Y226772D01*
Y226780D01*
X55236Y226791D01*
Y226799D01*
Y226811D01*
Y229331D01*
Y229343D01*
Y229350D01*
X55240Y229362D01*
Y229370D01*
X55244Y229382D01*
Y229390D01*
X55248Y229402D01*
X55252Y229410D01*
X55256Y229421D01*
X55264Y229429D01*
X55268Y229437D01*
X55276Y229445D01*
X55279Y229453D01*
X55287Y229461D01*
X55295Y229468D01*
X55303Y229476D01*
X55311Y229484D01*
X55319Y229488D01*
X55327Y229496D01*
X55335Y229500D01*
X55343Y229508D01*
X55354Y229512D01*
X55362Y229516D01*
X55374Y229520D01*
X55382D01*
X55394Y229524D01*
X55402D01*
X55413Y229528D01*
X61713D01*
X61724Y229524D01*
D02*
G37*
G36*
X40465D02*
X40472D01*
X40484Y229520D01*
X40492D01*
X40504Y229516D01*
X40512Y229512D01*
X40524Y229508D01*
X40532Y229500D01*
X40539Y229496D01*
X40547Y229488D01*
X40555Y229484D01*
X40563Y229476D01*
X40571Y229468D01*
X40579Y229461D01*
X40587Y229453D01*
X40591Y229445D01*
X40598Y229437D01*
X40602Y229429D01*
X40610Y229421D01*
X40614Y229410D01*
X40618Y229402D01*
X40622Y229390D01*
Y229382D01*
X40626Y229370D01*
Y229362D01*
X40630Y229350D01*
Y229343D01*
Y229331D01*
Y226811D01*
Y226799D01*
Y226791D01*
X40626Y226780D01*
Y226772D01*
X40622Y226760D01*
Y226752D01*
X40618Y226740D01*
X40614Y226732D01*
X40610Y226720D01*
X40602Y226713D01*
X40598Y226705D01*
X40591Y226697D01*
X40587Y226689D01*
X40579Y226681D01*
X40571Y226673D01*
X40563Y226665D01*
X40555Y226658D01*
X40547Y226654D01*
X40539Y226646D01*
X40532Y226642D01*
X40524Y226634D01*
X40512Y226630D01*
X40504Y226626D01*
X40492Y226622D01*
X40484D01*
X40472Y226618D01*
X40465D01*
X40453Y226614D01*
X34154D01*
X34142Y226618D01*
X34134D01*
X34122Y226622D01*
X34114D01*
X34102Y226626D01*
X34095Y226630D01*
X34083Y226634D01*
X34075Y226642D01*
X34067Y226646D01*
X34059Y226654D01*
X34051Y226658D01*
X34043Y226665D01*
X34035Y226673D01*
X34028Y226681D01*
X34020Y226689D01*
X34016Y226697D01*
X34008Y226705D01*
X34004Y226713D01*
X33996Y226720D01*
X33992Y226732D01*
X33988Y226740D01*
X33984Y226752D01*
Y226760D01*
X33980Y226772D01*
Y226780D01*
X33976Y226791D01*
Y226799D01*
Y226811D01*
Y229331D01*
Y229343D01*
Y229350D01*
X33980Y229362D01*
Y229370D01*
X33984Y229382D01*
Y229390D01*
X33988Y229402D01*
X33992Y229410D01*
X33996Y229421D01*
X34004Y229429D01*
X34008Y229437D01*
X34016Y229445D01*
X34020Y229453D01*
X34028Y229461D01*
X34035Y229468D01*
X34043Y229476D01*
X34051Y229484D01*
X34059Y229488D01*
X34067Y229496D01*
X34075Y229500D01*
X34083Y229508D01*
X34095Y229512D01*
X34102Y229516D01*
X34114Y229520D01*
X34122D01*
X34134Y229524D01*
X34142D01*
X34154Y229528D01*
X40453D01*
X40465Y229524D01*
D02*
G37*
G36*
X61724Y224524D02*
X61732D01*
X61744Y224520D01*
X61752D01*
X61764Y224516D01*
X61772Y224512D01*
X61783Y224508D01*
X61791Y224500D01*
X61799Y224496D01*
X61807Y224488D01*
X61815Y224484D01*
X61823Y224476D01*
X61831Y224468D01*
X61839Y224461D01*
X61847Y224453D01*
X61850Y224445D01*
X61858Y224437D01*
X61862Y224429D01*
X61870Y224421D01*
X61874Y224410D01*
X61878Y224402D01*
X61882Y224390D01*
Y224382D01*
X61886Y224370D01*
Y224362D01*
X61890Y224350D01*
Y224342D01*
Y224331D01*
Y221811D01*
Y221799D01*
Y221791D01*
X61886Y221780D01*
Y221772D01*
X61882Y221760D01*
Y221752D01*
X61878Y221740D01*
X61874Y221732D01*
X61870Y221721D01*
X61862Y221713D01*
X61858Y221705D01*
X61850Y221697D01*
X61847Y221689D01*
X61839Y221681D01*
X61831Y221673D01*
X61823Y221665D01*
X61815Y221657D01*
X61807Y221654D01*
X61799Y221646D01*
X61791Y221642D01*
X61783Y221634D01*
X61772Y221630D01*
X61764Y221626D01*
X61752Y221622D01*
X61744D01*
X61732Y221618D01*
X61724D01*
X61713Y221614D01*
X55413D01*
X55402Y221618D01*
X55394D01*
X55382Y221622D01*
X55374D01*
X55362Y221626D01*
X55354Y221630D01*
X55343Y221634D01*
X55335Y221642D01*
X55327Y221646D01*
X55319Y221654D01*
X55311Y221657D01*
X55303Y221665D01*
X55295Y221673D01*
X55287Y221681D01*
X55279Y221689D01*
X55276Y221697D01*
X55268Y221705D01*
X55264Y221713D01*
X55256Y221721D01*
X55252Y221732D01*
X55248Y221740D01*
X55244Y221752D01*
Y221760D01*
X55240Y221772D01*
Y221780D01*
X55236Y221791D01*
Y221799D01*
Y221811D01*
Y224331D01*
Y224342D01*
Y224350D01*
X55240Y224362D01*
Y224370D01*
X55244Y224382D01*
Y224390D01*
X55248Y224402D01*
X55252Y224410D01*
X55256Y224421D01*
X55264Y224429D01*
X55268Y224437D01*
X55276Y224445D01*
X55279Y224453D01*
X55287Y224461D01*
X55295Y224468D01*
X55303Y224476D01*
X55311Y224484D01*
X55319Y224488D01*
X55327Y224496D01*
X55335Y224500D01*
X55343Y224508D01*
X55354Y224512D01*
X55362Y224516D01*
X55374Y224520D01*
X55382D01*
X55394Y224524D01*
X55402D01*
X55413Y224528D01*
X61713D01*
X61724Y224524D01*
D02*
G37*
G36*
X40465D02*
X40472D01*
X40484Y224520D01*
X40492D01*
X40504Y224516D01*
X40512Y224512D01*
X40524Y224508D01*
X40532Y224500D01*
X40539Y224496D01*
X40547Y224488D01*
X40555Y224484D01*
X40563Y224476D01*
X40571Y224468D01*
X40579Y224461D01*
X40587Y224453D01*
X40591Y224445D01*
X40598Y224437D01*
X40602Y224429D01*
X40610Y224421D01*
X40614Y224410D01*
X40618Y224402D01*
X40622Y224390D01*
Y224382D01*
X40626Y224370D01*
Y224362D01*
X40630Y224350D01*
Y224342D01*
Y224331D01*
Y221811D01*
Y221799D01*
Y221791D01*
X40626Y221780D01*
Y221772D01*
X40622Y221760D01*
Y221752D01*
X40618Y221740D01*
X40614Y221732D01*
X40610Y221721D01*
X40602Y221713D01*
X40598Y221705D01*
X40591Y221697D01*
X40587Y221689D01*
X40579Y221681D01*
X40571Y221673D01*
X40563Y221665D01*
X40555Y221657D01*
X40547Y221654D01*
X40539Y221646D01*
X40532Y221642D01*
X40524Y221634D01*
X40512Y221630D01*
X40504Y221626D01*
X40492Y221622D01*
X40484D01*
X40472Y221618D01*
X40465D01*
X40453Y221614D01*
X34154D01*
X34142Y221618D01*
X34134D01*
X34122Y221622D01*
X34114D01*
X34102Y221626D01*
X34095Y221630D01*
X34083Y221634D01*
X34075Y221642D01*
X34067Y221646D01*
X34059Y221654D01*
X34051Y221657D01*
X34043Y221665D01*
X34035Y221673D01*
X34028Y221681D01*
X34020Y221689D01*
X34016Y221697D01*
X34008Y221705D01*
X34004Y221713D01*
X33996Y221721D01*
X33992Y221732D01*
X33988Y221740D01*
X33984Y221752D01*
Y221760D01*
X33980Y221772D01*
Y221780D01*
X33976Y221791D01*
Y221799D01*
Y221811D01*
Y224331D01*
Y224342D01*
Y224350D01*
X33980Y224362D01*
Y224370D01*
X33984Y224382D01*
Y224390D01*
X33988Y224402D01*
X33992Y224410D01*
X33996Y224421D01*
X34004Y224429D01*
X34008Y224437D01*
X34016Y224445D01*
X34020Y224453D01*
X34028Y224461D01*
X34035Y224468D01*
X34043Y224476D01*
X34051Y224484D01*
X34059Y224488D01*
X34067Y224496D01*
X34075Y224500D01*
X34083Y224508D01*
X34095Y224512D01*
X34102Y224516D01*
X34114Y224520D01*
X34122D01*
X34134Y224524D01*
X34142D01*
X34154Y224528D01*
X40453D01*
X40465Y224524D01*
D02*
G37*
G36*
X61724Y219524D02*
X61732D01*
X61744Y219520D01*
X61752D01*
X61764Y219516D01*
X61772Y219512D01*
X61783Y219508D01*
X61791Y219500D01*
X61799Y219496D01*
X61807Y219488D01*
X61815Y219484D01*
X61823Y219476D01*
X61831Y219468D01*
X61839Y219461D01*
X61847Y219453D01*
X61850Y219445D01*
X61858Y219437D01*
X61862Y219429D01*
X61870Y219421D01*
X61874Y219409D01*
X61878Y219402D01*
X61882Y219390D01*
Y219382D01*
X61886Y219370D01*
Y219362D01*
X61890Y219350D01*
Y219342D01*
Y219331D01*
Y216811D01*
Y216799D01*
Y216791D01*
X61886Y216780D01*
Y216772D01*
X61882Y216760D01*
Y216752D01*
X61878Y216740D01*
X61874Y216732D01*
X61870Y216721D01*
X61862Y216713D01*
X61858Y216705D01*
X61850Y216697D01*
X61847Y216689D01*
X61839Y216681D01*
X61831Y216673D01*
X61823Y216665D01*
X61815Y216657D01*
X61807Y216654D01*
X61799Y216646D01*
X61791Y216642D01*
X61783Y216634D01*
X61772Y216630D01*
X61764Y216626D01*
X61752Y216622D01*
X61744D01*
X61732Y216618D01*
X61724D01*
X61713Y216614D01*
X55413D01*
X55402Y216618D01*
X55394D01*
X55382Y216622D01*
X55374D01*
X55362Y216626D01*
X55354Y216630D01*
X55343Y216634D01*
X55335Y216642D01*
X55327Y216646D01*
X55319Y216654D01*
X55311Y216657D01*
X55303Y216665D01*
X55295Y216673D01*
X55287Y216681D01*
X55279Y216689D01*
X55276Y216697D01*
X55268Y216705D01*
X55264Y216713D01*
X55256Y216721D01*
X55252Y216732D01*
X55248Y216740D01*
X55244Y216752D01*
Y216760D01*
X55240Y216772D01*
Y216780D01*
X55236Y216791D01*
Y216799D01*
Y216811D01*
Y219331D01*
Y219342D01*
Y219350D01*
X55240Y219362D01*
Y219370D01*
X55244Y219382D01*
Y219390D01*
X55248Y219402D01*
X55252Y219409D01*
X55256Y219421D01*
X55264Y219429D01*
X55268Y219437D01*
X55276Y219445D01*
X55279Y219453D01*
X55287Y219461D01*
X55295Y219468D01*
X55303Y219476D01*
X55311Y219484D01*
X55319Y219488D01*
X55327Y219496D01*
X55335Y219500D01*
X55343Y219508D01*
X55354Y219512D01*
X55362Y219516D01*
X55374Y219520D01*
X55382D01*
X55394Y219524D01*
X55402D01*
X55413Y219528D01*
X61713D01*
X61724Y219524D01*
D02*
G37*
G36*
X40465D02*
X40472D01*
X40484Y219520D01*
X40492D01*
X40504Y219516D01*
X40512Y219512D01*
X40524Y219508D01*
X40532Y219500D01*
X40539Y219496D01*
X40547Y219488D01*
X40555Y219484D01*
X40563Y219476D01*
X40571Y219468D01*
X40579Y219461D01*
X40587Y219453D01*
X40591Y219445D01*
X40598Y219437D01*
X40602Y219429D01*
X40610Y219421D01*
X40614Y219409D01*
X40618Y219402D01*
X40622Y219390D01*
Y219382D01*
X40626Y219370D01*
Y219362D01*
X40630Y219350D01*
Y219342D01*
Y219331D01*
Y216811D01*
Y216799D01*
Y216791D01*
X40626Y216780D01*
Y216772D01*
X40622Y216760D01*
Y216752D01*
X40618Y216740D01*
X40614Y216732D01*
X40610Y216721D01*
X40602Y216713D01*
X40598Y216705D01*
X40591Y216697D01*
X40587Y216689D01*
X40579Y216681D01*
X40571Y216673D01*
X40563Y216665D01*
X40555Y216657D01*
X40547Y216654D01*
X40539Y216646D01*
X40532Y216642D01*
X40524Y216634D01*
X40512Y216630D01*
X40504Y216626D01*
X40492Y216622D01*
X40484D01*
X40472Y216618D01*
X40465D01*
X40453Y216614D01*
X34154D01*
X34142Y216618D01*
X34134D01*
X34122Y216622D01*
X34114D01*
X34102Y216626D01*
X34095Y216630D01*
X34083Y216634D01*
X34075Y216642D01*
X34067Y216646D01*
X34059Y216654D01*
X34051Y216657D01*
X34043Y216665D01*
X34035Y216673D01*
X34028Y216681D01*
X34020Y216689D01*
X34016Y216697D01*
X34008Y216705D01*
X34004Y216713D01*
X33996Y216721D01*
X33992Y216732D01*
X33988Y216740D01*
X33984Y216752D01*
Y216760D01*
X33980Y216772D01*
Y216780D01*
X33976Y216791D01*
Y216799D01*
Y216811D01*
Y219331D01*
Y219342D01*
Y219350D01*
X33980Y219362D01*
Y219370D01*
X33984Y219382D01*
Y219390D01*
X33988Y219402D01*
X33992Y219409D01*
X33996Y219421D01*
X34004Y219429D01*
X34008Y219437D01*
X34016Y219445D01*
X34020Y219453D01*
X34028Y219461D01*
X34035Y219468D01*
X34043Y219476D01*
X34051Y219484D01*
X34059Y219488D01*
X34067Y219496D01*
X34075Y219500D01*
X34083Y219508D01*
X34095Y219512D01*
X34102Y219516D01*
X34114Y219520D01*
X34122D01*
X34134Y219524D01*
X34142D01*
X34154Y219528D01*
X40453D01*
X40465Y219524D01*
D02*
G37*
G36*
X53268Y213878D02*
X42598D01*
Y227264D01*
X53268D01*
Y213878D01*
D02*
G37*
G36*
X61724Y214524D02*
X61732D01*
X61744Y214520D01*
X61752D01*
X61764Y214516D01*
X61772Y214512D01*
X61783Y214508D01*
X61791Y214500D01*
X61799Y214496D01*
X61807Y214488D01*
X61815Y214484D01*
X61823Y214476D01*
X61831Y214469D01*
X61839Y214461D01*
X61847Y214453D01*
X61850Y214445D01*
X61858Y214437D01*
X61862Y214429D01*
X61870Y214421D01*
X61874Y214409D01*
X61878Y214402D01*
X61882Y214390D01*
Y214382D01*
X61886Y214370D01*
Y214362D01*
X61890Y214350D01*
Y214342D01*
Y214331D01*
Y211811D01*
Y211799D01*
Y211791D01*
X61886Y211780D01*
Y211772D01*
X61882Y211760D01*
Y211752D01*
X61878Y211740D01*
X61874Y211732D01*
X61870Y211720D01*
X61862Y211713D01*
X61858Y211705D01*
X61850Y211697D01*
X61847Y211689D01*
X61839Y211681D01*
X61831Y211673D01*
X61823Y211665D01*
X61815Y211658D01*
X61807Y211654D01*
X61799Y211646D01*
X61791Y211642D01*
X61783Y211634D01*
X61772Y211630D01*
X61764Y211626D01*
X61752Y211622D01*
X61744D01*
X61732Y211618D01*
X61724D01*
X61713Y211614D01*
X55413D01*
X55402Y211618D01*
X55394D01*
X55382Y211622D01*
X55374D01*
X55362Y211626D01*
X55354Y211630D01*
X55343Y211634D01*
X55335Y211642D01*
X55327Y211646D01*
X55319Y211654D01*
X55311Y211658D01*
X55303Y211665D01*
X55295Y211673D01*
X55287Y211681D01*
X55279Y211689D01*
X55276Y211697D01*
X55268Y211705D01*
X55264Y211713D01*
X55256Y211720D01*
X55252Y211732D01*
X55248Y211740D01*
X55244Y211752D01*
Y211760D01*
X55240Y211772D01*
Y211780D01*
X55236Y211791D01*
Y211799D01*
Y211811D01*
Y214331D01*
Y214342D01*
Y214350D01*
X55240Y214362D01*
Y214370D01*
X55244Y214382D01*
Y214390D01*
X55248Y214402D01*
X55252Y214409D01*
X55256Y214421D01*
X55264Y214429D01*
X55268Y214437D01*
X55276Y214445D01*
X55279Y214453D01*
X55287Y214461D01*
X55295Y214469D01*
X55303Y214476D01*
X55311Y214484D01*
X55319Y214488D01*
X55327Y214496D01*
X55335Y214500D01*
X55343Y214508D01*
X55354Y214512D01*
X55362Y214516D01*
X55374Y214520D01*
X55382D01*
X55394Y214524D01*
X55402D01*
X55413Y214528D01*
X61713D01*
X61724Y214524D01*
D02*
G37*
G36*
X40465D02*
X40472D01*
X40484Y214520D01*
X40492D01*
X40504Y214516D01*
X40512Y214512D01*
X40524Y214508D01*
X40532Y214500D01*
X40539Y214496D01*
X40547Y214488D01*
X40555Y214484D01*
X40563Y214476D01*
X40571Y214469D01*
X40579Y214461D01*
X40587Y214453D01*
X40591Y214445D01*
X40598Y214437D01*
X40602Y214429D01*
X40610Y214421D01*
X40614Y214409D01*
X40618Y214402D01*
X40622Y214390D01*
Y214382D01*
X40626Y214370D01*
Y214362D01*
X40630Y214350D01*
Y214342D01*
Y214331D01*
Y211811D01*
Y211799D01*
Y211791D01*
X40626Y211780D01*
Y211772D01*
X40622Y211760D01*
Y211752D01*
X40618Y211740D01*
X40614Y211732D01*
X40610Y211720D01*
X40602Y211713D01*
X40598Y211705D01*
X40591Y211697D01*
X40587Y211689D01*
X40579Y211681D01*
X40571Y211673D01*
X40563Y211665D01*
X40555Y211658D01*
X40547Y211654D01*
X40539Y211646D01*
X40532Y211642D01*
X40524Y211634D01*
X40512Y211630D01*
X40504Y211626D01*
X40492Y211622D01*
X40484D01*
X40472Y211618D01*
X40465D01*
X40453Y211614D01*
X34154D01*
X34142Y211618D01*
X34134D01*
X34122Y211622D01*
X34114D01*
X34102Y211626D01*
X34095Y211630D01*
X34083Y211634D01*
X34075Y211642D01*
X34067Y211646D01*
X34059Y211654D01*
X34051Y211658D01*
X34043Y211665D01*
X34035Y211673D01*
X34028Y211681D01*
X34020Y211689D01*
X34016Y211697D01*
X34008Y211705D01*
X34004Y211713D01*
X33996Y211720D01*
X33992Y211732D01*
X33988Y211740D01*
X33984Y211752D01*
Y211760D01*
X33980Y211772D01*
Y211780D01*
X33976Y211791D01*
Y211799D01*
Y211811D01*
Y214331D01*
Y214342D01*
Y214350D01*
X33980Y214362D01*
Y214370D01*
X33984Y214382D01*
Y214390D01*
X33988Y214402D01*
X33992Y214409D01*
X33996Y214421D01*
X34004Y214429D01*
X34008Y214437D01*
X34016Y214445D01*
X34020Y214453D01*
X34028Y214461D01*
X34035Y214469D01*
X34043Y214476D01*
X34051Y214484D01*
X34059Y214488D01*
X34067Y214496D01*
X34075Y214500D01*
X34083Y214508D01*
X34095Y214512D01*
X34102Y214516D01*
X34114Y214520D01*
X34122D01*
X34134Y214524D01*
X34142D01*
X34154Y214528D01*
X40453D01*
X40465Y214524D01*
D02*
G37*
G36*
X59854Y174602D02*
X59862D01*
X59874Y174599D01*
X59882D01*
X59894Y174594D01*
X59902Y174591D01*
X59913Y174587D01*
X59921Y174579D01*
X59929Y174575D01*
X59937Y174567D01*
X59945Y174563D01*
X59953Y174555D01*
X59961Y174547D01*
X59969Y174539D01*
X59976Y174531D01*
X59980Y174524D01*
X59988Y174516D01*
X59992Y174508D01*
X60000Y174500D01*
X60004Y174488D01*
X60008Y174480D01*
X60012Y174469D01*
Y174461D01*
X60016Y174449D01*
Y174441D01*
X60020Y174429D01*
Y174421D01*
Y174409D01*
Y171890D01*
Y171878D01*
Y171870D01*
X60016Y171858D01*
Y171850D01*
X60012Y171839D01*
Y171831D01*
X60008Y171819D01*
X60004Y171811D01*
X60000Y171799D01*
X59992Y171791D01*
X59988Y171783D01*
X59980Y171776D01*
X59976Y171768D01*
X59969Y171760D01*
X59961Y171752D01*
X59953Y171744D01*
X59945Y171736D01*
X59937Y171732D01*
X59929Y171724D01*
X59921Y171721D01*
X59913Y171713D01*
X59902Y171709D01*
X59894Y171705D01*
X59882Y171701D01*
X59874D01*
X59862Y171697D01*
X59854D01*
X59842Y171693D01*
X53543D01*
X53531Y171697D01*
X53524D01*
X53512Y171701D01*
X53504D01*
X53492Y171705D01*
X53484Y171709D01*
X53472Y171713D01*
X53465Y171721D01*
X53457Y171724D01*
X53449Y171732D01*
X53441Y171736D01*
X53433Y171744D01*
X53425Y171752D01*
X53417Y171760D01*
X53409Y171768D01*
X53405Y171776D01*
X53398Y171783D01*
X53394Y171791D01*
X53386Y171799D01*
X53382Y171811D01*
X53378Y171819D01*
X53374Y171831D01*
Y171839D01*
X53370Y171850D01*
Y171858D01*
X53366Y171870D01*
Y171878D01*
Y171890D01*
Y174409D01*
Y174421D01*
Y174429D01*
X53370Y174441D01*
Y174449D01*
X53374Y174461D01*
Y174469D01*
X53378Y174480D01*
X53382Y174488D01*
X53386Y174500D01*
X53394Y174508D01*
X53398Y174516D01*
X53405Y174524D01*
X53409Y174531D01*
X53417Y174539D01*
X53425Y174547D01*
X53433Y174555D01*
X53441Y174563D01*
X53449Y174567D01*
X53457Y174575D01*
X53465Y174579D01*
X53472Y174587D01*
X53484Y174591D01*
X53492Y174594D01*
X53504Y174599D01*
X53512D01*
X53524Y174602D01*
X53531D01*
X53543Y174606D01*
X59842D01*
X59854Y174602D01*
D02*
G37*
G36*
X38594D02*
X38602D01*
X38614Y174599D01*
X38622D01*
X38634Y174594D01*
X38642Y174591D01*
X38653Y174587D01*
X38661Y174579D01*
X38669Y174575D01*
X38677Y174567D01*
X38685Y174563D01*
X38693Y174555D01*
X38701Y174547D01*
X38709Y174539D01*
X38717Y174531D01*
X38721Y174524D01*
X38728Y174516D01*
X38732Y174508D01*
X38740Y174500D01*
X38744Y174488D01*
X38748Y174480D01*
X38752Y174469D01*
Y174461D01*
X38756Y174449D01*
Y174441D01*
X38760Y174429D01*
Y174421D01*
Y174409D01*
Y171890D01*
Y171878D01*
Y171870D01*
X38756Y171858D01*
Y171850D01*
X38752Y171839D01*
Y171831D01*
X38748Y171819D01*
X38744Y171811D01*
X38740Y171799D01*
X38732Y171791D01*
X38728Y171783D01*
X38721Y171776D01*
X38717Y171768D01*
X38709Y171760D01*
X38701Y171752D01*
X38693Y171744D01*
X38685Y171736D01*
X38677Y171732D01*
X38669Y171724D01*
X38661Y171721D01*
X38653Y171713D01*
X38642Y171709D01*
X38634Y171705D01*
X38622Y171701D01*
X38614D01*
X38602Y171697D01*
X38594D01*
X38583Y171693D01*
X32283D01*
X32272Y171697D01*
X32264D01*
X32252Y171701D01*
X32244D01*
X32232Y171705D01*
X32224Y171709D01*
X32213Y171713D01*
X32205Y171721D01*
X32197Y171724D01*
X32189Y171732D01*
X32181Y171736D01*
X32173Y171744D01*
X32165Y171752D01*
X32157Y171760D01*
X32150Y171768D01*
X32146Y171776D01*
X32138Y171783D01*
X32134Y171791D01*
X32126Y171799D01*
X32122Y171811D01*
X32118Y171819D01*
X32114Y171831D01*
Y171839D01*
X32110Y171850D01*
Y171858D01*
X32106Y171870D01*
Y171878D01*
Y171890D01*
Y174409D01*
Y174421D01*
Y174429D01*
X32110Y174441D01*
Y174449D01*
X32114Y174461D01*
Y174469D01*
X32118Y174480D01*
X32122Y174488D01*
X32126Y174500D01*
X32134Y174508D01*
X32138Y174516D01*
X32146Y174524D01*
X32150Y174531D01*
X32157Y174539D01*
X32165Y174547D01*
X32173Y174555D01*
X32181Y174563D01*
X32189Y174567D01*
X32197Y174575D01*
X32205Y174579D01*
X32213Y174587D01*
X32224Y174591D01*
X32232Y174594D01*
X32244Y174599D01*
X32252D01*
X32264Y174602D01*
X32272D01*
X32283Y174606D01*
X38583D01*
X38594Y174602D01*
D02*
G37*
G36*
X59854Y169602D02*
X59862D01*
X59874Y169598D01*
X59882D01*
X59894Y169595D01*
X59902Y169591D01*
X59913Y169587D01*
X59921Y169579D01*
X59929Y169575D01*
X59937Y169567D01*
X59945Y169563D01*
X59953Y169555D01*
X59961Y169547D01*
X59969Y169539D01*
X59976Y169532D01*
X59980Y169524D01*
X59988Y169516D01*
X59992Y169508D01*
X60000Y169500D01*
X60004Y169488D01*
X60008Y169480D01*
X60012Y169468D01*
Y169461D01*
X60016Y169449D01*
Y169441D01*
X60020Y169429D01*
Y169421D01*
Y169410D01*
Y166890D01*
Y166878D01*
Y166870D01*
X60016Y166858D01*
Y166850D01*
X60012Y166839D01*
Y166831D01*
X60008Y166819D01*
X60004Y166811D01*
X60000Y166799D01*
X59992Y166791D01*
X59988Y166783D01*
X59980Y166776D01*
X59976Y166768D01*
X59969Y166760D01*
X59961Y166752D01*
X59953Y166744D01*
X59945Y166736D01*
X59937Y166732D01*
X59929Y166724D01*
X59921Y166720D01*
X59913Y166713D01*
X59902Y166709D01*
X59894Y166705D01*
X59882Y166701D01*
X59874D01*
X59862Y166697D01*
X59854D01*
X59842Y166693D01*
X53543D01*
X53531Y166697D01*
X53524D01*
X53512Y166701D01*
X53504D01*
X53492Y166705D01*
X53484Y166709D01*
X53472Y166713D01*
X53465Y166720D01*
X53457Y166724D01*
X53449Y166732D01*
X53441Y166736D01*
X53433Y166744D01*
X53425Y166752D01*
X53417Y166760D01*
X53409Y166768D01*
X53405Y166776D01*
X53398Y166783D01*
X53394Y166791D01*
X53386Y166799D01*
X53382Y166811D01*
X53378Y166819D01*
X53374Y166831D01*
Y166839D01*
X53370Y166850D01*
Y166858D01*
X53366Y166870D01*
Y166878D01*
Y166890D01*
Y169410D01*
Y169421D01*
Y169429D01*
X53370Y169441D01*
Y169449D01*
X53374Y169461D01*
Y169468D01*
X53378Y169480D01*
X53382Y169488D01*
X53386Y169500D01*
X53394Y169508D01*
X53398Y169516D01*
X53405Y169524D01*
X53409Y169532D01*
X53417Y169539D01*
X53425Y169547D01*
X53433Y169555D01*
X53441Y169563D01*
X53449Y169567D01*
X53457Y169575D01*
X53465Y169579D01*
X53472Y169587D01*
X53484Y169591D01*
X53492Y169595D01*
X53504Y169598D01*
X53512D01*
X53524Y169602D01*
X53531D01*
X53543Y169606D01*
X59842D01*
X59854Y169602D01*
D02*
G37*
G36*
X38594D02*
X38602D01*
X38614Y169598D01*
X38622D01*
X38634Y169595D01*
X38642Y169591D01*
X38653Y169587D01*
X38661Y169579D01*
X38669Y169575D01*
X38677Y169567D01*
X38685Y169563D01*
X38693Y169555D01*
X38701Y169547D01*
X38709Y169539D01*
X38717Y169532D01*
X38721Y169524D01*
X38728Y169516D01*
X38732Y169508D01*
X38740Y169500D01*
X38744Y169488D01*
X38748Y169480D01*
X38752Y169468D01*
Y169461D01*
X38756Y169449D01*
Y169441D01*
X38760Y169429D01*
Y169421D01*
Y169410D01*
Y166890D01*
Y166878D01*
Y166870D01*
X38756Y166858D01*
Y166850D01*
X38752Y166839D01*
Y166831D01*
X38748Y166819D01*
X38744Y166811D01*
X38740Y166799D01*
X38732Y166791D01*
X38728Y166783D01*
X38721Y166776D01*
X38717Y166768D01*
X38709Y166760D01*
X38701Y166752D01*
X38693Y166744D01*
X38685Y166736D01*
X38677Y166732D01*
X38669Y166724D01*
X38661Y166720D01*
X38653Y166713D01*
X38642Y166709D01*
X38634Y166705D01*
X38622Y166701D01*
X38614D01*
X38602Y166697D01*
X38594D01*
X38583Y166693D01*
X32283D01*
X32272Y166697D01*
X32264D01*
X32252Y166701D01*
X32244D01*
X32232Y166705D01*
X32224Y166709D01*
X32213Y166713D01*
X32205Y166720D01*
X32197Y166724D01*
X32189Y166732D01*
X32181Y166736D01*
X32173Y166744D01*
X32165Y166752D01*
X32157Y166760D01*
X32150Y166768D01*
X32146Y166776D01*
X32138Y166783D01*
X32134Y166791D01*
X32126Y166799D01*
X32122Y166811D01*
X32118Y166819D01*
X32114Y166831D01*
Y166839D01*
X32110Y166850D01*
Y166858D01*
X32106Y166870D01*
Y166878D01*
Y166890D01*
Y169410D01*
Y169421D01*
Y169429D01*
X32110Y169441D01*
Y169449D01*
X32114Y169461D01*
Y169468D01*
X32118Y169480D01*
X32122Y169488D01*
X32126Y169500D01*
X32134Y169508D01*
X32138Y169516D01*
X32146Y169524D01*
X32150Y169532D01*
X32157Y169539D01*
X32165Y169547D01*
X32173Y169555D01*
X32181Y169563D01*
X32189Y169567D01*
X32197Y169575D01*
X32205Y169579D01*
X32213Y169587D01*
X32224Y169591D01*
X32232Y169595D01*
X32244Y169598D01*
X32252D01*
X32264Y169602D01*
X32272D01*
X32283Y169606D01*
X38583D01*
X38594Y169602D01*
D02*
G37*
G36*
X59854Y164602D02*
X59862D01*
X59874Y164599D01*
X59882D01*
X59894Y164594D01*
X59902Y164591D01*
X59913Y164587D01*
X59921Y164579D01*
X59929Y164575D01*
X59937Y164567D01*
X59945Y164563D01*
X59953Y164555D01*
X59961Y164547D01*
X59969Y164539D01*
X59976Y164532D01*
X59980Y164524D01*
X59988Y164516D01*
X59992Y164508D01*
X60000Y164500D01*
X60004Y164488D01*
X60008Y164480D01*
X60012Y164469D01*
Y164461D01*
X60016Y164449D01*
Y164441D01*
X60020Y164429D01*
Y164421D01*
Y164409D01*
Y161890D01*
Y161878D01*
Y161870D01*
X60016Y161858D01*
Y161850D01*
X60012Y161839D01*
Y161831D01*
X60008Y161819D01*
X60004Y161811D01*
X60000Y161799D01*
X59992Y161791D01*
X59988Y161784D01*
X59980Y161776D01*
X59976Y161768D01*
X59969Y161760D01*
X59961Y161752D01*
X59953Y161744D01*
X59945Y161736D01*
X59937Y161732D01*
X59929Y161724D01*
X59921Y161721D01*
X59913Y161713D01*
X59902Y161709D01*
X59894Y161705D01*
X59882Y161701D01*
X59874D01*
X59862Y161697D01*
X59854D01*
X59842Y161693D01*
X53543D01*
X53531Y161697D01*
X53524D01*
X53512Y161701D01*
X53504D01*
X53492Y161705D01*
X53484Y161709D01*
X53472Y161713D01*
X53465Y161721D01*
X53457Y161724D01*
X53449Y161732D01*
X53441Y161736D01*
X53433Y161744D01*
X53425Y161752D01*
X53417Y161760D01*
X53409Y161768D01*
X53405Y161776D01*
X53398Y161784D01*
X53394Y161791D01*
X53386Y161799D01*
X53382Y161811D01*
X53378Y161819D01*
X53374Y161831D01*
Y161839D01*
X53370Y161850D01*
Y161858D01*
X53366Y161870D01*
Y161878D01*
Y161890D01*
Y164409D01*
Y164421D01*
Y164429D01*
X53370Y164441D01*
Y164449D01*
X53374Y164461D01*
Y164469D01*
X53378Y164480D01*
X53382Y164488D01*
X53386Y164500D01*
X53394Y164508D01*
X53398Y164516D01*
X53405Y164524D01*
X53409Y164532D01*
X53417Y164539D01*
X53425Y164547D01*
X53433Y164555D01*
X53441Y164563D01*
X53449Y164567D01*
X53457Y164575D01*
X53465Y164579D01*
X53472Y164587D01*
X53484Y164591D01*
X53492Y164594D01*
X53504Y164599D01*
X53512D01*
X53524Y164602D01*
X53531D01*
X53543Y164606D01*
X59842D01*
X59854Y164602D01*
D02*
G37*
G36*
X38594D02*
X38602D01*
X38614Y164599D01*
X38622D01*
X38634Y164594D01*
X38642Y164591D01*
X38653Y164587D01*
X38661Y164579D01*
X38669Y164575D01*
X38677Y164567D01*
X38685Y164563D01*
X38693Y164555D01*
X38701Y164547D01*
X38709Y164539D01*
X38717Y164532D01*
X38721Y164524D01*
X38728Y164516D01*
X38732Y164508D01*
X38740Y164500D01*
X38744Y164488D01*
X38748Y164480D01*
X38752Y164469D01*
Y164461D01*
X38756Y164449D01*
Y164441D01*
X38760Y164429D01*
Y164421D01*
Y164409D01*
Y161890D01*
Y161878D01*
Y161870D01*
X38756Y161858D01*
Y161850D01*
X38752Y161839D01*
Y161831D01*
X38748Y161819D01*
X38744Y161811D01*
X38740Y161799D01*
X38732Y161791D01*
X38728Y161784D01*
X38721Y161776D01*
X38717Y161768D01*
X38709Y161760D01*
X38701Y161752D01*
X38693Y161744D01*
X38685Y161736D01*
X38677Y161732D01*
X38669Y161724D01*
X38661Y161721D01*
X38653Y161713D01*
X38642Y161709D01*
X38634Y161705D01*
X38622Y161701D01*
X38614D01*
X38602Y161697D01*
X38594D01*
X38583Y161693D01*
X32283D01*
X32272Y161697D01*
X32264D01*
X32252Y161701D01*
X32244D01*
X32232Y161705D01*
X32224Y161709D01*
X32213Y161713D01*
X32205Y161721D01*
X32197Y161724D01*
X32189Y161732D01*
X32181Y161736D01*
X32173Y161744D01*
X32165Y161752D01*
X32157Y161760D01*
X32150Y161768D01*
X32146Y161776D01*
X32138Y161784D01*
X32134Y161791D01*
X32126Y161799D01*
X32122Y161811D01*
X32118Y161819D01*
X32114Y161831D01*
Y161839D01*
X32110Y161850D01*
Y161858D01*
X32106Y161870D01*
Y161878D01*
Y161890D01*
Y164409D01*
Y164421D01*
Y164429D01*
X32110Y164441D01*
Y164449D01*
X32114Y164461D01*
Y164469D01*
X32118Y164480D01*
X32122Y164488D01*
X32126Y164500D01*
X32134Y164508D01*
X32138Y164516D01*
X32146Y164524D01*
X32150Y164532D01*
X32157Y164539D01*
X32165Y164547D01*
X32173Y164555D01*
X32181Y164563D01*
X32189Y164567D01*
X32197Y164575D01*
X32205Y164579D01*
X32213Y164587D01*
X32224Y164591D01*
X32232Y164594D01*
X32244Y164599D01*
X32252D01*
X32264Y164602D01*
X32272D01*
X32283Y164606D01*
X38583D01*
X38594Y164602D01*
D02*
G37*
G36*
X51398Y158957D02*
X40728D01*
Y172343D01*
X51398D01*
Y158957D01*
D02*
G37*
G36*
X59854Y159602D02*
X59862D01*
X59874Y159599D01*
X59882D01*
X59894Y159595D01*
X59902Y159591D01*
X59913Y159587D01*
X59921Y159579D01*
X59929Y159575D01*
X59937Y159567D01*
X59945Y159563D01*
X59953Y159555D01*
X59961Y159547D01*
X59969Y159539D01*
X59976Y159531D01*
X59980Y159524D01*
X59988Y159516D01*
X59992Y159508D01*
X60000Y159500D01*
X60004Y159488D01*
X60008Y159480D01*
X60012Y159468D01*
Y159461D01*
X60016Y159449D01*
Y159441D01*
X60020Y159429D01*
Y159421D01*
Y159409D01*
Y156890D01*
Y156878D01*
Y156870D01*
X60016Y156858D01*
Y156850D01*
X60012Y156839D01*
Y156831D01*
X60008Y156819D01*
X60004Y156811D01*
X60000Y156799D01*
X59992Y156791D01*
X59988Y156783D01*
X59980Y156776D01*
X59976Y156768D01*
X59969Y156760D01*
X59961Y156752D01*
X59953Y156744D01*
X59945Y156736D01*
X59937Y156732D01*
X59929Y156724D01*
X59921Y156720D01*
X59913Y156713D01*
X59902Y156709D01*
X59894Y156705D01*
X59882Y156701D01*
X59874D01*
X59862Y156697D01*
X59854D01*
X59842Y156693D01*
X53543D01*
X53531Y156697D01*
X53524D01*
X53512Y156701D01*
X53504D01*
X53492Y156705D01*
X53484Y156709D01*
X53472Y156713D01*
X53465Y156720D01*
X53457Y156724D01*
X53449Y156732D01*
X53441Y156736D01*
X53433Y156744D01*
X53425Y156752D01*
X53417Y156760D01*
X53409Y156768D01*
X53405Y156776D01*
X53398Y156783D01*
X53394Y156791D01*
X53386Y156799D01*
X53382Y156811D01*
X53378Y156819D01*
X53374Y156831D01*
Y156839D01*
X53370Y156850D01*
Y156858D01*
X53366Y156870D01*
Y156878D01*
Y156890D01*
Y159409D01*
Y159421D01*
Y159429D01*
X53370Y159441D01*
Y159449D01*
X53374Y159461D01*
Y159468D01*
X53378Y159480D01*
X53382Y159488D01*
X53386Y159500D01*
X53394Y159508D01*
X53398Y159516D01*
X53405Y159524D01*
X53409Y159531D01*
X53417Y159539D01*
X53425Y159547D01*
X53433Y159555D01*
X53441Y159563D01*
X53449Y159567D01*
X53457Y159575D01*
X53465Y159579D01*
X53472Y159587D01*
X53484Y159591D01*
X53492Y159595D01*
X53504Y159599D01*
X53512D01*
X53524Y159602D01*
X53531D01*
X53543Y159606D01*
X59842D01*
X59854Y159602D01*
D02*
G37*
G36*
X38594D02*
X38602D01*
X38614Y159599D01*
X38622D01*
X38634Y159595D01*
X38642Y159591D01*
X38653Y159587D01*
X38661Y159579D01*
X38669Y159575D01*
X38677Y159567D01*
X38685Y159563D01*
X38693Y159555D01*
X38701Y159547D01*
X38709Y159539D01*
X38717Y159531D01*
X38721Y159524D01*
X38728Y159516D01*
X38732Y159508D01*
X38740Y159500D01*
X38744Y159488D01*
X38748Y159480D01*
X38752Y159468D01*
Y159461D01*
X38756Y159449D01*
Y159441D01*
X38760Y159429D01*
Y159421D01*
Y159409D01*
Y156890D01*
Y156878D01*
Y156870D01*
X38756Y156858D01*
Y156850D01*
X38752Y156839D01*
Y156831D01*
X38748Y156819D01*
X38744Y156811D01*
X38740Y156799D01*
X38732Y156791D01*
X38728Y156783D01*
X38721Y156776D01*
X38717Y156768D01*
X38709Y156760D01*
X38701Y156752D01*
X38693Y156744D01*
X38685Y156736D01*
X38677Y156732D01*
X38669Y156724D01*
X38661Y156720D01*
X38653Y156713D01*
X38642Y156709D01*
X38634Y156705D01*
X38622Y156701D01*
X38614D01*
X38602Y156697D01*
X38594D01*
X38583Y156693D01*
X32283D01*
X32272Y156697D01*
X32264D01*
X32252Y156701D01*
X32244D01*
X32232Y156705D01*
X32224Y156709D01*
X32213Y156713D01*
X32205Y156720D01*
X32197Y156724D01*
X32189Y156732D01*
X32181Y156736D01*
X32173Y156744D01*
X32165Y156752D01*
X32157Y156760D01*
X32150Y156768D01*
X32146Y156776D01*
X32138Y156783D01*
X32134Y156791D01*
X32126Y156799D01*
X32122Y156811D01*
X32118Y156819D01*
X32114Y156831D01*
Y156839D01*
X32110Y156850D01*
Y156858D01*
X32106Y156870D01*
Y156878D01*
Y156890D01*
Y159409D01*
Y159421D01*
Y159429D01*
X32110Y159441D01*
Y159449D01*
X32114Y159461D01*
Y159468D01*
X32118Y159480D01*
X32122Y159488D01*
X32126Y159500D01*
X32134Y159508D01*
X32138Y159516D01*
X32146Y159524D01*
X32150Y159531D01*
X32157Y159539D01*
X32165Y159547D01*
X32173Y159555D01*
X32181Y159563D01*
X32189Y159567D01*
X32197Y159575D01*
X32205Y159579D01*
X32213Y159587D01*
X32224Y159591D01*
X32232Y159595D01*
X32244Y159599D01*
X32252D01*
X32264Y159602D01*
X32272D01*
X32283Y159606D01*
X38583D01*
X38594Y159602D01*
D02*
G37*
G36*
X34558Y108594D02*
X34569Y108594D01*
X34573Y108593D01*
X34577Y108592D01*
X34587Y108589D01*
X34598Y108586D01*
X34601Y108585D01*
X34605Y108584D01*
X34615Y108579D01*
X34624Y108574D01*
X34628Y108572D01*
X34631Y108570D01*
X34639Y108563D01*
X34648Y108556D01*
X34738Y108475D01*
X34935Y108343D01*
X35151Y108254D01*
X35384Y108207D01*
X35501Y108202D01*
X47539D01*
X47569Y108199D01*
X47597Y108190D01*
X47623Y108176D01*
X47646Y108158D01*
X47664Y108135D01*
X47678Y108109D01*
X47687Y108080D01*
X47690Y108051D01*
Y91516D01*
X47687Y91486D01*
X47678Y91458D01*
X47664Y91432D01*
X47646Y91409D01*
X47623Y91391D01*
X47597Y91377D01*
X47569Y91368D01*
X47539Y91365D01*
X35501D01*
X35384Y91360D01*
X35151Y91313D01*
X34935Y91224D01*
X34738Y91092D01*
X34648Y91011D01*
X34639Y91004D01*
X34631Y90997D01*
X34628Y90995D01*
X34624Y90993D01*
X34615Y90988D01*
X34605Y90983D01*
X34601Y90982D01*
X34598Y90980D01*
X34587Y90978D01*
X34577Y90975D01*
X34573Y90974D01*
X34569Y90973D01*
X34558Y90973D01*
X34547Y90972D01*
X33366Y90972D01*
X33337Y90975D01*
X33309Y90983D01*
X33283Y90997D01*
X33260Y91016D01*
X33241Y91039D01*
X33227Y91065D01*
X33219Y91093D01*
X33216Y91122D01*
Y108445D01*
X33219Y108474D01*
X33227Y108502D01*
X33241Y108528D01*
X33260Y108551D01*
X33283Y108570D01*
X33309Y108584D01*
X33337Y108592D01*
X33366Y108595D01*
X34547D01*
X34558Y108594D01*
D02*
G37*
D19*
X412402Y59153D02*
D03*
X412992Y122047D02*
D03*
D20*
X412402Y76407D02*
D03*
Y41898D02*
D03*
X412992Y139301D02*
D03*
Y104791D02*
D03*
D21*
X378150Y122047D02*
D03*
X367126D02*
D03*
D22*
X338898Y165770D02*
D03*
X333898D02*
D03*
X328898D02*
D03*
X323898D02*
D03*
X318898D02*
D03*
X313898D02*
D03*
X308898D02*
D03*
X303898D02*
D03*
X298898D02*
D03*
Y106670D02*
D03*
X303898D02*
D03*
X308898D02*
D03*
X313898D02*
D03*
X318898D02*
D03*
X323898D02*
D03*
X328898D02*
D03*
X333898D02*
D03*
X338898D02*
D03*
D23*
X174409Y117913D02*
D03*
X211811D02*
D03*
X230709Y246949D02*
D03*
X193307D02*
D03*
D24*
X287106Y232776D02*
D03*
Y228839D02*
D03*
X292224Y232874D02*
D03*
Y228937D02*
D03*
X60532Y238484D02*
D03*
Y234547D02*
D03*
X215650Y77658D02*
D03*
Y81595D02*
D03*
X59153Y184055D02*
D03*
Y180118D02*
D03*
D25*
X243504Y206594D02*
D03*
Y204626D02*
D03*
Y202658D02*
D03*
Y200689D02*
D03*
Y198721D02*
D03*
Y196752D02*
D03*
Y194783D02*
D03*
Y192815D02*
D03*
Y190847D02*
D03*
Y188878D02*
D03*
Y186909D02*
D03*
Y184941D02*
D03*
Y182973D02*
D03*
Y181004D02*
D03*
Y179035D02*
D03*
Y177067D02*
D03*
Y175099D02*
D03*
Y173130D02*
D03*
Y171161D02*
D03*
Y169193D02*
D03*
Y167224D02*
D03*
Y165256D02*
D03*
Y163287D02*
D03*
Y161319D02*
D03*
Y159350D02*
D03*
X184055D02*
D03*
Y161319D02*
D03*
Y163287D02*
D03*
Y165256D02*
D03*
Y167224D02*
D03*
Y169193D02*
D03*
Y171161D02*
D03*
Y173130D02*
D03*
Y175099D02*
D03*
Y177067D02*
D03*
Y179035D02*
D03*
Y181004D02*
D03*
Y182973D02*
D03*
Y184941D02*
D03*
Y186909D02*
D03*
Y188878D02*
D03*
Y190847D02*
D03*
Y192815D02*
D03*
Y194783D02*
D03*
Y196752D02*
D03*
Y198721D02*
D03*
Y200689D02*
D03*
Y202658D02*
D03*
Y204626D02*
D03*
Y206594D02*
D03*
D26*
X237402Y153248D02*
D03*
X235433D02*
D03*
X233465D02*
D03*
X231496D02*
D03*
X229528D02*
D03*
X227559D02*
D03*
X225590D02*
D03*
X223622D02*
D03*
X221654D02*
D03*
X219685D02*
D03*
X217717D02*
D03*
X215748D02*
D03*
X213779D02*
D03*
X211811D02*
D03*
X209842D02*
D03*
X207874D02*
D03*
X205906D02*
D03*
X203937D02*
D03*
X201969D02*
D03*
X200000D02*
D03*
X198031D02*
D03*
X196063D02*
D03*
X194095D02*
D03*
X192126D02*
D03*
X190157D02*
D03*
Y212697D02*
D03*
X192126D02*
D03*
X194095D02*
D03*
X196063D02*
D03*
X198031D02*
D03*
X200000D02*
D03*
X201969D02*
D03*
X203937D02*
D03*
X205906D02*
D03*
X207874D02*
D03*
X209842D02*
D03*
X211811D02*
D03*
X213779D02*
D03*
X215748D02*
D03*
X217717D02*
D03*
X219685D02*
D03*
X221654D02*
D03*
X223622D02*
D03*
X225590D02*
D03*
X227559D02*
D03*
X229528D02*
D03*
X231496D02*
D03*
X233465D02*
D03*
X235433D02*
D03*
X237402D02*
D03*
D29*
X183307Y98228D02*
D03*
X186772D02*
D03*
X267657Y252953D02*
D03*
X271122D02*
D03*
X299567Y258957D02*
D03*
X296102D02*
D03*
X361811Y58662D02*
D03*
X358347D02*
D03*
X352756Y58760D02*
D03*
X349291D02*
D03*
X285472Y69488D02*
D03*
X288937D02*
D03*
X285472Y64272D02*
D03*
X288937D02*
D03*
X222992Y222146D02*
D03*
X219528D02*
D03*
X233681Y222638D02*
D03*
X230217D02*
D03*
X209547Y275787D02*
D03*
X206083D02*
D03*
D30*
X192815Y31299D02*
D03*
X195965D02*
D03*
X189665D02*
D03*
X199114D02*
D03*
X202264D02*
D03*
D31*
X166043Y62539D02*
D03*
Y66004D02*
D03*
X286122Y267087D02*
D03*
Y263622D02*
D03*
X303937Y178110D02*
D03*
Y174646D02*
D03*
X298622Y178012D02*
D03*
Y174547D02*
D03*
X182972Y147776D02*
D03*
Y151240D02*
D03*
X175886Y204587D02*
D03*
Y201122D02*
D03*
X191240Y224764D02*
D03*
Y221299D02*
D03*
X197244Y224921D02*
D03*
Y221457D02*
D03*
X203051Y224665D02*
D03*
Y221201D02*
D03*
D32*
X174016Y184744D02*
D03*
X170079D02*
D03*
X368307Y73524D02*
D03*
X364370D02*
D03*
X77854Y253051D02*
D03*
X73917D02*
D03*
D33*
X110925Y145079D02*
D03*
D34*
X86122Y136024D02*
D03*
Y145079D02*
D03*
Y154134D02*
D03*
D35*
X195177Y294587D02*
D03*
Y276870D02*
D03*
X159350D02*
D03*
Y294587D02*
D03*
D36*
X41732Y248721D02*
D03*
X36417D02*
D03*
X312500Y246752D02*
D03*
X307185D02*
D03*
X312205Y253839D02*
D03*
X306890D02*
D03*
X76968Y260827D02*
D03*
X82284D02*
D03*
X40551Y180512D02*
D03*
X35236D02*
D03*
X40945Y194685D02*
D03*
X35630D02*
D03*
X41732Y235138D02*
D03*
X36417D02*
D03*
X82087Y274902D02*
D03*
X76772D02*
D03*
D37*
X289272Y256102D02*
D03*
Y254134D02*
D03*
Y252165D02*
D03*
Y250197D02*
D03*
Y248228D02*
D03*
Y246260D02*
D03*
Y244291D02*
D03*
Y242323D02*
D03*
Y240354D02*
D03*
X276969D02*
D03*
Y242323D02*
D03*
Y244291D02*
D03*
Y246260D02*
D03*
Y248228D02*
D03*
Y250197D02*
D03*
Y252165D02*
D03*
Y254134D02*
D03*
Y256102D02*
D03*
Y258071D02*
D03*
X289272D02*
D03*
D38*
X286073Y240108D02*
D03*
X284104D02*
D03*
X282136D02*
D03*
X280167D02*
D03*
Y258317D02*
D03*
X282136D02*
D03*
X284104D02*
D03*
X286073D02*
D03*
D39*
X298130Y252264D02*
D03*
Y246555D02*
D03*
D40*
X310728Y175295D02*
D03*
Y183169D02*
D03*
X331693Y227362D02*
D03*
Y235236D02*
D03*
D41*
X339272Y232480D02*
D03*
Y227165D02*
D03*
X58366Y136516D02*
D03*
Y141831D02*
D03*
X129232Y145177D02*
D03*
Y150492D02*
D03*
X121752Y145177D02*
D03*
Y150492D02*
D03*
X74409Y136516D02*
D03*
Y141831D02*
D03*
D42*
X357874Y80807D02*
D03*
Y77067D02*
D03*
Y73327D02*
D03*
X348425D02*
D03*
Y77067D02*
D03*
D43*
Y80807D02*
D03*
D44*
X367520Y67815D02*
D03*
X372441D02*
D03*
X75689Y102362D02*
D03*
Y109055D02*
D03*
D45*
X355512Y90650D02*
D03*
X359055D02*
D03*
X209744Y270374D02*
D03*
X206201D02*
D03*
D46*
X372309Y90904D02*
D03*
Y93504D02*
D03*
Y96104D02*
D03*
X364109D02*
D03*
Y93504D02*
D03*
Y90904D02*
D03*
D47*
X367618Y59252D02*
D03*
Y62598D02*
D03*
D48*
X348327Y65551D02*
D03*
X355020D02*
D03*
D49*
X288681Y74508D02*
D03*
X285531D02*
D03*
D50*
X91339Y283760D02*
D03*
X79724D02*
D03*
X28346Y248819D02*
D03*
X16732D02*
D03*
X75886Y93405D02*
D03*
X64272D02*
D03*
X75787Y81791D02*
D03*
X64173D02*
D03*
X75886Y69882D02*
D03*
X64272D02*
D03*
X96260Y91339D02*
D03*
X107874D02*
D03*
X95965Y80413D02*
D03*
X107579D02*
D03*
X95768Y69390D02*
D03*
X107382D02*
D03*
D53*
X24705Y197244D02*
D03*
Y185630D02*
D03*
D54*
X35335Y187598D02*
D03*
X40650D02*
D03*
X36122Y242028D02*
D03*
X41437D02*
D03*
X76673Y267815D02*
D03*
X81988D02*
D03*
D55*
X178445Y30925D02*
D03*
Y9469D02*
D03*
X213484D02*
D03*
Y30925D02*
D03*
D56*
X66929Y141831D02*
D03*
Y136516D02*
D03*
X136614Y150197D02*
D03*
Y144882D02*
D03*
D57*
X144193Y145622D02*
D03*
Y158024D02*
D03*
D58*
X71358Y123228D02*
D03*
X54429D02*
D03*
D59*
X63976Y102854D02*
D03*
X67913D02*
D03*
X65945Y107972D02*
D03*
D60*
X115059Y104626D02*
D03*
X99311D02*
D03*
D61*
X55610Y92283D02*
D03*
Y97284D02*
D03*
Y102284D02*
D03*
Y107283D02*
D03*
D62*
X32382D02*
D03*
Y102284D02*
D03*
Y97284D02*
D03*
Y92283D02*
D03*
D63*
X410236Y242815D02*
D03*
Y234941D02*
D03*
Y227067D02*
D03*
Y219193D02*
D03*
Y211319D02*
D03*
Y203445D02*
D03*
Y195571D02*
D03*
Y187697D02*
D03*
X349606D02*
D03*
Y195571D02*
D03*
Y203445D02*
D03*
Y211319D02*
D03*
Y219193D02*
D03*
Y227067D02*
D03*
Y234941D02*
D03*
D64*
X350000Y242815D02*
D03*
D65*
X238484Y92913D02*
D03*
X256201D02*
D03*
Y57087D02*
D03*
X238484D02*
D03*
D66*
X335531Y95276D02*
D03*
Y60630D02*
D03*
X298130D02*
D03*
Y95276D02*
D03*
D67*
X335531Y90945D02*
D03*
Y86614D02*
D03*
Y82284D02*
D03*
Y77953D02*
D03*
Y73622D02*
D03*
Y69291D02*
D03*
Y64961D02*
D03*
X298130D02*
D03*
Y69291D02*
D03*
Y73622D02*
D03*
Y77953D02*
D03*
Y82284D02*
D03*
Y86614D02*
D03*
Y90945D02*
D03*
D68*
X201772Y90799D02*
D03*
X199803D02*
D03*
X197835D02*
D03*
X195866D02*
D03*
X193898D02*
D03*
X191929D02*
D03*
X189961D02*
D03*
X187992D02*
D03*
X186024D02*
D03*
X184055D02*
D03*
X182087D02*
D03*
X180118D02*
D03*
Y57429D02*
D03*
X182087D02*
D03*
X184055D02*
D03*
X186024D02*
D03*
X187992D02*
D03*
X189961D02*
D03*
X191929D02*
D03*
X193898D02*
D03*
X195866D02*
D03*
X197835D02*
D03*
X199803D02*
D03*
X201772D02*
D03*
D69*
X174260Y84941D02*
D03*
Y82973D02*
D03*
Y81004D02*
D03*
Y79036D02*
D03*
Y77067D02*
D03*
Y75098D02*
D03*
Y73130D02*
D03*
Y71161D02*
D03*
Y69193D02*
D03*
Y67224D02*
D03*
Y65256D02*
D03*
Y63287D02*
D03*
X207630D02*
D03*
Y65256D02*
D03*
Y67224D02*
D03*
Y69193D02*
D03*
Y71161D02*
D03*
Y73130D02*
D03*
Y75098D02*
D03*
Y77067D02*
D03*
Y79036D02*
D03*
Y81004D02*
D03*
Y82973D02*
D03*
Y84941D02*
D03*
D70*
X346555Y32244D02*
D03*
X336555D02*
D03*
X326555D02*
D03*
X316555D02*
D03*
X306555D02*
D03*
X296555D02*
D03*
X286555D02*
D03*
X276555D02*
D03*
X266555D02*
D03*
X256555D02*
D03*
Y22244D02*
D03*
X266555D02*
D03*
X276555D02*
D03*
X286555D02*
D03*
X296555D02*
D03*
X306555D02*
D03*
X316555D02*
D03*
X326555D02*
D03*
X336555D02*
D03*
X346555D02*
D03*
D71*
X143799Y14764D02*
D03*
X69390D02*
D03*
D72*
X128051Y51772D02*
D03*
D73*
X85138D02*
D03*
D74*
X409055Y289764D02*
D03*
X15748D02*
D03*
Y15748D02*
D03*
X409055D02*
D03*
D75*
X17520Y213386D02*
D03*
Y227186D02*
D03*
X18799Y170768D02*
D03*
Y156968D02*
D03*
X63997Y293209D02*
D03*
X50197D02*
D03*
D76*
X119606Y286024D02*
D03*
X139606D02*
D03*
X109606D02*
D03*
X129606D02*
D03*
D77*
X43504Y173327D02*
D03*
X48622D02*
D03*
X43504Y168209D02*
D03*
X48622D02*
D03*
X43504Y163091D02*
D03*
X48622D02*
D03*
X43504Y157973D02*
D03*
X48622D02*
D03*
X45374Y228248D02*
D03*
X50492D02*
D03*
X45374Y223130D02*
D03*
X50492D02*
D03*
X45374Y218012D02*
D03*
X50492D02*
D03*
X45374Y212894D02*
D03*
X50492D02*
D03*
X68405Y267323D02*
D03*
Y262205D02*
D03*
X63287Y267323D02*
D03*
Y262205D02*
D03*
X58169Y267323D02*
D03*
Y262205D02*
D03*
X53051Y267323D02*
D03*
Y262205D02*
D03*
D78*
X187303Y20768D02*
D03*
X204626D02*
D03*
D79*
X207776Y31201D02*
D03*
X177165Y21654D02*
D03*
X214567Y20965D02*
D03*
X197933Y10335D02*
D03*
X190551D02*
D03*
X176083Y94882D02*
D03*
X174213Y98917D02*
D03*
X203248Y50886D02*
D03*
X378642Y90551D02*
D03*
X358957Y85433D02*
D03*
X375492Y77362D02*
D03*
X363287Y84744D02*
D03*
X365158Y79626D02*
D03*
X344587Y69488D02*
D03*
X353445Y86221D02*
D03*
X344390Y97539D02*
D03*
X330315Y53347D02*
D03*
X294587Y121653D02*
D03*
X337598Y133563D02*
D03*
X274508Y145177D02*
D03*
X300787Y132677D02*
D03*
X301575Y137894D02*
D03*
X246161Y83957D02*
D03*
X263976Y150591D02*
D03*
X245768Y153937D02*
D03*
X306299Y93799D02*
D03*
X270276Y79921D02*
D03*
X265846Y86614D02*
D03*
X278346Y95374D02*
D03*
X274606Y92126D02*
D03*
X268996Y115453D02*
D03*
X263779Y113386D02*
D03*
X222539Y100197D02*
D03*
X228839Y102953D02*
D03*
X274902Y135630D02*
D03*
X267836Y129605D02*
D03*
X262598Y127559D02*
D03*
X256894Y112594D02*
D03*
X249640Y112860D02*
D03*
X226673Y162205D02*
D03*
X233366Y167618D02*
D03*
X211319Y175394D02*
D03*
X221063Y78543D02*
D03*
X212106Y111319D02*
D03*
X174803Y110925D02*
D03*
X244488Y72835D02*
D03*
X407480Y177953D02*
D03*
X406398Y253445D02*
D03*
X341142Y240354D02*
D03*
X333465Y240551D02*
D03*
X341339Y244291D02*
D03*
X333563D02*
D03*
X323031Y226673D02*
D03*
X350787Y162106D02*
D03*
X293012Y181201D02*
D03*
X293307Y166831D02*
D03*
Y171850D02*
D03*
X263779Y217520D02*
D03*
X247638Y227067D02*
D03*
Y219587D02*
D03*
X287106Y225098D02*
D03*
X264764Y225197D02*
D03*
X299508Y234744D02*
D03*
X281693Y274803D02*
D03*
X264764Y247047D02*
D03*
X262106Y239567D02*
D03*
X266339Y197933D02*
D03*
X260138Y197244D02*
D03*
X254724Y196653D02*
D03*
X310728Y262500D02*
D03*
X260630Y256496D02*
D03*
X267815Y234842D02*
D03*
X275984Y234744D02*
D03*
X282136Y234301D02*
D03*
X271555Y261614D02*
D03*
X280610Y265354D02*
D03*
X296161Y265945D02*
D03*
X234646Y231201D02*
D03*
X234252Y194882D02*
D03*
X280610Y71949D02*
D03*
X306201Y64764D02*
D03*
X306102Y68701D02*
D03*
X249016Y38484D02*
D03*
X222835Y52559D02*
D03*
X223031Y56693D02*
D03*
X222244Y61811D02*
D03*
X222342Y66043D02*
D03*
X208661Y48425D02*
D03*
X162992Y134646D02*
D03*
X161024Y82480D02*
D03*
X230610Y255217D02*
D03*
X200886Y255413D02*
D03*
X159547Y67323D02*
D03*
X159646Y60728D02*
D03*
X181102Y105118D02*
D03*
X222342Y87106D02*
D03*
X189075Y144587D02*
D03*
X173819Y145866D02*
D03*
X178543Y50394D02*
D03*
X185335D02*
D03*
X159646Y207185D02*
D03*
X185236Y227854D02*
D03*
X184744Y220768D02*
D03*
X173031Y276476D02*
D03*
X212500Y264567D02*
D03*
X149016Y287894D02*
D03*
X149114Y294291D02*
D03*
X187402Y289469D02*
D03*
X178248Y289370D02*
D03*
X168996Y289469D02*
D03*
X214075Y281594D02*
D03*
X169882Y206890D02*
D03*
X160039Y187303D02*
D03*
X175000Y159744D02*
D03*
X151969Y155217D02*
D03*
X144685Y137992D02*
D03*
X136909Y138287D02*
D03*
X129331Y137894D02*
D03*
X121653D02*
D03*
X9252Y250689D02*
D03*
X80807Y247638D02*
D03*
X64764Y206890D02*
D03*
X44783Y201476D02*
D03*
X68209Y234055D02*
D03*
X84350Y292323D02*
D03*
X79232D02*
D03*
X49114Y245866D02*
D03*
X27165Y257185D02*
D03*
X35630D02*
D03*
X28740Y203445D02*
D03*
X26083Y218701D02*
D03*
X73228Y150000D02*
D03*
X66535Y150098D02*
D03*
X58268Y150295D02*
D03*
X59153Y188287D02*
D03*
X29429Y162894D02*
D03*
X14272Y185039D02*
D03*
X116437Y68504D02*
D03*
Y75394D02*
D03*
X116339Y83071D02*
D03*
X116043Y91732D02*
D03*
X35433Y203346D02*
D03*
X87795Y101673D02*
D03*
Y94587D02*
D03*
Y87106D02*
D03*
X87894Y80118D02*
D03*
X87992Y70177D02*
D03*
X82480Y70079D02*
D03*
X82382Y80020D02*
D03*
X82284Y87008D02*
D03*
Y94488D02*
D03*
Y101575D02*
D03*
D80*
X397146Y38780D02*
D03*
X390650D02*
D03*
X382874Y38878D02*
D03*
X396555Y79429D02*
D03*
X387894Y79528D02*
D03*
X375590Y41929D02*
D03*
X381201Y76378D02*
D03*
X393504Y101279D02*
D03*
X382972D02*
D03*
X372047D02*
D03*
X394390Y142717D02*
D03*
X382480D02*
D03*
X373130Y142618D02*
D03*
X364272Y139272D02*
D03*
X364370Y104528D02*
D03*
D81*
X196949Y98524D02*
D03*
X201362Y98015D02*
D03*
X59350Y282382D02*
D03*
X56398Y63386D02*
D03*
X39567Y118701D02*
D03*
X39665Y123524D02*
D03*
X39862Y128248D02*
D03*
X44980Y118701D02*
D03*
Y123524D02*
D03*
X45079Y128347D02*
D03*
M02*
