G04*
G04 #@! TF.GenerationSoftware,Altium Limited,Altium Designer,24.10.1 (45)*
G04*
G04 Layer_Color=128*
%FSLAX25Y25*%
%MOIN*%
G70*
G04*
G04 #@! TF.SameCoordinates,9D620B6C-925D-48BC-BBC5-478D005D5007*
G04*
G04*
G04 #@! TF.FilePolarity,Positive*
G04*
G01*
G75*
%ADD20R,0.20299X0.09807*%
%ADD24R,0.02661X0.02268*%
%ADD29R,0.02661X0.02819*%
%ADD31R,0.02819X0.02661*%
%ADD32R,0.02268X0.02661*%
%ADD36R,0.03842X0.04236*%
%ADD45R,0.01874X0.01480*%
%ADD173R,0.03252X0.02661*%
%ADD174R,0.01480X0.01874*%
D20*
X412402Y41898D02*
D03*
Y76410D02*
D03*
X412992Y104791D02*
D03*
Y139303D02*
D03*
D24*
X281102Y225394D02*
D03*
Y229331D02*
D03*
X274902Y225295D02*
D03*
Y229232D02*
D03*
X268996Y225197D02*
D03*
Y229134D02*
D03*
D29*
X203091Y43799D02*
D03*
X206555D02*
D03*
X213130Y98130D02*
D03*
X216595D02*
D03*
X212933Y92913D02*
D03*
X216398D02*
D03*
X212933Y87992D02*
D03*
X216398D02*
D03*
X213543Y117717D02*
D03*
X210079D02*
D03*
D31*
X238484Y164311D02*
D03*
Y167776D02*
D03*
X243110Y164311D02*
D03*
Y167776D02*
D03*
X221260Y162303D02*
D03*
Y165768D02*
D03*
X171063Y156063D02*
D03*
Y152598D02*
D03*
X168504Y107224D02*
D03*
Y110689D02*
D03*
D32*
X229035Y194685D02*
D03*
X225098D02*
D03*
X183858Y43209D02*
D03*
X179921D02*
D03*
D36*
X228740Y246850D02*
D03*
X234055D02*
D03*
X189961Y246752D02*
D03*
X195276D02*
D03*
D45*
X272441Y40748D02*
D03*
X275984D02*
D03*
D173*
X290059Y266535D02*
D03*
X285531D02*
D03*
D174*
X201181Y92913D02*
D03*
Y89370D02*
D03*
X196555Y92618D02*
D03*
Y89075D02*
D03*
M02*
