G04*
G04 #@! TF.GenerationSoftware,Altium Limited,Altium Designer,24.10.1 (45)*
G04*
G04 Layer_Color=2752767*
%FSLAX25Y25*%
%MOIN*%
G70*
G04*
G04 #@! TF.SameCoordinates,2D4B152F-DA3A-4926-AC14-268B840A774E*
G04*
G04*
G04 #@! TF.FilePolarity,Positive*
G04*
G01*
G75*
%ADD18C,0.00500*%
%ADD176C,0.00667*%
%ADD177C,0.00400*%
D18*
X344555Y30244D02*
X345555Y32244D01*
X344555Y34244D01*
X346555Y33244D01*
X348555Y34244D01*
X347555Y32244D01*
X348555Y30244D01*
X346555Y31244D01*
X344555Y30244D01*
X334555D02*
X335555Y32244D01*
X334555Y34244D01*
X336555Y33244D01*
X338555Y34244D01*
X337555Y32244D01*
X338555Y30244D01*
X336555Y31244D01*
X334555Y30244D01*
X324555D02*
X325555Y32244D01*
X324555Y34244D01*
X326555Y33244D01*
X328555Y34244D01*
X327555Y32244D01*
X328555Y30244D01*
X326555Y31244D01*
X324555Y30244D01*
X314555D02*
X315555Y32244D01*
X314555Y34244D01*
X316555Y33244D01*
X318555Y34244D01*
X317555Y32244D01*
X318555Y30244D01*
X316555Y31244D01*
X314555Y30244D01*
X304555D02*
X305555Y32244D01*
X304555Y34244D01*
X306555Y33244D01*
X308555Y34244D01*
X307555Y32244D01*
X308555Y30244D01*
X306555Y31244D01*
X304555Y30244D01*
X294555D02*
X295555Y32244D01*
X294555Y34244D01*
X296555Y33244D01*
X298555Y34244D01*
X297555Y32244D01*
X298555Y30244D01*
X296555Y31244D01*
X294555Y30244D01*
X284555D02*
X285555Y32244D01*
X284555Y34244D01*
X286555Y33244D01*
X288555Y34244D01*
X287555Y32244D01*
X288555Y30244D01*
X286555Y31244D01*
X284555Y30244D01*
X274555D02*
X275555Y32244D01*
X274555Y34244D01*
X276555Y33244D01*
X278555Y34244D01*
X277555Y32244D01*
X278555Y30244D01*
X276555Y31244D01*
X274555Y30244D01*
X264555D02*
X265555Y32244D01*
X264555Y34244D01*
X266555Y33244D01*
X268555Y34244D01*
X267555Y32244D01*
X268555Y30244D01*
X266555Y31244D01*
X264555Y30244D01*
X254555D02*
X255555Y32244D01*
X254555Y34244D01*
X256555Y33244D01*
X258555Y34244D01*
X257555Y32244D01*
X258555Y30244D01*
X256555Y31244D01*
X254555Y30244D01*
Y20244D02*
X255555Y22244D01*
X254555Y24244D01*
X256555Y23244D01*
X258555Y24244D01*
X257555Y22244D01*
X258555Y20244D01*
X256555Y21244D01*
X254555Y20244D01*
X264555D02*
X265555Y22244D01*
X264555Y24244D01*
X266555Y23244D01*
X268555Y24244D01*
X267555Y22244D01*
X268555Y20244D01*
X266555Y21244D01*
X264555Y20244D01*
X274555D02*
X275555Y22244D01*
X274555Y24244D01*
X276555Y23244D01*
X278555Y24244D01*
X277555Y22244D01*
X278555Y20244D01*
X276555Y21244D01*
X274555Y20244D01*
X284555D02*
X285555Y22244D01*
X284555Y24244D01*
X286555Y23244D01*
X288555Y24244D01*
X287555Y22244D01*
X288555Y20244D01*
X286555Y21244D01*
X284555Y20244D01*
X294555D02*
X295555Y22244D01*
X294555Y24244D01*
X296555Y23244D01*
X298555Y24244D01*
X297555Y22244D01*
X298555Y20244D01*
X296555Y21244D01*
X294555Y20244D01*
X304555D02*
X305555Y22244D01*
X304555Y24244D01*
X306555Y23244D01*
X308555Y24244D01*
X307555Y22244D01*
X308555Y20244D01*
X306555Y21244D01*
X304555Y20244D01*
X314555D02*
X315555Y22244D01*
X314555Y24244D01*
X316555Y23244D01*
X318555Y24244D01*
X317555Y22244D01*
X318555Y20244D01*
X316555Y21244D01*
X314555Y20244D01*
X324555D02*
X325555Y22244D01*
X324555Y24244D01*
X326555Y23244D01*
X328555Y24244D01*
X327555Y22244D01*
X328555Y20244D01*
X326555Y21244D01*
X324555Y20244D01*
X334555D02*
X335555Y22244D01*
X334555Y24244D01*
X336555Y23244D01*
X338555Y24244D01*
X337555Y22244D01*
X338555Y20244D01*
X336555Y21244D01*
X334555Y20244D01*
X344555D02*
X345555Y22244D01*
X344555Y24244D01*
X346555Y23244D01*
X348555Y24244D01*
X347555Y22244D01*
X348555Y20244D01*
X346555Y21244D01*
X344555Y20244D01*
X141799Y12764D02*
Y16764D01*
X145799D01*
Y12764D01*
X141799D01*
X67390D02*
Y16764D01*
X71390D01*
Y12764D01*
X67390D01*
X407055Y287764D02*
X408055D01*
X409055Y288764D01*
X410055Y287764D01*
X411055D01*
Y288764D01*
X410055Y289764D01*
X411055Y290764D01*
Y291764D01*
X410055D01*
X409055Y290764D01*
X408055Y291764D01*
X407055D01*
Y290764D01*
X408055Y289764D01*
X407055Y288764D01*
Y287764D01*
X13748D02*
X14748D01*
X15748Y288764D01*
X16748Y287764D01*
X17748D01*
Y288764D01*
X16748Y289764D01*
X17748Y290764D01*
Y291764D01*
X16748D01*
X15748Y290764D01*
X14748Y291764D01*
X13748D01*
Y290764D01*
X14748Y289764D01*
X13748Y288764D01*
Y287764D01*
Y13748D02*
X14748D01*
X15748Y14748D01*
X16748Y13748D01*
X17748D01*
Y14748D01*
X16748Y15748D01*
X17748Y16748D01*
Y17748D01*
X16748D01*
X15748Y16748D01*
X14748Y17748D01*
X13748D01*
Y16748D01*
X14748Y15748D01*
X13748Y14748D01*
Y13748D01*
X407055D02*
X408055D01*
X409055Y14748D01*
X410055Y13748D01*
X411055D01*
Y14748D01*
X410055Y15748D01*
X411055Y16748D01*
Y17748D01*
X410055D01*
X409055Y16748D01*
X408055Y17748D01*
X407055D01*
Y16748D01*
X408055Y15748D01*
X407055Y14748D01*
Y13748D01*
X17520Y211386D02*
X18520Y212386D01*
X19520D01*
X18520Y213386D01*
X19520Y214386D01*
X18520D01*
X17520Y215386D01*
X16520Y214386D01*
X15520D01*
X16520Y213386D01*
X15520Y212386D01*
X16520D01*
X17520Y211386D01*
Y225186D02*
X18520Y226186D01*
X19520D01*
X18520Y227186D01*
X19520Y228186D01*
X18520D01*
X17520Y229186D01*
X16520Y228186D01*
X15520D01*
X16520Y227186D01*
X15520Y226186D01*
X16520D01*
X17520Y225186D01*
X117606Y284024D02*
X118606Y286024D01*
X117606Y288024D01*
X119606Y287024D01*
X121606Y288024D01*
X120606Y286024D01*
X121606Y284024D01*
X119606Y285024D01*
X117606Y284024D01*
X137606D02*
X138606Y286024D01*
X137606Y288024D01*
X139606Y287024D01*
X141606Y288024D01*
X140606Y286024D01*
X141606Y284024D01*
X139606Y285024D01*
X137606Y284024D01*
X107606D02*
X108606Y286024D01*
X107606Y288024D01*
X109606Y287024D01*
X111606Y288024D01*
X110606Y286024D01*
X111606Y284024D01*
X109606Y285024D01*
X107606Y284024D01*
X127606D02*
X128606Y286024D01*
X127606Y288024D01*
X129606Y287024D01*
X131606Y288024D01*
X130606Y286024D01*
X131606Y284024D01*
X129606Y285024D01*
X127606Y284024D01*
X18799Y168768D02*
X19799Y169768D01*
X20799D01*
X19799Y170768D01*
X20799Y171768D01*
X19799D01*
X18799Y172768D01*
X17799Y171768D01*
X16799D01*
X17799Y170768D01*
X16799Y169768D01*
X17799D01*
X18799Y168768D01*
Y154968D02*
X19799Y155968D01*
X20799D01*
X19799Y156968D01*
X20799Y157968D01*
X19799D01*
X18799Y158968D01*
X17799Y157968D01*
X16799D01*
X17799Y156968D01*
X16799Y155968D01*
X17799D01*
X18799Y154968D01*
X63997Y291209D02*
X64997Y292209D01*
X65997D01*
X64997Y293209D01*
X65997Y294209D01*
X64997D01*
X63997Y295209D01*
X62997Y294209D01*
X61997D01*
X62997Y293209D01*
X61997Y292209D01*
X62997D01*
X63997Y291209D01*
X50197D02*
X51197Y292209D01*
X52197D01*
X51197Y293209D01*
X52197Y294209D01*
X51197D01*
X50197Y295209D01*
X49197Y294209D01*
X48197D01*
X49197Y293209D01*
X48197Y292209D01*
X49197D01*
X50197Y291209D01*
X43504Y171327D02*
X41504Y175327D01*
X45504D01*
X43504Y171327D01*
X48622D02*
X46622Y175327D01*
X50622D01*
X48622Y171327D01*
X43504Y166209D02*
X41504Y170209D01*
X45504D01*
X43504Y166209D01*
X48622D02*
X46622Y170209D01*
X50622D01*
X48622Y166209D01*
X43504Y161091D02*
X41504Y165091D01*
X45504D01*
X43504Y161091D01*
X48622D02*
X46622Y165091D01*
X50622D01*
X48622Y161091D01*
X43504Y155973D02*
X41504Y159973D01*
X45504D01*
X43504Y155973D01*
X48622D02*
X46622Y159973D01*
X50622D01*
X48622Y155973D01*
X45374Y226248D02*
X43374Y230248D01*
X47374D01*
X45374Y226248D01*
X50492D02*
X48492Y230248D01*
X52492D01*
X50492Y226248D01*
X45374Y221130D02*
X43374Y225130D01*
X47374D01*
X45374Y221130D01*
X50492D02*
X48492Y225130D01*
X52492D01*
X50492Y221130D01*
X45374Y216012D02*
X43374Y220012D01*
X47374D01*
X45374Y216012D01*
X50492D02*
X48492Y220012D01*
X52492D01*
X50492Y216012D01*
X45374Y210894D02*
X43374Y214894D01*
X47374D01*
X45374Y210894D01*
X50492D02*
X48492Y214894D01*
X52492D01*
X50492Y210894D01*
X68405Y265323D02*
X66405Y269323D01*
X70406D01*
X68405Y265323D01*
Y260205D02*
X66405Y264205D01*
X70406D01*
X68405Y260205D01*
X63287Y265323D02*
X61287Y269323D01*
X65287D01*
X63287Y265323D01*
Y260205D02*
X61287Y264205D01*
X65287D01*
X63287Y260205D01*
X58169Y265323D02*
X56169Y269323D01*
X60169D01*
X58169Y265323D01*
Y260205D02*
X56169Y264205D01*
X60169D01*
X58169Y260205D01*
X53051Y265323D02*
X51051Y269323D01*
X55051D01*
X53051Y265323D01*
Y260205D02*
X51051Y264205D01*
X55051D01*
X53051Y260205D01*
X186303Y19768D02*
Y18768D01*
X188303D01*
Y19768D01*
X189303D01*
Y21768D01*
X188303D01*
Y22768D01*
X186303D01*
Y21768D01*
X185303D01*
Y19768D01*
X186303D01*
X203626D02*
Y18768D01*
X205626D01*
Y19768D01*
X206626D01*
Y21768D01*
X205626D01*
Y22768D01*
X203626D01*
Y21768D01*
X202626D01*
Y19768D01*
X203626D01*
X397146Y36779D02*
X395146Y40780D01*
X399146D01*
X397146Y36779D01*
Y37580D02*
X395946Y39979D01*
X398346D01*
X397146Y37580D01*
X390650Y36779D02*
X388650Y40780D01*
X392650D01*
X390650Y36779D01*
Y37580D02*
X389450Y39979D01*
X391850D01*
X390650Y37580D01*
X382874Y36878D02*
X380874Y40878D01*
X384874D01*
X382874Y36878D01*
Y37678D02*
X381674Y40078D01*
X384074D01*
X382874Y37678D01*
X396555Y77429D02*
X394555Y81429D01*
X398555D01*
X396555Y77429D01*
Y78229D02*
X395355Y80629D01*
X397755D01*
X396555Y78229D01*
X387894Y77528D02*
X385894Y81528D01*
X389894D01*
X387894Y77528D01*
Y78328D02*
X386694Y80728D01*
X389094D01*
X387894Y78328D01*
X375590Y39929D02*
X373590Y43929D01*
X377590D01*
X375590Y39929D01*
Y40729D02*
X374391Y43129D01*
X376790D01*
X375590Y40729D01*
X381201Y74378D02*
X379201Y78378D01*
X383201D01*
X381201Y74378D01*
Y75178D02*
X380001Y77578D01*
X382401D01*
X381201Y75178D01*
X393504Y99279D02*
X391504Y103279D01*
X395504D01*
X393504Y99279D01*
Y100080D02*
X392304Y102480D01*
X394704D01*
X393504Y100080D01*
X382972Y99279D02*
X380972Y103279D01*
X384972D01*
X382972Y99279D01*
Y100080D02*
X381772Y102480D01*
X384172D01*
X382972Y100080D01*
X372047Y99279D02*
X370047Y103279D01*
X374047D01*
X372047Y99279D01*
Y100080D02*
X370847Y102480D01*
X373247D01*
X372047Y100080D01*
X394390Y140717D02*
X392390Y144717D01*
X396390D01*
X394390Y140717D01*
Y141516D02*
X393190Y143916D01*
X395590D01*
X394390Y141516D01*
X382480Y140717D02*
X380480Y144717D01*
X384480D01*
X382480Y140717D01*
Y141516D02*
X381280Y143916D01*
X383680D01*
X382480Y141516D01*
X373130Y140618D02*
X371130Y144618D01*
X375130D01*
X373130Y140618D01*
Y141418D02*
X371930Y143818D01*
X374330D01*
X373130Y141418D01*
X364272Y137272D02*
X362272Y141272D01*
X366272D01*
X364272Y137272D01*
Y138072D02*
X363072Y140472D01*
X365472D01*
X364272Y138072D01*
X364370Y102528D02*
X362370Y106528D01*
X366370D01*
X364370Y102528D01*
Y103328D02*
X363170Y105728D01*
X365570D01*
X364370Y103328D01*
X194949Y98524D02*
X196949Y100524D01*
X198949Y98524D01*
X196949Y96524D01*
X194949Y98524D01*
X199362Y98015D02*
X201362Y100015D01*
X203362Y98015D01*
X201362Y96015D01*
X199362Y98015D01*
X57350Y282382D02*
X59350Y284382D01*
X61350Y282382D01*
X59350Y280382D01*
X57350Y282382D01*
X54398Y63386D02*
X56398Y65386D01*
X58398Y63386D01*
X56398Y61386D01*
X54398Y63386D01*
X33433Y201346D02*
Y205346D01*
X37433D01*
Y201346D01*
X33433D01*
X34233Y202147D02*
Y204546D01*
X36633D01*
Y202147D01*
X34233D01*
X37567Y118701D02*
X39567Y120701D01*
X41567Y118701D01*
X39567Y116701D01*
X37567Y118701D01*
X37665Y123524D02*
X39665Y125524D01*
X41665Y123524D01*
X39665Y121524D01*
X37665Y123524D01*
X37862Y128248D02*
X39862Y130248D01*
X41862Y128248D01*
X39862Y126248D01*
X37862Y128248D01*
X42980Y118701D02*
X44980Y120701D01*
X46980Y118701D01*
X44980Y116701D01*
X42980Y118701D01*
Y123524D02*
X44980Y125524D01*
X46980Y123524D01*
X44980Y121524D01*
X42980Y123524D01*
X43079Y128347D02*
X45079Y130347D01*
X47079Y128347D01*
X45079Y126347D01*
X43079Y128347D01*
X85795Y99673D02*
Y103673D01*
X89795D01*
Y99673D01*
X85795D01*
X86595Y100473D02*
Y102873D01*
X88995D01*
Y100473D01*
X86595D01*
X85795Y92587D02*
Y96587D01*
X89795D01*
Y92587D01*
X85795D01*
X86595Y93387D02*
Y95787D01*
X88995D01*
Y93387D01*
X86595D01*
X85795Y85106D02*
Y89106D01*
X89795D01*
Y85106D01*
X85795D01*
X86595Y85906D02*
Y88306D01*
X88995D01*
Y85906D01*
X86595D01*
X85894Y78118D02*
Y82118D01*
X89894D01*
Y78118D01*
X85894D01*
X86694Y78918D02*
Y81318D01*
X89094D01*
Y78918D01*
X86694D01*
X85992Y68177D02*
Y72177D01*
X89992D01*
Y68177D01*
X85992D01*
X86792Y68977D02*
Y71377D01*
X89192D01*
Y68977D01*
X86792D01*
X80480Y68079D02*
Y72079D01*
X84480D01*
Y68079D01*
X80480D01*
X81280Y68879D02*
Y71279D01*
X83680D01*
Y68879D01*
X81280D01*
X80382Y78020D02*
Y82020D01*
X84382D01*
Y78020D01*
X80382D01*
X81182Y78820D02*
Y81220D01*
X83582D01*
Y78820D01*
X81182D01*
X80283Y85008D02*
Y89008D01*
X84284D01*
Y85008D01*
X80283D01*
X81084Y85808D02*
Y88208D01*
X83483D01*
Y85808D01*
X81084D01*
X80283Y92488D02*
Y96488D01*
X84284D01*
Y92488D01*
X80283D01*
X81084Y93288D02*
Y95688D01*
X83483D01*
Y93288D01*
X81084D01*
X80283Y99575D02*
Y103575D01*
X84284D01*
Y99575D01*
X80283D01*
X81084Y100375D02*
Y102775D01*
X83483D01*
Y100375D01*
X81084D01*
X45177Y91287D02*
X43177Y95287D01*
X47177D01*
X45177Y91287D01*
X40846D02*
X38846Y95287D01*
X42847D01*
X40846Y91287D01*
X36516D02*
X34516Y95287D01*
X38516D01*
X36516Y91287D01*
X45177Y95618D02*
X43177Y99618D01*
X47177D01*
X45177Y95618D01*
X40846D02*
X38846Y99618D01*
X42847D01*
X40846Y95618D01*
X36516D02*
X34516Y99618D01*
X38516D01*
X36516Y95618D01*
X45177Y99949D02*
X43177Y103949D01*
X47177D01*
X45177Y99949D01*
X40846D02*
X38846Y103949D01*
X42847D01*
X40846Y99949D01*
X36516D02*
X34516Y103949D01*
X38516D01*
X36516Y99949D01*
X45177Y104279D02*
X43177Y108280D01*
X47177D01*
X45177Y104279D01*
X40846D02*
X38846Y108280D01*
X42847D01*
X40846Y104279D01*
X36516D02*
X34516Y108280D01*
X38516D01*
X36516Y104279D01*
D176*
X130051Y51772D02*
G03*
X130051Y51772I-2000J0D01*
G01*
X87138D02*
G03*
X87138Y51772I-2000J0D01*
G01*
X287433Y240059D02*
G03*
X287433Y240059I-2000J0D01*
G01*
X259874Y244685D02*
G03*
X259874Y244685I-2000J0D01*
G01*
X279264Y265650D02*
G03*
X279264Y265650I-2000J0D01*
G01*
X257118Y254823D02*
G03*
X257118Y254823I-2000J0D01*
G01*
X265583Y260335D02*
G03*
X265583Y260335I-2000J0D01*
G01*
X277590Y231890D02*
G03*
X277590Y231890I-2000J0D01*
G01*
X273063Y240354D02*
G03*
X273063Y240354I-2000J0D01*
G01*
X272571Y247835D02*
G03*
X272571Y247835I-2000J0D01*
G01*
X209776Y31201D02*
G03*
X209776Y31201I-2000J0D01*
G01*
X179165Y21654D02*
G03*
X179165Y21654I-2000J0D01*
G01*
X216567Y20965D02*
G03*
X216567Y20965I-2000J0D01*
G01*
X199933Y10335D02*
G03*
X199933Y10335I-2000J0D01*
G01*
X192551D02*
G03*
X192551Y10335I-2000J0D01*
G01*
X178083Y94882D02*
G03*
X178083Y94882I-2000J0D01*
G01*
X176213Y98917D02*
G03*
X176213Y98917I-2000J0D01*
G01*
X205248Y50886D02*
G03*
X205248Y50886I-2000J0D01*
G01*
X380642Y90551D02*
G03*
X380642Y90551I-2000J0D01*
G01*
X360957Y85433D02*
G03*
X360957Y85433I-2000J0D01*
G01*
X377492Y77362D02*
G03*
X377492Y77362I-2000J0D01*
G01*
X365287Y84744D02*
G03*
X365287Y84744I-2000J0D01*
G01*
X367158Y79626D02*
G03*
X367158Y79626I-2000J0D01*
G01*
X346587Y69488D02*
G03*
X346587Y69488I-2000J0D01*
G01*
X355445Y86221D02*
G03*
X355445Y86221I-2000J0D01*
G01*
X346390Y97539D02*
G03*
X346390Y97539I-2000J0D01*
G01*
X332315Y53347D02*
G03*
X332315Y53347I-2000J0D01*
G01*
X296587Y121653D02*
G03*
X296587Y121653I-2000J0D01*
G01*
X339598Y133563D02*
G03*
X339598Y133563I-2000J0D01*
G01*
X276508Y145177D02*
G03*
X276508Y145177I-2000J0D01*
G01*
X302787Y132677D02*
G03*
X302787Y132677I-2000J0D01*
G01*
X303575Y137894D02*
G03*
X303575Y137894I-2000J0D01*
G01*
X248161Y83957D02*
G03*
X248161Y83957I-2000J0D01*
G01*
X265976Y150591D02*
G03*
X265976Y150591I-2000J0D01*
G01*
X247768Y153937D02*
G03*
X247768Y153937I-2000J0D01*
G01*
X308299Y93799D02*
G03*
X308299Y93799I-2000J0D01*
G01*
X272276Y79921D02*
G03*
X272276Y79921I-2000J0D01*
G01*
X267846Y86614D02*
G03*
X267846Y86614I-2000J0D01*
G01*
X280346Y95374D02*
G03*
X280346Y95374I-2000J0D01*
G01*
X276606Y92126D02*
G03*
X276606Y92126I-2000J0D01*
G01*
X270996Y115453D02*
G03*
X270996Y115453I-2000J0D01*
G01*
X265779Y113386D02*
G03*
X265779Y113386I-2000J0D01*
G01*
X224539Y100197D02*
G03*
X224539Y100197I-2000J0D01*
G01*
X230839Y102953D02*
G03*
X230839Y102953I-2000J0D01*
G01*
X276902Y135630D02*
G03*
X276902Y135630I-2000J0D01*
G01*
X269836Y129605D02*
G03*
X269836Y129605I-2000J0D01*
G01*
X264598Y127559D02*
G03*
X264598Y127559I-2000J0D01*
G01*
X258894Y112594D02*
G03*
X258894Y112594I-2000J0D01*
G01*
X251640Y112860D02*
G03*
X251640Y112860I-2000J0D01*
G01*
X228673Y162205D02*
G03*
X228673Y162205I-2000J0D01*
G01*
X235366Y167618D02*
G03*
X235366Y167618I-2000J0D01*
G01*
X213319Y175394D02*
G03*
X213319Y175394I-2000J0D01*
G01*
X223063Y78543D02*
G03*
X223063Y78543I-2000J0D01*
G01*
X214106Y111319D02*
G03*
X214106Y111319I-2000J0D01*
G01*
X176803Y110925D02*
G03*
X176803Y110925I-2000J0D01*
G01*
X246488Y72835D02*
G03*
X246488Y72835I-2000J0D01*
G01*
X409480Y177953D02*
G03*
X409480Y177953I-2000J0D01*
G01*
X408398Y253445D02*
G03*
X408398Y253445I-2000J0D01*
G01*
X343142Y240354D02*
G03*
X343142Y240354I-2000J0D01*
G01*
X335465Y240551D02*
G03*
X335465Y240551I-2000J0D01*
G01*
X343339Y244291D02*
G03*
X343339Y244291I-2000J0D01*
G01*
X335563D02*
G03*
X335563Y244291I-2000J0D01*
G01*
X325031Y226673D02*
G03*
X325031Y226673I-2000J0D01*
G01*
X352787Y162106D02*
G03*
X352787Y162106I-2000J0D01*
G01*
X295012Y181201D02*
G03*
X295012Y181201I-2000J0D01*
G01*
X295307Y166831D02*
G03*
X295307Y166831I-2000J0D01*
G01*
Y171850D02*
G03*
X295307Y171850I-2000J0D01*
G01*
X249638Y227067D02*
G03*
X249638Y227067I-2000J0D01*
G01*
Y219587D02*
G03*
X249638Y219587I-2000J0D01*
G01*
X318634Y248622D02*
G03*
X318634Y248622I-2000J0D01*
G01*
X313811Y259842D02*
G03*
X313811Y259842I-2000J0D01*
G01*
X236646Y231201D02*
G03*
X236646Y231201I-2000J0D01*
G01*
X236252Y194882D02*
G03*
X236252Y194882I-2000J0D01*
G01*
X282610Y71949D02*
G03*
X282610Y71949I-2000J0D01*
G01*
X308201Y64764D02*
G03*
X308201Y64764I-2000J0D01*
G01*
X308102Y68701D02*
G03*
X308102Y68701I-2000J0D01*
G01*
X251016Y38484D02*
G03*
X251016Y38484I-2000J0D01*
G01*
X224835Y52559D02*
G03*
X224835Y52559I-2000J0D01*
G01*
X225031Y56693D02*
G03*
X225031Y56693I-2000J0D01*
G01*
X224244Y61811D02*
G03*
X224244Y61811I-2000J0D01*
G01*
X224342Y66043D02*
G03*
X224342Y66043I-2000J0D01*
G01*
X210661Y48425D02*
G03*
X210661Y48425I-2000J0D01*
G01*
X164992Y134646D02*
G03*
X164992Y134646I-2000J0D01*
G01*
X163024Y82480D02*
G03*
X163024Y82480I-2000J0D01*
G01*
X232610Y255217D02*
G03*
X232610Y255217I-2000J0D01*
G01*
X202886Y255413D02*
G03*
X202886Y255413I-2000J0D01*
G01*
X161547Y67323D02*
G03*
X161547Y67323I-2000J0D01*
G01*
X161646Y60728D02*
G03*
X161646Y60728I-2000J0D01*
G01*
X183102Y105118D02*
G03*
X183102Y105118I-2000J0D01*
G01*
X224342Y87106D02*
G03*
X224342Y87106I-2000J0D01*
G01*
X191075Y144587D02*
G03*
X191075Y144587I-2000J0D01*
G01*
X175819Y145866D02*
G03*
X175819Y145866I-2000J0D01*
G01*
X180543Y50394D02*
G03*
X180543Y50394I-2000J0D01*
G01*
X187335D02*
G03*
X187335Y50394I-2000J0D01*
G01*
X161646Y207185D02*
G03*
X161646Y207185I-2000J0D01*
G01*
X187236Y227854D02*
G03*
X187236Y227854I-2000J0D01*
G01*
X186744Y220768D02*
G03*
X186744Y220768I-2000J0D01*
G01*
X175031Y276476D02*
G03*
X175031Y276476I-2000J0D01*
G01*
X214500Y264567D02*
G03*
X214500Y264567I-2000J0D01*
G01*
X151016Y287894D02*
G03*
X151016Y287894I-2000J0D01*
G01*
X151114Y294291D02*
G03*
X151114Y294291I-2000J0D01*
G01*
X189402Y289469D02*
G03*
X189402Y289469I-2000J0D01*
G01*
X180248Y289370D02*
G03*
X180248Y289370I-2000J0D01*
G01*
X170996Y289469D02*
G03*
X170996Y289469I-2000J0D01*
G01*
X216075Y281594D02*
G03*
X216075Y281594I-2000J0D01*
G01*
X171882Y206890D02*
G03*
X171882Y206890I-2000J0D01*
G01*
X162039Y187303D02*
G03*
X162039Y187303I-2000J0D01*
G01*
X177000Y159744D02*
G03*
X177000Y159744I-2000J0D01*
G01*
X153969Y155217D02*
G03*
X153969Y155217I-2000J0D01*
G01*
X146685Y137992D02*
G03*
X146685Y137992I-2000J0D01*
G01*
X138909Y138287D02*
G03*
X138909Y138287I-2000J0D01*
G01*
X131331Y137894D02*
G03*
X131331Y137894I-2000J0D01*
G01*
X123653D02*
G03*
X123653Y137894I-2000J0D01*
G01*
X11252Y250689D02*
G03*
X11252Y250689I-2000J0D01*
G01*
X82807Y247638D02*
G03*
X82807Y247638I-2000J0D01*
G01*
X66764Y206890D02*
G03*
X66764Y206890I-2000J0D01*
G01*
X46784Y201476D02*
G03*
X46784Y201476I-2000J0D01*
G01*
X70209Y234055D02*
G03*
X70209Y234055I-2000J0D01*
G01*
X86350Y292323D02*
G03*
X86350Y292323I-2000J0D01*
G01*
X81232D02*
G03*
X81232Y292323I-2000J0D01*
G01*
X51114Y245866D02*
G03*
X51114Y245866I-2000J0D01*
G01*
X29165Y257185D02*
G03*
X29165Y257185I-2000J0D01*
G01*
X37630D02*
G03*
X37630Y257185I-2000J0D01*
G01*
X30740Y203445D02*
G03*
X30740Y203445I-2000J0D01*
G01*
X28083Y218701D02*
G03*
X28083Y218701I-2000J0D01*
G01*
X75228Y150000D02*
G03*
X75228Y150000I-2000J0D01*
G01*
X68535Y150098D02*
G03*
X68535Y150098I-2000J0D01*
G01*
X60268Y150295D02*
G03*
X60268Y150295I-2000J0D01*
G01*
X61154Y188287D02*
G03*
X61154Y188287I-2000J0D01*
G01*
X31429Y162894D02*
G03*
X31429Y162894I-2000J0D01*
G01*
X16272Y185039D02*
G03*
X16272Y185039I-2000J0D01*
G01*
X118437Y68504D02*
G03*
X118437Y68504I-2000J0D01*
G01*
Y75394D02*
G03*
X118437Y75394I-2000J0D01*
G01*
X118339Y83071D02*
G03*
X118339Y83071I-2000J0D01*
G01*
X118043Y91732D02*
G03*
X118043Y91732I-2000J0D01*
G01*
D177*
X286633Y240059D02*
G03*
X286633Y240059I-1200J0D01*
G01*
X259074Y244685D02*
G03*
X259074Y244685I-1200J0D01*
G01*
X278464Y265650D02*
G03*
X278464Y265650I-1200J0D01*
G01*
X256318Y254823D02*
G03*
X256318Y254823I-1200J0D01*
G01*
X264783Y260335D02*
G03*
X264783Y260335I-1200J0D01*
G01*
X276790Y231890D02*
G03*
X276790Y231890I-1200J0D01*
G01*
X272263Y240354D02*
G03*
X272263Y240354I-1200J0D01*
G01*
X271771Y247835D02*
G03*
X271771Y247835I-1200J0D01*
G01*
X208976Y31201D02*
G03*
X208976Y31201I-1200J0D01*
G01*
X178365Y21654D02*
G03*
X178365Y21654I-1200J0D01*
G01*
X215767Y20965D02*
G03*
X215767Y20965I-1200J0D01*
G01*
X199133Y10335D02*
G03*
X199133Y10335I-1200J0D01*
G01*
X191751D02*
G03*
X191751Y10335I-1200J0D01*
G01*
X177283Y94882D02*
G03*
X177283Y94882I-1200J0D01*
G01*
X175413Y98917D02*
G03*
X175413Y98917I-1200J0D01*
G01*
X204448Y50886D02*
G03*
X204448Y50886I-1200J0D01*
G01*
X379842Y90551D02*
G03*
X379842Y90551I-1200J0D01*
G01*
X360157Y85433D02*
G03*
X360157Y85433I-1200J0D01*
G01*
X376692Y77362D02*
G03*
X376692Y77362I-1200J0D01*
G01*
X364487Y84744D02*
G03*
X364487Y84744I-1200J0D01*
G01*
X366357Y79626D02*
G03*
X366357Y79626I-1200J0D01*
G01*
X345787Y69488D02*
G03*
X345787Y69488I-1200J0D01*
G01*
X354645Y86221D02*
G03*
X354645Y86221I-1200J0D01*
G01*
X345590Y97539D02*
G03*
X345590Y97539I-1200J0D01*
G01*
X331515Y53347D02*
G03*
X331515Y53347I-1200J0D01*
G01*
X295787Y121653D02*
G03*
X295787Y121653I-1200J0D01*
G01*
X338798Y133563D02*
G03*
X338798Y133563I-1200J0D01*
G01*
X275708Y145177D02*
G03*
X275708Y145177I-1200J0D01*
G01*
X301987Y132677D02*
G03*
X301987Y132677I-1200J0D01*
G01*
X302775Y137894D02*
G03*
X302775Y137894I-1200J0D01*
G01*
X247361Y83957D02*
G03*
X247361Y83957I-1200J0D01*
G01*
X265176Y150591D02*
G03*
X265176Y150591I-1200J0D01*
G01*
X246968Y153937D02*
G03*
X246968Y153937I-1200J0D01*
G01*
X307499Y93799D02*
G03*
X307499Y93799I-1200J0D01*
G01*
X271476Y79921D02*
G03*
X271476Y79921I-1200J0D01*
G01*
X267046Y86614D02*
G03*
X267046Y86614I-1200J0D01*
G01*
X279546Y95374D02*
G03*
X279546Y95374I-1200J0D01*
G01*
X275806Y92126D02*
G03*
X275806Y92126I-1200J0D01*
G01*
X270196Y115453D02*
G03*
X270196Y115453I-1200J0D01*
G01*
X264980Y113386D02*
G03*
X264980Y113386I-1200J0D01*
G01*
X223739Y100197D02*
G03*
X223739Y100197I-1200J0D01*
G01*
X230039Y102953D02*
G03*
X230039Y102953I-1200J0D01*
G01*
X276102Y135630D02*
G03*
X276102Y135630I-1200J0D01*
G01*
X269036Y129605D02*
G03*
X269036Y129605I-1200J0D01*
G01*
X263798Y127559D02*
G03*
X263798Y127559I-1200J0D01*
G01*
X258094Y112594D02*
G03*
X258094Y112594I-1200J0D01*
G01*
X250840Y112860D02*
G03*
X250840Y112860I-1200J0D01*
G01*
X227873Y162205D02*
G03*
X227873Y162205I-1200J0D01*
G01*
X234566Y167618D02*
G03*
X234566Y167618I-1200J0D01*
G01*
X212519Y175394D02*
G03*
X212519Y175394I-1200J0D01*
G01*
X222263Y78543D02*
G03*
X222263Y78543I-1200J0D01*
G01*
X213306Y111319D02*
G03*
X213306Y111319I-1200J0D01*
G01*
X176003Y110925D02*
G03*
X176003Y110925I-1200J0D01*
G01*
X245688Y72835D02*
G03*
X245688Y72835I-1200J0D01*
G01*
X408680Y177953D02*
G03*
X408680Y177953I-1200J0D01*
G01*
X407598Y253445D02*
G03*
X407598Y253445I-1200J0D01*
G01*
X342342Y240354D02*
G03*
X342342Y240354I-1200J0D01*
G01*
X334665Y240551D02*
G03*
X334665Y240551I-1200J0D01*
G01*
X342539Y244291D02*
G03*
X342539Y244291I-1200J0D01*
G01*
X334763D02*
G03*
X334763Y244291I-1200J0D01*
G01*
X324232Y226673D02*
G03*
X324232Y226673I-1200J0D01*
G01*
X351987Y162106D02*
G03*
X351987Y162106I-1200J0D01*
G01*
X294212Y181201D02*
G03*
X294212Y181201I-1200J0D01*
G01*
X294507Y166831D02*
G03*
X294507Y166831I-1200J0D01*
G01*
Y171850D02*
G03*
X294507Y171850I-1200J0D01*
G01*
X248838Y227067D02*
G03*
X248838Y227067I-1200J0D01*
G01*
Y219587D02*
G03*
X248838Y219587I-1200J0D01*
G01*
X317834Y248622D02*
G03*
X317834Y248622I-1200J0D01*
G01*
X313011Y259842D02*
G03*
X313011Y259842I-1200J0D01*
G01*
X235846Y231201D02*
G03*
X235846Y231201I-1200J0D01*
G01*
X235452Y194882D02*
G03*
X235452Y194882I-1200J0D01*
G01*
X281810Y71949D02*
G03*
X281810Y71949I-1200J0D01*
G01*
X307401Y64764D02*
G03*
X307401Y64764I-1200J0D01*
G01*
X307302Y68701D02*
G03*
X307302Y68701I-1200J0D01*
G01*
X250216Y38484D02*
G03*
X250216Y38484I-1200J0D01*
G01*
X224035Y52559D02*
G03*
X224035Y52559I-1200J0D01*
G01*
X224232Y56693D02*
G03*
X224232Y56693I-1200J0D01*
G01*
X223444Y61811D02*
G03*
X223444Y61811I-1200J0D01*
G01*
X223542Y66043D02*
G03*
X223542Y66043I-1200J0D01*
G01*
X209861Y48425D02*
G03*
X209861Y48425I-1200J0D01*
G01*
X164192Y134646D02*
G03*
X164192Y134646I-1200J0D01*
G01*
X162224Y82480D02*
G03*
X162224Y82480I-1200J0D01*
G01*
X231810Y255217D02*
G03*
X231810Y255217I-1200J0D01*
G01*
X202086Y255413D02*
G03*
X202086Y255413I-1200J0D01*
G01*
X160747Y67323D02*
G03*
X160747Y67323I-1200J0D01*
G01*
X160846Y60728D02*
G03*
X160846Y60728I-1200J0D01*
G01*
X182302Y105118D02*
G03*
X182302Y105118I-1200J0D01*
G01*
X223542Y87106D02*
G03*
X223542Y87106I-1200J0D01*
G01*
X190275Y144587D02*
G03*
X190275Y144587I-1200J0D01*
G01*
X175019Y145866D02*
G03*
X175019Y145866I-1200J0D01*
G01*
X179743Y50394D02*
G03*
X179743Y50394I-1200J0D01*
G01*
X186535D02*
G03*
X186535Y50394I-1200J0D01*
G01*
X160846Y207185D02*
G03*
X160846Y207185I-1200J0D01*
G01*
X186436Y227854D02*
G03*
X186436Y227854I-1200J0D01*
G01*
X185944Y220768D02*
G03*
X185944Y220768I-1200J0D01*
G01*
X174232Y276476D02*
G03*
X174232Y276476I-1200J0D01*
G01*
X213700Y264567D02*
G03*
X213700Y264567I-1200J0D01*
G01*
X150216Y287894D02*
G03*
X150216Y287894I-1200J0D01*
G01*
X150314Y294291D02*
G03*
X150314Y294291I-1200J0D01*
G01*
X188602Y289469D02*
G03*
X188602Y289469I-1200J0D01*
G01*
X179448Y289370D02*
G03*
X179448Y289370I-1200J0D01*
G01*
X170196Y289469D02*
G03*
X170196Y289469I-1200J0D01*
G01*
X215275Y281594D02*
G03*
X215275Y281594I-1200J0D01*
G01*
X171082Y206890D02*
G03*
X171082Y206890I-1200J0D01*
G01*
X161239Y187303D02*
G03*
X161239Y187303I-1200J0D01*
G01*
X176200Y159744D02*
G03*
X176200Y159744I-1200J0D01*
G01*
X153168Y155217D02*
G03*
X153168Y155217I-1200J0D01*
G01*
X145885Y137992D02*
G03*
X145885Y137992I-1200J0D01*
G01*
X138109Y138287D02*
G03*
X138109Y138287I-1200J0D01*
G01*
X130531Y137894D02*
G03*
X130531Y137894I-1200J0D01*
G01*
X122854D02*
G03*
X122854Y137894I-1200J0D01*
G01*
X10452Y250689D02*
G03*
X10452Y250689I-1200J0D01*
G01*
X82007Y247638D02*
G03*
X82007Y247638I-1200J0D01*
G01*
X65964Y206890D02*
G03*
X65964Y206890I-1200J0D01*
G01*
X45983Y201476D02*
G03*
X45983Y201476I-1200J0D01*
G01*
X69409Y234055D02*
G03*
X69409Y234055I-1200J0D01*
G01*
X85550Y292323D02*
G03*
X85550Y292323I-1200J0D01*
G01*
X80432D02*
G03*
X80432Y292323I-1200J0D01*
G01*
X50314Y245866D02*
G03*
X50314Y245866I-1200J0D01*
G01*
X28365Y257185D02*
G03*
X28365Y257185I-1200J0D01*
G01*
X36830D02*
G03*
X36830Y257185I-1200J0D01*
G01*
X29940Y203445D02*
G03*
X29940Y203445I-1200J0D01*
G01*
X27283Y218701D02*
G03*
X27283Y218701I-1200J0D01*
G01*
X74428Y150000D02*
G03*
X74428Y150000I-1200J0D01*
G01*
X67735Y150098D02*
G03*
X67735Y150098I-1200J0D01*
G01*
X59468Y150295D02*
G03*
X59468Y150295I-1200J0D01*
G01*
X60353Y188287D02*
G03*
X60353Y188287I-1200J0D01*
G01*
X30629Y162894D02*
G03*
X30629Y162894I-1200J0D01*
G01*
X15472Y185039D02*
G03*
X15472Y185039I-1200J0D01*
G01*
X117637Y68504D02*
G03*
X117637Y68504I-1200J0D01*
G01*
Y75394D02*
G03*
X117637Y75394I-1200J0D01*
G01*
X117539Y83071D02*
G03*
X117539Y83071I-1200J0D01*
G01*
X117243Y91732D02*
G03*
X117243Y91732I-1200J0D01*
G01*
M02*
