G04*
G04 #@! TF.GenerationSoftware,Altium Limited,Altium Designer,24.10.1 (45)*
G04*
G04 Layer_Physical_Order=1*
G04 Layer_Color=255*
%FSLAX25Y25*%
%MOIN*%
G70*
G04*
G04 #@! TF.SameCoordinates,5AC42D03-02A1-48EB-AEC6-02F924EB4CEF*
G04*
G04*
G04 #@! TF.FilePolarity,Positive*
G04*
G01*
G75*
%ADD19C,0.01000*%
%ADD31R,0.03700X0.06300*%
%ADD81O,0.00984X0.06102*%
%ADD82O,0.06102X0.00984*%
%ADD83R,0.01968X0.02362*%
%ADD84R,0.03937X0.03543*%
%ADD85R,0.03937X0.01378*%
%ADD86R,0.02362X0.01968*%
%ADD87R,0.02520X0.02362*%
%ADD88R,0.19685X0.09016*%
%ADD89R,0.20000X0.09508*%
%ADD90R,0.04724X0.06496*%
%ADD91R,0.21654X0.07874*%
%ADD92R,0.07087X0.02756*%
%ADD93R,0.07087X0.03150*%
%ADD94O,0.07087X0.01181*%
%ADD95O,0.01181X0.07087*%
%ADD96R,0.02362X0.02520*%
%ADD97R,0.01968X0.08858*%
%ADD98R,0.07874X0.14961*%
%ADD99R,0.07874X0.05906*%
G04:AMPARAMS|DCode=100|XSize=55.12mil|YSize=82.68mil|CornerRadius=13.78mil|HoleSize=0mil|Usage=FLASHONLY|Rotation=90.000|XOffset=0mil|YOffset=0mil|HoleType=Round|Shape=RoundedRectangle|*
%AMROUNDEDRECTD100*
21,1,0.05512,0.05512,0,0,90.0*
21,1,0.02756,0.08268,0,0,90.0*
1,1,0.02756,0.02756,0.01378*
1,1,0.02756,0.02756,-0.01378*
1,1,0.02756,-0.02756,-0.01378*
1,1,0.02756,-0.02756,0.01378*
%
%ADD100ROUNDEDRECTD100*%
%ADD101R,0.03543X0.03937*%
%ADD102R,0.04724X0.03937*%
%ADD103O,0.03150X0.02165*%
%ADD104R,0.03150X0.02165*%
%ADD105R,0.03150X0.03543*%
%ADD106R,0.01575X0.01181*%
%ADD107R,0.04600X0.01400*%
%ADD108R,0.02559X0.01378*%
%ADD109R,0.03543X0.03150*%
%ADD110R,0.01575X0.01968*%
%ADD111R,0.04134X0.06299*%
%ADD112R,0.11614X0.19291*%
G04:AMPARAMS|DCode=113|XSize=61.02mil|YSize=23.62mil|CornerRadius=0.59mil|HoleSize=0mil|Usage=FLASHONLY|Rotation=180.000|XOffset=0mil|YOffset=0mil|HoleType=Round|Shape=RoundedRectangle|*
%AMROUNDEDRECTD113*
21,1,0.06102,0.02244,0,0,180.0*
21,1,0.05984,0.02362,0,0,180.0*
1,1,0.00118,-0.02992,0.01122*
1,1,0.00118,0.02992,0.01122*
1,1,0.00118,0.02992,-0.01122*
1,1,0.00118,-0.02992,-0.01122*
%
%ADD113ROUNDEDRECTD113*%
%ADD114R,0.19291X0.11614*%
G04:AMPARAMS|DCode=115|XSize=61.02mil|YSize=23.62mil|CornerRadius=0.59mil|HoleSize=0mil|Usage=FLASHONLY|Rotation=90.000|XOffset=0mil|YOffset=0mil|HoleType=Round|Shape=RoundedRectangle|*
%AMROUNDEDRECTD115*
21,1,0.06102,0.02244,0,0,90.0*
21,1,0.05984,0.02362,0,0,90.0*
1,1,0.00118,0.01122,0.02992*
1,1,0.00118,0.01122,-0.02992*
1,1,0.00118,-0.01122,-0.02992*
1,1,0.00118,-0.01122,0.02992*
%
%ADD115ROUNDEDRECTD115*%
%ADD116R,0.06299X0.04134*%
%ADD117R,0.02559X0.03150*%
G04:AMPARAMS|DCode=118|XSize=78.74mil|YSize=98.43mil|CornerRadius=19.68mil|HoleSize=0mil|Usage=FLASHONLY|Rotation=0.000|XOffset=0mil|YOffset=0mil|HoleType=Round|Shape=RoundedRectangle|*
%AMROUNDEDRECTD118*
21,1,0.07874,0.05906,0,0,0.0*
21,1,0.03937,0.09843,0,0,0.0*
1,1,0.03937,0.01968,-0.02953*
1,1,0.03937,-0.01968,-0.02953*
1,1,0.03937,-0.01968,0.02953*
1,1,0.03937,0.01968,0.02953*
%
%ADD118ROUNDEDRECTD118*%
%ADD119R,0.03150X0.02559*%
%ADD120R,0.03740X0.03543*%
%ADD121R,0.09646X0.08465*%
%ADD122R,0.01575X0.02008*%
%ADD123R,0.09843X0.06693*%
%ADD124O,0.03937X0.01968*%
%ADD125O,0.05512X0.01968*%
%ADD126R,0.10236X0.04331*%
%ADD127R,0.11024X0.04331*%
G04:AMPARAMS|DCode=128|XSize=55.12mil|YSize=82.68mil|CornerRadius=13.78mil|HoleSize=0mil|Usage=FLASHONLY|Rotation=180.000|XOffset=0mil|YOffset=0mil|HoleType=Round|Shape=RoundedRectangle|*
%AMROUNDEDRECTD128*
21,1,0.05512,0.05512,0,0,180.0*
21,1,0.02756,0.08268,0,0,180.0*
1,1,0.02756,-0.01378,0.02756*
1,1,0.02756,0.01378,0.02756*
1,1,0.02756,0.01378,-0.02756*
1,1,0.02756,-0.01378,-0.02756*
%
%ADD128ROUNDEDRECTD128*%
%ADD129C,0.02799*%
%ADD130C,0.02800*%
%ADD131C,0.05000*%
%ADD132C,0.03000*%
%ADD133C,0.02000*%
%ADD134C,0.00435*%
%ADD135C,0.07874*%
%ADD136O,0.05118X0.10236*%
%ADD137C,0.19354*%
%ADD138R,0.19354X0.19354*%
%ADD139C,0.19685*%
%ADD140C,0.08661*%
%ADD141O,0.07874X0.11811*%
%ADD142C,0.01181*%
%ADD143C,0.03543*%
%ADD144C,0.05000*%
%ADD145C,0.03937*%
%ADD146C,0.02362*%
%ADD147C,0.01575*%
%ADD148C,0.01968*%
G36*
X207776Y277658D02*
Y277638D01*
Y273937D01*
Y268996D01*
X207874Y268898D01*
X207283Y268307D01*
X204429D01*
X203543Y269193D01*
Y271063D01*
X202165Y272441D01*
X156299D01*
X153937Y274803D01*
Y279921D01*
X155413Y281398D01*
X204035D01*
X207776Y277658D01*
D02*
G37*
G36*
X314469Y261811D02*
Y253051D01*
X313287Y251870D01*
X298425D01*
Y252658D01*
Y253543D01*
X298721Y253839D01*
X303101D01*
X303987Y254724D01*
X307776D01*
X309252Y256201D01*
Y262106D01*
X310138Y262992D01*
X313287D01*
X314469Y261811D01*
D02*
G37*
G36*
X145374Y298228D02*
X199705D01*
X202439Y295494D01*
Y287774D01*
X200000Y285335D01*
X145768D01*
X145374Y284941D01*
Y251701D01*
X145004Y251548D01*
X130718Y265835D01*
Y279635D01*
X130788Y279644D01*
X131890Y280100D01*
X132835Y280826D01*
X133561Y281772D01*
X134017Y282873D01*
X134173Y284055D01*
Y287992D01*
X134017Y289174D01*
X133561Y290275D01*
X132835Y291221D01*
X131890Y291947D01*
X130788Y292403D01*
X129606Y292559D01*
X128424Y292403D01*
X127323Y291947D01*
X126377Y291221D01*
X125652Y290275D01*
X125195Y289174D01*
X125040Y287992D01*
Y284055D01*
X125195Y282873D01*
X125652Y281772D01*
X126377Y280826D01*
X127323Y280100D01*
X128424Y279644D01*
X128494Y279635D01*
Y265374D01*
X128494Y265374D01*
X128579Y264949D01*
X128820Y264588D01*
X145374Y248034D01*
Y243631D01*
X145004Y243478D01*
X120718Y267764D01*
Y279635D01*
X120788Y279644D01*
X121890Y280100D01*
X122835Y280826D01*
X123561Y281772D01*
X124017Y282873D01*
X124173Y284055D01*
Y287992D01*
X124017Y289174D01*
X123561Y290275D01*
X122835Y291221D01*
X121890Y291947D01*
X120788Y292403D01*
X119606Y292559D01*
X118424Y292403D01*
X117323Y291947D01*
X116377Y291221D01*
X115652Y290275D01*
X115195Y289174D01*
X115040Y287992D01*
Y284055D01*
X115195Y282873D01*
X115652Y281772D01*
X116377Y280826D01*
X117323Y280100D01*
X118424Y279644D01*
X118494Y279635D01*
Y267303D01*
X118494Y267303D01*
X118579Y266878D01*
X118820Y266517D01*
X145374Y239963D01*
Y212528D01*
X145004Y212375D01*
X122932Y234448D01*
X122571Y234689D01*
X122146Y234773D01*
X122146Y234773D01*
X86484D01*
X77460Y243798D01*
X77099Y244039D01*
X76673Y244124D01*
X76673Y244124D01*
X69949D01*
X64340Y249732D01*
Y250479D01*
X64350D01*
X64604Y250530D01*
X64819Y250673D01*
X64962Y250888D01*
X65013Y251142D01*
Y257126D01*
X64962Y257380D01*
X64819Y257594D01*
X64604Y257738D01*
X64350Y257788D01*
X62106D01*
X61853Y257738D01*
X61638Y257594D01*
X61494Y257380D01*
X61444Y257126D01*
Y251142D01*
X61494Y250888D01*
X61638Y250673D01*
X61853Y250530D01*
X62106Y250479D01*
X62116D01*
Y249272D01*
X62116Y249272D01*
X62201Y248846D01*
X62442Y248485D01*
X68702Y242226D01*
X69063Y241985D01*
X69488Y241900D01*
X69488Y241900D01*
X76213D01*
X85237Y232875D01*
X85598Y232634D01*
X86024Y232550D01*
X86024Y232550D01*
X121685D01*
X145374Y208861D01*
Y206524D01*
X145004Y206371D01*
X121259Y230117D01*
X120898Y230358D01*
X120473Y230443D01*
X120472Y230443D01*
X86386D01*
X75786Y241042D01*
X75425Y241283D01*
X75000Y241368D01*
X75000Y241368D01*
X68472D01*
X59673Y250167D01*
X59767Y250639D01*
X59819Y250673D01*
X59962Y250888D01*
X60013Y251142D01*
Y257126D01*
X59962Y257380D01*
X59819Y257594D01*
X59604Y257738D01*
X59350Y257788D01*
X57106D01*
X56853Y257738D01*
X56638Y257594D01*
X56494Y257380D01*
X56444Y257126D01*
Y251142D01*
X56494Y250888D01*
X56638Y250673D01*
X56853Y250530D01*
X57106Y250479D01*
X57116D01*
Y250039D01*
X57116Y250039D01*
X57201Y249614D01*
X57442Y249253D01*
X67225Y239470D01*
X67226Y239470D01*
X67586Y239229D01*
X68012Y239144D01*
X68012Y239144D01*
X74539D01*
X85139Y228544D01*
X85139Y228544D01*
X85500Y228303D01*
X85925Y228219D01*
X85925Y228219D01*
X120012D01*
X145374Y202857D01*
Y179655D01*
X119063D01*
X74861Y223857D01*
X74500Y224098D01*
X74075Y224183D01*
X74075Y224183D01*
X62217D01*
Y224193D01*
X62167Y224446D01*
X62024Y224661D01*
X61809Y224805D01*
X61555Y224855D01*
X55571D01*
X55317Y224805D01*
X55102Y224661D01*
X54959Y224446D01*
X54909Y224193D01*
Y221949D01*
X54959Y221695D01*
X55102Y221480D01*
X55317Y221337D01*
X55571Y221287D01*
X61555D01*
X61809Y221337D01*
X62024Y221480D01*
X62167Y221695D01*
X62217Y221949D01*
Y221959D01*
X73614D01*
X117816Y177757D01*
X117816Y177757D01*
X118177Y177516D01*
X118602Y177431D01*
X118602Y177431D01*
X145374D01*
Y176014D01*
X116799D01*
X73956Y218857D01*
X73595Y219098D01*
X73169Y219183D01*
X73169Y219183D01*
X62217D01*
Y219193D01*
X62167Y219446D01*
X62024Y219661D01*
X61809Y219805D01*
X61555Y219855D01*
X55571D01*
X55317Y219805D01*
X55102Y219661D01*
X54959Y219446D01*
X54909Y219193D01*
Y216949D01*
X54959Y216695D01*
X55102Y216480D01*
X55317Y216337D01*
X55571Y216286D01*
X61555D01*
X61809Y216337D01*
X62024Y216480D01*
X62167Y216695D01*
X62217Y216949D01*
Y216959D01*
X72709D01*
X115552Y174115D01*
X115552Y174115D01*
X115913Y173874D01*
X116339Y173790D01*
X116339Y173790D01*
X145374D01*
Y166368D01*
X73295D01*
X70963Y168700D01*
X70603Y168941D01*
X70177Y169025D01*
X70177Y169025D01*
X60347D01*
Y169272D01*
X60297Y169525D01*
X60153Y169740D01*
X59939Y169884D01*
X59685Y169934D01*
X53701D01*
X53447Y169884D01*
X53232Y169740D01*
X53089Y169525D01*
X53038Y169272D01*
Y167028D01*
X53089Y166774D01*
X53232Y166559D01*
X53447Y166416D01*
X53701Y166365D01*
X59685D01*
X59939Y166416D01*
X60153Y166559D01*
X60297Y166774D01*
X60302Y166802D01*
X69717D01*
X71856Y164662D01*
X71691Y164262D01*
X60347D01*
Y164272D01*
X60297Y164525D01*
X60153Y164740D01*
X59939Y164884D01*
X59685Y164934D01*
X53701D01*
X53447Y164884D01*
X53232Y164740D01*
X53089Y164525D01*
X53038Y164272D01*
Y162028D01*
X53089Y161774D01*
X53232Y161559D01*
X53447Y161416D01*
X53701Y161365D01*
X59685D01*
X59939Y161416D01*
X60153Y161559D01*
X60297Y161774D01*
X60347Y162028D01*
Y162038D01*
X145374D01*
Y159136D01*
X144193D01*
X143767Y159051D01*
X143407Y158810D01*
X143166Y158449D01*
X143134Y158289D01*
X136427Y151583D01*
X136319Y151604D01*
X136319Y151604D01*
X121752D01*
X121326Y151519D01*
X120966Y151278D01*
X120725Y150918D01*
X120640Y150492D01*
X120725Y150067D01*
X120966Y149706D01*
X121326Y149465D01*
X121752Y149380D01*
X135687D01*
X135798Y149254D01*
X135616Y148854D01*
X118828D01*
X118539Y149143D01*
Y151669D01*
X118539Y151669D01*
X118539Y151770D01*
X118520Y151868D01*
X118520Y151969D01*
X118495Y152028D01*
X118487Y152092D01*
X118487Y152092D01*
X118469Y152124D01*
X118462Y152160D01*
X118458Y152165D01*
X118458Y152165D01*
X118392Y152325D01*
X118391Y152331D01*
X118335Y152414D01*
X118297Y152507D01*
X118226Y152578D01*
X118170Y152662D01*
X118099Y152733D01*
X118099Y152733D01*
X118099Y152733D01*
X115949Y154882D01*
X115866Y154938D01*
X115795Y155009D01*
X115702Y155047D01*
X115619Y155103D01*
X115613Y155104D01*
X115452Y155171D01*
X115447Y155174D01*
X115348Y155194D01*
X115255Y155233D01*
X115155Y155232D01*
X115057Y155252D01*
X103350D01*
X103350Y155252D01*
X103250Y155252D01*
X103151Y155232D01*
X103051Y155232D01*
X102991Y155208D01*
X102928Y155200D01*
X102928Y155200D01*
X102896Y155181D01*
X102860Y155174D01*
X102855Y155171D01*
X102855Y155171D01*
X102694Y155104D01*
X102689Y155103D01*
X102605Y155048D01*
X102513Y155009D01*
X102442Y154938D01*
X102358Y154882D01*
X102287Y154811D01*
X102287Y154811D01*
X102287Y154811D01*
X98003Y150528D01*
X82583D01*
X82583Y150527D01*
X82482Y150528D01*
X82384Y150508D01*
X82283Y150508D01*
X82224Y150483D01*
X82160Y150475D01*
X82160Y150475D01*
X82128Y150457D01*
X82092Y150450D01*
X82087Y150447D01*
X82087Y150447D01*
X81927Y150380D01*
X81921Y150379D01*
X81837Y150323D01*
X81745Y150285D01*
X81674Y150214D01*
X81590Y150158D01*
X81519Y150087D01*
X81519Y150087D01*
X81519Y150087D01*
X80354Y148922D01*
X80298Y148838D01*
X80227Y148768D01*
X80189Y148675D01*
X80133Y148591D01*
X80132Y148585D01*
X80065Y148424D01*
X80062Y148420D01*
X80042Y148321D01*
X80004Y148227D01*
X80004Y148127D01*
X79984Y148029D01*
Y144488D01*
Y142228D01*
X79984Y142228D01*
X79984Y142128D01*
X80004Y142029D01*
X80004Y141929D01*
X80029Y141869D01*
X80037Y141806D01*
X80037Y141806D01*
X80055Y141774D01*
X80062Y141738D01*
X80065Y141733D01*
X80065Y141733D01*
X80132Y141572D01*
X80133Y141567D01*
X80189Y141483D01*
X80227Y141391D01*
X80298Y141319D01*
X80354Y141236D01*
X80425Y141165D01*
X80425Y141165D01*
X80425Y141165D01*
X81623Y139967D01*
X81595Y139567D01*
X81595Y139492D01*
Y137645D01*
X77742D01*
X77725Y137662D01*
X77198Y138014D01*
X76968Y138060D01*
Y138878D01*
X71850D01*
Y138137D01*
X69095D01*
Y138386D01*
X64764D01*
Y138137D01*
X60925D01*
Y138878D01*
X55807D01*
Y134154D01*
X60925D01*
Y134346D01*
X61325Y134511D01*
X67416Y128421D01*
X67263Y128051D01*
X65945D01*
Y118405D01*
X76772D01*
Y128051D01*
X72372D01*
X66147Y134276D01*
X66300Y134646D01*
X69095D01*
Y134894D01*
X71850D01*
Y134154D01*
X76968D01*
Y134318D01*
X77070Y134402D01*
X81595D01*
Y132480D01*
X90650D01*
X90650Y139567D01*
X91023Y139630D01*
X99184D01*
X104523Y134291D01*
X104606Y134235D01*
X104677Y134164D01*
X104770Y134126D01*
X104854Y134070D01*
X104859Y134069D01*
X105020Y134002D01*
X105025Y133999D01*
X105124Y133979D01*
X105218Y133941D01*
X105317Y133941D01*
X105415Y133921D01*
X115256D01*
X145374Y133921D01*
Y20440D01*
X145041Y20217D01*
X144621Y20391D01*
X143799Y20500D01*
X142977Y20391D01*
X142211Y20074D01*
X141553Y19569D01*
X141048Y18911D01*
X140731Y18145D01*
X140622Y17323D01*
Y12205D01*
X140731Y11383D01*
X141048Y10616D01*
X141553Y9958D01*
X142211Y9454D01*
X142977Y9136D01*
X143799Y9028D01*
X144621Y9136D01*
X145041Y9310D01*
X145374Y9088D01*
Y6004D01*
X20486D01*
X20390Y6404D01*
X21216Y6825D01*
X22545Y7790D01*
X23706Y8951D01*
X24671Y10280D01*
X25417Y11743D01*
X25924Y13305D01*
X26181Y14927D01*
Y16569D01*
X25924Y18191D01*
X25417Y19753D01*
X24671Y21216D01*
X23706Y22545D01*
X22545Y23706D01*
X21216Y24671D01*
X19753Y25417D01*
X18191Y25924D01*
X16569Y26181D01*
X14927D01*
X13305Y25924D01*
X11743Y25417D01*
X10280Y24671D01*
X8951Y23706D01*
X7790Y22545D01*
X6825Y21216D01*
X6079Y19753D01*
X5572Y18191D01*
X5420Y17230D01*
X5020Y17262D01*
Y288250D01*
X5420Y288281D01*
X5572Y287321D01*
X6079Y285759D01*
X6825Y284296D01*
X7790Y282967D01*
X8951Y281806D01*
X10280Y280841D01*
X11743Y280095D01*
X13305Y279588D01*
X14927Y279331D01*
X16569D01*
X18191Y279588D01*
X19753Y280095D01*
X21216Y280841D01*
X22545Y281806D01*
X23706Y282967D01*
X24671Y284296D01*
X25417Y285759D01*
X25924Y287321D01*
X26181Y288943D01*
Y290585D01*
X25924Y292207D01*
X25417Y293769D01*
X24671Y295232D01*
X23706Y296561D01*
X22545Y297722D01*
X21216Y298687D01*
X19753Y299432D01*
X18191Y299940D01*
X16569Y300197D01*
X14927D01*
X13305Y299940D01*
X11743Y299432D01*
X10280Y298687D01*
X8951Y297722D01*
X7790Y296561D01*
X6825Y295232D01*
X6079Y293769D01*
X5572Y292207D01*
X5420Y291246D01*
X5020Y291278D01*
Y300689D01*
X145374D01*
Y298228D01*
D02*
G37*
G36*
X304921Y250591D02*
X318504D01*
Y246555D01*
X298524D01*
X297638Y247441D01*
Y250591D01*
X304921Y250591D01*
D02*
G37*
G36*
X356791Y245768D02*
Y234744D01*
X353839Y231791D01*
X331594D01*
X328150Y235236D01*
Y238583D01*
X328051Y238779D01*
Y242815D01*
X331988Y246752D01*
X355807D01*
X356791Y245768D01*
D02*
G37*
G36*
X356693Y228051D02*
Y224410D01*
X355906Y223622D01*
X319390D01*
Y229823D01*
X354921D01*
X356693Y228051D01*
D02*
G37*
G36*
X189390Y223130D02*
Y222992D01*
X193091D01*
Y223130D01*
X201201Y223130D01*
Y222894D01*
X204902D01*
Y222894D01*
X205259Y222792D01*
X205709Y222342D01*
Y219094D01*
X204921Y218307D01*
X202869D01*
X202884Y216199D01*
X202824Y216110D01*
X202733Y215650D01*
Y210608D01*
X202333Y210320D01*
X201204Y210325D01*
Y215650D01*
X201181Y215766D01*
Y218307D01*
X199508D01*
X198819Y217618D01*
Y215766D01*
X198796Y215650D01*
Y210312D01*
X198327Y209842D01*
X195866D01*
X195299Y210410D01*
Y215650D01*
X195276Y215766D01*
Y216929D01*
X193701Y218504D01*
X182185D01*
Y223130D01*
X189390D01*
D02*
G37*
G36*
X315551Y176279D02*
Y173031D01*
X313976Y171457D01*
X302854D01*
X301279Y169882D01*
Y162598D01*
X292815Y162598D01*
X290650Y164764D01*
Y173524D01*
X293209Y176083D01*
X306004D01*
X308366Y178445D01*
X313386D01*
X315551Y176279D01*
D02*
G37*
G36*
X115057Y154232D02*
X115058Y154232D01*
X115062Y154229D01*
X115223Y154162D01*
X115228Y154161D01*
X115228Y154161D01*
X115229Y154161D01*
X117378Y152012D01*
X117378Y152012D01*
X117378Y152012D01*
X117449Y151941D01*
X117449Y151941D01*
X117450Y151935D01*
X117516Y151775D01*
X117520Y151770D01*
X117520Y151770D01*
X117520Y151670D01*
X117520Y151669D01*
Y149143D01*
Y148721D01*
X117818Y148422D01*
X118107Y148133D01*
X118405Y147835D01*
X140551D01*
X141689Y148972D01*
X141689Y148972D01*
X141689Y148972D01*
X141760Y149043D01*
X141760Y149043D01*
X141765Y149044D01*
X141926Y149111D01*
X141931Y149114D01*
X141931Y149114D01*
X142031Y149114D01*
X142032Y149114D01*
X146653D01*
X148622Y147146D01*
Y137402D01*
X146161Y134941D01*
X115256Y134941D01*
X105416D01*
X105415Y134941D01*
X105415Y134941D01*
X105411Y134944D01*
X105250Y135011D01*
X105244Y135012D01*
X105244Y135012D01*
X105244Y135012D01*
X99905Y140351D01*
X99606Y140650D01*
X82382D01*
X81146Y141885D01*
X81146Y141886D01*
X81146Y141886D01*
X81075Y141957D01*
X81075Y141957D01*
X81074Y141962D01*
X81007Y142123D01*
X81004Y142128D01*
X81004Y142128D01*
X81004Y142228D01*
X81004Y142228D01*
Y144488D01*
Y148029D01*
X81004Y148029D01*
X81004Y148030D01*
X81007Y148034D01*
X81074Y148195D01*
X81075Y148201D01*
X81075Y148201D01*
X81075Y148201D01*
X82240Y149366D01*
X82240Y149366D01*
X82240Y149366D01*
X82311Y149437D01*
X82311Y149437D01*
X82317Y149438D01*
X82477Y149505D01*
X82482Y149508D01*
X82482Y149508D01*
X82582Y149508D01*
X82583Y149508D01*
X98425D01*
X103008Y154090D01*
X103008Y154090D01*
X103008Y154090D01*
X103079Y154161D01*
X103079Y154161D01*
X103084Y154162D01*
X103245Y154229D01*
X103250Y154232D01*
X103250Y154232D01*
X103350Y154232D01*
X103350Y154232D01*
X115057D01*
X115057Y154232D01*
D02*
G37*
G36*
X145374Y150134D02*
X142032D01*
X142032Y150134D01*
X141931Y150134D01*
X141832Y150114D01*
X141732Y150114D01*
X141673Y150090D01*
X141609Y150081D01*
X141609Y150081D01*
X141577Y150063D01*
X141541Y150056D01*
X141536Y150053D01*
X141536Y150053D01*
X141375Y149986D01*
X141370Y149985D01*
X141286Y149930D01*
X141194Y149891D01*
X141123Y149820D01*
X141039Y149764D01*
X140968Y149693D01*
X140968Y149693D01*
X140968Y149693D01*
X140129Y148854D01*
X137288D01*
X137166Y149254D01*
X137400Y149411D01*
X144902Y156912D01*
X145374D01*
Y150134D01*
D02*
G37*
G36*
X423691Y133295D02*
Y128645D01*
X423191Y128270D01*
X422835Y128341D01*
X403150D01*
X402466Y128205D01*
X401887Y127818D01*
X401500Y127239D01*
X401364Y126555D01*
Y126382D01*
X381892D01*
X381775Y126558D01*
X381195Y126945D01*
X380512Y127081D01*
X375787D01*
X375104Y126945D01*
X374524Y126558D01*
X374137Y125979D01*
X374001Y125295D01*
Y123162D01*
X373849Y122396D01*
Y121699D01*
X374001Y120932D01*
Y118799D01*
X374137Y118116D01*
X374524Y117536D01*
X375104Y117149D01*
X375787Y117013D01*
X380512D01*
X381195Y117149D01*
X381775Y117536D01*
X381892Y117712D01*
X401364D01*
Y117539D01*
X401500Y116856D01*
X401887Y116277D01*
X402466Y115889D01*
X403150Y115753D01*
X422835D01*
X423191Y115824D01*
X423691Y115450D01*
Y110799D01*
X422835Y110715D01*
X403150D01*
X401818Y110846D01*
X400538Y111234D01*
X399358Y111865D01*
X398373Y112674D01*
X383459D01*
X383123Y112494D01*
X381843Y112106D01*
X380512Y111975D01*
X375787D01*
X374456Y112106D01*
X373176Y112494D01*
X371996Y113125D01*
X370962Y113974D01*
X370113Y115008D01*
X369482Y116188D01*
X369368Y116566D01*
X369739Y117063D01*
X370172Y117149D01*
X370751Y117536D01*
X371138Y118116D01*
X371274Y118799D01*
Y125295D01*
X371138Y125979D01*
X370751Y126558D01*
X370172Y126945D01*
X369739Y127031D01*
X369368Y127528D01*
X369482Y127907D01*
X370113Y129087D01*
X370962Y130121D01*
X371996Y130970D01*
X373176Y131600D01*
X374456Y131989D01*
X375787Y132120D01*
X380512D01*
X381843Y131989D01*
X383123Y131600D01*
X383459Y131421D01*
X398373D01*
X399358Y132229D01*
X400538Y132860D01*
X401818Y133248D01*
X403150Y133380D01*
X422835D01*
X423691Y133295D01*
D02*
G37*
G36*
Y69249D02*
Y65403D01*
X423191Y65135D01*
X422928Y65311D01*
X422244Y65447D01*
X402559D01*
X401876Y65311D01*
X401296Y64924D01*
X400909Y64345D01*
X400773Y63661D01*
Y61875D01*
X369390D01*
Y63287D01*
X368730D01*
Y65453D01*
X369685D01*
Y65867D01*
X397272D01*
X397555Y66550D01*
X398473Y67747D01*
X399670Y68665D01*
X401064Y69243D01*
X402559Y69440D01*
X422244D01*
X423691Y69249D01*
D02*
G37*
G36*
X290945Y75492D02*
Y72342D01*
X292028Y71260D01*
X309941D01*
Y62697D01*
X287402D01*
X287244Y62907D01*
Y66122D01*
X287106D01*
Y67638D01*
X287244D01*
Y71339D01*
X287106D01*
Y74902D01*
Y75689D01*
X287500Y76083D01*
X290354D01*
X290945Y75492D01*
D02*
G37*
G36*
X365354Y65453D02*
X366506D01*
Y63287D01*
X365650D01*
Y61874D01*
X361811D01*
X361638Y61840D01*
X361463D01*
X360916Y61731D01*
X360858Y61707D01*
X360630D01*
X359946Y61571D01*
X359367Y61184D01*
X358980Y60605D01*
X358961Y60512D01*
X356575D01*
Y59872D01*
X355180D01*
X354835Y60251D01*
X354838Y60372D01*
X354947Y60693D01*
X354966Y60786D01*
X355049Y61417D01*
X355626Y62810D01*
X356067Y63386D01*
X357382D01*
Y64650D01*
X357741Y64925D01*
X359134Y65503D01*
X360078Y65627D01*
X360138Y65647D01*
X360684Y65755D01*
X361249Y65793D01*
X361811Y65867D01*
X365354D01*
Y65453D01*
D02*
G37*
G36*
X356575Y56811D02*
X358961D01*
X358980Y56718D01*
X359367Y56139D01*
X359946Y55752D01*
X360630Y55616D01*
X360858D01*
X360916Y55591D01*
X361463Y55483D01*
X361638D01*
X361811Y55449D01*
X367517D01*
X367520Y55448D01*
X400773D01*
Y54646D01*
X400909Y53962D01*
X401296Y53383D01*
X401876Y52996D01*
X402559Y52860D01*
X422244D01*
X422928Y52996D01*
X423191Y53172D01*
X423691Y52905D01*
Y49058D01*
X422244Y48868D01*
X402559D01*
X401064Y49064D01*
X399670Y49642D01*
X398473Y50560D01*
X397786Y51456D01*
X367520D01*
X367516Y51456D01*
X361811D01*
X361249Y51530D01*
X360684Y51567D01*
X360138Y51676D01*
X360078Y51696D01*
X359134Y51820D01*
X357741Y52398D01*
X356544Y53316D01*
X355626Y54513D01*
X355049Y55906D01*
X354966Y56537D01*
X354947Y56630D01*
X354826Y56988D01*
X354794Y57148D01*
X355196Y57648D01*
X356575D01*
Y56811D01*
D02*
G37*
G36*
X182776Y34941D02*
Y15650D01*
X207677D01*
X209449Y17421D01*
Y22244D01*
X206890Y24803D01*
X199705Y24803D01*
X197736Y26772D01*
Y35827D01*
X198425Y36516D01*
X216142D01*
X218307Y34350D01*
Y8858D01*
X215748Y6299D01*
X175492D01*
X172638Y9154D01*
Y36811D01*
X180905D01*
X182776Y34941D01*
D02*
G37*
%LPC*%
G36*
X109606Y292559D02*
X108424Y292403D01*
X107323Y291947D01*
X106377Y291221D01*
X105651Y290275D01*
X105195Y289174D01*
X105040Y287992D01*
Y284055D01*
X105195Y282873D01*
X105651Y281772D01*
X106377Y280826D01*
X107323Y280100D01*
X108424Y279644D01*
X109606Y279488D01*
X110788Y279644D01*
X111890Y280100D01*
X112835Y280826D01*
X113561Y281772D01*
X114017Y282873D01*
X114173Y284055D01*
Y287992D01*
X114017Y289174D01*
X113561Y290275D01*
X112835Y291221D01*
X111890Y291947D01*
X110788Y292403D01*
X109606Y292559D01*
D02*
G37*
G36*
X39171Y274740D02*
X10595D01*
X10535Y274728D01*
X10475Y274733D01*
X10342Y274690D01*
X10204Y274662D01*
X10154Y274629D01*
X10096Y274610D01*
X9867Y274481D01*
X9805Y274429D01*
X9734Y274393D01*
X9656Y274301D01*
X9564Y274223D01*
X9528Y274151D01*
X9475Y274090D01*
X9347Y273860D01*
X9328Y273803D01*
X9294Y273752D01*
X9267Y273615D01*
X9224Y273482D01*
X9228Y273422D01*
X9217Y273362D01*
Y270425D01*
X9217Y260502D01*
Y259221D01*
X9217Y259221D01*
X9217Y259120D01*
X9236Y259022D01*
X9236Y258921D01*
X9261Y258862D01*
X9269Y258798D01*
X9269Y258798D01*
X9287Y258766D01*
X9294Y258730D01*
X9297Y258725D01*
X9297Y258725D01*
X9364Y258564D01*
X9365Y258559D01*
X9421Y258475D01*
X9459Y258383D01*
X9530Y258312D01*
X9586Y258228D01*
X9657Y258157D01*
X9657Y258157D01*
X9657Y258157D01*
X9803Y258012D01*
X9886Y257956D01*
X9957Y257885D01*
X10050Y257846D01*
X10133Y257790D01*
X10139Y257789D01*
X10300Y257723D01*
X10305Y257719D01*
X10404Y257700D01*
X10497Y257661D01*
X10597Y257661D01*
X10695Y257642D01*
X21914D01*
Y236813D01*
X21933Y236715D01*
X21933Y236614D01*
X21943Y236591D01*
X21944Y236566D01*
X21944Y236566D01*
X21976Y236497D01*
X21991Y236423D01*
X21999Y236410D01*
X22004Y236400D01*
X22004Y236400D01*
X22004Y236400D01*
X22051Y236329D01*
X22085Y236247D01*
X22094Y236234D01*
X22107Y236221D01*
X22114Y236206D01*
X22133Y236188D01*
X22169Y236153D01*
X22225Y236069D01*
X22225Y236069D01*
X22225Y236069D01*
X22254Y236040D01*
X22272Y236028D01*
X22300Y236000D01*
X22315Y235990D01*
X22325Y235976D01*
X22380Y235942D01*
X22408Y235913D01*
X22427Y235901D01*
X22455Y235873D01*
X22467Y235865D01*
X22560Y235826D01*
X22631Y235779D01*
X22631Y235779D01*
X22643Y235771D01*
X22662Y235767D01*
X22663Y235766D01*
X22663Y235766D01*
X22677Y235764D01*
X22742Y235751D01*
X22834Y235713D01*
X22935Y235713D01*
X23033Y235693D01*
X31165D01*
X31165Y228983D01*
Y227661D01*
X31166Y227661D01*
X31166Y227561D01*
X31180Y227490D01*
X31176Y227417D01*
X31176Y227417D01*
X31185Y227390D01*
X31185Y227362D01*
X31224Y227269D01*
X31243Y227171D01*
X31246Y227166D01*
X31246Y227166D01*
X31313Y227005D01*
X31313Y227005D01*
X31314Y227000D01*
X31370Y226917D01*
X31408Y226824D01*
X31428Y226804D01*
X31440Y226778D01*
X31440Y226778D01*
X31495Y226729D01*
X31535Y226669D01*
X31606Y226598D01*
X31606Y226598D01*
X31606Y226598D01*
X33142Y225062D01*
X32989Y224693D01*
X31931D01*
X28292Y228333D01*
X27766Y228684D01*
X27145Y228808D01*
X22180D01*
X22106Y229085D01*
X21458Y230208D01*
X20541Y231124D01*
X19419Y231772D01*
X18168Y232107D01*
X16872D01*
X15620Y231772D01*
X14498Y231124D01*
X13582Y230208D01*
X12934Y229085D01*
X12598Y227834D01*
Y226538D01*
X12934Y225286D01*
X13582Y224164D01*
X14498Y223248D01*
X15620Y222600D01*
X16872Y222265D01*
X18168D01*
X19419Y222600D01*
X20541Y223248D01*
X21458Y224164D01*
X22106Y225286D01*
X22180Y225564D01*
X26473D01*
X30113Y221924D01*
X30639Y221573D01*
X31260Y221449D01*
X33890D01*
X34058Y221337D01*
X34311Y221287D01*
X40295D01*
X40549Y221337D01*
X40764Y221480D01*
X40907Y221695D01*
X40958Y221949D01*
Y224095D01*
X41142Y224253D01*
X41535Y224063D01*
Y210335D01*
X54331D01*
Y230807D01*
X41535D01*
X41535Y230807D01*
Y230807D01*
X41179Y230932D01*
X40291Y231820D01*
Y273620D01*
X40272Y273719D01*
X40272Y273819D01*
X40262Y273842D01*
X40261Y273867D01*
X40261Y273867D01*
X40228Y273936D01*
X40214Y274010D01*
X40205Y274023D01*
X40201Y274033D01*
X40201Y274033D01*
X40201Y274033D01*
X40154Y274104D01*
X40119Y274186D01*
X40111Y274199D01*
X40098Y274212D01*
X40091Y274227D01*
X40071Y274245D01*
X40036Y274280D01*
X39980Y274364D01*
X39980Y274364D01*
X39980Y274364D01*
X39951Y274393D01*
X39933Y274405D01*
X39905Y274433D01*
X39890Y274443D01*
X39880Y274457D01*
X39825Y274491D01*
X39796Y274520D01*
X39778Y274532D01*
X39750Y274560D01*
X39738Y274568D01*
X39645Y274607D01*
X39574Y274654D01*
X39574Y274654D01*
X39561Y274662D01*
X39543Y274666D01*
X39542Y274667D01*
X39542Y274667D01*
X39528Y274669D01*
X39463Y274682D01*
X39370Y274720D01*
X39270Y274720D01*
X39171Y274740D01*
D02*
G37*
G36*
X50845Y298130D02*
X49549D01*
X48297Y297795D01*
X47175Y297147D01*
X46259Y296230D01*
X45611Y295108D01*
X45276Y293857D01*
Y292561D01*
X45611Y291309D01*
X46259Y290187D01*
X47175Y289271D01*
X48297Y288623D01*
X49549Y288287D01*
X50845D01*
X51289Y288406D01*
X51607Y288163D01*
Y278807D01*
X51494Y278639D01*
X51444Y278386D01*
Y272402D01*
X51494Y272148D01*
X51638Y271933D01*
X51853Y271790D01*
X52106Y271739D01*
X54350D01*
X54604Y271790D01*
X54819Y271933D01*
X54962Y272148D01*
X55013Y272402D01*
Y278386D01*
X54962Y278639D01*
X54850Y278807D01*
Y291560D01*
X55118Y292561D01*
Y293857D01*
X54783Y295108D01*
X54135Y296230D01*
X53219Y297147D01*
X52096Y297795D01*
X50845Y298130D01*
D02*
G37*
G36*
X64645D02*
X63349D01*
X62097Y297795D01*
X60975Y297147D01*
X60059Y296230D01*
X59411Y295108D01*
X59076Y293857D01*
Y292561D01*
X59411Y291309D01*
X60059Y290187D01*
X60975Y289271D01*
X61607Y288906D01*
Y278807D01*
X61494Y278639D01*
X61444Y278386D01*
Y272402D01*
X61494Y272148D01*
X61638Y271933D01*
X61853Y271790D01*
X62106Y271739D01*
X64350D01*
X64570Y271783D01*
X64626Y271782D01*
X64717Y271752D01*
X64798Y271561D01*
X64533Y271161D01*
X50492D01*
Y258366D01*
X70965D01*
Y270437D01*
X71428D01*
X72209Y269656D01*
Y258567D01*
X72209Y258567D01*
X72209Y258467D01*
X72228Y258368D01*
X72228Y258267D01*
X72253Y258208D01*
X72261Y258144D01*
X72261Y258144D01*
X72279Y258112D01*
X72286Y258077D01*
X72290Y258072D01*
X72290Y258071D01*
X72356Y257911D01*
X72357Y257905D01*
X72378Y257874D01*
X72387Y257839D01*
X72427Y257788D01*
X72451Y257729D01*
X72522Y257658D01*
X72578Y257574D01*
X73716Y256437D01*
X73799Y256381D01*
X73870Y256310D01*
X73963Y256272D01*
X74047Y256216D01*
X74052Y256214D01*
X74213Y256148D01*
X74218Y256145D01*
X74317Y256125D01*
X74410Y256087D01*
X74510Y256087D01*
X74608Y256067D01*
X78047D01*
X78047Y256067D01*
X78148Y256067D01*
X78246Y256087D01*
X78347Y256087D01*
X78406Y256111D01*
X78470Y256119D01*
X78470Y256119D01*
X78502Y256137D01*
X78538Y256145D01*
X78543Y256148D01*
X78543Y256148D01*
X78703Y256214D01*
X78709Y256216D01*
X78740Y256236D01*
X78775Y256246D01*
X78826Y256285D01*
X78885Y256310D01*
X78956Y256381D01*
X79040Y256437D01*
X80079Y257476D01*
X80135Y257559D01*
X80206Y257630D01*
X80235Y257701D01*
X80252Y257726D01*
X80261Y257748D01*
X80263Y257751D01*
X80278Y257768D01*
X80283Y257781D01*
X80289Y257789D01*
X80295Y257797D01*
X80297Y257802D01*
X80300Y257806D01*
X80302Y257816D01*
X80302Y257816D01*
X80324Y257869D01*
X80324Y257869D01*
X80346Y257903D01*
X80366Y258001D01*
X80404Y258094D01*
Y258119D01*
X80413Y258143D01*
X80412Y258160D01*
X80417Y258176D01*
X80412Y258235D01*
X80424Y258293D01*
X80404Y258391D01*
X80404Y258492D01*
X80395Y258515D01*
X80393Y258540D01*
X80393Y258540D01*
X80386Y258556D01*
X80385Y258573D01*
X80384Y258573D01*
X80358Y258625D01*
X80350Y258662D01*
Y277334D01*
X87811Y284794D01*
X87866Y284877D01*
X87937Y284948D01*
X87976Y285041D01*
X88032Y285125D01*
X88033Y285130D01*
X88099Y285291D01*
X88103Y285296D01*
X88122Y285395D01*
X88161Y285487D01*
X88161Y285588D01*
X88180Y285686D01*
Y290305D01*
Y296553D01*
X88161Y296652D01*
X88161Y296752D01*
X88151Y296775D01*
X88150Y296800D01*
X88150Y296800D01*
X88117Y296869D01*
X88103Y296943D01*
X88094Y296956D01*
X88094Y296956D01*
X88071Y297012D01*
X88024Y297083D01*
X88008Y297119D01*
X88000Y297132D01*
X87987Y297145D01*
X87980Y297160D01*
X87960Y297178D01*
X87850Y297343D01*
X87850Y297343D01*
X87850Y297343D01*
X87667Y297465D01*
X87639Y297493D01*
X87627Y297501D01*
X87590Y297516D01*
X87519Y297564D01*
X87463Y297587D01*
X87463Y297587D01*
X87450Y297596D01*
X87352Y297615D01*
X87259Y297654D01*
X87159Y297654D01*
X87060Y297673D01*
X76640D01*
X76541Y297654D01*
X76441Y297654D01*
X76348Y297635D01*
X76255Y297597D01*
X76250Y297596D01*
X76245Y297592D01*
X76084Y297526D01*
X76078Y297524D01*
X76073Y297521D01*
X75981Y297483D01*
X75902Y297430D01*
X75831Y297359D01*
X75748Y297304D01*
X75531Y297087D01*
X75475Y297004D01*
X75404Y296933D01*
X75352Y296854D01*
X75352Y296854D01*
X75313Y296761D01*
X75310Y296756D01*
X75309Y296751D01*
X75242Y296590D01*
X75239Y296585D01*
X75238Y296579D01*
X75200Y296486D01*
X75181Y296394D01*
Y296293D01*
X75161Y296195D01*
X75161Y288484D01*
Y281131D01*
X75161Y281131D01*
X74184Y280153D01*
X66835D01*
X66835Y280153D01*
X66734Y280153D01*
X66636Y280134D01*
X66535Y280134D01*
X66476Y280109D01*
X66412Y280101D01*
X66412Y280101D01*
X66380Y280083D01*
X66344Y280076D01*
X66339Y280073D01*
X66339Y280073D01*
X66178Y280006D01*
X66173Y280005D01*
X66142Y279984D01*
X66107Y279975D01*
X66056Y279936D01*
X65997Y279911D01*
X65926Y279840D01*
X65842Y279784D01*
X65250Y279192D01*
X65139Y279202D01*
X64850Y279326D01*
Y288342D01*
X65896Y288623D01*
X67019Y289271D01*
X67935Y290187D01*
X68583Y291309D01*
X68918Y292561D01*
Y293857D01*
X68583Y295108D01*
X67935Y296230D01*
X67019Y297147D01*
X65896Y297795D01*
X64645Y298130D01*
D02*
G37*
G36*
X69350Y257788D02*
X67106D01*
X66853Y257738D01*
X66638Y257594D01*
X66494Y257380D01*
X66444Y257126D01*
Y251142D01*
X66494Y250888D01*
X66638Y250673D01*
X66853Y250530D01*
X67106Y250479D01*
X69350D01*
X69604Y250530D01*
X69819Y250673D01*
X69962Y250888D01*
X70013Y251142D01*
Y252420D01*
X70382Y252573D01*
X70690Y252265D01*
X70690Y252265D01*
X71051Y252024D01*
X71476Y251939D01*
X72342D01*
Y251279D01*
X75492D01*
Y254823D01*
X72342D01*
Y254163D01*
X71937D01*
X71180Y254920D01*
X70819Y255161D01*
X70394Y255246D01*
X70394Y255246D01*
X70013D01*
Y257126D01*
X69962Y257380D01*
X69819Y257594D01*
X69604Y257738D01*
X69350Y257788D01*
D02*
G37*
G36*
X62303Y236122D02*
X58760D01*
Y233164D01*
X57777Y232181D01*
X57536Y231820D01*
X57451Y231395D01*
X57451Y231395D01*
Y229855D01*
X55571D01*
X55317Y229805D01*
X55102Y229661D01*
X54959Y229446D01*
X54909Y229193D01*
Y226949D01*
X54959Y226695D01*
X55102Y226481D01*
X55317Y226337D01*
X55571Y226287D01*
X61555D01*
X61809Y226337D01*
X62024Y226481D01*
X62167Y226695D01*
X62217Y226949D01*
Y229193D01*
X62167Y229446D01*
X62024Y229661D01*
X61809Y229805D01*
X61555Y229855D01*
X59675D01*
Y230934D01*
X61318Y232577D01*
X61318Y232577D01*
X61559Y232938D01*
X61566Y232973D01*
X62303D01*
Y236122D01*
D02*
G37*
G36*
X18168Y218307D02*
X16872D01*
X15620Y217972D01*
X14498Y217324D01*
X13582Y216408D01*
X12934Y215285D01*
X12598Y214034D01*
Y212738D01*
X12934Y211486D01*
X13582Y210364D01*
X14498Y209448D01*
X15620Y208800D01*
X16872Y208465D01*
X18168D01*
X19419Y208800D01*
X20541Y209448D01*
X21458Y210364D01*
X22084Y211449D01*
X33890D01*
X34058Y211337D01*
X34311Y211286D01*
X40295D01*
X40549Y211337D01*
X40764Y211480D01*
X40907Y211695D01*
X40958Y211949D01*
Y214193D01*
X40907Y214446D01*
X40764Y214661D01*
X40549Y214805D01*
X40295Y214855D01*
X34311D01*
X34058Y214805D01*
X33890Y214693D01*
X22264D01*
X22106Y215285D01*
X21458Y216408D01*
X20541Y217324D01*
X19419Y217972D01*
X18168Y218307D01*
D02*
G37*
G36*
X38089Y207220D02*
X26183D01*
X26085Y207201D01*
X25984Y207201D01*
X25961Y207191D01*
X25936Y207190D01*
X25936Y207190D01*
X25867Y207157D01*
X25793Y207143D01*
X25780Y207134D01*
X25780Y207134D01*
X25724Y207111D01*
X25653Y207064D01*
X25617Y207049D01*
X25604Y207040D01*
X25591Y207027D01*
X25576Y207020D01*
X25558Y207000D01*
X25393Y206890D01*
X25393Y206890D01*
X25393Y206890D01*
X25271Y206707D01*
X25243Y206679D01*
X25235Y206667D01*
X25220Y206630D01*
X25172Y206559D01*
X25149Y206503D01*
X25149Y206503D01*
X25141Y206491D01*
X25121Y206392D01*
X25083Y206299D01*
X25083Y206199D01*
X25063Y206100D01*
Y202004D01*
X20280D01*
X20279Y202004D01*
X20179Y202004D01*
X20080Y201984D01*
X19980Y201984D01*
X19920Y201960D01*
X19857Y201952D01*
X19857Y201952D01*
X19825Y201933D01*
X19789Y201926D01*
X19784Y201923D01*
X19784Y201923D01*
X19623Y201856D01*
X19618Y201855D01*
X19587Y201835D01*
X19552Y201825D01*
X19501Y201786D01*
X19442Y201761D01*
X19371Y201690D01*
X19287Y201634D01*
X17460Y199808D01*
X17405Y199724D01*
X17334Y199653D01*
X17295Y199561D01*
X17239Y199477D01*
X17238Y199471D01*
X17172Y199310D01*
X17168Y199305D01*
X17149Y199207D01*
X17110Y199114D01*
X17110Y199014D01*
X17091Y198915D01*
Y195870D01*
X17091Y195870D01*
X17091Y195770D01*
X17110Y195671D01*
X17110Y195570D01*
X17135Y195511D01*
X17143Y195447D01*
X17143Y195447D01*
X17161Y195415D01*
X17168Y195380D01*
X17172Y195375D01*
X17172Y195375D01*
X17238Y195214D01*
X17239Y195208D01*
X17260Y195178D01*
X17269Y195142D01*
X17309Y195092D01*
X17333Y195032D01*
X17404Y194961D01*
X17460Y194877D01*
X17531Y194806D01*
X17531Y194806D01*
X19090Y193248D01*
X19160Y193201D01*
X19218Y193139D01*
X19218Y193139D01*
X19233Y193132D01*
X19245Y193121D01*
X19338Y193082D01*
X19421Y193027D01*
X19426Y193026D01*
X19426Y193026D01*
X19587Y192959D01*
X19587Y192959D01*
X19592Y192956D01*
X19691Y192936D01*
X19783Y192898D01*
X19884Y192898D01*
X19982Y192878D01*
X26940D01*
X29197Y190621D01*
Y172937D01*
X29197Y172937D01*
X29197Y172837D01*
X29217Y172738D01*
X29217Y172637D01*
X29241Y172578D01*
X29249Y172514D01*
X29249Y172514D01*
X29267Y172482D01*
X29274Y172447D01*
X29278Y172442D01*
X29278Y172442D01*
X29344Y172281D01*
X29346Y172275D01*
X29366Y172245D01*
X29376Y172209D01*
X29415Y172159D01*
X29439Y172099D01*
X29511Y172028D01*
X29567Y171944D01*
X31339Y170171D01*
X31174Y169771D01*
X23956D01*
X23712Y170089D01*
X23720Y170120D01*
Y171416D01*
X23385Y172667D01*
X22737Y173790D01*
X21821Y174706D01*
X20699Y175354D01*
X19447Y175689D01*
X18151D01*
X16900Y175354D01*
X15777Y174706D01*
X14861Y173790D01*
X14213Y172667D01*
X13878Y171416D01*
Y170120D01*
X14213Y168868D01*
X14861Y167746D01*
X15777Y166830D01*
X16900Y166182D01*
X18151Y165847D01*
X19447D01*
X20699Y166182D01*
X21329Y166546D01*
X21417Y166528D01*
X32019D01*
X32188Y166416D01*
X32441Y166365D01*
X38425D01*
X38679Y166416D01*
X38893Y166559D01*
X39037Y166774D01*
X39088Y167028D01*
Y169272D01*
X39037Y169525D01*
X38893Y169740D01*
X39123Y170062D01*
X39296Y170236D01*
X39665Y170083D01*
Y155413D01*
X52461D01*
Y175886D01*
X40211D01*
X40189Y175918D01*
X39209Y176899D01*
Y177953D01*
X39209Y177953D01*
Y183071D01*
X39209Y183071D01*
Y200984D01*
Y206100D01*
X39189Y206199D01*
X39189Y206299D01*
X39179Y206323D01*
X39178Y206348D01*
X39178Y206348D01*
X39146Y206416D01*
X39131Y206490D01*
X39123Y206503D01*
X39123Y206503D01*
X39099Y206559D01*
X39052Y206630D01*
X39037Y206667D01*
X39028Y206679D01*
X39015Y206692D01*
X39008Y206707D01*
X38988Y206725D01*
X38878Y206890D01*
X38878Y206890D01*
X38878Y206890D01*
X38695Y207012D01*
X38667Y207040D01*
X38655Y207049D01*
X38618Y207064D01*
X38548Y207111D01*
X38491Y207134D01*
X38491Y207134D01*
X38479Y207143D01*
X38380Y207162D01*
X38287Y207201D01*
X38187Y207201D01*
X38089Y207220D01*
D02*
G37*
G36*
X60925Y181693D02*
X57382D01*
Y178543D01*
X57606D01*
X57772Y178143D01*
X55907Y176278D01*
X55666Y175918D01*
X55581Y175492D01*
X55581Y175492D01*
Y174934D01*
X53701D01*
X53447Y174884D01*
X53232Y174740D01*
X53089Y174525D01*
X53038Y174272D01*
Y172028D01*
X53089Y171774D01*
X53232Y171559D01*
X53447Y171416D01*
X53701Y171365D01*
X59685D01*
X59939Y171416D01*
X60153Y171559D01*
X60297Y171774D01*
X60347Y172028D01*
Y174272D01*
X60297Y174525D01*
X60153Y174740D01*
X59939Y174884D01*
X59685Y174934D01*
X58273D01*
X58107Y175334D01*
X59940Y177166D01*
X60181Y177527D01*
X60265Y177953D01*
X60265Y177953D01*
Y178543D01*
X60925D01*
Y181693D01*
D02*
G37*
G36*
X19447Y161889D02*
X18151D01*
X16900Y161554D01*
X15777Y160906D01*
X14861Y159990D01*
X14213Y158867D01*
X13878Y157616D01*
Y156320D01*
X14213Y155068D01*
X14861Y153946D01*
X15777Y153030D01*
X16900Y152382D01*
X18151Y152047D01*
X19447D01*
X20699Y152382D01*
X21821Y153030D01*
X22737Y153946D01*
X23385Y155068D01*
X23720Y156320D01*
Y156528D01*
X32019D01*
X32188Y156416D01*
X32441Y156365D01*
X38425D01*
X38679Y156416D01*
X38893Y156559D01*
X39037Y156774D01*
X39088Y157028D01*
Y159272D01*
X39037Y159525D01*
X38893Y159740D01*
X38679Y159884D01*
X38425Y159934D01*
X32441D01*
X32188Y159884D01*
X32019Y159771D01*
X22863D01*
X22737Y159990D01*
X21821Y160906D01*
X20699Y161554D01*
X19447Y161889D01*
D02*
G37*
G36*
X43305Y144917D02*
X8762D01*
X8663Y144898D01*
X8563Y144898D01*
X8540Y144888D01*
X8515Y144887D01*
X8514Y144887D01*
X8446Y144854D01*
X8372Y144840D01*
X8359Y144831D01*
X8359Y144831D01*
X8303Y144808D01*
X8232Y144761D01*
X8196Y144746D01*
X8183Y144737D01*
X8170Y144724D01*
X8155Y144717D01*
X8137Y144697D01*
X7972Y144587D01*
X7972Y144587D01*
X7972Y144587D01*
X7850Y144404D01*
X7822Y144376D01*
X7814Y144364D01*
X7799Y144327D01*
X7751Y144256D01*
X7728Y144200D01*
X7728Y144200D01*
X7719Y144187D01*
X7700Y144089D01*
X7661Y143996D01*
X7661Y143896D01*
X7642Y143797D01*
Y116697D01*
X7719Y116307D01*
X7940Y115976D01*
X8299Y115618D01*
X8630Y115397D01*
X9020Y115319D01*
X47406D01*
Y111126D01*
X47406Y111126D01*
X47406Y111026D01*
X47425Y110927D01*
X47425Y110826D01*
X47450Y110767D01*
X47458Y110703D01*
X47458Y110703D01*
X47476Y110671D01*
X47483Y110635D01*
X47486Y110631D01*
X47486Y110631D01*
X47553Y110470D01*
X47554Y110464D01*
X47610Y110381D01*
X47648Y110288D01*
X47719Y110217D01*
X47775Y110133D01*
X47846Y110062D01*
X47846Y110062D01*
X47846Y110062D01*
X52495Y105414D01*
X52506Y105406D01*
X52551Y105360D01*
X52622Y105311D01*
X52625Y105307D01*
X52631Y105300D01*
X52642Y105294D01*
X52642Y105293D01*
X52643Y105292D01*
X52643Y105292D01*
X52644Y105291D01*
X52648Y105288D01*
X52650Y105287D01*
X52652Y105283D01*
X52662Y105276D01*
X52715Y105223D01*
X52779Y105180D01*
X52780Y105180D01*
X52809Y105147D01*
X52809Y105146D01*
X52881Y104878D01*
X52876Y104746D01*
X52860Y104696D01*
X52008Y103843D01*
X51952Y103760D01*
X51881Y103689D01*
X51842Y103596D01*
X51787Y103512D01*
X51785Y103507D01*
X51719Y103346D01*
X51715Y103341D01*
X51696Y103242D01*
X51657Y103150D01*
X51657Y103049D01*
X51638Y102951D01*
Y91835D01*
X51638Y91835D01*
X51638Y91734D01*
X51657Y91636D01*
X51658Y91535D01*
X51682Y91476D01*
X51690Y91412D01*
X51690Y91412D01*
X51708Y91380D01*
X51715Y91344D01*
X51719Y91339D01*
X51719Y91339D01*
X51785Y91178D01*
X51787Y91173D01*
X51807Y91142D01*
X51816Y91107D01*
X51856Y91056D01*
X51880Y90997D01*
X51951Y90926D01*
X52008Y90842D01*
X53243Y89606D01*
X53327Y89550D01*
X53398Y89479D01*
X53491Y89441D01*
X53574Y89385D01*
X53580Y89384D01*
X53741Y89317D01*
X53746Y89314D01*
X53844Y89294D01*
X53937Y89256D01*
X54037Y89256D01*
X54136Y89236D01*
X57083D01*
X57083Y89236D01*
X57183Y89236D01*
X57282Y89256D01*
X57382Y89256D01*
X57442Y89281D01*
X57506Y89289D01*
X57506Y89289D01*
X57537Y89307D01*
X57573Y89314D01*
X57578Y89317D01*
X57578Y89317D01*
X57739Y89384D01*
X57745Y89385D01*
X57775Y89405D01*
X57810Y89415D01*
X57861Y89454D01*
X57920Y89479D01*
X57992Y89550D01*
X58075Y89606D01*
X59016Y90547D01*
X59072Y90630D01*
X59143Y90701D01*
X59181Y90794D01*
X59237Y90877D01*
X59238Y90883D01*
X59305Y91044D01*
X59308Y91049D01*
X59328Y91147D01*
X59366Y91240D01*
X59366Y91341D01*
X59386Y91439D01*
Y99578D01*
X59670Y99862D01*
X65062Y99866D01*
X65062Y99866D01*
X65062Y99866D01*
X65161Y99866D01*
X65259Y99886D01*
X65359Y99886D01*
X65382Y99895D01*
X65407Y99897D01*
X65408Y99897D01*
X65476Y99929D01*
X65551Y99944D01*
X65556Y99947D01*
X65637Y99981D01*
X65716Y100014D01*
X65722Y100015D01*
X65805Y100070D01*
X65897Y100109D01*
X65898Y100109D01*
X65898Y100109D01*
X65969Y100180D01*
X66053Y100236D01*
X66203Y100387D01*
X66259Y100470D01*
X66330Y100541D01*
X66369Y100634D01*
X66425Y100718D01*
X66426Y100723D01*
X66492Y100884D01*
X66496Y100889D01*
X66515Y100988D01*
X66553Y101080D01*
X66921Y101260D01*
X69291D01*
Y104449D01*
X66535D01*
X66535Y104449D01*
X66488Y104463D01*
X66427Y104584D01*
X66673Y104984D01*
X68500D01*
X68500Y104984D01*
X68600D01*
X68699Y105004D01*
X68799Y105004D01*
X68892Y105042D01*
X68991Y105062D01*
X68995Y105065D01*
X69156Y105132D01*
X69162Y105133D01*
X69246Y105189D01*
X69339Y105228D01*
X69410Y105299D01*
X69493Y105354D01*
X69564Y105425D01*
X69564Y105425D01*
X69812Y105673D01*
X71819D01*
X71972Y105304D01*
X71004Y104335D01*
X70948Y104252D01*
X70877Y104181D01*
X70838Y104088D01*
X70783Y104005D01*
X70781Y103999D01*
X70715Y103838D01*
X70712Y103833D01*
X70692Y103734D01*
X70653Y103641D01*
X70653Y103541D01*
X70634Y103443D01*
Y44689D01*
X70634Y44689D01*
X70634Y44589D01*
X70654Y44490D01*
X70654Y44389D01*
X70678Y44330D01*
X70686Y44266D01*
X70686Y44266D01*
X70704Y44234D01*
X70711Y44199D01*
X70715Y44194D01*
X70715Y44194D01*
X70781Y44033D01*
X70783Y44027D01*
X70838Y43944D01*
X70876Y43851D01*
X70948Y43780D01*
X71004Y43696D01*
X71075Y43625D01*
X71075Y43625D01*
X71075Y43625D01*
X76767Y37933D01*
X76850Y37877D01*
X76921Y37806D01*
X77014Y37768D01*
X77098Y37712D01*
X77104Y37711D01*
X77264Y37644D01*
X77269Y37641D01*
X77368Y37621D01*
X77462Y37582D01*
X77561Y37583D01*
X77659Y37563D01*
X94681D01*
X94681Y37563D01*
X94781Y37563D01*
X94880Y37583D01*
X94981Y37583D01*
X95040Y37607D01*
X95104Y37615D01*
X95104Y37615D01*
X95136Y37633D01*
X95172Y37641D01*
X95177Y37644D01*
X95177Y37644D01*
X95337Y37710D01*
X95343Y37712D01*
X95426Y37767D01*
X95519Y37806D01*
X95590Y37877D01*
X95674Y37933D01*
X95745Y38004D01*
X95745Y38004D01*
X95745Y38004D01*
X98949Y41208D01*
X102225Y44484D01*
X102280Y44567D01*
X102351Y44638D01*
X102390Y44731D01*
X102446Y44814D01*
X102447Y44820D01*
X102514Y44981D01*
X102517Y44986D01*
X102536Y45085D01*
X102575Y45178D01*
X102575Y45278D01*
X102594Y45376D01*
Y94066D01*
X105768Y97240D01*
X105824Y97323D01*
X105895Y97394D01*
X105933Y97487D01*
X105989Y97570D01*
X105990Y97576D01*
X106057Y97737D01*
X106060Y97742D01*
X106080Y97841D01*
X106118Y97934D01*
X106118Y98034D01*
X106138Y98132D01*
Y107772D01*
X106138Y107772D01*
X106138Y107872D01*
X106118Y107971D01*
X106118Y108071D01*
X106093Y108131D01*
X106085Y108194D01*
X106085Y108194D01*
X106067Y108226D01*
X106060Y108262D01*
X106057Y108267D01*
X106057Y108267D01*
X105990Y108428D01*
X105989Y108433D01*
X105933Y108517D01*
X105895Y108609D01*
X105824Y108681D01*
X105768Y108764D01*
X105697Y108835D01*
X105697Y108835D01*
X105697Y108835D01*
X103646Y110886D01*
X103563Y110942D01*
X103492Y111013D01*
X103399Y111051D01*
X103315Y111107D01*
X103310Y111108D01*
X103149Y111175D01*
X103144Y111178D01*
X103045Y111198D01*
X102952Y111236D01*
X102852Y111236D01*
X102754Y111256D01*
X93114D01*
X93114Y111256D01*
X93014Y111256D01*
X92915Y111236D01*
X92814Y111236D01*
X92755Y111212D01*
X92691Y111204D01*
X92691Y111204D01*
X92660Y111185D01*
X92624Y111178D01*
X92619Y111175D01*
X92619Y111175D01*
X92458Y111108D01*
X92452Y111107D01*
X92369Y111052D01*
X92277Y111013D01*
X92205Y110942D01*
X92121Y110886D01*
X92050Y110815D01*
X92050Y110815D01*
X92050Y110815D01*
X88160Y106925D01*
X80569D01*
X80241Y107325D01*
X80252Y107382D01*
Y111315D01*
X80252Y111315D01*
X80252Y111415D01*
X80232Y111514D01*
X80232Y111615D01*
X80208Y111674D01*
X80199Y111738D01*
X80199Y111738D01*
X80181Y111770D01*
X80174Y111805D01*
X80171Y111810D01*
X80171Y111810D01*
X80104Y111971D01*
X80103Y111977D01*
X80048Y112060D01*
X80009Y112153D01*
X79938Y112224D01*
X79882Y112308D01*
X79811Y112379D01*
X79811Y112379D01*
X79811Y112379D01*
X78942Y113248D01*
X78858Y113304D01*
X78787Y113375D01*
X78694Y113414D01*
X78611Y113469D01*
X78605Y113470D01*
X78444Y113537D01*
X78439Y113540D01*
X78340Y113560D01*
X78247Y113599D01*
X78147Y113599D01*
X78049Y113618D01*
X62726D01*
X62240Y114103D01*
Y125882D01*
X62240Y125882D01*
X62240Y125982D01*
X62220Y126081D01*
X62220Y126182D01*
X62196Y126241D01*
X62188Y126305D01*
X62188Y126305D01*
X62170Y126337D01*
X62163Y126372D01*
X62159Y126377D01*
X62159Y126377D01*
X62093Y126538D01*
X62091Y126544D01*
X62036Y126627D01*
X61998Y126720D01*
X61926Y126791D01*
X61870Y126875D01*
X61800Y126946D01*
X61799Y126946D01*
X61799Y126946D01*
X59213Y129532D01*
X55864Y132881D01*
X53034Y135711D01*
X49650Y139096D01*
X49649Y139096D01*
X44197Y144548D01*
X44114Y144603D01*
X44043Y144674D01*
X43950Y144713D01*
X43867Y144769D01*
X43861Y144770D01*
X43700Y144836D01*
X43695Y144840D01*
X43596Y144859D01*
X43503Y144898D01*
X43403Y144898D01*
X43305Y144917D01*
D02*
G37*
G36*
X34547Y109465D02*
X33366D01*
X32976Y109387D01*
X32645Y109166D01*
X32424Y108835D01*
X32347Y108445D01*
Y91122D01*
X32424Y90732D01*
X32645Y90401D01*
X32976Y90180D01*
X33366Y90102D01*
X34547Y90102D01*
X34718Y90136D01*
X34891Y90162D01*
X34912Y90175D01*
X34937Y90180D01*
X35082Y90277D01*
X35232Y90367D01*
X35274Y90405D01*
X35347Y90453D01*
X35405Y90478D01*
X35491Y90495D01*
X35523Y90496D01*
X47539D01*
X47930Y90574D01*
X48260Y90795D01*
X48481Y91126D01*
X48559Y91516D01*
Y108051D01*
X48481Y108441D01*
X48260Y108772D01*
X47930Y108993D01*
X47539Y109071D01*
X35523D01*
X35491Y109072D01*
X35405Y109090D01*
X35347Y109113D01*
X35274Y109162D01*
X35232Y109200D01*
X35083Y109290D01*
X34937Y109387D01*
X34912Y109392D01*
X34891Y109405D01*
X34718Y109430D01*
X34547Y109465D01*
D02*
G37*
G36*
X69390Y20500D02*
X68568Y20391D01*
X67801Y20074D01*
X67143Y19569D01*
X66639Y18911D01*
X66321Y18145D01*
X66213Y17323D01*
Y12205D01*
X66321Y11383D01*
X66639Y10616D01*
X67143Y9958D01*
X67801Y9454D01*
X68568Y9136D01*
X69390Y9028D01*
X70212Y9136D01*
X70978Y9454D01*
X71636Y9958D01*
X72141Y10616D01*
X72458Y11383D01*
X72566Y12205D01*
Y17323D01*
X72458Y18145D01*
X72141Y18911D01*
X71636Y19569D01*
X70978Y20074D01*
X70212Y20391D01*
X69390Y20500D01*
D02*
G37*
%LPD*%
G36*
X39171Y273721D02*
X39184Y273712D01*
X39184Y273712D01*
X39212Y273684D01*
X39230Y273672D01*
X39259Y273643D01*
X39263Y273633D01*
X39272Y273620D01*
X39272Y273620D01*
Y231820D01*
Y231398D01*
X41535Y229134D01*
Y226181D01*
X40748Y225394D01*
X34252D01*
X32327Y227319D01*
X32327Y227319D01*
X32256Y227390D01*
X32256Y227390D01*
X32255Y227395D01*
X32188Y227556D01*
X32185Y227561D01*
X32185Y227561D01*
X32185Y227661D01*
X32185Y227661D01*
Y228983D01*
X32185Y236713D01*
X23033D01*
X23021Y236721D01*
X23021Y236721D01*
X22993Y236749D01*
X22975Y236761D01*
X22946Y236790D01*
X22941Y236801D01*
X22933Y236813D01*
X22933Y236813D01*
Y257642D01*
Y258661D01*
X10695D01*
X10690Y258665D01*
X10529Y258731D01*
X10524Y258733D01*
X10378Y258878D01*
X10307Y258949D01*
X10306Y258955D01*
X10239Y259115D01*
X10236Y259120D01*
X10236Y259120D01*
X10236Y259221D01*
X10236Y259221D01*
Y260502D01*
X10236Y270425D01*
Y273362D01*
X10365Y273592D01*
X10595Y273721D01*
X39171D01*
X39171D01*
D02*
G37*
G36*
X87060Y296654D02*
X87073Y296645D01*
X87073Y296645D01*
X87100Y296617D01*
X87119Y296605D01*
X87148Y296576D01*
X87152Y296566D01*
X87161Y296553D01*
X87161Y296553D01*
Y290305D01*
Y285686D01*
X87161Y285686D01*
X87157Y285681D01*
X87091Y285521D01*
X87090Y285515D01*
X87090Y285515D01*
X87090Y285515D01*
X79331Y277756D01*
Y258366D01*
X79404Y258293D01*
X79404Y258292D01*
X79382Y258259D01*
X79360Y258206D01*
X79358Y258197D01*
X79358Y258197D01*
X78950Y257788D01*
X78390Y257229D01*
X78390Y257228D01*
X78319Y257158D01*
X78319Y257158D01*
X78313Y257156D01*
X78153Y257090D01*
X78148Y257087D01*
X78148Y257087D01*
X78048Y257087D01*
X78047Y257087D01*
X74608D01*
X74608Y257087D01*
X74603Y257090D01*
X74442Y257156D01*
X74437Y257158D01*
X74437Y257158D01*
X74437Y257158D01*
X73370Y258224D01*
X73370Y258224D01*
X73299Y258295D01*
X73299Y258295D01*
X73298Y258301D01*
X73232Y258462D01*
X73228Y258466D01*
X73228Y258467D01*
X73228Y258567D01*
X73228Y258567D01*
Y269656D01*
Y270079D01*
X71850Y271457D01*
X66535D01*
X65945Y272047D01*
Y278445D01*
X66492Y278992D01*
X66492Y278992D01*
X66563Y279063D01*
X66563Y279063D01*
X66569Y279064D01*
X66729Y279131D01*
X66734Y279134D01*
X66734Y279134D01*
X66834Y279134D01*
X66835Y279134D01*
X74606D01*
X74905Y279433D01*
X74905Y279433D01*
X75882Y280410D01*
Y280410D01*
X76181Y280709D01*
Y288484D01*
X76181Y296195D01*
D01*
X76184Y296200D01*
X76251Y296360D01*
X76252Y296366D01*
D01*
X76398Y296512D01*
X76468Y296583D01*
X76468Y296583D01*
X76474Y296584D01*
X76635Y296650D01*
X76640Y296654D01*
X76640Y296654D01*
X76740Y296654D01*
X76740Y296654D01*
X87060D01*
X87060D01*
D02*
G37*
G36*
X38089Y206201D02*
X38101Y206192D01*
X38101Y206192D01*
X38129Y206165D01*
X38147Y206152D01*
X38176Y206123D01*
X38181Y206113D01*
X38189Y206100D01*
X38189Y206100D01*
Y200984D01*
Y183071D01*
D01*
X38189D01*
Y183071D01*
Y177953D01*
Y177953D01*
X38189D01*
D01*
Y176899D01*
Y176476D01*
X38488Y176178D01*
X39469Y175197D01*
Y171850D01*
X38575Y170957D01*
X38402Y170783D01*
X38189Y170571D01*
X32382D01*
X30358Y172594D01*
X30358Y172594D01*
X30288Y172665D01*
X30288Y172665D01*
X30286Y172671D01*
X30220Y172832D01*
X30217Y172836D01*
X30217Y172837D01*
X30217Y172937D01*
X30217Y172937D01*
Y190621D01*
Y191043D01*
X27362Y193898D01*
X19982D01*
X19982Y193898D01*
X19982Y193898D01*
X19977Y193901D01*
X19817Y193967D01*
X19811Y193969D01*
X19291Y194488D01*
X18252Y195527D01*
D01*
X18252Y195527D01*
D01*
X18252Y195527D01*
X18252Y195528D01*
X18181Y195598D01*
X18181Y195598D01*
X18180Y195604D01*
X18113Y195765D01*
X18110Y195770D01*
X18110Y195770D01*
X18110Y195870D01*
X18110Y195870D01*
Y198915D01*
X18110Y198915D01*
X18113Y198920D01*
X18180Y199081D01*
X18181Y199087D01*
X18181Y199087D01*
X18181Y199087D01*
X19937Y200842D01*
X19937Y200842D01*
X20008Y200913D01*
X20008Y200913D01*
X20013Y200914D01*
X20174Y200981D01*
X20179Y200984D01*
X20179Y200984D01*
X20279Y200984D01*
X20280Y200984D01*
X26083D01*
Y206100D01*
Y206100D01*
X26091Y206113D01*
X26091Y206113D01*
X26119Y206141D01*
X26131Y206159D01*
X26160Y206188D01*
X26171Y206192D01*
X26183Y206201D01*
X26183Y206201D01*
X38089D01*
X38089D01*
D02*
G37*
G36*
X102754Y110236D02*
X102754Y110236D01*
X102759Y110233D01*
X102920Y110166D01*
X102925Y110165D01*
X102925Y110165D01*
X102926Y110165D01*
X104976Y108115D01*
X104976Y108114D01*
X104976Y108114D01*
X105047Y108043D01*
X105047Y108043D01*
X105048Y108038D01*
X105115Y107877D01*
X105118Y107872D01*
X105118Y107872D01*
X105118Y107772D01*
X105118Y107772D01*
Y98132D01*
X105118Y98132D01*
X105118Y98132D01*
X105115Y98127D01*
X105048Y97966D01*
X105047Y97961D01*
X105047Y97961D01*
X105047Y97960D01*
X101873Y94787D01*
X101575Y94488D01*
Y94066D01*
Y45377D01*
X101575Y45376D01*
X101575Y45375D01*
X101572Y45371D01*
X101505Y45210D01*
X101504Y45205D01*
X101504Y45205D01*
X101504Y45204D01*
X95154Y38855D01*
X95024Y38725D01*
X95024Y38725D01*
X95024Y38724D01*
X94953Y38654D01*
X94953Y38654D01*
X94947Y38653D01*
X94786Y38586D01*
X94782Y38583D01*
X94782Y38583D01*
X94681Y38583D01*
X94681Y38583D01*
X77660D01*
X77659Y38583D01*
X77659Y38583D01*
X77655Y38586D01*
X77494Y38653D01*
X77488Y38654D01*
X77488Y38654D01*
X77488Y38654D01*
X71796Y44346D01*
X71795Y44346D01*
X71795Y44346D01*
X71725Y44417D01*
X71724Y44417D01*
X71723Y44423D01*
X71657Y44584D01*
X71654Y44589D01*
X71654Y44589D01*
X71654Y44689D01*
X71653Y44689D01*
Y103442D01*
X71654Y103443D01*
X71654Y103443D01*
X71657Y103448D01*
X71723Y103609D01*
X71724Y103614D01*
X71725Y103614D01*
X71725Y103614D01*
X72693Y104583D01*
X72693Y104583D01*
X72693Y104583D01*
X73952Y105841D01*
X73961Y105845D01*
X73961Y105845D01*
D01*
X73961Y105845D01*
X73985Y105850D01*
X74111Y105902D01*
X74116Y105905D01*
X74116Y105905D01*
X74216Y105905D01*
X74217Y105905D01*
X88583D01*
X92771Y110094D01*
X92771Y110094D01*
X92772Y110094D01*
X92842Y110165D01*
X92843Y110165D01*
X92848Y110166D01*
X93009Y110233D01*
X93014Y110236D01*
X93014Y110236D01*
X93114Y110236D01*
X93114Y110236D01*
X102753D01*
X102754Y110236D01*
D02*
G37*
G36*
X43305Y143897D02*
X43306Y143897D01*
X43310Y143894D01*
X43471Y143828D01*
X43476Y143827D01*
X43477Y143827D01*
X43477Y143826D01*
X46217Y141086D01*
X48928Y138375D01*
X52313Y134990D01*
X56849Y130455D01*
X56849Y130455D01*
X56849D01*
X58492Y128811D01*
X61079Y126225D01*
X61079Y126225D01*
X61149Y126154D01*
X61150Y126154D01*
X61151Y126148D01*
X61217Y125987D01*
X61220Y125982D01*
X61220Y125982D01*
X61220Y125882D01*
X61221Y125882D01*
Y113681D01*
X62303Y112598D01*
X78049D01*
X78049Y112598D01*
X78050Y112598D01*
X78054Y112595D01*
X78215Y112529D01*
X78220Y112528D01*
X78221Y112527D01*
X78221Y112527D01*
X79090Y111658D01*
X79090Y111658D01*
X79161Y111587D01*
X79161Y111587D01*
X79162Y111581D01*
X79229Y111420D01*
X79232Y111416D01*
X79232Y111415D01*
X79232Y111315D01*
X79232Y111315D01*
Y107446D01*
X79226Y107425D01*
X79230Y107380D01*
X78776Y106925D01*
X74217D01*
X74217Y106925D01*
X74116Y106925D01*
X74018Y106905D01*
X73917Y106905D01*
X73824Y106867D01*
X73726Y106848D01*
X73721Y106844D01*
X73721Y106844D01*
X73595Y106792D01*
X73571Y106787D01*
X73562Y106783D01*
X73562Y106783D01*
X73562Y106783D01*
X73479Y106728D01*
X73395Y106693D01*
X73395Y106693D01*
X73395Y106693D01*
X73394Y106693D01*
X69390D01*
X68843Y106146D01*
X68843Y106146D01*
X68772Y106075D01*
X68772Y106075D01*
X68771Y106075D01*
X68766Y106074D01*
X68605Y106007D01*
X68600Y106004D01*
X68600Y106004D01*
X68500D01*
X68500Y106004D01*
X53373D01*
X53372Y106005D01*
X53369Y106009D01*
X53367Y106011D01*
X53354Y106020D01*
X53346Y106028D01*
X53282Y106071D01*
X53282Y106071D01*
X53237Y106117D01*
X53235Y106118D01*
X53224Y106130D01*
X53222Y106131D01*
X53220Y106133D01*
X53219Y106134D01*
X53215Y106135D01*
X53201Y106150D01*
X53199Y106152D01*
X48567Y110783D01*
X48567Y110783D01*
X48496Y110854D01*
X48496Y110854D01*
X48495Y110860D01*
X48428Y111021D01*
X48425Y111026D01*
X48425Y111026D01*
X48425Y111126D01*
X48425Y111126D01*
Y116339D01*
X9120D01*
X9027Y116357D01*
X8949Y116410D01*
X8732Y116626D01*
X8680Y116705D01*
X8661Y116797D01*
Y143797D01*
X8670Y143810D01*
X8670Y143810D01*
X8698Y143838D01*
X8710Y143856D01*
X8739Y143885D01*
X8749Y143889D01*
X8762Y143898D01*
X8762Y143898D01*
X43305D01*
X43305Y143897D01*
D02*
G37*
G36*
X65553Y103738D02*
Y101279D01*
X65553Y101279D01*
X65550Y101274D01*
X65484Y101113D01*
X65483Y101108D01*
X65482Y101108D01*
X65482Y101108D01*
X65332Y100957D01*
X65332Y100957D01*
X65326Y100956D01*
X65247Y100923D01*
X65246Y100923D01*
X65246Y100923D01*
X65165Y100889D01*
X65160Y100886D01*
X65160D01*
X65160Y100886D01*
X65150Y100886D01*
X63035Y100884D01*
X59669Y100881D01*
X59669D01*
X59257Y100881D01*
X59252Y100886D01*
X58949Y100583D01*
X58665Y100299D01*
X58366Y100000D01*
Y99578D01*
Y91439D01*
X58366Y91439D01*
X58363Y91434D01*
X58296Y91273D01*
X58295Y91268D01*
X58295Y91268D01*
X58295Y91267D01*
X57425Y90398D01*
X57425Y90398D01*
X57354Y90327D01*
X57354Y90327D01*
X57349Y90326D01*
X57188Y90259D01*
X57183Y90256D01*
X57183Y90256D01*
X57083Y90256D01*
X57083Y90256D01*
X54136D01*
X54136Y90256D01*
X54131Y90259D01*
X53970Y90326D01*
X53965Y90327D01*
X53964Y90327D01*
X53964Y90327D01*
X52799Y91492D01*
X52799Y91492D01*
X52728Y91563D01*
X52728Y91563D01*
X52727Y91569D01*
X52661Y91729D01*
X52658Y91734D01*
X52658Y91734D01*
X52658Y91834D01*
X52658Y91835D01*
Y102951D01*
X52658Y102951D01*
X52661Y102956D01*
X52727Y103117D01*
X52728Y103122D01*
X52728Y103122D01*
X52729Y103122D01*
X54134Y104528D01*
X64764D01*
X65553Y103738D01*
D02*
G37*
G36*
X34645Y108356D02*
X34864Y108210D01*
X35107Y108109D01*
X35366Y108058D01*
X35498Y108051D01*
X47539D01*
Y91516D01*
X35498D01*
X35366Y91509D01*
X35107Y91458D01*
X34864Y91357D01*
X34645Y91211D01*
X34547Y91122D01*
X33366Y91122D01*
Y108445D01*
X34547D01*
X34645Y108356D01*
D02*
G37*
D19*
X166595Y65453D02*
X175098D01*
X166043Y66004D02*
X166595Y65453D01*
X166988Y63484D02*
X175098D01*
X166043Y62539D02*
X166988Y63484D01*
X280413Y196555D02*
X327953D01*
X342224Y182283D01*
X260728Y176870D02*
X280413Y196555D01*
X253740Y167224D02*
X280315Y193799D01*
X326870D02*
X341043Y179626D01*
X280315Y193799D02*
X326870D01*
X254823Y165256D02*
X281004Y191437D01*
X325492D01*
X339567Y177362D01*
X324902Y188878D02*
X338583Y175197D01*
X281398Y188878D02*
X324902D01*
X255807Y163287D02*
X281398Y188878D01*
X203445Y85138D02*
X206791D01*
X201772Y86811D02*
X203445Y85138D01*
X206791D02*
X220374D01*
X222342Y87106D01*
X206791Y83169D02*
X214075D01*
X215650Y81595D01*
X213386Y77264D02*
X213780Y77658D01*
X206791Y77264D02*
X213386D01*
X218799Y69390D02*
X222342Y65847D01*
X206791Y69390D02*
X218799D01*
X206791Y67421D02*
X216634D01*
X222244Y61811D01*
X206791Y65453D02*
X214272D01*
X223031Y56693D01*
X206791Y63484D02*
X211516D01*
X222441Y52559D01*
X162377Y82087D02*
X169168Y75295D01*
X175098D01*
X163583Y71358D02*
X175098D01*
X159547Y67323D02*
X163583Y71358D01*
X199803Y54331D02*
X203248Y50886D01*
X199803Y54331D02*
Y58465D01*
X180118Y51968D02*
Y58465D01*
X178543Y50394D02*
X180118Y51968D01*
X184055Y53150D02*
X185335Y51870D01*
X184055Y53150D02*
Y58465D01*
X185335Y50394D02*
Y51870D01*
X197835Y45965D02*
X202689Y41110D01*
X197835Y45965D02*
Y51243D01*
X285433Y240059D02*
Y242323D01*
X282874Y244882D02*
X285433Y242323D01*
X278248Y244882D02*
X282874D01*
X257972Y207579D02*
Y244587D01*
X257874Y244685D02*
X257972Y244587D01*
X273524Y261909D02*
X277264Y265650D01*
X270374Y261909D02*
X273524D01*
X255118Y254823D02*
X257382Y252559D01*
X259646D01*
X263583Y260335D02*
X265945Y257972D01*
X270374D01*
X263583Y247933D02*
Y252559D01*
Y210236D02*
Y247933D01*
X250098Y196752D02*
X263583Y210236D01*
X243504Y196752D02*
X250098D01*
X249114Y198721D02*
X257972Y207579D01*
X243504Y198721D02*
X249114D01*
X273228Y255118D02*
X278248D01*
X270374Y257972D02*
X273228Y255118D01*
X263583Y252559D02*
X278248D01*
X271063Y243406D02*
X275098Y247441D01*
X278248D01*
X271063Y240354D02*
Y243406D01*
X272736Y250000D02*
X278248D01*
X270571Y247835D02*
Y247835D01*
X272736Y250000D01*
X174213Y98917D02*
X177165Y101870D01*
X185630D01*
X186772Y98228D02*
Y100728D01*
X185630Y101870D02*
X186772Y100728D01*
X176083Y94882D02*
X179429Y98228D01*
X197835Y51243D02*
Y57429D01*
X281693Y60630D02*
X298130D01*
X270276Y72047D02*
Y79921D01*
Y72047D02*
X281693Y60630D01*
X367520Y67815D02*
X367618Y67716D01*
Y62598D02*
Y67716D01*
X375689Y93504D02*
X378642Y90551D01*
X372309Y93504D02*
X375689D01*
X372407Y79592D02*
Y90904D01*
X359309D02*
X364109D01*
X359055Y90650D02*
X359309Y90904D01*
X349902Y91142D02*
X352264Y93504D01*
X364109D01*
X349902Y84941D02*
Y91142D01*
X358957Y85433D02*
X359055Y85532D01*
Y90650D01*
X372441Y74311D02*
X375492Y77362D01*
X372441Y67815D02*
Y74311D01*
X359744Y80807D02*
X363287Y84350D01*
Y84744D01*
X357874Y77067D02*
X362598D01*
X365158Y79626D01*
X368307Y75492D02*
X372407Y79592D01*
X368307Y73524D02*
Y75492D01*
X359744Y80807D02*
X359744Y80807D01*
X357874Y80807D02*
X359744D01*
X344587Y66831D02*
X345866Y65551D01*
X344587Y66831D02*
Y69488D01*
X345866Y65551D02*
X348327D01*
X346282Y58760D02*
X349291D01*
X340081Y64961D02*
X346282Y58760D01*
X335531Y64961D02*
X340081D01*
X355512Y88287D02*
Y90650D01*
X353445Y86221D02*
X355512Y88287D01*
X348327Y65551D02*
X348425Y65650D01*
Y73327D01*
X355020Y65551D02*
Y69685D01*
X367520Y67815D02*
X368307Y68602D01*
Y73524D01*
X357874Y73327D02*
X358071Y73524D01*
X364370D01*
X212500Y126870D02*
X227362D01*
X248031Y106201D01*
X279429D01*
X225098Y125197D02*
X248622Y101673D01*
X279134D01*
X211122Y125197D02*
X225098D01*
X233366Y167618D02*
X235433Y165551D01*
Y153248D02*
Y165551D01*
X233366Y153347D02*
Y158760D01*
X230610Y161516D02*
X233366Y158760D01*
Y153347D02*
X233465Y153248D01*
X327067Y99902D02*
X342028D01*
X344390Y97539D01*
X352264Y72441D02*
Y78937D01*
Y72441D02*
X355020Y69685D01*
X327854Y55807D02*
X330315Y53347D01*
X327854Y55807D02*
Y62598D01*
X357874Y73327D02*
X357973Y73228D01*
X349902Y84941D02*
X352264Y82579D01*
X343996Y84941D02*
X349902D01*
X352264Y78937D02*
Y82579D01*
X350394Y77067D02*
X352264Y78937D01*
X339370Y77953D02*
X342028Y80610D01*
Y82972D01*
X343996Y84941D01*
X335531Y77953D02*
X339370D01*
X348425Y77067D02*
X350394D01*
X325689Y73622D02*
X335531D01*
X341240D01*
X348425Y80807D01*
X358248Y58760D02*
X358347Y58662D01*
X352756Y58760D02*
X358248D01*
X305118Y77953D02*
X327067Y99902D01*
X298130Y77953D02*
X305118D01*
X294587Y121653D02*
X300197D01*
X303898Y117953D01*
X270571Y133661D02*
X277165Y127067D01*
X291043D01*
X335236Y60925D02*
X335531Y60630D01*
X329528Y60925D02*
X335236D01*
X327854Y62598D02*
X329528Y60925D01*
X327854Y62598D02*
Y67913D01*
X329232Y69291D01*
X335531D01*
X333898Y129862D02*
X337598Y133563D01*
X333898Y106670D02*
Y129862D01*
X236122Y143504D02*
X272835D01*
X274508Y145177D01*
X231496Y148130D02*
X236122Y143504D01*
X225590Y147835D02*
X231890Y141535D01*
X268996D01*
X274902Y135630D01*
X223622Y146949D02*
X231102Y139469D01*
X264764D01*
X270571Y133661D01*
X230020Y137795D02*
X259646D01*
X267836Y129605D01*
X221654Y146161D02*
X230020Y137795D01*
X254134Y136024D02*
X262598Y127559D01*
X219685Y144980D02*
X228642Y136024D01*
X254134D01*
X231496Y148130D02*
Y153248D01*
X225590Y147835D02*
Y153248D01*
X223622Y146949D02*
Y153248D01*
X221654Y146161D02*
Y153248D01*
X219685Y144980D02*
Y153248D01*
X323898Y106670D02*
Y118032D01*
X309252Y132677D02*
X323898Y118032D01*
X300787Y132677D02*
X309252D01*
X328898Y106670D02*
Y119429D01*
X310433Y137894D02*
X328898Y119429D01*
X301575Y137894D02*
X310433D01*
X291043Y127067D02*
X302362D01*
X243504Y159350D02*
X255217D01*
X262598Y151969D01*
X263976Y150591D01*
X237500Y153150D02*
X244980D01*
X245768Y153937D01*
X302362Y127067D02*
X308898Y120531D01*
Y106670D02*
Y120531D01*
X304823Y95276D02*
X306299Y93799D01*
X298130Y95276D02*
X304823D01*
X284547Y96260D02*
X294193Y86614D01*
X298130D01*
X265650Y69095D02*
Y86417D01*
X265846Y86614D01*
X278346Y91437D02*
X287500Y82284D01*
X278346Y91437D02*
Y95374D01*
X274606Y87402D02*
Y92126D01*
Y87402D02*
X284055Y77953D01*
X279134Y101673D02*
X284547Y96260D01*
X250295Y134153D02*
X268996Y115453D01*
X216634Y134153D02*
X250295D01*
X244882Y132283D02*
X263779Y113386D01*
X215650Y132283D02*
X244882D01*
X279429Y106201D02*
X288976Y96653D01*
X294685Y90945D01*
X298130D01*
X228839Y102953D02*
X232972Y98819D01*
X222539Y100197D02*
X228445Y94291D01*
Y55807D02*
Y94291D01*
X232972Y49937D02*
Y98819D01*
X207874Y142913D02*
X216634Y134153D01*
X214469Y130315D02*
X239173D01*
X213386Y128642D02*
X233858D01*
X239173Y130315D02*
X256894Y112594D01*
X233858Y128642D02*
X249640Y112860D01*
X224146Y41110D02*
X232972Y49937D01*
X265650Y69095D02*
X280610Y54134D01*
X200000Y139370D02*
Y153248D01*
Y139370D02*
X212500Y126870D01*
X198031Y138287D02*
Y153248D01*
Y138287D02*
X211122Y125197D01*
X205906Y142028D02*
X215650Y132283D01*
X203937Y140847D02*
X214469Y130315D01*
X201969Y140059D02*
X213386Y128642D01*
X303898Y106670D02*
Y117953D01*
X201969Y140059D02*
Y153248D01*
X203937Y140847D02*
Y153248D01*
X205906Y142028D02*
Y153248D01*
X207874Y142913D02*
Y153248D01*
X237402D02*
X237500Y153150D01*
X227362Y161516D02*
X230610D01*
X226673Y162205D02*
X227362Y161516D01*
X211319Y175394D02*
X220866Y184941D01*
X243504D01*
X218012Y81595D02*
X221063Y78543D01*
X215650Y81595D02*
X218012D01*
X191339Y224665D02*
X203051D01*
X209646Y117913D02*
X211811D01*
X193898Y102165D02*
X209646Y117913D01*
X174409D02*
X175984D01*
X191929Y101969D01*
X212106Y111319D02*
Y117618D01*
X174409Y117913D02*
X174803Y117520D01*
X211811Y117913D02*
X212106Y117618D01*
X174803Y110925D02*
Y117520D01*
X225197Y52559D02*
X228445Y55807D01*
X224146Y41110D02*
X253181Y12075D01*
X407480Y177953D02*
X410236Y180709D01*
Y181988D01*
X410236Y181988D02*
X410236Y181988D01*
X410236Y181988D02*
Y187697D01*
X406398Y253445D02*
X410236Y249606D01*
Y242815D02*
Y249606D01*
X342562Y162106D02*
X350787D01*
X338898Y165770D02*
X342562Y162106D01*
X293012Y181201D02*
X296201Y178012D01*
X298622D01*
X303839D02*
X303937Y178110D01*
X298622Y178012D02*
X303839D01*
X303937Y178110D02*
X305669D01*
X310728Y183169D01*
X222835Y52559D02*
X225197D01*
X247638Y219587D02*
X249508Y217717D01*
Y208465D02*
Y217717D01*
X247638Y206594D02*
X249508Y208465D01*
X243504Y206594D02*
X247638D01*
X249016Y204626D02*
X251772Y207382D01*
X243504Y204626D02*
X249016D01*
X251772Y207382D02*
Y222933D01*
X247638Y227067D02*
X251772Y222933D01*
X229870Y206594D02*
X243504D01*
X217717Y208563D02*
X219685Y206594D01*
X229870D01*
X217717Y208563D02*
Y212697D01*
X227559Y208905D02*
Y212697D01*
Y208905D02*
X229870Y206594D01*
X296949Y219193D02*
X349606D01*
X256496Y178740D02*
X296949Y219193D01*
X341043Y179626D02*
X356594D01*
X233465Y231201D02*
X234646D01*
X231004Y228740D02*
X233465Y231201D01*
X225689Y228740D02*
X231004D01*
X233681Y222638D02*
Y226063D01*
X231004Y228740D02*
X233681Y226063D01*
X222992Y226043D02*
X225689Y228740D01*
X222992Y222146D02*
Y226043D01*
X234350Y194783D02*
X234350Y194783D01*
X243504D01*
X292028Y211319D02*
X336417D01*
X258563Y177854D02*
X292028Y211319D01*
X256496Y178740D02*
Y178740D01*
X395079Y211319D02*
X405315D01*
X358957Y175197D02*
X395079Y211319D01*
X405315D02*
X410236D01*
X338583Y175197D02*
X358957D01*
X358169Y177362D02*
X400000Y219193D01*
X339567Y177362D02*
X358169D01*
X243504Y163287D02*
X255807D01*
X356594Y179626D02*
X404035Y227067D01*
X355610Y182283D02*
X363189Y189862D01*
X342224Y182283D02*
X355610D01*
X400000Y219193D02*
X410236D01*
X363189Y189862D02*
Y194455D01*
X403675Y234941D01*
X410236D01*
X404035Y227067D02*
X410236D01*
X243504Y165256D02*
X254823D01*
X243504Y167224D02*
X253740D01*
X280610Y54134D02*
X306201D01*
X325689Y73622D01*
X280610Y71949D02*
X283071Y69488D01*
X285472D01*
Y64272D02*
Y69488D01*
Y74449D02*
X285531Y74508D01*
X285472Y69488D02*
Y74449D01*
X284055Y77953D02*
X298130D01*
X287500Y82284D02*
X298130D01*
X243504Y169193D02*
X253051D01*
X260728Y176870D01*
X251870Y171161D02*
X258563Y177854D01*
X336417Y211319D02*
X349606D01*
X243504Y171161D02*
X251870D01*
X250886Y173130D02*
X256496Y178740D01*
X243504Y173130D02*
X250886D01*
X321819Y43472D02*
X353083D01*
X362630Y19555D02*
Y33925D01*
X353083Y43472D02*
X362630Y33925D01*
X222441Y52559D02*
X222835D01*
X222342Y65847D02*
Y66043D01*
X316555Y32244D02*
Y38209D01*
X321819Y43472D01*
X253181Y12075D02*
X355150D01*
X202689Y41110D02*
X224146D01*
X355150Y12075D02*
X362630Y19555D01*
X201772Y57429D02*
X208661Y50539D01*
Y48425D02*
Y50539D01*
X197835Y90799D02*
Y97638D01*
X196949Y98524D02*
X197835Y97638D01*
X201772Y86811D02*
Y90799D01*
X179429Y98228D02*
X183307D01*
X181102Y105118D02*
X185630D01*
X189961Y90799D02*
Y100787D01*
X185630Y105118D02*
X189961Y100787D01*
X151673Y123327D02*
X162992Y134646D01*
X151673Y56398D02*
Y123327D01*
Y56398D02*
X164665Y43406D01*
X184646D01*
X191929Y50689D01*
Y57429D01*
X230610Y247047D02*
X230709Y246949D01*
X230610Y247047D02*
Y255217D01*
X193307Y246949D02*
Y247835D01*
X200886Y255413D01*
X159547Y67323D02*
X160866Y66004D01*
X166043D01*
X159646Y60728D02*
X161457Y62539D01*
X166043D01*
X191929Y90799D02*
Y101969D01*
X193898Y90799D02*
Y102165D01*
X187992Y90799D02*
Y95177D01*
X186772Y96398D02*
X187992Y95177D01*
X186772Y96398D02*
Y98228D01*
X183307Y97402D02*
Y98228D01*
Y97402D02*
X186024Y94685D01*
Y90799D02*
Y94685D01*
X199803Y90799D02*
Y96457D01*
X201362Y98015D01*
X213780Y77658D02*
X215650D01*
X185276Y151240D02*
X189075Y147441D01*
Y144587D02*
Y147441D01*
X182972Y151240D02*
X185276D01*
X182972D02*
Y158268D01*
X181063Y145866D02*
X182972Y147776D01*
X173819Y145866D02*
X181063D01*
X227559Y219980D02*
X230217Y222638D01*
X227559Y212697D02*
Y219980D01*
X222992Y219796D02*
Y222146D01*
X219685Y216489D02*
X222992Y219796D01*
X219685Y212697D02*
Y216489D01*
X217717Y220335D02*
X219528Y222146D01*
X217717Y212697D02*
Y220335D01*
X58228Y250039D02*
X68012Y240256D01*
X75000D01*
X58228Y250039D02*
Y254134D01*
X159646Y207185D02*
X165709Y201122D01*
X175886D01*
X185236Y227854D02*
X188327Y224764D01*
X191240D01*
X191339Y224665D01*
X200492Y234252D02*
X211811Y222933D01*
X183661Y234252D02*
X200492D01*
X159350Y258563D02*
X183661Y234252D01*
X184055Y204626D02*
X195721D01*
X200000Y208905D01*
Y212697D01*
X120473Y229331D02*
X155020Y194783D01*
X75000Y240256D02*
X85925Y229331D01*
X120473D01*
X155020Y194783D02*
X184055D01*
X169193Y178543D02*
X176575Y171161D01*
X118602Y178543D02*
X169193D01*
X176575Y171161D02*
X184055D01*
X73169Y218071D02*
X116339Y174902D01*
X168602D01*
X174311Y169193D01*
X215748Y231988D02*
X230709Y246949D01*
X215748Y212697D02*
Y231988D01*
X211811Y212697D02*
Y222933D01*
X193307Y246949D02*
X213779Y226476D01*
Y212697D02*
Y226476D01*
X209744Y267323D02*
Y270374D01*
Y267323D02*
X212500Y264567D01*
X214075Y276969D02*
Y281594D01*
X212894Y275787D02*
X214075Y276969D01*
X209547Y275787D02*
X212894D01*
X159350Y258563D02*
Y276870D01*
X119606Y267303D02*
Y286024D01*
Y267303D02*
X180315Y206594D01*
X184055D01*
X182283Y212697D02*
X190157D01*
X129606Y265374D02*
X182283Y212697D01*
X129606Y265374D02*
Y286024D01*
X169882Y206890D02*
X172185Y204587D01*
X175886D01*
X160039Y187303D02*
X162598Y184744D01*
X170079D01*
X56693Y163150D02*
X183917D01*
X184055Y163287D01*
X56693Y168150D02*
X56929Y167913D01*
X70177D01*
X72835Y165256D01*
X184055D01*
X174311Y169193D02*
X184055D01*
X159055Y196752D02*
X184055D01*
X122146Y233661D02*
X159055Y196752D01*
X86024Y233661D02*
X122146D01*
X74075Y223071D02*
X118602Y178543D01*
X58563Y223071D02*
X74075D01*
X68150Y218071D02*
X73169D01*
X58563D02*
X68150D01*
X174016Y184744D02*
X174213Y184941D01*
X184055D01*
X176575Y161319D02*
X184055D01*
X175000Y159744D02*
X176575Y161319D01*
X182972Y158268D02*
X184055Y159350D01*
X175886Y204587D02*
X175925Y204626D01*
X184055D01*
X180020Y202658D02*
X184055D01*
X178484Y201122D02*
X180020Y202658D01*
X175886Y201122D02*
X178484D01*
X144193Y158024D02*
X149161D01*
X151969Y155217D01*
X144193Y157776D02*
Y158024D01*
X136614Y150197D02*
X144193Y157776D01*
X121752Y150492D02*
X129232D01*
X136319D02*
X136614Y150197D01*
X129232Y150492D02*
X136319D01*
X58366Y136221D02*
Y136516D01*
X63228Y249272D02*
X69488Y243012D01*
X76673D01*
X86024Y233661D01*
X63228Y249272D02*
Y254134D01*
X68228D02*
X70394D01*
X71476Y253051D02*
X73917D01*
X70394Y254134D02*
X71476Y253051D01*
X60532Y233363D02*
Y234547D01*
X58563Y231395D02*
X60532Y233363D01*
X58563Y228071D02*
Y231395D01*
X56693Y173150D02*
Y175492D01*
X59153Y177953D02*
Y180118D01*
X56693Y175492D02*
X59153Y177953D01*
D31*
X338898Y165770D02*
D03*
X333898D02*
D03*
X328898D02*
D03*
X323898D02*
D03*
X318898D02*
D03*
X313898D02*
D03*
X308898D02*
D03*
X303898D02*
D03*
X298898D02*
D03*
Y106670D02*
D03*
X303898D02*
D03*
X308898D02*
D03*
X313898D02*
D03*
X318898D02*
D03*
X323898D02*
D03*
X328898D02*
D03*
X333898D02*
D03*
X338898D02*
D03*
D81*
X201772Y90158D02*
D03*
X199803D02*
D03*
X197835D02*
D03*
X195866D02*
D03*
X193898D02*
D03*
X191929D02*
D03*
X189961D02*
D03*
X187992D02*
D03*
X186024D02*
D03*
X184055D02*
D03*
X182087D02*
D03*
X180118D02*
D03*
Y58465D02*
D03*
X182087D02*
D03*
X184055D02*
D03*
X186024D02*
D03*
X187992D02*
D03*
X189961D02*
D03*
X191929D02*
D03*
X193898D02*
D03*
X195866D02*
D03*
X197835D02*
D03*
X199803D02*
D03*
X201772D02*
D03*
D82*
X175098Y85138D02*
D03*
Y83169D02*
D03*
Y81201D02*
D03*
Y79232D02*
D03*
Y77264D02*
D03*
Y75295D02*
D03*
Y73327D02*
D03*
Y71358D02*
D03*
Y69390D02*
D03*
Y67421D02*
D03*
Y65453D02*
D03*
Y63484D02*
D03*
X206791D02*
D03*
Y65453D02*
D03*
Y67421D02*
D03*
Y69390D02*
D03*
Y71358D02*
D03*
Y73327D02*
D03*
Y75295D02*
D03*
Y77264D02*
D03*
Y79232D02*
D03*
Y81201D02*
D03*
Y83169D02*
D03*
Y85138D02*
D03*
D83*
X259646Y252559D02*
D03*
X263583D02*
D03*
X174016Y184744D02*
D03*
X170079D02*
D03*
X368307Y73524D02*
D03*
X364370D02*
D03*
X77854Y253051D02*
D03*
X73917D02*
D03*
D84*
X311811Y254134D02*
D03*
Y248819D02*
D03*
X339272Y232480D02*
D03*
Y227165D02*
D03*
X58366Y136516D02*
D03*
Y141831D02*
D03*
X129232Y145177D02*
D03*
Y150492D02*
D03*
X121752Y145177D02*
D03*
Y150492D02*
D03*
X74409Y136516D02*
D03*
Y141831D02*
D03*
D85*
X278248Y255118D02*
D03*
Y252559D02*
D03*
Y250000D02*
D03*
Y247441D02*
D03*
Y244882D02*
D03*
Y242323D02*
D03*
Y239764D02*
D03*
X300492D02*
D03*
Y242323D02*
D03*
Y244882D02*
D03*
Y247441D02*
D03*
Y250000D02*
D03*
Y252559D02*
D03*
Y255118D02*
D03*
D86*
X270374Y261909D02*
D03*
Y257972D02*
D03*
X60532Y238484D02*
D03*
Y234547D02*
D03*
X215650Y77658D02*
D03*
Y81595D02*
D03*
X59153Y184055D02*
D03*
Y180118D02*
D03*
D87*
X306102Y248957D02*
D03*
Y252421D02*
D03*
X166043Y62539D02*
D03*
Y66004D02*
D03*
X303937Y178110D02*
D03*
Y174646D02*
D03*
X298622Y178012D02*
D03*
Y174547D02*
D03*
X182972Y147776D02*
D03*
Y151240D02*
D03*
X175886Y204587D02*
D03*
Y201122D02*
D03*
X191240Y224764D02*
D03*
Y221299D02*
D03*
X197244Y224921D02*
D03*
Y221457D02*
D03*
X203051Y224665D02*
D03*
Y221201D02*
D03*
D88*
X412402Y59153D02*
D03*
X412992Y122047D02*
D03*
D89*
X412402Y76407D02*
D03*
Y41898D02*
D03*
X412992Y139301D02*
D03*
Y104791D02*
D03*
D90*
X378150Y122047D02*
D03*
X367126D02*
D03*
D91*
X174409Y117913D02*
D03*
X211811D02*
D03*
X230709Y246949D02*
D03*
X193307D02*
D03*
D92*
X335531Y95276D02*
D03*
Y60630D02*
D03*
X298130D02*
D03*
Y95276D02*
D03*
D93*
X335531Y90945D02*
D03*
Y86614D02*
D03*
Y82284D02*
D03*
Y77953D02*
D03*
Y73622D02*
D03*
Y69291D02*
D03*
Y64961D02*
D03*
X298130D02*
D03*
Y69291D02*
D03*
Y73622D02*
D03*
Y77953D02*
D03*
Y82284D02*
D03*
Y86614D02*
D03*
Y90945D02*
D03*
D94*
X243504Y206594D02*
D03*
Y204626D02*
D03*
Y202658D02*
D03*
Y200689D02*
D03*
Y198721D02*
D03*
Y196752D02*
D03*
Y194783D02*
D03*
Y192815D02*
D03*
Y190847D02*
D03*
Y188878D02*
D03*
Y186909D02*
D03*
Y184941D02*
D03*
Y182973D02*
D03*
Y181004D02*
D03*
Y179035D02*
D03*
Y177067D02*
D03*
Y175099D02*
D03*
Y173130D02*
D03*
Y171161D02*
D03*
Y169193D02*
D03*
Y167224D02*
D03*
Y165256D02*
D03*
Y163287D02*
D03*
Y161319D02*
D03*
Y159350D02*
D03*
X184055D02*
D03*
Y161319D02*
D03*
Y163287D02*
D03*
Y165256D02*
D03*
Y167224D02*
D03*
Y169193D02*
D03*
Y171161D02*
D03*
Y173130D02*
D03*
Y175099D02*
D03*
Y177067D02*
D03*
Y179035D02*
D03*
Y181004D02*
D03*
Y182973D02*
D03*
Y184941D02*
D03*
Y186909D02*
D03*
Y188878D02*
D03*
Y190847D02*
D03*
Y192815D02*
D03*
Y194783D02*
D03*
Y196752D02*
D03*
Y198721D02*
D03*
Y200689D02*
D03*
Y202658D02*
D03*
Y204626D02*
D03*
Y206594D02*
D03*
D95*
X237402Y153248D02*
D03*
X235433D02*
D03*
X233465D02*
D03*
X231496D02*
D03*
X229528D02*
D03*
X227559D02*
D03*
X225590D02*
D03*
X223622D02*
D03*
X221654D02*
D03*
X219685D02*
D03*
X217717D02*
D03*
X215748D02*
D03*
X213779D02*
D03*
X211811D02*
D03*
X209842D02*
D03*
X207874D02*
D03*
X205906D02*
D03*
X203937D02*
D03*
X201969D02*
D03*
X200000D02*
D03*
X198031D02*
D03*
X196063D02*
D03*
X194095D02*
D03*
X192126D02*
D03*
X190157D02*
D03*
Y212697D02*
D03*
X192126D02*
D03*
X194095D02*
D03*
X196063D02*
D03*
X198031D02*
D03*
X200000D02*
D03*
X201969D02*
D03*
X203937D02*
D03*
X205906D02*
D03*
X207874D02*
D03*
X209842D02*
D03*
X211811D02*
D03*
X213779D02*
D03*
X215748D02*
D03*
X217717D02*
D03*
X219685D02*
D03*
X221654D02*
D03*
X223622D02*
D03*
X225590D02*
D03*
X227559D02*
D03*
X229528D02*
D03*
X231496D02*
D03*
X233465D02*
D03*
X235433D02*
D03*
X237402D02*
D03*
D96*
X183307Y98228D02*
D03*
X186772D02*
D03*
X361811Y58662D02*
D03*
X358347D02*
D03*
X352756Y58760D02*
D03*
X349291D02*
D03*
X285472Y69488D02*
D03*
X288937D02*
D03*
X285472Y64272D02*
D03*
X288937D02*
D03*
X222992Y222146D02*
D03*
X219528D02*
D03*
X233681Y222638D02*
D03*
X230217D02*
D03*
X209547Y275787D02*
D03*
X206083D02*
D03*
D97*
X192815Y31299D02*
D03*
X195965D02*
D03*
X189665D02*
D03*
X199114D02*
D03*
X202264D02*
D03*
D98*
X110925Y145079D02*
D03*
D99*
X86122Y136024D02*
D03*
Y145079D02*
D03*
Y154134D02*
D03*
D100*
X195177Y294587D02*
D03*
Y276870D02*
D03*
X159350D02*
D03*
Y294587D02*
D03*
D101*
X41732Y248721D02*
D03*
X36417D02*
D03*
X76968Y260827D02*
D03*
X82284D02*
D03*
X40551Y180512D02*
D03*
X35236D02*
D03*
X40945Y194685D02*
D03*
X35630D02*
D03*
X41732Y235138D02*
D03*
X36417D02*
D03*
X82087Y274902D02*
D03*
X76772D02*
D03*
D102*
X310728Y175295D02*
D03*
Y183169D02*
D03*
X331693Y227362D02*
D03*
Y235236D02*
D03*
D103*
X357874Y80807D02*
D03*
Y77067D02*
D03*
Y73327D02*
D03*
X348425D02*
D03*
Y77067D02*
D03*
D104*
Y80807D02*
D03*
D105*
X367520Y67815D02*
D03*
X372441D02*
D03*
X75689Y102362D02*
D03*
Y109055D02*
D03*
D106*
X355512Y90650D02*
D03*
X359055D02*
D03*
X209744Y270374D02*
D03*
X206201D02*
D03*
D107*
X372309Y90904D02*
D03*
Y93504D02*
D03*
Y96104D02*
D03*
X364109D02*
D03*
Y93504D02*
D03*
Y90904D02*
D03*
D108*
X367520Y58661D02*
D03*
Y62008D02*
D03*
D109*
X348327Y65551D02*
D03*
X355020D02*
D03*
D110*
X288681Y74508D02*
D03*
X285531D02*
D03*
D111*
X91339Y283760D02*
D03*
X79724D02*
D03*
X26870Y248819D02*
D03*
X15256D02*
D03*
X75886Y93405D02*
D03*
X64272D02*
D03*
X75787Y81791D02*
D03*
X64173D02*
D03*
X75886Y69882D02*
D03*
X64272D02*
D03*
X96260Y91339D02*
D03*
X107874D02*
D03*
X95965Y80413D02*
D03*
X107579D02*
D03*
X95768Y69390D02*
D03*
X107382D02*
D03*
D112*
X46063Y165650D02*
D03*
X47933Y220571D02*
D03*
D113*
X35433Y158150D02*
D03*
Y163150D02*
D03*
Y168150D02*
D03*
Y173150D02*
D03*
X56693D02*
D03*
Y168150D02*
D03*
Y163150D02*
D03*
Y158150D02*
D03*
X37303Y213071D02*
D03*
Y218071D02*
D03*
Y223071D02*
D03*
Y228071D02*
D03*
X58563D02*
D03*
Y223071D02*
D03*
Y218071D02*
D03*
Y213071D02*
D03*
D114*
X60728Y264764D02*
D03*
D115*
X53228Y275394D02*
D03*
X58228D02*
D03*
X63228D02*
D03*
X68228D02*
D03*
Y254134D02*
D03*
X63228D02*
D03*
X58228D02*
D03*
X53228D02*
D03*
D116*
X24705Y197244D02*
D03*
Y185630D02*
D03*
D117*
X35335Y187598D02*
D03*
X40650D02*
D03*
X36122Y242028D02*
D03*
X41437D02*
D03*
X76673Y267815D02*
D03*
X81988D02*
D03*
D118*
X178445Y30925D02*
D03*
Y9469D02*
D03*
X213484D02*
D03*
Y30925D02*
D03*
D119*
X66929Y141831D02*
D03*
Y136516D02*
D03*
X136614Y150197D02*
D03*
Y144882D02*
D03*
D120*
X144193Y145622D02*
D03*
Y158024D02*
D03*
D121*
X71358Y123228D02*
D03*
X54429D02*
D03*
D122*
X63976Y102854D02*
D03*
X67913D02*
D03*
X65945Y107972D02*
D03*
D123*
X115059Y104626D02*
D03*
X99311D02*
D03*
D124*
X55610Y92283D02*
D03*
Y97284D02*
D03*
Y102284D02*
D03*
Y107283D02*
D03*
D125*
X32382D02*
D03*
Y102284D02*
D03*
Y97284D02*
D03*
Y92283D02*
D03*
D126*
X410236Y242815D02*
D03*
Y234941D02*
D03*
Y227067D02*
D03*
Y219193D02*
D03*
Y211319D02*
D03*
Y203445D02*
D03*
Y195571D02*
D03*
Y187697D02*
D03*
X349606D02*
D03*
Y195571D02*
D03*
Y203445D02*
D03*
Y211319D02*
D03*
Y219193D02*
D03*
Y227067D02*
D03*
Y234941D02*
D03*
D127*
X350000Y242815D02*
D03*
D128*
X238484Y92913D02*
D03*
X256201D02*
D03*
Y57087D02*
D03*
X238484D02*
D03*
D129*
X367520Y58662D02*
X367520Y58661D01*
X361811Y58662D02*
X367520D01*
D130*
X367520Y58661D02*
X411909D01*
D131*
X378150Y122047D02*
X412992D01*
D132*
X351749Y106670D02*
X367126Y122047D01*
X338898Y106670D02*
X351749D01*
D133*
X250984Y92913D02*
X256201D01*
X246161Y83957D02*
Y88091D01*
X250984Y92913D01*
X256201Y57087D02*
Y92913D01*
X238484Y75000D02*
Y92913D01*
Y57087D02*
Y75000D01*
X242323D02*
X244488Y72835D01*
X238484Y75000D02*
X242323D01*
X276555Y32244D02*
Y36732D01*
X256201Y57087D02*
X276555Y36732D01*
X58366Y136516D02*
X61614D01*
X71358Y126772D01*
Y123228D02*
Y126772D01*
X58366Y136516D02*
X66929D01*
X63228Y275394D02*
Y292440D01*
X63997Y293209D01*
X52461Y293012D02*
X53228Y292244D01*
Y275394D02*
Y292244D01*
X31260Y223071D02*
X37303D01*
X27145Y227186D02*
X31260Y223071D01*
X17520Y227186D02*
X27145D01*
X17520Y213386D02*
X17835Y213071D01*
X37303D01*
X18799Y170768D02*
X21417Y168150D01*
X35433D01*
X19981Y158150D02*
X35433D01*
X18799Y156968D02*
X19981Y158150D01*
X77070Y136024D02*
X86122D01*
X76578Y136516D02*
X77070Y136024D01*
X74409Y136516D02*
X76578D01*
X66929D02*
X74409D01*
D134*
X192815Y39567D02*
X193898Y40650D01*
X192815Y31299D02*
Y39567D01*
X193898Y40650D02*
Y57429D01*
X195866Y31398D02*
X195965Y31299D01*
X195866Y31398D02*
Y57429D01*
D135*
X346555Y32244D02*
D03*
X336555D02*
D03*
X326555D02*
D03*
X316555D02*
D03*
X306555D02*
D03*
X296555D02*
D03*
X286555D02*
D03*
X276555D02*
D03*
X266555D02*
D03*
X256555D02*
D03*
Y22244D02*
D03*
X266555D02*
D03*
X276555D02*
D03*
X286555D02*
D03*
X296555D02*
D03*
X306555D02*
D03*
X316555D02*
D03*
X326555D02*
D03*
X336555D02*
D03*
X346555D02*
D03*
D136*
X143799Y14764D02*
D03*
X69390D02*
D03*
D137*
X128051Y51772D02*
D03*
D138*
X85138D02*
D03*
D139*
X409055Y289764D02*
D03*
X15748D02*
D03*
Y15748D02*
D03*
X409055D02*
D03*
D140*
X17520Y213386D02*
D03*
Y227186D02*
D03*
X18799Y170768D02*
D03*
Y156968D02*
D03*
X63997Y293209D02*
D03*
X50197D02*
D03*
D141*
X119606Y286024D02*
D03*
X139606D02*
D03*
X109606D02*
D03*
X129606D02*
D03*
D142*
X43504Y173327D02*
D03*
X48622D02*
D03*
X43504Y168209D02*
D03*
X48622D02*
D03*
X43504Y163091D02*
D03*
X48622D02*
D03*
X43504Y157973D02*
D03*
X48622D02*
D03*
X45374Y228248D02*
D03*
X50492D02*
D03*
X45374Y223130D02*
D03*
X50492D02*
D03*
X45374Y218012D02*
D03*
X50492D02*
D03*
X45374Y212894D02*
D03*
X50492D02*
D03*
X68405Y267323D02*
D03*
Y262205D02*
D03*
X63287Y267323D02*
D03*
Y262205D02*
D03*
X58169Y267323D02*
D03*
Y262205D02*
D03*
X53051Y267323D02*
D03*
Y262205D02*
D03*
D143*
X187303Y20768D02*
D03*
X204626D02*
D03*
D144*
X106693Y37795D02*
D03*
X27953Y77165D02*
D03*
X116535Y18110D02*
D03*
X67323Y195276D02*
D03*
Y234646D02*
D03*
X87008Y116535D02*
D03*
X96850Y254331D02*
D03*
X57480Y18110D02*
D03*
X96850Y175591D02*
D03*
X126378Y116535D02*
D03*
X27953Y37795D02*
D03*
X96850Y18110D02*
D03*
X18110Y96850D02*
D03*
X126378Y195276D02*
D03*
X18110Y57480D02*
D03*
X47638Y37795D02*
D03*
Y77165D02*
D03*
X77165Y18110D02*
D03*
X96850Y214961D02*
D03*
X67323Y155905D02*
D03*
X116535Y57480D02*
D03*
X87008Y195276D02*
D03*
X116535Y254331D02*
D03*
X37795Y18110D02*
D03*
X57480Y57480D02*
D03*
X67323Y37795D02*
D03*
X106693Y116535D02*
D03*
X77165Y175591D02*
D03*
X126378Y37795D02*
D03*
X37795Y57480D02*
D03*
X126378Y77165D02*
D03*
X116535Y214961D02*
D03*
X360455Y123715D02*
D03*
X354177Y117355D02*
D03*
X346669Y112508D02*
D03*
X337880Y114129D02*
D03*
X355090Y101917D02*
D03*
X367810Y114475D02*
D03*
X370603Y129457D02*
D03*
X415286Y130864D02*
D03*
X406349D02*
D03*
X397629Y128905D02*
D03*
X388692D02*
D03*
X379783Y129604D02*
D03*
X380397Y114491D02*
D03*
X389306Y115190D02*
D03*
X398244D02*
D03*
X406963Y113231D02*
D03*
X415900D02*
D03*
D145*
X416961Y67434D02*
D03*
X409087D02*
D03*
X401218Y67154D02*
D03*
X394065Y63861D02*
D03*
X386192D02*
D03*
X378317D02*
D03*
X362569Y63861D02*
D03*
X362525Y53462D02*
D03*
X370399Y53462D02*
D03*
X378273D02*
D03*
X386147D02*
D03*
X394021D02*
D03*
X401511Y51032D02*
D03*
X409383Y50873D02*
D03*
X417257D02*
D03*
D146*
X162377Y82087D02*
D03*
X285433Y240059D02*
D03*
X257874Y244685D02*
D03*
X277264Y265650D02*
D03*
X255118Y254823D02*
D03*
X263583Y260335D02*
D03*
X275590Y231890D02*
D03*
X271063Y240354D02*
D03*
X270571Y247835D02*
D03*
X206102Y31299D02*
D03*
X177165Y21654D02*
D03*
X214567Y20965D02*
D03*
X197933Y10335D02*
D03*
X190551D02*
D03*
X176083Y94882D02*
D03*
X174213Y98917D02*
D03*
X203248Y50886D02*
D03*
X378642Y90551D02*
D03*
X358957Y85433D02*
D03*
X375492Y77362D02*
D03*
X363287Y84744D02*
D03*
X365158Y79626D02*
D03*
X344587Y69488D02*
D03*
X353445Y86221D02*
D03*
X344390Y97539D02*
D03*
X330315Y53347D02*
D03*
X294587Y121653D02*
D03*
X337598Y133563D02*
D03*
X274508Y145177D02*
D03*
X300787Y132677D02*
D03*
X301575Y137894D02*
D03*
X246161Y83957D02*
D03*
X263976Y150591D02*
D03*
X245768Y153937D02*
D03*
X306299Y93799D02*
D03*
X270276Y79921D02*
D03*
X265846Y86614D02*
D03*
X278346Y95374D02*
D03*
X274606Y92126D02*
D03*
X268996Y115453D02*
D03*
X263779Y113386D02*
D03*
X222539Y100197D02*
D03*
X228839Y102953D02*
D03*
X274902Y135630D02*
D03*
X267836Y129605D02*
D03*
X262598Y127559D02*
D03*
X256894Y112594D02*
D03*
X249640Y112860D02*
D03*
X226673Y162205D02*
D03*
X233366Y167618D02*
D03*
X211319Y175394D02*
D03*
X221063Y78543D02*
D03*
X212106Y111319D02*
D03*
X174803Y110925D02*
D03*
X244488Y72835D02*
D03*
X407480Y177953D02*
D03*
X406398Y253445D02*
D03*
X341142Y240354D02*
D03*
X333465Y240551D02*
D03*
X341339Y244291D02*
D03*
X333563D02*
D03*
X323031Y226673D02*
D03*
X350787Y162106D02*
D03*
X293012Y181201D02*
D03*
X293307Y166831D02*
D03*
Y171850D02*
D03*
X247638Y227067D02*
D03*
Y219587D02*
D03*
X316634Y248622D02*
D03*
X311811Y259842D02*
D03*
X234646Y231201D02*
D03*
X234252Y194882D02*
D03*
X280610Y71949D02*
D03*
X306201Y64764D02*
D03*
X306102Y68701D02*
D03*
X249016Y38484D02*
D03*
X222835Y52559D02*
D03*
X223031Y56693D02*
D03*
X222244Y61811D02*
D03*
X222342Y66043D02*
D03*
X208661Y48425D02*
D03*
X196949Y98524D02*
D03*
X162992Y134646D02*
D03*
X230610Y255217D02*
D03*
X200886Y255413D02*
D03*
X159547Y67323D02*
D03*
X159646Y60728D02*
D03*
X181102Y105118D02*
D03*
X201362Y98015D02*
D03*
X222342Y87106D02*
D03*
X189075Y144587D02*
D03*
X173819Y145866D02*
D03*
X185335Y50394D02*
D03*
X178543D02*
D03*
X159646Y207185D02*
D03*
X185236Y227854D02*
D03*
X184744Y220768D02*
D03*
X173031Y276476D02*
D03*
X212500Y264567D02*
D03*
X149016Y287894D02*
D03*
X149114Y294291D02*
D03*
X187402Y289469D02*
D03*
X178248Y289370D02*
D03*
X168996Y289469D02*
D03*
X214075Y281594D02*
D03*
X169882Y206890D02*
D03*
X160039Y187303D02*
D03*
X175000Y159744D02*
D03*
X151969Y155217D02*
D03*
X144685Y137992D02*
D03*
X136909Y138287D02*
D03*
X129331Y137894D02*
D03*
X121653D02*
D03*
X84350Y292323D02*
D03*
X79232D02*
D03*
X27165Y257185D02*
D03*
X35630D02*
D03*
X28740Y203445D02*
D03*
X35433Y203346D02*
D03*
X87795Y101673D02*
D03*
Y94587D02*
D03*
Y87106D02*
D03*
X87894Y80118D02*
D03*
X87992Y70177D02*
D03*
X82480Y70079D02*
D03*
X82382Y80020D02*
D03*
X82284Y87008D02*
D03*
Y94488D02*
D03*
Y101575D02*
D03*
D147*
X39567Y118701D02*
D03*
X39665Y123524D02*
D03*
X39862Y128248D02*
D03*
X44980Y118701D02*
D03*
Y123524D02*
D03*
X45079Y128347D02*
D03*
D148*
X45177Y93287D02*
D03*
X40846D02*
D03*
X36516D02*
D03*
X45177Y97618D02*
D03*
X40846D02*
D03*
X36516D02*
D03*
X45177Y101949D02*
D03*
X40846D02*
D03*
X36516D02*
D03*
X45177Y106280D02*
D03*
X40846D02*
D03*
X36516D02*
D03*
M02*
