G04*
G04 #@! TF.GenerationSoftware,Altium Limited,Altium Designer,24.10.1 (45)*
G04*
G04 Layer_Color=128*
%FSLAX25Y25*%
%MOIN*%
G70*
G04*
G04 #@! TF.SameCoordinates,5AC42D03-02A1-48EB-AEC6-02F924EB4CEF*
G04*
G04*
G04 #@! TF.FilePolarity,Positive*
G04*
G01*
G75*
%ADD18C,0.00500*%
D18*
X344193Y32244D02*
X348917D01*
X346555Y29882D02*
Y34606D01*
X334193Y32244D02*
X338917D01*
X336555Y29882D02*
Y34606D01*
X324193Y32244D02*
X328917D01*
X326555Y29882D02*
Y34606D01*
X314193Y32244D02*
X318917D01*
X316555Y29882D02*
Y34606D01*
X304193Y32244D02*
X308917D01*
X306555Y29882D02*
Y34606D01*
X294193Y32244D02*
X298917D01*
X296555Y29882D02*
Y34606D01*
X284193Y32244D02*
X288917D01*
X286555Y29882D02*
Y34606D01*
X274193Y32244D02*
X278917D01*
X276555Y29882D02*
Y34606D01*
X264193Y32244D02*
X268917D01*
X266555Y29882D02*
Y34606D01*
X254193Y32244D02*
X258917D01*
X256555Y29882D02*
Y34606D01*
X254193Y22244D02*
X258917D01*
X256555Y19882D02*
Y24606D01*
X264193Y22244D02*
X268917D01*
X266555Y19882D02*
Y24606D01*
X274193Y22244D02*
X278917D01*
X276555Y19882D02*
Y24606D01*
X284193Y22244D02*
X288917D01*
X286555Y19882D02*
Y24606D01*
X294193Y22244D02*
X298917D01*
X296555Y19882D02*
Y24606D01*
X304193Y22244D02*
X308917D01*
X306555Y19882D02*
Y24606D01*
X314193Y22244D02*
X318917D01*
X316555Y19882D02*
Y24606D01*
X324193Y22244D02*
X328917D01*
X326555Y19882D02*
Y24606D01*
X334193Y22244D02*
X338917D01*
X336555Y19882D02*
Y24606D01*
X344193Y22244D02*
X348917D01*
X346555Y19882D02*
Y24606D01*
X142618Y14764D02*
X144980D01*
X143799Y13583D02*
Y15945D01*
X68209Y14764D02*
X70571D01*
X69390Y13583D02*
Y15945D01*
X120374Y51772D02*
X135728D01*
X128051Y44094D02*
Y59449D01*
X77461Y51772D02*
X92815D01*
X85138Y44094D02*
Y59449D01*
X402165Y289764D02*
X415945D01*
X409055Y282874D02*
Y296654D01*
X8858Y289764D02*
X22638D01*
X15748Y282874D02*
Y296654D01*
X8858Y15748D02*
X22638D01*
X15748Y8858D02*
Y22638D01*
X402165Y15748D02*
X415945D01*
X409055Y8858D02*
Y22638D01*
X14970Y213386D02*
X20070D01*
X17520Y210836D02*
Y215936D01*
X14970Y227186D02*
X20070D01*
X17520Y224636D02*
Y229736D01*
X117244Y286024D02*
X121968D01*
X119606Y283661D02*
Y288386D01*
X137244Y286024D02*
X141969D01*
X139606Y283661D02*
Y288386D01*
X107244Y286024D02*
X111969D01*
X109606Y283661D02*
Y288386D01*
X127244Y286024D02*
X131968D01*
X129606Y283661D02*
Y288386D01*
X16249Y170768D02*
X21349D01*
X18799Y168218D02*
Y173318D01*
X16249Y156968D02*
X21349D01*
X18799Y154418D02*
Y159518D01*
X61447Y293209D02*
X66547D01*
X63997Y290659D02*
Y295759D01*
X47647Y293209D02*
X52747D01*
X50197Y290659D02*
Y295759D01*
X43110Y173327D02*
X43898D01*
X43504Y172933D02*
Y173721D01*
X48228Y173327D02*
X49016D01*
X48622Y172933D02*
Y173721D01*
X43110Y168209D02*
X43898D01*
X43504Y167815D02*
Y168602D01*
X48228Y168209D02*
X49016D01*
X48622Y167815D02*
Y168602D01*
X43110Y163091D02*
X43898D01*
X43504Y162697D02*
Y163484D01*
X48228Y163091D02*
X49016D01*
X48622Y162697D02*
Y163484D01*
X43110Y157973D02*
X43898D01*
X43504Y157579D02*
Y158366D01*
X48228Y157973D02*
X49016D01*
X48622Y157579D02*
Y158366D01*
X44980Y228248D02*
X45768D01*
X45374Y227854D02*
Y228642D01*
X50098Y228248D02*
X50886D01*
X50492Y227854D02*
Y228642D01*
X44980Y223130D02*
X45768D01*
X45374Y222736D02*
Y223524D01*
X50098Y223130D02*
X50886D01*
X50492Y222736D02*
Y223524D01*
X44980Y218012D02*
X45768D01*
X45374Y217618D02*
Y218406D01*
X50098Y218012D02*
X50886D01*
X50492Y217618D02*
Y218406D01*
X44980Y212894D02*
X45768D01*
X45374Y212500D02*
Y213287D01*
X50098Y212894D02*
X50886D01*
X50492Y212500D02*
Y213287D01*
X68012Y267323D02*
X68799D01*
X68405Y266929D02*
Y267717D01*
X68012Y262205D02*
X68799D01*
X68405Y261811D02*
Y262598D01*
X62894Y267323D02*
X63681D01*
X63287Y266929D02*
Y267717D01*
X62894Y262205D02*
X63681D01*
X63287Y261811D02*
Y262598D01*
X57776Y267323D02*
X58563D01*
X58169Y266929D02*
Y267717D01*
X57776Y262205D02*
X58563D01*
X58169Y261811D02*
Y262598D01*
X52658Y267323D02*
X53445D01*
X53051Y266929D02*
Y267717D01*
X52658Y262205D02*
X53445D01*
X53051Y261811D02*
Y262598D01*
X185531Y20768D02*
X189075D01*
X187303Y18996D02*
Y22539D01*
X202854Y20768D02*
X206398D01*
X204626Y18996D02*
Y22539D01*
X105293Y37795D02*
X108093D01*
X106693Y36395D02*
Y39195D01*
X26553Y77165D02*
X29353D01*
X27953Y75765D02*
Y78565D01*
X115135Y18110D02*
X117935D01*
X116535Y16710D02*
Y19510D01*
X65923Y195276D02*
X68723D01*
X67323Y193876D02*
Y196676D01*
X65923Y234646D02*
X68723D01*
X67323Y233246D02*
Y236046D01*
X85608Y116535D02*
X88408D01*
X87008Y115135D02*
Y117935D01*
X95450Y254331D02*
X98250D01*
X96850Y252931D02*
Y255731D01*
X56080Y18110D02*
X58880D01*
X57480Y16710D02*
Y19510D01*
X95450Y175591D02*
X98250D01*
X96850Y174191D02*
Y176991D01*
X124978Y116535D02*
X127778D01*
X126378Y115135D02*
Y117935D01*
X26553Y37795D02*
X29353D01*
X27953Y36395D02*
Y39195D01*
X95450Y18110D02*
X98250D01*
X96850Y16710D02*
Y19510D01*
X16710Y96850D02*
X19510D01*
X18110Y95450D02*
Y98250D01*
X124978Y195276D02*
X127778D01*
X126378Y193876D02*
Y196676D01*
X16710Y57480D02*
X19510D01*
X18110Y56080D02*
Y58880D01*
X46238Y37795D02*
X49038D01*
X47638Y36395D02*
Y39195D01*
X46238Y77165D02*
X49038D01*
X47638Y75765D02*
Y78565D01*
X75765Y18110D02*
X78565D01*
X77165Y16710D02*
Y19510D01*
X95450Y214961D02*
X98250D01*
X96850Y213561D02*
Y216361D01*
X65923Y155905D02*
X68723D01*
X67323Y154506D02*
Y157306D01*
X115135Y57480D02*
X117935D01*
X116535Y56080D02*
Y58880D01*
X85608Y195276D02*
X88408D01*
X87008Y193876D02*
Y196676D01*
X115135Y254331D02*
X117935D01*
X116535Y252931D02*
Y255731D01*
X36395Y18110D02*
X39195D01*
X37795Y16710D02*
Y19510D01*
X56080Y57480D02*
X58880D01*
X57480Y56080D02*
Y58880D01*
X65923Y37795D02*
X68723D01*
X67323Y36395D02*
Y39195D01*
X105293Y116535D02*
X108093D01*
X106693Y115135D02*
Y117935D01*
X75765Y175591D02*
X78565D01*
X77165Y174191D02*
Y176991D01*
X124978Y37795D02*
X127778D01*
X126378Y36395D02*
Y39195D01*
X36395Y57480D02*
X39195D01*
X37795Y56080D02*
Y58880D01*
X124978Y77165D02*
X127778D01*
X126378Y75765D02*
Y78565D01*
X115135Y214961D02*
X117935D01*
X116535Y213561D02*
Y216361D01*
X415561Y67434D02*
X418361D01*
X416961Y66034D02*
Y68834D01*
X407687Y67434D02*
X410487D01*
X409087Y66034D02*
Y68834D01*
X399818Y67154D02*
X402618D01*
X401218Y65754D02*
Y68554D01*
X392666Y63861D02*
X395465D01*
X394065Y62461D02*
Y65261D01*
X384791Y63861D02*
X387592D01*
X386192Y62461D02*
Y65261D01*
X376918Y63861D02*
X379717D01*
X378317Y62461D02*
Y65261D01*
X361170Y63861D02*
X363969D01*
X362569Y62461D02*
Y65261D01*
X361125Y53462D02*
X363925D01*
X362525Y52062D02*
Y54862D01*
X368999Y53462D02*
X371799D01*
X370399Y52062D02*
Y54862D01*
X376873Y53462D02*
X379673D01*
X378273Y52062D02*
Y54862D01*
X384747Y53462D02*
X387547D01*
X386147Y52062D02*
Y54862D01*
X392621Y53462D02*
X395421D01*
X394021Y52062D02*
Y54862D01*
X400111Y51032D02*
X402911D01*
X401511Y49632D02*
Y52431D01*
X407983Y50873D02*
X410783D01*
X409383Y49473D02*
Y52273D01*
X415857Y50873D02*
X418657D01*
X417257Y49473D02*
Y52273D01*
X359055Y123715D02*
X361855D01*
X360455Y122316D02*
Y125116D01*
X352777Y117355D02*
X355577D01*
X354177Y115955D02*
Y118755D01*
X345269Y112508D02*
X348069D01*
X346669Y111108D02*
Y113908D01*
X336480Y114129D02*
X339280D01*
X337880Y112729D02*
Y115529D01*
X353691Y101917D02*
X356490D01*
X355090Y100517D02*
Y103317D01*
X366410Y114475D02*
X369210D01*
X367810Y113075D02*
Y115875D01*
X369203Y129457D02*
X372003D01*
X370603Y128057D02*
Y130857D01*
X413886Y130864D02*
X416686D01*
X415286Y129464D02*
Y132264D01*
X404949Y130864D02*
X407749D01*
X406349Y129464D02*
Y132264D01*
X396230Y128905D02*
X399029D01*
X397629Y127505D02*
Y130305D01*
X387293Y128905D02*
X390092D01*
X388692Y127505D02*
Y130305D01*
X378383Y129604D02*
X381183D01*
X379783Y128204D02*
Y131004D01*
X378997Y114491D02*
X381797D01*
X380397Y113091D02*
Y115891D01*
X387907Y115190D02*
X390706D01*
X389306Y113790D02*
Y116590D01*
X396844Y115190D02*
X399644D01*
X398244Y113790D02*
Y116590D01*
X405563Y113231D02*
X408363D01*
X406963Y111831D02*
Y114631D01*
X414500Y113231D02*
X417300D01*
X415900Y111831D02*
Y114631D01*
X161688Y82087D02*
X163066D01*
X162377Y81398D02*
Y82776D01*
X284744Y240059D02*
X286122D01*
X285433Y239370D02*
Y240748D01*
X257185Y244685D02*
X258563D01*
X257874Y243996D02*
Y245374D01*
X276575Y265650D02*
X277953D01*
X277264Y264961D02*
Y266339D01*
X254429Y254823D02*
X255807D01*
X255118Y254134D02*
Y255512D01*
X262894Y260335D02*
X264272D01*
X263583Y259646D02*
Y261024D01*
X274902Y231890D02*
X276279D01*
X275590Y231201D02*
Y232579D01*
X270374Y240354D02*
X271752D01*
X271063Y239665D02*
Y241043D01*
X269882Y247835D02*
X271260D01*
X270571Y247146D02*
Y248524D01*
X205413Y31299D02*
X206791D01*
X206102Y30610D02*
Y31988D01*
X176476Y21654D02*
X177854D01*
X177165Y20965D02*
Y22343D01*
X213878Y20965D02*
X215256D01*
X214567Y20276D02*
Y21654D01*
X197244Y10335D02*
X198622D01*
X197933Y9646D02*
Y11024D01*
X189862Y10335D02*
X191240D01*
X190551Y9646D02*
Y11024D01*
X175394Y94882D02*
X176772D01*
X176083Y94193D02*
Y95571D01*
X173524Y98917D02*
X174902D01*
X174213Y98228D02*
Y99606D01*
X202559Y50886D02*
X203937D01*
X203248Y50197D02*
Y51575D01*
X377953Y90551D02*
X379331D01*
X378642Y89862D02*
Y91240D01*
X358268Y85433D02*
X359646D01*
X358957Y84744D02*
Y86122D01*
X374803Y77362D02*
X376181D01*
X375492Y76673D02*
Y78051D01*
X362598Y84744D02*
X363976D01*
X363287Y84055D02*
Y85433D01*
X364469Y79626D02*
X365846D01*
X365158Y78937D02*
Y80315D01*
X343898Y69488D02*
X345276D01*
X344587Y68799D02*
Y70177D01*
X352756Y86221D02*
X354134D01*
X353445Y85532D02*
Y86909D01*
X343701Y97539D02*
X345079D01*
X344390Y96850D02*
Y98228D01*
X329626Y53347D02*
X331004D01*
X330315Y52658D02*
Y54035D01*
X293898Y121653D02*
X295276D01*
X294587Y120965D02*
Y122343D01*
X336910Y133563D02*
X338287D01*
X337598Y132874D02*
Y134252D01*
X273819Y145177D02*
X275197D01*
X274508Y144488D02*
Y145866D01*
X300098Y132677D02*
X301476D01*
X300787Y131988D02*
Y133366D01*
X300886Y137894D02*
X302264D01*
X301575Y137205D02*
Y138583D01*
X245472Y83957D02*
X246850D01*
X246161Y83268D02*
Y84646D01*
X263287Y150591D02*
X264665D01*
X263976Y149902D02*
Y151279D01*
X245079Y153937D02*
X246457D01*
X245768Y153248D02*
Y154626D01*
X305610Y93799D02*
X306988D01*
X306299Y93110D02*
Y94488D01*
X269587Y79921D02*
X270965D01*
X270276Y79232D02*
Y80610D01*
X265158Y86614D02*
X266535D01*
X265846Y85925D02*
Y87303D01*
X277658Y95374D02*
X279035D01*
X278346Y94685D02*
Y96063D01*
X273917Y92126D02*
X275295D01*
X274606Y91437D02*
Y92815D01*
X268307Y115453D02*
X269685D01*
X268996Y114764D02*
Y116142D01*
X263091Y113386D02*
X264469D01*
X263779Y112697D02*
Y114075D01*
X221850Y100197D02*
X223228D01*
X222539Y99508D02*
Y100886D01*
X228150Y102953D02*
X229528D01*
X228839Y102264D02*
Y103642D01*
X274213Y135630D02*
X275590D01*
X274902Y134941D02*
Y136319D01*
X267147Y129605D02*
X268525D01*
X267836Y128916D02*
Y130294D01*
X261910Y127559D02*
X263287D01*
X262598Y126870D02*
Y128248D01*
X256205Y112594D02*
X257583D01*
X256894Y111905D02*
Y113283D01*
X248951Y112860D02*
X250329D01*
X249640Y112171D02*
Y113549D01*
X225984Y162205D02*
X227362D01*
X226673Y161516D02*
Y162894D01*
X232677Y167618D02*
X234055D01*
X233366Y166929D02*
Y168307D01*
X210630Y175394D02*
X212008D01*
X211319Y174705D02*
Y176083D01*
X220374Y78543D02*
X221752D01*
X221063Y77854D02*
Y79232D01*
X211417Y111319D02*
X212795D01*
X212106Y110630D02*
Y112008D01*
X174114Y110925D02*
X175492D01*
X174803Y110236D02*
Y111614D01*
X243799Y72835D02*
X245177D01*
X244488Y72146D02*
Y73524D01*
X406791Y177953D02*
X408169D01*
X407480Y177264D02*
Y178642D01*
X405709Y253445D02*
X407087D01*
X406398Y252756D02*
Y254134D01*
X340453Y240354D02*
X341831D01*
X341142Y239665D02*
Y241043D01*
X332776Y240551D02*
X334154D01*
X333465Y239862D02*
Y241240D01*
X340650Y244291D02*
X342028D01*
X341339Y243602D02*
Y244980D01*
X332874Y244291D02*
X334252D01*
X333563Y243602D02*
Y244980D01*
X322342Y226673D02*
X323721D01*
X323031Y225984D02*
Y227362D01*
X350098Y162106D02*
X351476D01*
X350787Y161417D02*
Y162795D01*
X292323Y181201D02*
X293701D01*
X293012Y180512D02*
Y181890D01*
X292618Y166831D02*
X293996D01*
X293307Y166142D02*
Y167520D01*
X292618Y171850D02*
X293996D01*
X293307Y171161D02*
Y172539D01*
X246949Y227067D02*
X248327D01*
X247638Y226378D02*
Y227756D01*
X246949Y219587D02*
X248327D01*
X247638Y218898D02*
Y220276D01*
X315945Y248622D02*
X317323D01*
X316634Y247933D02*
Y249311D01*
X311122Y259842D02*
X312500D01*
X311811Y259154D02*
Y260531D01*
X233957Y231201D02*
X235335D01*
X234646Y230512D02*
Y231890D01*
X233563Y194882D02*
X234941D01*
X234252Y194193D02*
Y195571D01*
X279921Y71949D02*
X281299D01*
X280610Y71260D02*
Y72638D01*
X305512Y64764D02*
X306890D01*
X306201Y64075D02*
Y65453D01*
X305413Y68701D02*
X306791D01*
X306102Y68012D02*
Y69390D01*
X248327Y38484D02*
X249705D01*
X249016Y37795D02*
Y39173D01*
X222146Y52559D02*
X223524D01*
X222835Y51870D02*
Y53248D01*
X222342Y56693D02*
X223721D01*
X223031Y56004D02*
Y57382D01*
X221555Y61811D02*
X222933D01*
X222244Y61122D02*
Y62500D01*
X221654Y66043D02*
X223031D01*
X222342Y65354D02*
Y66732D01*
X207972Y48425D02*
X209350D01*
X208661Y47736D02*
Y49114D01*
X196260Y98524D02*
X197638D01*
X196949Y97835D02*
Y99213D01*
X162303Y134646D02*
X163681D01*
X162992Y133957D02*
Y135335D01*
X229921Y255217D02*
X231299D01*
X230610Y254528D02*
Y255906D01*
X200197Y255413D02*
X201575D01*
X200886Y254724D02*
Y256102D01*
X158858Y67323D02*
X160236D01*
X159547Y66634D02*
Y68012D01*
X158957Y60728D02*
X160335D01*
X159646Y60039D02*
Y61417D01*
X180413Y105118D02*
X181791D01*
X181102Y104429D02*
Y105807D01*
X200673Y98015D02*
X202051D01*
X201362Y97326D02*
Y98704D01*
X221654Y87106D02*
X223031D01*
X222342Y86417D02*
Y87795D01*
X188386Y144587D02*
X189764D01*
X189075Y143898D02*
Y145276D01*
X173130Y145866D02*
X174508D01*
X173819Y145177D02*
Y146555D01*
X184646Y50394D02*
X186024D01*
X185335Y49705D02*
Y51083D01*
X177854Y50394D02*
X179232D01*
X178543Y49705D02*
Y51083D01*
X158957Y207185D02*
X160335D01*
X159646Y206496D02*
Y207874D01*
X184547Y227854D02*
X185925D01*
X185236Y227165D02*
Y228543D01*
X184055Y220768D02*
X185433D01*
X184744Y220079D02*
Y221457D01*
X172343Y276476D02*
X173721D01*
X173031Y275787D02*
Y277165D01*
X211811Y264567D02*
X213189D01*
X212500Y263878D02*
Y265256D01*
X148327Y287894D02*
X149705D01*
X149016Y287205D02*
Y288583D01*
X148425Y294291D02*
X149803D01*
X149114Y293602D02*
Y294980D01*
X186713Y289469D02*
X188091D01*
X187402Y288779D02*
Y290158D01*
X177559Y289370D02*
X178937D01*
X178248Y288681D02*
Y290059D01*
X168307Y289469D02*
X169685D01*
X168996Y288779D02*
Y290158D01*
X213386Y281594D02*
X214764D01*
X214075Y280906D02*
Y282283D01*
X169193Y206890D02*
X170571D01*
X169882Y206201D02*
Y207579D01*
X159350Y187303D02*
X160728D01*
X160039Y186614D02*
Y187992D01*
X174311Y159744D02*
X175689D01*
X175000Y159055D02*
Y160433D01*
X151279Y155217D02*
X152657D01*
X151969Y154528D02*
Y155905D01*
X143996Y137992D02*
X145374D01*
X144685Y137303D02*
Y138681D01*
X136221Y138287D02*
X137598D01*
X136909Y137598D02*
Y138976D01*
X128642Y137894D02*
X130020D01*
X129331Y137205D02*
Y138583D01*
X120965Y137894D02*
X122343D01*
X121653Y137205D02*
Y138583D01*
X83661Y292323D02*
X85039D01*
X84350Y291634D02*
Y293012D01*
X78543Y292323D02*
X79921D01*
X79232Y291634D02*
Y293012D01*
X26476Y257185D02*
X27854D01*
X27165Y256496D02*
Y257874D01*
X34941Y257185D02*
X36319D01*
X35630Y256496D02*
Y257874D01*
X28051Y203445D02*
X29429D01*
X28740Y202756D02*
Y204134D01*
X34843Y203346D02*
X36024D01*
X35433Y202756D02*
Y203937D01*
X39075Y118701D02*
X40059D01*
X39567Y118209D02*
Y119193D01*
X39173Y123524D02*
X40157D01*
X39665Y123031D02*
Y124016D01*
X39370Y128248D02*
X40354D01*
X39862Y127756D02*
Y128740D01*
X44488Y118701D02*
X45472D01*
X44980Y118209D02*
Y119193D01*
X44488Y123524D02*
X45472D01*
X44980Y123031D02*
Y124016D01*
X44587Y128347D02*
X45571D01*
X45079Y127854D02*
Y128839D01*
X87205Y101673D02*
X88386D01*
X87795Y101083D02*
Y102264D01*
X87205Y94587D02*
X88386D01*
X87795Y93996D02*
Y95177D01*
X87205Y87106D02*
X88386D01*
X87795Y86516D02*
Y87697D01*
X87303Y80118D02*
X88484D01*
X87894Y79528D02*
Y80709D01*
X87402Y70177D02*
X88583D01*
X87992Y69587D02*
Y70768D01*
X81890Y70079D02*
X83071D01*
X82480Y69488D02*
Y70669D01*
X81791Y80020D02*
X82972D01*
X82382Y79429D02*
Y80610D01*
X81693Y87008D02*
X82874D01*
X82284Y86417D02*
Y87598D01*
X81693Y94488D02*
X82874D01*
X82284Y93898D02*
Y95079D01*
X81693Y101575D02*
X82874D01*
X82284Y100984D02*
Y102165D01*
X44783Y93287D02*
X45571D01*
X45177Y92894D02*
Y93681D01*
X40453Y93287D02*
X41240D01*
X40846Y92894D02*
Y93681D01*
X36122Y93287D02*
X36909D01*
X36516Y92894D02*
Y93681D01*
X44783Y97618D02*
X45571D01*
X45177Y97224D02*
Y98012D01*
X40453Y97618D02*
X41240D01*
X40846Y97224D02*
Y98012D01*
X36122Y97618D02*
X36909D01*
X36516Y97224D02*
Y98012D01*
X44783Y101949D02*
X45571D01*
X45177Y101555D02*
Y102342D01*
X40453Y101949D02*
X41240D01*
X40846Y101555D02*
Y102342D01*
X36122Y101949D02*
X36909D01*
X36516Y101555D02*
Y102342D01*
X44783Y106280D02*
X45571D01*
X45177Y105886D02*
Y106673D01*
X40453Y106280D02*
X41240D01*
X40846Y105886D02*
Y106673D01*
X36122Y106280D02*
X36909D01*
X36516Y105886D02*
Y106673D01*
M02*
