%TF.GenerationSoftware,Altium Limited,Altium Designer,24.10.1 (45)*%
G04 Layer_Color=128*
%FSLAX45Y45*%
%MOMM*%
%TF.SameCoordinates,E1515796-6FB3-4C94-B68D-87BC939BF7D9*%
%TF.FilePolarity,Positive*%
%TF.FileFunction,Paste,Bot*%
%TF.Part,Single*%
G01*
G75*
%TA.AperFunction,SMDPad,CuDef*%
%ADD118R,0.57600X0.67600*%
%ADD121R,0.67600X0.57600*%
%ADD122R,0.71600X0.67600*%
%ADD124R,5.15600X2.49100*%
%ADD131R,0.67600X0.71600*%
%ADD136R,0.97600X1.07600*%
%TA.AperFunction,ConnectorPad*%
%ADD138R,5.15600X2.49100*%
%TA.AperFunction,SMDPad,CuDef*%
%ADD143R,0.47600X0.37600*%
%ADD175R,0.37600X0.47600*%
D118*
X5817500Y4945000D02*
D03*
X5717500D02*
D03*
X4567500Y1100000D02*
D03*
X4667500D02*
D03*
D121*
X6732500Y5990000D02*
D03*
Y5890000D02*
D03*
X6882500Y5890000D02*
D03*
Y5990000D02*
D03*
D122*
X6057500Y4173500D02*
D03*
Y4261500D02*
D03*
X6175000Y4173500D02*
D03*
Y4261500D02*
D03*
X5620000Y4122500D02*
D03*
Y4210500D02*
D03*
X4345000Y3964000D02*
D03*
Y3876000D02*
D03*
X4280000Y2723500D02*
D03*
Y2811500D02*
D03*
D124*
X10475000Y1064200D02*
D03*
Y1940800D02*
D03*
D131*
X5158500Y1112500D02*
D03*
X5246500D02*
D03*
X5413500Y2492500D02*
D03*
X5501500D02*
D03*
X5408500Y2360000D02*
D03*
X5496500D02*
D03*
X5408500Y2235000D02*
D03*
X5496500D02*
D03*
X5424000Y2990000D02*
D03*
X5335999D02*
D03*
D136*
X5810000Y6270001D02*
D03*
X5945000D02*
D03*
X4825000Y6267501D02*
D03*
X4960000D02*
D03*
D138*
X10490000Y2661700D02*
D03*
Y3538300D02*
D03*
D143*
X6920000Y1035000D02*
D03*
X7010000D02*
D03*
D175*
X5110000Y2360000D02*
D03*
Y2270000D02*
D03*
X4992500Y2352500D02*
D03*
Y2262500D02*
D03*
%TF.MD5,cec1aa3b9df868b78879e23226926810*%
M02*
