%TF.GenerationSoftware,Altium Limited,Altium Designer,24.10.1 (45)*%
G04 Layer_Physical_Order=2*
G04 Layer_Color=32768*
%FSLAX45Y45*%
%MOMM*%
%TF.SameCoordinates,E1515796-6FB3-4C94-B68D-87BC939BF7D9*%
%TF.FilePolarity,Negative*%
%TF.FileFunction,Copper,L2,Inr,Plane*%
%TF.Part,Single*%
G01*
G75*
%TA.AperFunction,NonConductor*%
%ADD82C,1.01600*%
%ADD83R,36.17500X77.22500*%
%TA.AperFunction,ComponentPad*%
%ADD84C,1.70800*%
G04:AMPARAMS|DCode=85|XSize=2.724mm|YSize=2.724mm|CornerRadius=0mm|HoleSize=0mm|Usage=FLASHONLY|Rotation=0.000|XOffset=0mm|YOffset=0mm|HoleType=Round|Shape=Relief|Width=0.254mm|Gap=0.254mm|Entries=4|*
%AMTHD85*
7,0,0,2.72400,2.21600,0.25400,45*
%
%ADD85THD85*%
%ADD86R,1.10800X2.10800*%
%ADD87C,4.40800*%
%TA.AperFunction,ViaPad*%
%ADD88C,4.00800*%
%TA.AperFunction,ComponentPad*%
%ADD89C,1.80340*%
%ADD90C,0.70800*%
%ADD91C,1.40800*%
%TA.AperFunction,ViaPad*%
%ADD92C,1.21920*%
G04:AMPARAMS|DCode=93|XSize=2.2352mm|YSize=2.2352mm|CornerRadius=0mm|HoleSize=0mm|Usage=FLASHONLY|Rotation=0.000|XOffset=0mm|YOffset=0mm|HoleType=Round|Shape=Relief|Width=0.254mm|Gap=0.254mm|Entries=4|*
%AMTHD93*
7,0,0,2.23520,1.72720,0.25400,45*
%
%ADD93THD93*%
%ADD94C,0.85800*%
G04:AMPARAMS|DCode=95|XSize=1.874mm|YSize=1.874mm|CornerRadius=0mm|HoleSize=0mm|Usage=FLASHONLY|Rotation=0.000|XOffset=0mm|YOffset=0mm|HoleType=Round|Shape=Relief|Width=0.254mm|Gap=0.254mm|Entries=4|*
%AMTHD95*
7,0,0,1.87400,1.36600,0.25400,45*
%
%ADD95THD95*%
%ADD96C,0.80800*%
%ADD97C,0.75800*%
%ADD98C,0.70800*%
D82*
X137000Y7770000D02*
G03*
X10000Y7643000I0J-127000D01*
G01*
X10790000D02*
G03*
X10663000Y7770000I-127000J0D01*
G01*
Y0D02*
G03*
X10790000Y127000I0J127000D01*
G01*
X10000D02*
G03*
X137000Y0I127000J0D01*
G01*
X10000Y127000D02*
Y7643000D01*
X137000Y7770000D02*
X10663000D01*
X10790000Y127000D02*
Y7643000D01*
X137000Y0D02*
X10663000D01*
D83*
X1858750Y3873750D02*
D03*
D84*
X8802500Y819000D02*
D03*
X8548500D02*
D03*
X8294500D02*
D03*
X8040500D02*
D03*
X7786500D02*
D03*
X7532500D02*
D03*
X7278500D02*
D03*
X7024500D02*
D03*
X6770500D02*
D03*
X6516500D02*
D03*
X8802500Y565000D02*
D03*
X3038000Y7265000D02*
D03*
X3546000D02*
D03*
X2784000D02*
D03*
X3292000D02*
D03*
D85*
X6516500Y565000D02*
D03*
X6770500D02*
D03*
X7024500D02*
D03*
X7278500D02*
D03*
X7532500D02*
D03*
X7786500D02*
D03*
X8040500D02*
D03*
X8294500D02*
D03*
X8548500D02*
D03*
D86*
X3652500Y375001D02*
D03*
X1762500D02*
D03*
D87*
X3252500Y1315000D02*
D03*
X2162500D02*
D03*
D88*
X10390000Y7360000D02*
D03*
X400000D02*
D03*
Y400000D02*
D03*
X10390000D02*
D03*
D89*
X445000Y5420001D02*
D03*
Y5770521D02*
D03*
X477500Y4337501D02*
D03*
Y3986981D02*
D03*
X1625520Y7447500D02*
D03*
X1275000D02*
D03*
D90*
X1105000Y4402501D02*
D03*
X1235000D02*
D03*
X1105000Y4272501D02*
D03*
X1235000D02*
D03*
X1105000Y4142501D02*
D03*
X1235000D02*
D03*
X1105000Y4012501D02*
D03*
X1235000D02*
D03*
X1152500Y5797501D02*
D03*
X1282500D02*
D03*
X1152500Y5667501D02*
D03*
X1282500D02*
D03*
X1152500Y5537500D02*
D03*
X1282500D02*
D03*
X1152500Y5407500D02*
D03*
X1282500D02*
D03*
X1737500Y6790000D02*
D03*
Y6660000D02*
D03*
X1607500Y6790000D02*
D03*
Y6660000D02*
D03*
X1477500Y6790000D02*
D03*
Y6660000D02*
D03*
X1347500Y6790000D02*
D03*
Y6660000D02*
D03*
D91*
X4757500Y527500D02*
D03*
X5197500D02*
D03*
D92*
X2710000Y960000D02*
D03*
X710000Y1960000D02*
D03*
X2960000Y460000D02*
D03*
X1710000Y4960000D02*
D03*
Y5960000D02*
D03*
X2210000Y2960000D02*
D03*
X2460000Y6460000D02*
D03*
X1460000Y460000D02*
D03*
X2460000Y4460000D02*
D03*
X3210000Y2960000D02*
D03*
X710000Y960000D02*
D03*
X2460000Y460000D02*
D03*
X460000Y2460000D02*
D03*
X3210000Y4960000D02*
D03*
X460000Y1460000D02*
D03*
X1210000Y960000D02*
D03*
Y1960000D02*
D03*
X1960000Y460000D02*
D03*
X2460000Y5460000D02*
D03*
X1710000Y3960000D02*
D03*
X2960000Y1460000D02*
D03*
X2210000Y4960000D02*
D03*
X2960000Y6460000D02*
D03*
X960000Y460000D02*
D03*
X1460000Y1460000D02*
D03*
X1710000Y960000D02*
D03*
X2710000Y2960000D02*
D03*
X1960000Y4460000D02*
D03*
X3210000Y960000D02*
D03*
X960000Y1460000D02*
D03*
X3210000Y1960000D02*
D03*
X2960000Y5460000D02*
D03*
D93*
X10590809Y1712819D02*
D03*
X10390809D02*
D03*
X10190935Y1705717D02*
D03*
X10009264Y1622076D02*
D03*
X9809264D02*
D03*
X9609264D02*
D03*
X9209264Y1622067D02*
D03*
X9208138Y1357935D02*
D03*
X9408138Y1357924D02*
D03*
X9608138D02*
D03*
X9808138D02*
D03*
X10008138D02*
D03*
X10198376Y1296201D02*
D03*
X10398335Y1292181D02*
D03*
X10598335D02*
D03*
X9155564Y3142373D02*
D03*
X8996107Y2980810D02*
D03*
X8805382Y2857713D02*
D03*
X8582146Y2898876D02*
D03*
X9019300Y2588698D02*
D03*
X9342364Y2907661D02*
D03*
X9413324Y3288207D02*
D03*
X10548270Y3323936D02*
D03*
X10321270D02*
D03*
X10099790Y3274180D02*
D03*
X9872790D02*
D03*
X9646486Y3291936D02*
D03*
X9662082Y2908064D02*
D03*
X9888386Y2925820D02*
D03*
X10115386D02*
D03*
X10336866Y2876064D02*
D03*
X10563866D02*
D03*
D94*
X4124377Y2085000D02*
D03*
X6550000Y6215000D02*
D03*
X7042500Y6747500D02*
D03*
X6480000Y6472500D02*
D03*
X6695000Y6612500D02*
D03*
X7000000Y5890000D02*
D03*
X6885000Y6105000D02*
D03*
X6872500Y6295000D02*
D03*
X4472500Y2410000D02*
D03*
X9117500Y2170000D02*
D03*
X9227500Y2152500D02*
D03*
X8752500Y1765000D02*
D03*
X8977500Y2190000D02*
D03*
X8747500Y2477500D02*
D03*
X7482500Y3090000D02*
D03*
X6972500Y3687500D02*
D03*
X7640000Y3370000D02*
D03*
X7660000Y3502500D02*
D03*
X6252500Y2132500D02*
D03*
X6705000Y3825000D02*
D03*
X6242500Y3910000D02*
D03*
X6865000Y2030000D02*
D03*
X6752500Y2200000D02*
D03*
X7070000Y2422500D02*
D03*
X6975000Y2340000D02*
D03*
X6832500Y2932500D02*
D03*
X6700000Y2880000D02*
D03*
X5652500Y2545000D02*
D03*
X5812500Y2615000D02*
D03*
X6982500Y3445000D02*
D03*
X6803030Y3291970D02*
D03*
X6670000Y3240000D02*
D03*
X6525105Y2859895D02*
D03*
X6340852Y2866648D02*
D03*
X5757500Y4120000D02*
D03*
X5367500Y4455000D02*
D03*
X5387500Y2827500D02*
D03*
X4440000Y2817500D02*
D03*
X8205000Y5757500D02*
D03*
X7450000Y4237500D02*
D03*
Y4365000D02*
D03*
X6290000Y5577500D02*
D03*
X8042500Y6315000D02*
D03*
X5950000Y4950000D02*
D03*
X7777500Y1645000D02*
D03*
X7775000Y1745000D02*
D03*
X6325000Y977500D02*
D03*
X5660000Y1335000D02*
D03*
X5665000Y1440000D02*
D03*
X5645000Y1570000D02*
D03*
X5647500Y1677500D02*
D03*
X5300000Y1230000D02*
D03*
X5002500Y2502500D02*
D03*
X4140000Y3420000D02*
D03*
X5857500Y6482500D02*
D03*
X5102500Y6487500D02*
D03*
X4055000Y1542500D02*
D03*
X4600000Y2670000D02*
D03*
X5114590Y2489590D02*
D03*
X5647500Y2212500D02*
D03*
X4802500Y3672500D02*
D03*
X4707500Y1280000D02*
D03*
X4535000D02*
D03*
X4055000Y5262500D02*
D03*
X4692500Y5607500D02*
D03*
X4395000Y7022500D02*
D03*
X5397500Y6720000D02*
D03*
X4445000Y4057500D02*
D03*
X3675000Y3505000D02*
D03*
X3477500Y3512500D02*
D03*
X3285000Y3502500D02*
D03*
X3090000D02*
D03*
X2142500Y7425000D02*
D03*
X2012500D02*
D03*
X690000Y6532500D02*
D03*
X905000D02*
D03*
X730000Y5167500D02*
D03*
D95*
X7250000Y6097500D02*
D03*
X5235000Y795000D02*
D03*
X4500000Y550000D02*
D03*
X5450000Y532500D02*
D03*
X5027500Y262500D02*
D03*
X4840000D02*
D03*
X4425000Y2512500D02*
D03*
X5162500Y1292500D02*
D03*
X9617500Y2300000D02*
D03*
X9537500Y1965000D02*
D03*
X9275000Y2022500D02*
D03*
X8390000Y1355000D02*
D03*
X8575000Y3392500D02*
D03*
X7780000Y2382500D02*
D03*
X5927500Y4257500D02*
D03*
X5615000Y1995000D02*
D03*
X6210000Y1850000D02*
D03*
X10350000Y4520000D02*
D03*
X10322500Y6437500D02*
D03*
X8665000Y6105000D02*
D03*
X8470000Y6110000D02*
D03*
X8670000Y6205000D02*
D03*
X8472500D02*
D03*
X8910000Y4117500D02*
D03*
X7442500Y4602500D02*
D03*
X6290000Y5767500D02*
D03*
X7920000Y6600000D02*
D03*
X5960000Y5872500D02*
D03*
X7127500Y1827500D02*
D03*
X4052500Y1710000D02*
D03*
X4415000Y3705000D02*
D03*
X4705000Y5787500D02*
D03*
X3785000Y7312500D02*
D03*
X3787500Y7475000D02*
D03*
X4760000Y7352500D02*
D03*
X4527500Y7350000D02*
D03*
X4292500Y7352500D02*
D03*
X5437500Y7152500D02*
D03*
X4315000Y5255000D02*
D03*
X4065000Y4757500D02*
D03*
X3860000Y3942500D02*
D03*
D96*
X900000Y5165000D02*
D03*
X2230000Y2582500D02*
D03*
Y2402500D02*
D03*
Y2212500D02*
D03*
X2232500Y2035000D02*
D03*
X2235000Y1782500D02*
D03*
X2095000Y1780000D02*
D03*
X2092500Y2032500D02*
D03*
X2090000Y2210000D02*
D03*
Y2400000D02*
D03*
Y2580000D02*
D03*
D97*
X1005000Y3015000D02*
D03*
X1007500Y3137500D02*
D03*
X1012500Y3257500D02*
D03*
X1142500Y3015000D02*
D03*
Y3137500D02*
D03*
X1145000Y3260000D02*
D03*
D98*
X1147500Y2369500D02*
D03*
X1037500D02*
D03*
X927500D02*
D03*
X1147500Y2479500D02*
D03*
X1037500D02*
D03*
X927500D02*
D03*
X1147500Y2589500D02*
D03*
X1037500D02*
D03*
X927500D02*
D03*
X1147500Y2699500D02*
D03*
X1037500D02*
D03*
X927500D02*
D03*
%TF.MD5,342395f6afe200d691ce70ec7b8b4e09*%
M02*
