%TF.GenerationSoftware,Altium Limited,Altium Designer,24.10.1 (45)*%
G04 Layer_Color=65535*
%FSLAX45Y45*%
%MOMM*%
%TF.SameCoordinates,E1515796-6FB3-4C94-B68D-87BC939BF7D9*%
%TF.FilePolarity,Positive*%
%TF.FileFunction,Legend,Top*%
%TF.Part,Single*%
G01*
G75*
%TA.AperFunction,NonConductor*%
%ADD105C,0.25000*%
%ADD106C,0.60000*%
%ADD107C,0.00000*%
%ADD108C,0.15240*%
%ADD109C,0.20000*%
%ADD110C,0.81280*%
%ADD111C,0.15000*%
%ADD112C,0.20320*%
%ADD113C,0.12700*%
%ADD114C,0.25400*%
%ADD115C,0.15300*%
G36*
X1437500Y2254500D02*
X1397500D01*
Y2264500D01*
X1427500Y2294500D01*
X1437500D01*
X1437500Y2254500D01*
D02*
G37*
G36*
X2337500Y4012500D02*
X2367499Y4020000D01*
Y4005000D01*
X2337500Y3975000D01*
X2317500D01*
X2337500Y4012500D01*
D02*
G37*
D105*
X5205000Y2290000D02*
G03*
X5205000Y2290000I-12500J0D01*
G01*
X6112500Y5402501D02*
G03*
X6112500Y5402501I-12500J0D01*
G01*
X2200000Y4045000D02*
G03*
X2200000Y4045000I-12500J0D01*
G01*
X1572500Y2612500D02*
G03*
X1572500Y2612500I-12500J0D01*
G01*
X1500000Y2284500D02*
G03*
X1500000Y2284500I-12500J0D01*
G01*
D106*
X5065000Y2072500D02*
G03*
X5065000Y2072500I-30000J0D01*
G01*
X5985000Y5172501D02*
G03*
X5985000Y5172501I-30000J0D01*
G01*
D107*
X7062700Y6535000D02*
G03*
X7062700Y6535000I-12700J0D01*
G01*
D108*
X8618160Y4422660D02*
G03*
X8618160Y4422660I-10160J0D01*
G01*
X8743940Y2051481D02*
G03*
X8728700Y2051481I-7620J0D01*
G01*
D02*
G03*
X8743940Y2051481I7620J0D01*
G01*
X9365443Y2303768D02*
G03*
X9340044Y2303990I-12943J-27756D01*
G01*
X7287200Y2647200D02*
Y4272800D01*
Y2647200D02*
X7511736D01*
X8912800D02*
Y4272800D01*
X8688264D02*
X8912800D01*
X7287200D02*
X7511736D01*
X8688264Y2647200D02*
X8912800D01*
X8873480Y2125141D02*
X9066520D01*
X8873480Y1789861D02*
X9066520D01*
D109*
X7382500Y2420001D02*
G03*
X7382500Y2420001I-10000J0D01*
G01*
X2322500Y3975000D02*
G03*
X2367499Y4020000I0J45000D01*
G01*
X1587000Y4017001D02*
G03*
X1587000Y4017001I-10000J0D01*
G01*
X1634500Y5412001D02*
G03*
X1634500Y5412001I-10000J0D01*
G01*
X1362000Y6318000D02*
G03*
X1362000Y6318000I-10000J0D01*
G01*
X1437500Y2294500D02*
G03*
X1397500Y2254500I0J-40000D01*
G01*
X4565000Y2172500D02*
X5135000D01*
X4565000Y1602500D02*
X5135000D01*
Y2172500D01*
X4565000Y1602500D02*
Y2172500D01*
X9695000Y2990000D02*
Y3020000D01*
X9235000Y2990000D02*
X9695000D01*
X9235000D02*
Y3020000D01*
Y3180000D02*
Y3210000D01*
X9695000D01*
Y3180000D02*
Y3210000D01*
X9465000Y2990000D02*
Y3210000D01*
X5482500Y3145000D02*
Y3237501D01*
Y2752500D02*
Y2845000D01*
X4327500Y2752500D02*
Y2845000D01*
Y3145000D02*
Y3237501D01*
Y2752500D02*
X5482500D01*
X4327500Y3237501D02*
X5482500D01*
X4805000Y4022501D02*
Y5272501D01*
X6055000Y4022501D02*
Y5272501D01*
X4805000Y4022501D02*
X6055000D01*
X4805000Y5272501D02*
X6055000D01*
X6014511Y221981D02*
Y1131984D01*
Y221981D02*
X9304514D01*
Y1131984D01*
X6014511D02*
X9304514D01*
X8909500Y892000D02*
Y942000D01*
X8859500D02*
X8909500D01*
X7884500Y1067000D02*
Y1131984D01*
X7434500Y1067000D02*
X7884500D01*
X7434500D02*
Y1131984D01*
X2339999Y4020000D02*
X2687499D01*
X2317500Y3997500D02*
X2339999Y4020000D01*
X2317500Y3350000D02*
Y3997500D01*
Y3975000D02*
X2322500D01*
X2317500Y3350000D02*
X2687499D01*
Y4020000D01*
X4185001Y7549600D02*
X4820001D01*
X4832701Y7143200D02*
Y7371800D01*
X4172301Y7143200D02*
Y7371800D01*
X4185001Y6965400D02*
X4820001D01*
X-342400Y5175261D02*
X572000D01*
X-342400D02*
Y6015261D01*
X572000D01*
Y5175261D02*
Y6015261D01*
X2657000Y6985600D02*
X3673000D01*
X3571400D02*
Y7036400D01*
X2758600D02*
X3571400D01*
X2758600Y6985600D02*
Y7036400D01*
X2657000Y6985600D02*
Y7544400D01*
X3673000D01*
Y6985600D02*
Y7544400D01*
X7810000Y4552500D02*
X7975000D01*
X7925000Y4372500D02*
X7975000D01*
Y4732500D01*
X7925000D02*
X7975000D01*
X7810000Y4372500D02*
X7860000D01*
X7810000D02*
Y4732500D01*
X7860000D01*
X8342500Y5875000D02*
X8507500D01*
X8457500Y5695000D02*
X8507500D01*
Y6055000D01*
X8457500D02*
X8507500D01*
X8342500Y5695000D02*
X8392500D01*
X8342500D02*
Y6055000D01*
X8392500D01*
X4807500Y6515001D02*
X5962500D01*
X4807500Y6030001D02*
X5962500D01*
X4807500Y6422501D02*
Y6515001D01*
Y6030001D02*
Y6122501D01*
X5962500Y6030001D02*
Y6122501D01*
Y6422501D02*
Y6515001D01*
X2172500Y7097500D02*
Y7317500D01*
X1942500Y7257500D02*
Y7317500D01*
X2402500D01*
Y7257500D02*
Y7317500D01*
X1942500Y7097500D02*
Y7157500D01*
Y7097500D02*
X2402500D01*
Y7157500D01*
X604500Y3742241D02*
Y4582241D01*
X-309900D02*
X604500D01*
X-309900Y3742241D02*
Y4582241D01*
Y3742241D02*
X604500D01*
X1030260Y7320500D02*
X1870260D01*
Y8234900D01*
X1030260D02*
X1870260D01*
X1030260Y7320500D02*
Y8234900D01*
X517500Y4632500D02*
X577500D01*
X517500D02*
Y5092500D01*
X577500D01*
X677500Y4632500D02*
X737500D01*
Y5092500D01*
X677500D02*
X737500D01*
X517500Y4862500D02*
X737500D01*
X965000Y4702500D02*
Y4827500D01*
X835000Y4797500D02*
Y4827500D01*
X1095000D01*
Y4797500D02*
Y4827500D01*
X835000Y4702500D02*
Y4732500D01*
Y4702500D02*
X1095000D01*
Y4732500D01*
X305000Y6370000D02*
Y6430000D01*
X765000D01*
Y6370000D02*
Y6430000D01*
X305000Y6210000D02*
Y6270000D01*
Y6210000D02*
X765000D01*
Y6270000D01*
X535000Y6210000D02*
Y6430000D01*
X985000Y6085001D02*
Y6210001D01*
X855000Y6180001D02*
Y6210001D01*
X1115000D01*
Y6180001D02*
Y6210001D01*
X855000Y6085001D02*
Y6115000D01*
Y6085001D02*
X1115000D01*
Y6115000D01*
X2015000Y6740000D02*
Y6865000D01*
X1885000Y6835000D02*
Y6865000D01*
X2145000D01*
Y6835000D02*
Y6865000D01*
X1885000Y6740000D02*
Y6770000D01*
Y6740000D02*
X2145000D01*
Y6770000D01*
X5472800Y400500D02*
Y616400D01*
X4482200Y400500D02*
Y616400D01*
X5193400Y883100D02*
X5295000D01*
X4660000D02*
X4761600D01*
X5472800Y-56700D02*
Y83000D01*
X4482200Y-56700D02*
X5472800D01*
X4482200D02*
Y83000D01*
X1732500Y3665000D02*
X1762500D01*
Y3405000D02*
Y3665000D01*
X1732500Y3405000D02*
X1762500D01*
X1637500Y3665000D02*
X1667500D01*
X1637500Y3405000D02*
Y3665000D01*
Y3405000D02*
X1667500D01*
X1637500Y3535000D02*
X1762500D01*
X3502500Y3877500D02*
X3532500D01*
Y3617500D02*
Y3877500D01*
X3502500Y3617500D02*
X3532500D01*
X3407500Y3877500D02*
X3437500D01*
X3407500Y3617500D02*
Y3877500D01*
Y3617500D02*
X3437500D01*
X3407500Y3747500D02*
X3532500D01*
X3662500Y3886300D02*
Y3916300D01*
Y3796300D02*
Y3816300D01*
X3612500Y3886300D02*
X3702500D01*
X3612500D02*
X3662500Y3816300D01*
X3702500Y3886300D01*
X3612500Y3816300D02*
X3712500D01*
X1977500Y2950000D02*
Y3080000D01*
X1237500Y2950000D02*
X1977500D01*
X1962500Y3080000D02*
X1977500D01*
X1962500Y2950000D02*
Y3080000D01*
Y3180000D02*
Y3310000D01*
Y3180000D02*
X1977500D01*
X1237500Y2950000D02*
Y2982500D01*
X1977500Y3180000D02*
Y3310000D01*
X1237500Y3277500D02*
Y3310000D01*
X1977500D01*
X1637500Y3080000D02*
Y3180000D01*
X1567500Y3170000D02*
X1637500Y3130000D01*
X1567500Y3080000D02*
X1637500Y3130000D01*
X1567500Y3080000D02*
Y3170000D01*
X1637500Y3130000D02*
X1657500D01*
X1537500D02*
X1567500D01*
X1780000Y2272500D02*
Y2482500D01*
X2010000Y2262500D02*
Y2322501D01*
X1550000Y2262500D02*
X2010000D01*
X1550000D02*
Y2322501D01*
X2010000Y2422500D02*
Y2482500D01*
X1550000D02*
X2010000D01*
X1550000Y2422500D02*
Y2482500D01*
X1777500Y1977500D02*
Y2187500D01*
X2007500Y1967500D02*
Y2027500D01*
X1547500Y1967500D02*
X2007500D01*
X1547500D02*
Y2027500D01*
X2007500Y2127500D02*
Y2187500D01*
X1547500D02*
X2007500D01*
X1547500Y2127500D02*
Y2187500D01*
X1780000Y1675000D02*
Y1885001D01*
X2010000Y1665000D02*
Y1725001D01*
X1550000Y1665000D02*
X2010000D01*
X1550000D02*
Y1725001D01*
X2010000Y1825000D02*
Y1885001D01*
X1550000D02*
X2010000D01*
X1550000Y1825000D02*
Y1885001D01*
X1590000Y2670000D02*
Y2720000D01*
X1615000D01*
X1760000Y2670000D02*
Y2720000D01*
X1735000D02*
X1760000D01*
X2347500Y2492400D02*
X3090800D01*
Y2540001D01*
X2347500Y2492400D02*
Y2632100D01*
X3090800Y2775001D02*
Y2822600D01*
X2347500Y2632100D02*
X2366900D01*
Y2492400D02*
Y2632100D01*
Y2682900D02*
Y2822600D01*
X2347500Y2682900D02*
X2366900D01*
X2347500Y2822600D02*
X3090800D01*
X2347500Y2682900D02*
Y2822600D01*
X2682500Y2607500D02*
Y2707500D01*
Y2657500D02*
X2752500Y2617500D01*
X2682500Y2657500D02*
X2752500Y2707500D01*
Y2617500D02*
Y2707500D01*
X2672500Y2657500D02*
X2682500D01*
X2752500D02*
X2772500D01*
X1437500Y2254500D02*
Y2294500D01*
X1118500Y2254500D02*
X1437500D01*
X787500D02*
X1118500D01*
X787500D02*
Y2294500D01*
Y2790000D02*
Y2814500D01*
X1118500D01*
X1427500Y2790000D02*
Y2814500D01*
X1118500D02*
X1427500D01*
X1437500Y2294500D02*
X1437500D01*
X2592500Y2210000D02*
Y2420000D01*
X2362500Y2370000D02*
Y2430000D01*
X2822500D01*
Y2370000D02*
Y2430000D01*
X2362500Y2210000D02*
Y2270001D01*
Y2210000D02*
X2822500D01*
Y2270001D01*
X2585000Y1932500D02*
Y2142500D01*
X2355000Y2092500D02*
Y2152500D01*
X2815000D01*
Y2092500D02*
Y2152500D01*
X2355000Y1932500D02*
Y1992500D01*
Y1932500D02*
X2815000D01*
Y1992500D01*
X2580000Y1652500D02*
Y1862500D01*
X2350000Y1812500D02*
Y1872500D01*
X2810000D01*
Y1812500D02*
Y1872500D01*
X2350000Y1652500D02*
Y1712501D01*
Y1652500D02*
X2810000D01*
Y1712501D01*
X8850000Y4617500D02*
X10449999D01*
X8850000Y6317500D02*
X10449999D01*
X8850000Y4617500D02*
Y6317500D01*
X10449999Y4617500D02*
Y6317500D01*
X5990400Y1587500D02*
Y2222500D01*
X6168200Y2235200D02*
X6396800D01*
X6168200Y1574800D02*
X6396800D01*
X6574600Y1587500D02*
Y2222500D01*
D110*
X9134199Y6167500D02*
G03*
X9134199Y6167500I-10000J0D01*
G01*
D111*
X6645000Y6364200D02*
Y6465800D01*
X6745000Y6364200D02*
Y6376900D01*
X6545000Y6364200D02*
X6745000D01*
X6545000D02*
Y6376900D01*
Y6453100D02*
Y6465800D01*
X6745000D01*
Y6453100D02*
Y6465800D01*
X7850000Y6527500D02*
X7880000D01*
X7850000Y6247500D02*
Y6527500D01*
Y6247500D02*
X7880000D01*
X7960000D02*
X7990000D01*
Y6527500D01*
X7960000D02*
X7990000D01*
X7850000Y6387500D02*
X7990000D01*
X6816700Y6602500D02*
X6918300D01*
X6816700Y6502500D02*
X6829400D01*
X6816700D02*
Y6702500D01*
X6829400D01*
X6905600D02*
X6918300D01*
Y6502500D02*
Y6702500D01*
X6905600Y6502500D02*
X6918300D01*
X7725000Y6467500D02*
X7745000D01*
X7725000Y6267500D02*
Y6467500D01*
Y6267500D02*
X7745000D01*
X7805000D02*
X7825000D01*
Y6467500D01*
X7805000D02*
X7825000D01*
X4800000Y2525000D02*
Y2545000D01*
X4600000D02*
X4800000D01*
X4600000Y2525000D02*
Y2545000D01*
Y2445000D02*
Y2465000D01*
Y2445000D02*
X4800000D01*
Y2465000D01*
X4167500Y1732500D02*
X4187500D01*
X4167500Y1532500D02*
Y1732500D01*
Y1532500D02*
X4187500D01*
X4247500D02*
X4267500D01*
Y1732500D01*
X4247500D02*
X4267500D01*
X4470000Y4730600D02*
Y4743300D01*
X4270000D02*
X4470000D01*
X4270000Y4730600D02*
Y4743300D01*
Y4641700D02*
Y4654400D01*
Y4641700D02*
X4470000D01*
Y4654400D01*
X4370000Y4641700D02*
Y4743300D01*
X1132500Y6357500D02*
Y6387500D01*
X852500D02*
X1132500D01*
X852500Y6357500D02*
Y6387500D01*
Y6247500D02*
Y6277500D01*
Y6247500D02*
X1132500D01*
Y6277500D01*
X992500Y6247500D02*
Y6387500D01*
X7750000Y4580000D02*
X7770000D01*
Y4380000D02*
Y4580000D01*
X7750000Y4380000D02*
X7770000D01*
X7670000D02*
X7690000D01*
X7670000D02*
Y4580000D01*
X7690000D01*
X7615000Y4577500D02*
X7635000D01*
Y4377500D02*
Y4577500D01*
X7615000Y4377500D02*
X7635000D01*
X7535000D02*
X7555000D01*
X7535000D02*
Y4577500D01*
X7555000D01*
X8547500Y5977500D02*
X8577500D01*
X8547500Y5697500D02*
Y5977500D01*
Y5697500D02*
X8577500D01*
X8657500D02*
X8687500D01*
Y5977500D01*
X8657500D02*
X8687500D01*
X8547500Y5837500D02*
X8687500D01*
X9277500Y1660000D02*
Y1677500D01*
Y1660000D02*
X9517500D01*
Y1677500D01*
Y1767500D02*
Y1785000D01*
X9277500D02*
X9517500D01*
X9277500Y1767500D02*
Y1785000D01*
X9397500Y1660000D02*
Y1785000D01*
X9075000Y2262500D02*
Y2342500D01*
X8990000Y2261700D02*
Y2274400D01*
Y2261700D02*
X9160000D01*
Y2274400D01*
Y2330600D02*
Y2343300D01*
X8990000D02*
X9160000D01*
X8990000Y2330600D02*
Y2343300D01*
X9305000Y1816700D02*
Y1918300D01*
X9205000Y1905600D02*
Y1918300D01*
X9405000D01*
Y1905600D02*
Y1918300D01*
Y1816700D02*
Y1829400D01*
X9205000Y1816700D02*
X9405000D01*
X9205000D02*
Y1829400D01*
X9285000Y1452500D02*
X9305000D01*
X9285000D02*
Y1612500D01*
X9305000D01*
X9365000Y1452500D02*
X9385000D01*
Y1612500D01*
X9365000D02*
X9385000D01*
X9285000Y1532500D02*
X9385000D01*
X9246000Y1440001D02*
Y1460001D01*
X9046000Y1440001D02*
X9246000D01*
X9046000D02*
Y1460001D01*
Y1520001D02*
Y1540001D01*
X9246000D01*
Y1520001D02*
Y1540001D01*
X9016000Y1442501D02*
Y1462501D01*
X8816000Y1442501D02*
X9016000D01*
X8816000D02*
Y1462501D01*
Y1522501D02*
Y1542501D01*
X9016000D01*
Y1522501D02*
Y1542501D01*
X8932500Y1605000D02*
Y1725000D01*
X8782500D02*
X9082500D01*
Y1705800D02*
Y1725000D01*
X8782500Y1705800D02*
Y1725000D01*
Y1605000D02*
Y1624200D01*
Y1605000D02*
X9082500D01*
Y1624200D01*
X7202500Y1842500D02*
Y1872500D01*
Y1842500D02*
X7382500D01*
Y1872500D01*
X7202500Y1912500D02*
Y1942500D01*
X7382500D01*
Y1912500D02*
Y1942500D01*
X7292500Y1842500D02*
Y1942500D01*
X7195000Y1795000D02*
Y1815000D01*
X7395000D01*
Y1795000D02*
Y1815000D01*
Y1715000D02*
Y1735000D01*
X7195000Y1715000D02*
X7395000D01*
X7195000D02*
Y1735000D01*
Y1662500D02*
Y1682500D01*
X7395000D01*
Y1662500D02*
Y1682500D01*
Y1582500D02*
Y1602500D01*
X7195000Y1582500D02*
X7395000D01*
X7195000D02*
Y1602500D01*
X1486700Y6007501D02*
X1588300D01*
X1486700Y5907501D02*
X1499400D01*
X1486700D02*
Y6107501D01*
X1499400D01*
X1575600D02*
X1588300D01*
Y5907501D02*
Y6107501D01*
X1575600Y5907501D02*
X1588300D01*
X1927500Y6376700D02*
Y6478300D01*
X1827500Y6465600D02*
Y6478300D01*
X2027500D01*
Y6465600D02*
Y6478300D01*
Y6376700D02*
Y6389400D01*
X1827500Y6376700D02*
X2027500D01*
X1827500D02*
Y6389400D01*
X2022500Y6555000D02*
Y6695000D01*
X2162500Y6555000D02*
Y6585000D01*
X1882500Y6555000D02*
X2162500D01*
X1882500D02*
Y6585000D01*
Y6665000D02*
Y6695000D01*
X2162500D01*
Y6665000D02*
Y6695000D01*
X1102500Y4625001D02*
Y4655001D01*
X822500D02*
X1102500D01*
X822500Y4625001D02*
Y4655001D01*
Y4515001D02*
Y4545001D01*
Y4515001D02*
X1102500D01*
Y4545001D01*
X962500Y4515001D02*
Y4655001D01*
X1112500Y4985000D02*
Y5015000D01*
X832500D02*
X1112500D01*
X832500Y4985000D02*
Y5015000D01*
Y4875000D02*
Y4905000D01*
Y4875000D02*
X1112500D01*
Y4905000D01*
X972500Y4875000D02*
Y5015000D01*
X1132500Y6012500D02*
Y6042500D01*
X852500D02*
X1132500D01*
X852500Y6012500D02*
Y6042500D01*
Y5902500D02*
Y5932500D01*
Y5902500D02*
X1132500D01*
Y5932500D01*
X992500Y5902500D02*
Y6042500D01*
X2157500Y7022500D02*
Y7052500D01*
X1877500D02*
X2157500D01*
X1877500Y7022500D02*
Y7052500D01*
Y6912500D02*
Y6942500D01*
Y6912500D02*
X2157500D01*
Y6942500D01*
X2017500Y6912500D02*
Y7052500D01*
X4597500Y3697501D02*
X4617500D01*
X4597500D02*
Y3897501D01*
X4617500D01*
X4677500D02*
X4697500D01*
Y3697501D02*
Y3897501D01*
X4677500Y3697501D02*
X4697500D01*
X4497500Y5252500D02*
X4517500D01*
Y5052500D02*
Y5252500D01*
X4497500Y5052500D02*
X4517500D01*
X4417500D02*
X4437500D01*
X4417500D02*
Y5252500D01*
X4437500D01*
X4887500Y5765000D02*
X4907500D01*
Y5565000D02*
Y5765000D01*
X4887500Y5565000D02*
X4907500D01*
X4807500D02*
X4827500D01*
X4807500D02*
Y5765000D01*
X4827500D01*
X5040000Y5769000D02*
X5060000D01*
Y5569000D02*
Y5769000D01*
X5040000Y5569000D02*
X5060000D01*
X4960000D02*
X4980000D01*
X4960000D02*
Y5769000D01*
X4980000D01*
X5187500Y5762500D02*
X5207500D01*
Y5562500D02*
Y5762500D01*
X5187500Y5562500D02*
X5207500D01*
X5107500D02*
X5127500D01*
X5107500D02*
Y5762500D01*
X5127500D01*
X5720000Y5592500D02*
Y5612500D01*
X5520000Y5592500D02*
X5720000D01*
X5520000D02*
Y5612500D01*
Y5672500D02*
Y5692500D01*
X5720000D01*
Y5672500D02*
Y5692500D01*
X5991500Y5605000D02*
Y5625000D01*
X5791500Y5605000D02*
X5991500D01*
X5791500D02*
Y5625000D01*
Y5685000D02*
Y5705000D01*
X5991500D01*
Y5685000D02*
Y5705000D01*
X5282500Y6827500D02*
Y6907500D01*
X5367500Y6895600D02*
Y6908300D01*
X5197500D02*
X5367500D01*
X5197500Y6895600D02*
Y6908300D01*
Y6826700D02*
Y6839400D01*
Y6826700D02*
X5367500D01*
Y6839400D01*
X5378500Y6955000D02*
Y6975000D01*
X5178500Y6955000D02*
X5378500D01*
X5178500D02*
Y6975000D01*
Y7035000D02*
Y7055000D01*
X5378500D01*
Y7035000D02*
Y7055000D01*
X5426700Y2022500D02*
X5528300D01*
X5515600Y2122500D02*
X5528300D01*
Y1922500D02*
Y2122500D01*
X5515600Y1922500D02*
X5528300D01*
X5426700D02*
X5439400D01*
X5426700D02*
Y2122500D01*
X5439400D01*
X1451700Y4625000D02*
X1553300D01*
X1451700Y4525000D02*
X1464400D01*
X1451700D02*
Y4725000D01*
X1464400D01*
X1540600D02*
X1553300D01*
Y4525000D02*
Y4725000D01*
X1540600Y4525000D02*
X1553300D01*
X1412500Y3535000D02*
X1552500D01*
X1522500Y3675000D02*
X1552500D01*
Y3395000D02*
Y3675000D01*
X1522500Y3395000D02*
X1552500D01*
X1412500D02*
X1442500D01*
X1412500D02*
Y3675000D01*
X1442500D01*
X3212500Y3755000D02*
X3352500D01*
X3322500Y3895000D02*
X3352500D01*
Y3615000D02*
Y3895000D01*
X3322500Y3615000D02*
X3352500D01*
X3212500D02*
X3242500D01*
X3212500D02*
Y3895000D01*
X3242500D01*
X3022500Y3755000D02*
X3162500D01*
X3132500Y3895000D02*
X3162500D01*
Y3615000D02*
Y3895000D01*
X3132500Y3615000D02*
X3162500D01*
X3022500D02*
X3052500D01*
X3022500D02*
Y3895000D01*
X3052500D01*
X3730000Y4086300D02*
X3754100D01*
Y3627700D02*
Y4086300D01*
Y3615000D02*
Y3627700D01*
X3687900Y3615000D02*
X3754100D01*
X3687900D02*
Y3627700D01*
X3754100D01*
X3570900D02*
X3637100D01*
Y3615000D02*
Y3627700D01*
X3570900Y3615000D02*
X3637100D01*
X3570900D02*
Y3627700D01*
Y4086300D01*
X3595000D01*
X1820000Y3535000D02*
X1960000D01*
X1930000Y3675000D02*
X1960000D01*
Y3395000D02*
Y3675000D01*
X1930000Y3395000D02*
X1960000D01*
X1820000D02*
X1850000D01*
X1820000D02*
Y3675000D01*
X1850000D01*
X1862500Y2685000D02*
X1982500D01*
X1862500Y2535000D02*
Y2835000D01*
X1881700D01*
X1862500Y2535000D02*
X1881700D01*
X1963300D02*
X1982500D01*
Y2835000D01*
X1963300D02*
X1982500D01*
D112*
X7135000Y6039500D02*
Y6530500D01*
X7565000D01*
X7135000Y6039500D02*
X7565000D01*
Y6530500D01*
D113*
X7698500Y1445001D02*
X8396500D01*
X7698500Y2485001D02*
X8396500D01*
X1482500Y1325000D02*
X1582500D01*
X1532500Y1275000D02*
Y1375001D01*
X3832500Y1325000D02*
X3932500D01*
X2447500Y1585001D02*
X2967500D01*
X3747500Y-1125000D02*
Y240001D01*
X1667500Y-1125000D02*
X3747500D01*
X1667500D02*
Y240001D01*
X3532500Y1585001D02*
X3747500D01*
Y515000D02*
Y1585001D01*
X1667500Y515000D02*
Y1585001D01*
X1882500D01*
X975000Y3955001D02*
X1365000D01*
X975000Y4460001D02*
X1365000D01*
X1022500Y5350001D02*
X1412500D01*
X1022500Y5855000D02*
X1412500D01*
X1290000Y6530000D02*
Y6920000D01*
X1795000Y6530000D02*
Y6920000D01*
D114*
X3983041Y2351175D02*
Y2224217D01*
X4008433Y2198825D01*
X4059216D01*
X4084608Y2224217D01*
Y2351175D01*
X4236959D02*
X4135392D01*
Y2275000D01*
X4186175Y2300392D01*
X4211567D01*
X4236959Y2275000D01*
Y2224217D01*
X4211567Y2198825D01*
X4160784D01*
X4135392Y2224217D01*
D115*
X7936678Y6663355D02*
X7920016Y6646694D01*
Y6613371D01*
X7936678Y6596710D01*
X8003323D01*
X8019984Y6613371D01*
Y6646694D01*
X8003323Y6663355D01*
X7920016Y6763323D02*
Y6696677D01*
X7970000D01*
X7953339Y6730000D01*
Y6746661D01*
X7970000Y6763323D01*
X8003323D01*
X8019984Y6746661D01*
Y6713339D01*
X8003323Y6696677D01*
X8019984Y6863290D02*
Y6796645D01*
X7953339Y6863290D01*
X7936678D01*
X7920016Y6846629D01*
Y6813307D01*
X7936678Y6796645D01*
X4646500Y6708748D02*
Y6692087D01*
X4679822Y6658764D01*
X4713145Y6692087D01*
Y6708748D01*
X4679822Y6658764D02*
Y6608781D01*
X4813113D02*
X4746468D01*
X4813113Y6675426D01*
Y6692087D01*
X4796451Y6708748D01*
X4763129D01*
X4746468Y6692087D01*
X4108355Y3284984D02*
Y3268323D01*
X4141677Y3235000D01*
X4175000Y3268323D01*
Y3284984D01*
X4141677Y3235000D02*
Y3185016D01*
X4208323D02*
X4241645D01*
X4224984D01*
Y3284984D01*
X4208323Y3268323D01*
X6605016Y6677951D02*
X6688323D01*
X6704984Y6694613D01*
Y6727935D01*
X6688323Y6744596D01*
X6605016D01*
X6704984Y6777919D02*
Y6811242D01*
Y6794581D01*
X6605016D01*
X6621678Y6777919D01*
X6704984Y6861226D02*
Y6894548D01*
Y6877887D01*
X6605016D01*
X6621678Y6861226D01*
X9992484Y2427460D02*
X9909178D01*
X9892516Y2410798D01*
Y2377476D01*
X9909178Y2360815D01*
X9992484D01*
X9892516Y2327492D02*
Y2294169D01*
Y2310831D01*
X9992484D01*
X9975823Y2327492D01*
Y2244186D02*
X9992484Y2227524D01*
Y2194202D01*
X9975823Y2177540D01*
X9909178D01*
X9892516Y2194202D01*
Y2227524D01*
X9909178Y2244186D01*
X9975823D01*
X9717516Y2186693D02*
X9800822D01*
X9817484Y2203355D01*
Y2236677D01*
X9800822Y2253338D01*
X9717516D01*
X9800822Y2286661D02*
X9817484Y2303323D01*
Y2336645D01*
X9800822Y2353306D01*
X9734177D01*
X9717516Y2336645D01*
Y2303323D01*
X9734177Y2286661D01*
X9750839D01*
X9767500Y2303323D01*
Y2353306D01*
X7109194Y2517484D02*
Y2434178D01*
X7125855Y2417516D01*
X7159177D01*
X7175839Y2434178D01*
Y2517484D01*
X7209161Y2500823D02*
X7225823Y2517484D01*
X7259145D01*
X7275806Y2500823D01*
Y2484161D01*
X7259145Y2467500D01*
X7275806Y2450839D01*
Y2434178D01*
X7259145Y2417516D01*
X7225823D01*
X7209161Y2434178D01*
Y2450839D01*
X7225823Y2467500D01*
X7209161Y2484161D01*
Y2500823D01*
X7225823Y2467500D02*
X7259145D01*
X8737600Y6510928D02*
Y6427621D01*
X8754261Y6410960D01*
X8787584D01*
X8804245Y6427621D01*
Y6510928D01*
X8837568D02*
X8904213D01*
Y6494266D01*
X8837568Y6427621D01*
Y6410960D01*
X7046693Y4302484D02*
Y4219177D01*
X7063354Y4202516D01*
X7096677D01*
X7113338Y4219177D01*
Y4302484D01*
X7213306D02*
X7179983Y4285823D01*
X7146661Y4252500D01*
Y4219177D01*
X7163322Y4202516D01*
X7196645D01*
X7213306Y4219177D01*
Y4235839D01*
X7196645Y4252500D01*
X7146661D01*
X4132516Y5376694D02*
X4215822D01*
X4232484Y5393355D01*
Y5426678D01*
X4215822Y5443339D01*
X4132516D01*
X4232484Y5526646D02*
X4132516D01*
X4182500Y5476662D01*
Y5543307D01*
X1054193Y7094984D02*
Y7011677D01*
X1070855Y6995016D01*
X1104177D01*
X1120838Y7011677D01*
Y7094984D01*
X1154161Y7078322D02*
X1170823Y7094984D01*
X1204145D01*
X1220806Y7078322D01*
Y7061661D01*
X1204145Y7045000D01*
X1187484D01*
X1204145D01*
X1220806Y7028338D01*
Y7011677D01*
X1204145Y6995016D01*
X1170823D01*
X1154161Y7011677D01*
X1311694Y5284984D02*
Y5201677D01*
X1328355Y5185016D01*
X1361677D01*
X1378339Y5201677D01*
Y5284984D01*
X1478306Y5185016D02*
X1411661D01*
X1478306Y5251661D01*
Y5268322D01*
X1461645Y5284984D01*
X1428323D01*
X1411661Y5268322D01*
X713355Y3892484D02*
Y3809178D01*
X730016Y3792516D01*
X763339D01*
X780000Y3809178D01*
Y3892484D01*
X813323Y3792516D02*
X846645D01*
X829984D01*
Y3892484D01*
X813323Y3875823D01*
X5997625Y2686727D02*
X5980964Y2703388D01*
X5947641D01*
X5930980Y2686727D01*
Y2670065D01*
X5947641Y2653404D01*
X5980964D01*
X5997625Y2636743D01*
Y2620082D01*
X5980964Y2603420D01*
X5947641D01*
X5930980Y2620082D01*
X6097593Y2603420D02*
X6030948D01*
X6097593Y2670065D01*
Y2686727D01*
X6080932Y2703388D01*
X6047609D01*
X6030948Y2686727D01*
X5125823Y6765000D02*
X5142484Y6781661D01*
Y6814983D01*
X5125823Y6831645D01*
X5109161D01*
X5092500Y6814983D01*
Y6781661D01*
X5075839Y6765000D01*
X5059178D01*
X5042516Y6781661D01*
Y6814983D01*
X5059178Y6831645D01*
X5042516Y6731677D02*
Y6698354D01*
Y6715016D01*
X5142484D01*
X5125823Y6731677D01*
X6917484Y6755040D02*
X6817516D01*
Y6805024D01*
X6834177Y6821685D01*
X6867500D01*
X6884161Y6805024D01*
Y6755040D01*
Y6788362D02*
X6917484Y6821685D01*
Y6855008D02*
Y6888330D01*
Y6871669D01*
X6817516D01*
X6834177Y6855008D01*
X6900822Y6938314D02*
X6917484Y6954975D01*
Y6988298D01*
X6900822Y7004959D01*
X6834177D01*
X6817516Y6988298D01*
Y6954975D01*
X6834177Y6938314D01*
X6850839D01*
X6867500Y6954975D01*
Y7004959D01*
X6472459Y6472484D02*
Y6372516D01*
X6422475D01*
X6405814Y6389177D01*
Y6422500D01*
X6422475Y6439161D01*
X6472459D01*
X6439137D02*
X6405814Y6472484D01*
X6372491D02*
X6339169D01*
X6355830D01*
Y6372516D01*
X6372491Y6389177D01*
X6289185D02*
X6272524Y6372516D01*
X6239201D01*
X6222540Y6389177D01*
Y6405839D01*
X6239201Y6422500D01*
X6222540Y6439161D01*
Y6455822D01*
X6239201Y6472484D01*
X6272524D01*
X6289185Y6455822D01*
Y6439161D01*
X6272524Y6422500D01*
X6289185Y6405839D01*
Y6389177D01*
X6272524Y6422500D02*
X6239201D01*
X8882540Y2460016D02*
Y2559984D01*
X8932524D01*
X8949185Y2543323D01*
Y2510000D01*
X8932524Y2493339D01*
X8882540D01*
X8915863D02*
X8949185Y2460016D01*
X8982508D02*
X9015831D01*
X8999169D01*
Y2559984D01*
X8982508Y2543323D01*
X9132460Y2559984D02*
X9099137Y2543323D01*
X9065814Y2510000D01*
Y2476678D01*
X9082476Y2460016D01*
X9115798D01*
X9132460Y2476678D01*
Y2493339D01*
X9115798Y2510000D01*
X9065814D01*
X8324960Y1329983D02*
Y1230016D01*
X8274976D01*
X8258315Y1246677D01*
Y1279999D01*
X8274976Y1296661D01*
X8324960D01*
X8291637D02*
X8258315Y1329983D01*
X8224992D02*
X8191669D01*
X8208331D01*
Y1230016D01*
X8224992Y1246677D01*
X8075040Y1230016D02*
X8141686D01*
Y1279999D01*
X8108363Y1263338D01*
X8091702D01*
X8075040Y1279999D01*
Y1313322D01*
X8091702Y1329983D01*
X8125024D01*
X8141686Y1313322D01*
X9635040Y1910016D02*
Y2009984D01*
X9685024D01*
X9701685Y1993322D01*
Y1960000D01*
X9685024Y1943339D01*
X9635040D01*
X9668363D02*
X9701685Y1910016D01*
X9735008D02*
X9768331D01*
X9751670D01*
Y2009984D01*
X9735008Y1993322D01*
X9868299Y1910016D02*
Y2009984D01*
X9818315Y1960000D01*
X9884960D01*
X3955040Y4640016D02*
Y4739984D01*
X4005024D01*
X4021685Y4723323D01*
Y4690000D01*
X4005024Y4673339D01*
X3955040D01*
X3988363D02*
X4021685Y4640016D01*
X4055008D02*
X4088331D01*
X4071670D01*
Y4739984D01*
X4055008Y4723323D01*
X4138315D02*
X4154976Y4739984D01*
X4188298D01*
X4204960Y4723323D01*
Y4706661D01*
X4188298Y4690000D01*
X4171637D01*
X4188298D01*
X4204960Y4673339D01*
Y4656678D01*
X4188298Y4640016D01*
X4154976D01*
X4138315Y4656678D01*
X9422540Y2665016D02*
Y2764984D01*
X9472524D01*
X9489185Y2748322D01*
Y2715000D01*
X9472524Y2698339D01*
X9422540D01*
X9455863D02*
X9489185Y2665016D01*
X9522508D02*
X9555831D01*
X9539170D01*
Y2764984D01*
X9522508Y2748322D01*
X9672460Y2665016D02*
X9605815D01*
X9672460Y2731661D01*
Y2748322D01*
X9655799Y2764984D01*
X9622476D01*
X9605815Y2748322D01*
X5589194Y1922517D02*
Y2022484D01*
X5639177D01*
X5655839Y2005823D01*
Y1972500D01*
X5639177Y1955839D01*
X5589194D01*
X5622516D02*
X5655839Y1922517D01*
X5689161Y2005823D02*
X5705823Y2022484D01*
X5739145D01*
X5755806Y2005823D01*
Y1989162D01*
X5739145Y1972500D01*
X5755806Y1955839D01*
Y1939178D01*
X5739145Y1922517D01*
X5705823D01*
X5689161Y1939178D01*
Y1955839D01*
X5705823Y1972500D01*
X5689161Y1989162D01*
Y2005823D01*
X5705823Y1972500D02*
X5739145D01*
X5441693Y6805016D02*
Y6904984D01*
X5491677D01*
X5508338Y6888323D01*
Y6855000D01*
X5491677Y6838339D01*
X5441693D01*
X5475016D02*
X5508338Y6805016D01*
X5608306Y6904984D02*
X5541661D01*
Y6855000D01*
X5574984Y6871661D01*
X5591645D01*
X5608306Y6855000D01*
Y6821677D01*
X5591645Y6805016D01*
X5558323D01*
X5541661Y6821677D01*
X2084194Y6335016D02*
Y6434984D01*
X2134178D01*
X2150839Y6418322D01*
Y6385000D01*
X2134178Y6368339D01*
X2084194D01*
X2117516D02*
X2150839Y6335016D01*
X2234145D02*
Y6434984D01*
X2184161Y6385000D01*
X2250807D01*
X1821694Y5770016D02*
Y5869984D01*
X1871677D01*
X1888339Y5853323D01*
Y5820000D01*
X1871677Y5803339D01*
X1821694D01*
X1855016D02*
X1888339Y5770016D01*
X1921661Y5853323D02*
X1938323Y5869984D01*
X1971645D01*
X1988306Y5853323D01*
Y5836661D01*
X1971645Y5820000D01*
X1954984D01*
X1971645D01*
X1988306Y5803339D01*
Y5786678D01*
X1971645Y5770016D01*
X1938323D01*
X1921661Y5786678D01*
X1624194Y4622516D02*
Y4722484D01*
X1674178D01*
X1690839Y4705822D01*
Y4672500D01*
X1674178Y4655839D01*
X1624194D01*
X1657516D02*
X1690839Y4622516D01*
X1790806D02*
X1724161D01*
X1790806Y4689161D01*
Y4705822D01*
X1774145Y4722484D01*
X1740823D01*
X1724161Y4705822D01*
X2507484Y2908355D02*
X2407516D01*
Y2958339D01*
X2424177Y2975000D01*
X2457500D01*
X2474161Y2958339D01*
Y2908355D01*
Y2941677D02*
X2507484Y2975000D01*
Y3008322D02*
Y3041645D01*
Y3024984D01*
X2407516D01*
X2424177Y3008322D01*
X9480855Y1582484D02*
Y1482516D01*
X9547500D01*
X9580823D02*
X9614145D01*
X9597484D01*
Y1582484D01*
X9580823Y1565823D01*
X3640839Y6819984D02*
X3607516D01*
X3624177D01*
Y6736677D01*
X3607516Y6720016D01*
X3590855D01*
X3574194Y6736677D01*
X3674161D02*
X3690823Y6720016D01*
X3724145D01*
X3740806Y6736677D01*
Y6803322D01*
X3724145Y6819984D01*
X3690823D01*
X3674161Y6803322D01*
Y6786661D01*
X3690823Y6770000D01*
X3740806D01*
X10240839Y782484D02*
X10207516D01*
X10224177D01*
Y699177D01*
X10207516Y682516D01*
X10190855D01*
X10174194Y699177D01*
X10274161Y765822D02*
X10290823Y782484D01*
X10324145D01*
X10340806Y765822D01*
Y749161D01*
X10324145Y732500D01*
X10340806Y715839D01*
Y699177D01*
X10324145Y682516D01*
X10290823D01*
X10274161Y699177D01*
Y715839D01*
X10290823Y732500D01*
X10274161Y749161D01*
Y765822D01*
X10290823Y732500D02*
X10324145D01*
X10253338Y3879984D02*
X10220016D01*
X10236677D01*
Y3796677D01*
X10220016Y3780016D01*
X10203355D01*
X10186693Y3796677D01*
X10286661Y3879984D02*
X10353306D01*
Y3863322D01*
X10286661Y3796677D01*
Y3780016D01*
X9450016Y188339D02*
Y155016D01*
Y171678D01*
X9533323D01*
X9549984Y155016D01*
Y138355D01*
X9533323Y121694D01*
X9450016Y288307D02*
X9466678Y254984D01*
X9500000Y221662D01*
X9533323D01*
X9549984Y238323D01*
Y271646D01*
X9533323Y288307D01*
X9516661D01*
X9500000Y271646D01*
Y221662D01*
X4160839Y342984D02*
X4127516D01*
X4144178D01*
Y259678D01*
X4127516Y243016D01*
X4110855D01*
X4094194Y259678D01*
X4260807Y342984D02*
X4194162D01*
Y293000D01*
X4227484Y309661D01*
X4244145D01*
X4260807Y293000D01*
Y259678D01*
X4244145Y243016D01*
X4210823D01*
X4194162Y259678D01*
X853859Y7309984D02*
X820536D01*
X837197D01*
Y7226677D01*
X820536Y7210016D01*
X803875D01*
X787214Y7226677D01*
X937165Y7210016D02*
Y7309984D01*
X887181Y7260000D01*
X953826D01*
X167516Y4935855D02*
Y4902532D01*
Y4919194D01*
X250822D01*
X267484Y4902532D01*
Y4885871D01*
X250822Y4869210D01*
X184177Y4969178D02*
X167516Y4985839D01*
Y5019162D01*
X184177Y5035823D01*
X200839D01*
X217500Y5019162D01*
Y5002500D01*
Y5019162D01*
X234161Y5035823D01*
X250822D01*
X267484Y5019162D01*
Y4985839D01*
X250822Y4969178D01*
X390839Y3627484D02*
X357516D01*
X374178D01*
Y3544178D01*
X357516Y3527516D01*
X340855D01*
X324194Y3544178D01*
X490806Y3527516D02*
X424161D01*
X490806Y3594161D01*
Y3610823D01*
X474145Y3627484D01*
X440823D01*
X424161Y3610823D01*
X1463716Y1073500D02*
Y1040178D01*
Y1056839D01*
X1547022D01*
X1563683Y1040178D01*
Y1023517D01*
X1547022Y1006855D01*
X1563683Y1106823D02*
Y1140146D01*
Y1123484D01*
X1463716D01*
X1480377Y1106823D01*
X2142540Y4252484D02*
X2175863D01*
X2159202D01*
Y4152516D01*
X2142540D01*
X2175863D01*
X2292492Y4235823D02*
X2275831Y4252484D01*
X2242508D01*
X2225847Y4235823D01*
Y4169178D01*
X2242508Y4152516D01*
X2275831D01*
X2292492Y4169178D01*
X2392460Y4152516D02*
X2325814D01*
X2392460Y4219161D01*
Y4235823D01*
X2375798Y4252484D01*
X2342476D01*
X2325814Y4235823D01*
X560016Y2213702D02*
Y2247024D01*
Y2230363D01*
X659983D01*
Y2213702D01*
Y2247024D01*
X576677Y2363653D02*
X560016Y2346992D01*
Y2313669D01*
X576677Y2297008D01*
X643322D01*
X659983Y2313669D01*
Y2346992D01*
X643322Y2363653D01*
X659983Y2396976D02*
Y2430298D01*
Y2413637D01*
X560016D01*
X576677Y2396976D01*
X8502516Y1279984D02*
X8435871D01*
Y1230000D01*
X8469194D01*
X8435871D01*
Y1180016D01*
X8535839Y1279984D02*
Y1180016D01*
X8585823D01*
X8602484Y1196678D01*
Y1213339D01*
X8585823Y1230000D01*
X8535839D01*
X8585823D01*
X8602484Y1246661D01*
Y1263323D01*
X8585823Y1279984D01*
X8535839D01*
X8635807Y1180016D02*
X8669129D01*
X8652468D01*
Y1279984D01*
X8635807Y1263323D01*
X3625016Y4175494D02*
X3724983D01*
Y4225478D01*
X3708322Y4242139D01*
X3641677D01*
X3625016Y4225478D01*
Y4175494D01*
X3724983Y4325446D02*
X3625016D01*
X3675000Y4275462D01*
Y4342107D01*
X1200016Y3374194D02*
X1299983D01*
Y3424178D01*
X1283322Y3440839D01*
X1216677D01*
X1200016Y3424178D01*
Y3374194D01*
X1216677Y3474161D02*
X1200016Y3490823D01*
Y3524145D01*
X1216677Y3540806D01*
X1233338D01*
X1250000Y3524145D01*
Y3507484D01*
Y3524145D01*
X1266661Y3540806D01*
X1283322D01*
X1299983Y3524145D01*
Y3490823D01*
X1283322Y3474161D01*
X2319193Y3229984D02*
Y3130016D01*
X2369177D01*
X2385839Y3146677D01*
Y3213323D01*
X2369177Y3229984D01*
X2319193D01*
X2485806Y3130016D02*
X2419161D01*
X2485806Y3196661D01*
Y3213323D01*
X2469145Y3229984D01*
X2435823D01*
X2419161Y3213323D01*
X3175016Y2475855D02*
X3274984D01*
Y2525839D01*
X3258322Y2542500D01*
X3191677D01*
X3175016Y2525839D01*
Y2475855D01*
X3274984Y2575823D02*
Y2609145D01*
Y2592484D01*
X3175016D01*
X3191677Y2575823D01*
X7795823Y6716645D02*
X7812484Y6733306D01*
Y6766628D01*
X7795823Y6783290D01*
X7729178D01*
X7712516Y6766628D01*
Y6733306D01*
X7729178Y6716645D01*
X7812484Y6616677D02*
X7795823Y6649999D01*
X7762500Y6683322D01*
X7729178D01*
X7712516Y6666661D01*
Y6633338D01*
X7729178Y6616677D01*
X7745839D01*
X7762500Y6633338D01*
Y6683322D01*
X7712516Y6516709D02*
Y6583354D01*
X7779161Y6516709D01*
X7795823D01*
X7812484Y6533370D01*
Y6566693D01*
X7795823Y6583354D01*
X9673355Y1823322D02*
X9656694Y1839984D01*
X9623371D01*
X9606710Y1823322D01*
Y1756677D01*
X9623371Y1740016D01*
X9656694D01*
X9673355Y1756677D01*
X9773323Y1839984D02*
X9706678D01*
Y1790000D01*
X9740000Y1806661D01*
X9756661D01*
X9773323Y1790000D01*
Y1756677D01*
X9756661Y1740016D01*
X9723339D01*
X9706678Y1756677D01*
X9806645Y1839984D02*
X9873290D01*
Y1823322D01*
X9806645Y1756677D01*
Y1740016D01*
X8823355Y1270822D02*
X8806694Y1287484D01*
X8773371D01*
X8756710Y1270822D01*
Y1204177D01*
X8773371Y1187516D01*
X8806694D01*
X8823355Y1204177D01*
X8923323Y1287484D02*
X8856677D01*
Y1237500D01*
X8890000Y1254161D01*
X8906661D01*
X8923323Y1237500D01*
Y1204177D01*
X8906661Y1187516D01*
X8873339D01*
X8856677Y1204177D01*
X9023290Y1287484D02*
X8989968Y1270822D01*
X8956645Y1237500D01*
Y1204177D01*
X8973307Y1187516D01*
X9006629D01*
X9023290Y1204177D01*
Y1220839D01*
X9006629Y1237500D01*
X8956645D01*
X6920855Y1788323D02*
X6904194Y1804984D01*
X6870871D01*
X6854210Y1788323D01*
Y1721678D01*
X6870871Y1705016D01*
X6904194D01*
X6920855Y1721678D01*
X7020823Y1804984D02*
X6954178D01*
Y1755000D01*
X6987500Y1771661D01*
X7004162D01*
X7020823Y1755000D01*
Y1721678D01*
X7004162Y1705016D01*
X6970839D01*
X6954178Y1721678D01*
X7120790Y1804984D02*
X7054145D01*
Y1755000D01*
X7087468Y1771661D01*
X7104129D01*
X7120790Y1755000D01*
Y1721678D01*
X7104129Y1705016D01*
X7070807D01*
X7054145Y1721678D01*
X6920855Y1650822D02*
X6904194Y1667484D01*
X6870871D01*
X6854210Y1650822D01*
Y1584177D01*
X6870871Y1567516D01*
X6904194D01*
X6920855Y1584177D01*
X7020823Y1667484D02*
X6954178D01*
Y1617500D01*
X6987500Y1634161D01*
X7004162D01*
X7020823Y1617500D01*
Y1584177D01*
X7004162Y1567516D01*
X6970839D01*
X6954178Y1584177D01*
X7104129Y1567516D02*
Y1667484D01*
X7054145Y1617500D01*
X7120790D01*
X6915855Y1928323D02*
X6899193Y1944984D01*
X6865871D01*
X6849210Y1928323D01*
Y1861678D01*
X6865871Y1845016D01*
X6899193D01*
X6915855Y1861678D01*
X7015822Y1944984D02*
X6949177D01*
Y1895000D01*
X6982500Y1911661D01*
X6999161D01*
X7015822Y1895000D01*
Y1861678D01*
X6999161Y1845016D01*
X6965839D01*
X6949177Y1861678D01*
X7049145Y1928323D02*
X7065807Y1944984D01*
X7099129D01*
X7115790Y1928323D01*
Y1911661D01*
X7099129Y1895000D01*
X7082468D01*
X7099129D01*
X7115790Y1878339D01*
Y1861678D01*
X7099129Y1845016D01*
X7065807D01*
X7049145Y1861678D01*
X8596677Y6118355D02*
X8580016Y6101693D01*
Y6068371D01*
X8596677Y6051710D01*
X8663322D01*
X8679984Y6068371D01*
Y6101693D01*
X8663322Y6118355D01*
X8679984Y6201661D02*
X8580016D01*
X8630000Y6151677D01*
Y6218322D01*
X8663322Y6251645D02*
X8679984Y6268306D01*
Y6301629D01*
X8663322Y6318290D01*
X8596677D01*
X8580016Y6301629D01*
Y6268306D01*
X8596677Y6251645D01*
X8613339D01*
X8630000Y6268306D01*
Y6318290D01*
X8406677Y6183354D02*
X8390016Y6166693D01*
Y6133371D01*
X8406677Y6116709D01*
X8473322D01*
X8489984Y6133371D01*
Y6166693D01*
X8473322Y6183354D01*
X8489984Y6266661D02*
X8390016D01*
X8440000Y6216677D01*
Y6283322D01*
X8406677Y6316645D02*
X8390016Y6333306D01*
Y6366629D01*
X8406677Y6383290D01*
X8423338D01*
X8440000Y6366629D01*
X8456661Y6383290D01*
X8473322D01*
X8489984Y6366629D01*
Y6333306D01*
X8473322Y6316645D01*
X8456661D01*
X8440000Y6333306D01*
X8423338Y6316645D01*
X8406677D01*
X8440000Y6333306D02*
Y6366629D01*
X8133355Y4583323D02*
X8116694Y4599984D01*
X8083371D01*
X8066710Y4583323D01*
Y4516678D01*
X8083371Y4500016D01*
X8116694D01*
X8133355Y4516678D01*
X8216662Y4500016D02*
Y4599984D01*
X8166678Y4550000D01*
X8233323D01*
X8266646Y4599984D02*
X8333291D01*
Y4583323D01*
X8266646Y4516678D01*
Y4500016D01*
X7241677Y4425855D02*
X7225016Y4409194D01*
Y4375871D01*
X7241677Y4359210D01*
X7308322D01*
X7324983Y4375871D01*
Y4409194D01*
X7308322Y4425855D01*
X7324983Y4509161D02*
X7225016D01*
X7274999Y4459178D01*
Y4525823D01*
X7225016Y4625790D02*
X7241677Y4592468D01*
X7274999Y4559145D01*
X7308322D01*
X7324983Y4575807D01*
Y4609129D01*
X7308322Y4625790D01*
X7291661D01*
X7274999Y4609129D01*
Y4559145D01*
X7091677Y4435855D02*
X7075016Y4419194D01*
Y4385871D01*
X7091677Y4369210D01*
X7158322D01*
X7174984Y4385871D01*
Y4419194D01*
X7158322Y4435855D01*
X7174984Y4519162D02*
X7075016D01*
X7125000Y4469178D01*
Y4535823D01*
X7075016Y4635791D02*
Y4569146D01*
X7125000D01*
X7108339Y4602468D01*
Y4619129D01*
X7125000Y4635791D01*
X7158322D01*
X7174984Y4619129D01*
Y4585807D01*
X7158322Y4569146D01*
X4059525Y1889246D02*
X4042864Y1905908D01*
X4009541D01*
X3992880Y1889246D01*
Y1822601D01*
X4009541Y1805940D01*
X4042864D01*
X4059525Y1822601D01*
X4092848Y1889246D02*
X4109509Y1905908D01*
X4142832D01*
X4159493Y1889246D01*
Y1872585D01*
X4142832Y1855924D01*
X4126170D01*
X4142832D01*
X4159493Y1839263D01*
Y1822601D01*
X4142832Y1805940D01*
X4109509D01*
X4092848Y1822601D01*
X4192816D02*
X4209477Y1805940D01*
X4242799D01*
X4259461Y1822601D01*
Y1889246D01*
X4242799Y1905908D01*
X4209477D01*
X4192816Y1889246D01*
Y1872585D01*
X4209477Y1855924D01*
X4259461D01*
X4048355Y2464177D02*
X4031693Y2447516D01*
X3998371D01*
X3981710Y2464177D01*
Y2530822D01*
X3998371Y2547484D01*
X4031693D01*
X4048355Y2530822D01*
X4081677Y2464177D02*
X4098339Y2447516D01*
X4131661D01*
X4148322Y2464177D01*
Y2480839D01*
X4131661Y2497500D01*
X4115000D01*
X4131661D01*
X4148322Y2514161D01*
Y2530822D01*
X4131661Y2547484D01*
X4098339D01*
X4081677Y2530822D01*
X4181645Y2464177D02*
X4198307Y2447516D01*
X4231629D01*
X4248290Y2464177D01*
Y2480839D01*
X4231629Y2497500D01*
X4248290Y2514161D01*
Y2530822D01*
X4231629Y2547484D01*
X4198307D01*
X4181645Y2530822D01*
Y2514161D01*
X4198307Y2497500D01*
X4181645Y2480839D01*
Y2464177D01*
X4198307Y2497500D02*
X4231629D01*
X5552855Y7033322D02*
X5536193Y7049984D01*
X5502871D01*
X5486209Y7033322D01*
Y6966677D01*
X5502871Y6950016D01*
X5536193D01*
X5552855Y6966677D01*
X5586177Y7033322D02*
X5602839Y7049984D01*
X5636161D01*
X5652822Y7033322D01*
Y7016661D01*
X5636161Y7000000D01*
X5619500D01*
X5636161D01*
X5652822Y6983339D01*
Y6966677D01*
X5636161Y6950016D01*
X5602839D01*
X5586177Y6966677D01*
X5736129Y6950016D02*
Y7049984D01*
X5686145Y7000000D01*
X5752790D01*
X4692516Y3628322D02*
X4675855Y3644984D01*
X4642532D01*
X4625871Y3628322D01*
Y3561677D01*
X4642532Y3545016D01*
X4675855D01*
X4692516Y3561677D01*
X4725839Y3628322D02*
X4742500Y3644984D01*
X4775823D01*
X4792484Y3628322D01*
Y3611661D01*
X4775823Y3595000D01*
X4759161D01*
X4775823D01*
X4792484Y3578339D01*
Y3561677D01*
X4775823Y3545016D01*
X4742500D01*
X4725839Y3561677D01*
X4825807Y3545016D02*
X4859129D01*
X4842468D01*
Y3644984D01*
X4825807Y3628322D01*
X4170855Y5198323D02*
X4154194Y5214984D01*
X4120871D01*
X4104210Y5198323D01*
Y5131678D01*
X4120871Y5115016D01*
X4154194D01*
X4170855Y5131678D01*
X4204178Y5198323D02*
X4220839Y5214984D01*
X4254161D01*
X4270823Y5198323D01*
Y5181661D01*
X4254161Y5165000D01*
X4237500D01*
X4254161D01*
X4270823Y5148339D01*
Y5131678D01*
X4254161Y5115016D01*
X4220839D01*
X4204178Y5131678D01*
X4304145Y5198323D02*
X4320807Y5214984D01*
X4354129D01*
X4370790Y5198323D01*
Y5131678D01*
X4354129Y5115016D01*
X4320807D01*
X4304145Y5131678D01*
Y5198323D01*
X3686677Y5440854D02*
X3670016Y5424193D01*
Y5390871D01*
X3686677Y5374209D01*
X3753322D01*
X3769984Y5390871D01*
Y5424193D01*
X3753322Y5440854D01*
X3769984Y5540822D02*
Y5474177D01*
X3703339Y5540822D01*
X3686677D01*
X3670016Y5524161D01*
Y5490839D01*
X3686677Y5474177D01*
X3753322Y5574145D02*
X3769984Y5590806D01*
Y5624129D01*
X3753322Y5640790D01*
X3686677D01*
X3670016Y5624129D01*
Y5590806D01*
X3686677Y5574145D01*
X3703339D01*
X3720000Y5590806D01*
Y5640790D01*
X3841677Y5444855D02*
X3825016Y5428194D01*
Y5394871D01*
X3841677Y5378210D01*
X3908322D01*
X3924984Y5394871D01*
Y5428194D01*
X3908322Y5444855D01*
X3924984Y5544823D02*
Y5478178D01*
X3858339Y5544823D01*
X3841677D01*
X3825016Y5528161D01*
Y5494839D01*
X3841677Y5478178D01*
Y5578145D02*
X3825016Y5594807D01*
Y5628129D01*
X3841677Y5644790D01*
X3858339D01*
X3875000Y5628129D01*
X3891661Y5644790D01*
X3908322D01*
X3924984Y5628129D01*
Y5594807D01*
X3908322Y5578145D01*
X3891661D01*
X3875000Y5594807D01*
X3858339Y5578145D01*
X3841677D01*
X3875000Y5594807D02*
Y5628129D01*
X3994177Y5440855D02*
X3977516Y5424194D01*
Y5390871D01*
X3994177Y5374210D01*
X4060822D01*
X4077484Y5390871D01*
Y5424194D01*
X4060822Y5440855D01*
X4077484Y5540823D02*
Y5474178D01*
X4010839Y5540823D01*
X3994177D01*
X3977516Y5524161D01*
Y5490839D01*
X3994177Y5474178D01*
X3977516Y5574145D02*
Y5640790D01*
X3994177D01*
X4060822Y5574145D01*
X4077484D01*
X6000855Y5878323D02*
X5984194Y5894984D01*
X5950871D01*
X5934210Y5878323D01*
Y5811677D01*
X5950871Y5795016D01*
X5984194D01*
X6000855Y5811677D01*
X6100822Y5795016D02*
X6034177D01*
X6100822Y5861661D01*
Y5878323D01*
X6084161Y5894984D01*
X6050839D01*
X6034177Y5878323D01*
X6200790Y5894984D02*
X6167468Y5878323D01*
X6134145Y5845000D01*
Y5811677D01*
X6150807Y5795016D01*
X6184129D01*
X6200790Y5811677D01*
Y5828339D01*
X6184129Y5845000D01*
X6134145D01*
X6313355Y5873323D02*
X6296694Y5889984D01*
X6263371D01*
X6246710Y5873323D01*
Y5806677D01*
X6263371Y5790016D01*
X6296694D01*
X6313355Y5806677D01*
X6413322Y5790016D02*
X6346677D01*
X6413322Y5856661D01*
Y5873323D01*
X6396661Y5889984D01*
X6363339D01*
X6346677Y5873323D01*
X6513290Y5889984D02*
X6446645D01*
Y5840000D01*
X6479968Y5856661D01*
X6496629D01*
X6513290Y5840000D01*
Y5806677D01*
X6496629Y5790016D01*
X6463307D01*
X6446645Y5806677D01*
X2698355Y6703323D02*
X2681694Y6719984D01*
X2648371D01*
X2631710Y6703323D01*
Y6636678D01*
X2648371Y6620016D01*
X2681694D01*
X2698355Y6636678D01*
X2798323Y6620016D02*
X2731678D01*
X2798323Y6686661D01*
Y6703323D01*
X2781661Y6719984D01*
X2748339D01*
X2731678Y6703323D01*
X2881629Y6620016D02*
Y6719984D01*
X2831645Y6670000D01*
X2898290D01*
X2268355Y6668322D02*
X2251693Y6684984D01*
X2218371D01*
X2201710Y6668322D01*
Y6601677D01*
X2218371Y6585016D01*
X2251693D01*
X2268355Y6601677D01*
X2368322Y6585016D02*
X2301677D01*
X2368322Y6651661D01*
Y6668322D01*
X2351661Y6684984D01*
X2318339D01*
X2301677Y6668322D01*
X2401645D02*
X2418307Y6684984D01*
X2451629D01*
X2468290Y6668322D01*
Y6651661D01*
X2451629Y6635000D01*
X2434968D01*
X2451629D01*
X2468290Y6618339D01*
Y6601677D01*
X2451629Y6585016D01*
X2418307D01*
X2401645Y6601677D01*
X2263355Y6848323D02*
X2246694Y6864984D01*
X2213371D01*
X2196710Y6848323D01*
Y6781678D01*
X2213371Y6765016D01*
X2246694D01*
X2263355Y6781678D01*
X2363323Y6765016D02*
X2296678D01*
X2363323Y6831661D01*
Y6848323D01*
X2346662Y6864984D01*
X2313339D01*
X2296678Y6848323D01*
X2463290Y6765016D02*
X2396645D01*
X2463290Y6831661D01*
Y6848323D01*
X2446629Y6864984D01*
X2413307D01*
X2396645Y6848323D01*
X2262516Y7018322D02*
X2245855Y7034984D01*
X2212532D01*
X2195871Y7018322D01*
Y6951677D01*
X2212532Y6935016D01*
X2245855D01*
X2262516Y6951677D01*
X2362484Y6935016D02*
X2295839D01*
X2362484Y7001661D01*
Y7018322D01*
X2345823Y7034984D01*
X2312500D01*
X2295839Y7018322D01*
X2395806Y6935016D02*
X2429129D01*
X2412468D01*
Y7034984D01*
X2395806Y7018322D01*
X296677Y6563355D02*
X280015Y6546694D01*
Y6513371D01*
X296677Y6496710D01*
X363322D01*
X379983Y6513371D01*
Y6546694D01*
X363322Y6563355D01*
X379983Y6663322D02*
Y6596677D01*
X313338Y6663322D01*
X296677D01*
X280015Y6646661D01*
Y6613339D01*
X296677Y6596677D01*
Y6696645D02*
X280015Y6713307D01*
Y6746629D01*
X296677Y6763290D01*
X363322D01*
X379983Y6746629D01*
Y6713307D01*
X363322Y6696645D01*
X296677D01*
X1051677Y6514185D02*
X1035016Y6497524D01*
Y6464202D01*
X1051677Y6447540D01*
X1118322D01*
X1134984Y6464202D01*
Y6497524D01*
X1118322Y6514185D01*
X1134984Y6547508D02*
Y6580831D01*
Y6564169D01*
X1035016D01*
X1051677Y6547508D01*
X1118322Y6630815D02*
X1134984Y6647476D01*
Y6680798D01*
X1118322Y6697460D01*
X1051677D01*
X1035016Y6680798D01*
Y6647476D01*
X1051677Y6630815D01*
X1068338D01*
X1085000Y6647476D01*
Y6697460D01*
X1254185Y6180823D02*
X1237524Y6197484D01*
X1204202D01*
X1187540Y6180823D01*
Y6114178D01*
X1204202Y6097516D01*
X1237524D01*
X1254185Y6114178D01*
X1287508Y6097516D02*
X1320831D01*
X1304170D01*
Y6197484D01*
X1287508Y6180823D01*
X1370815D02*
X1387476Y6197484D01*
X1420799D01*
X1437460Y6180823D01*
Y6164161D01*
X1420799Y6147500D01*
X1437460Y6130839D01*
Y6114178D01*
X1420799Y6097516D01*
X1387476D01*
X1370815Y6114178D01*
Y6130839D01*
X1387476Y6147500D01*
X1370815Y6164161D01*
Y6180823D01*
X1387476Y6147500D02*
X1420799D01*
X1246685Y6003323D02*
X1230024Y6019984D01*
X1196702D01*
X1180040Y6003323D01*
Y5936677D01*
X1196702Y5920016D01*
X1230024D01*
X1246685Y5936677D01*
X1280008Y5920016D02*
X1313331D01*
X1296669D01*
Y6019984D01*
X1280008Y6003323D01*
X1363315Y6019984D02*
X1429960D01*
Y6003323D01*
X1363315Y5936677D01*
Y5920016D01*
X379177Y4791685D02*
X362516Y4775024D01*
Y4741702D01*
X379177Y4725040D01*
X445822D01*
X462484Y4741702D01*
Y4775024D01*
X445822Y4791685D01*
X462484Y4825008D02*
Y4858331D01*
Y4841670D01*
X362516D01*
X379177Y4825008D01*
X362516Y4974960D02*
X379177Y4941637D01*
X412500Y4908315D01*
X445822D01*
X462484Y4924976D01*
Y4958298D01*
X445822Y4974960D01*
X429161D01*
X412500Y4958298D01*
Y4908315D01*
X1231685Y4970822D02*
X1215024Y4987484D01*
X1181702D01*
X1165040Y4970822D01*
Y4904177D01*
X1181702Y4887516D01*
X1215024D01*
X1231685Y4904177D01*
X1265008Y4887516D02*
X1298331D01*
X1281670D01*
Y4987484D01*
X1265008Y4970822D01*
X1414960Y4987484D02*
X1348315D01*
Y4937500D01*
X1381637Y4954161D01*
X1398298D01*
X1414960Y4937500D01*
Y4904177D01*
X1398298Y4887516D01*
X1364976D01*
X1348315Y4904177D01*
X1226686Y4790823D02*
X1210025Y4807484D01*
X1176702D01*
X1160041Y4790823D01*
Y4724177D01*
X1176702Y4707516D01*
X1210025D01*
X1226686Y4724177D01*
X1260008Y4707516D02*
X1293331D01*
X1276670D01*
Y4807484D01*
X1260008Y4790823D01*
X1393299Y4707516D02*
Y4807484D01*
X1343315Y4757500D01*
X1409960D01*
X1219185Y4608323D02*
X1202524Y4624985D01*
X1169202D01*
X1152540Y4608323D01*
Y4541678D01*
X1169202Y4525017D01*
X1202524D01*
X1219185Y4541678D01*
X1252508Y4525017D02*
X1285831D01*
X1269169D01*
Y4624985D01*
X1252508Y4608323D01*
X1335814D02*
X1352476Y4624985D01*
X1385798D01*
X1402459Y4608323D01*
Y4591662D01*
X1385798Y4575001D01*
X1369137D01*
X1385798D01*
X1402459Y4558339D01*
Y4541678D01*
X1385798Y4525017D01*
X1352476D01*
X1335814Y4541678D01*
X3436677Y4064186D02*
X3420016Y4047525D01*
Y4014202D01*
X3436677Y3997541D01*
X3503322D01*
X3519984Y4014202D01*
Y4047525D01*
X3503322Y4064186D01*
X3519984Y4097509D02*
Y4130831D01*
Y4114170D01*
X3420016D01*
X3436677Y4097509D01*
X3519984Y4247460D02*
Y4180815D01*
X3453339Y4247460D01*
X3436677D01*
X3420016Y4230799D01*
Y4197476D01*
X3436677Y4180815D01*
X3239177Y4075847D02*
X3222516Y4059186D01*
Y4025863D01*
X3239177Y4009202D01*
X3305822D01*
X3322484Y4025863D01*
Y4059186D01*
X3305822Y4075847D01*
X3322484Y4109170D02*
Y4142492D01*
Y4125831D01*
X3222516D01*
X3239177Y4109170D01*
X3322484Y4192476D02*
Y4225799D01*
Y4209138D01*
X3222516D01*
X3239177Y4192476D01*
X3059178Y4064186D02*
X3042516Y4047525D01*
Y4014202D01*
X3059178Y3997541D01*
X3125823D01*
X3142484Y4014202D01*
Y4047525D01*
X3125823Y4064186D01*
X3142484Y4097509D02*
Y4130831D01*
Y4114170D01*
X3042516D01*
X3059178Y4097509D01*
Y4180815D02*
X3042516Y4197476D01*
Y4230799D01*
X3059178Y4247460D01*
X3125823D01*
X3142484Y4230799D01*
Y4197476D01*
X3125823Y4180815D01*
X3059178D01*
X1029178Y3620839D02*
X1012516Y3604177D01*
Y3570855D01*
X1029178Y3554194D01*
X1095823D01*
X1112484Y3570855D01*
Y3604177D01*
X1095823Y3620839D01*
Y3654161D02*
X1112484Y3670823D01*
Y3704145D01*
X1095823Y3720806D01*
X1029178D01*
X1012516Y3704145D01*
Y3670823D01*
X1029178Y3654161D01*
X1045839D01*
X1062500Y3670823D01*
Y3720806D01*
X876677Y3625839D02*
X860016Y3609178D01*
Y3575855D01*
X876677Y3559194D01*
X943322D01*
X959984Y3575855D01*
Y3609178D01*
X943322Y3625839D01*
X876677Y3659162D02*
X860016Y3675823D01*
Y3709145D01*
X876677Y3725807D01*
X893339D01*
X910000Y3709145D01*
X926661Y3725807D01*
X943322D01*
X959984Y3709145D01*
Y3675823D01*
X943322Y3659162D01*
X926661D01*
X910000Y3675823D01*
X893339Y3659162D01*
X876677D01*
X910000Y3675823D02*
Y3709145D01*
X721678Y3625839D02*
X705016Y3609178D01*
Y3575855D01*
X721678Y3559194D01*
X788323D01*
X804984Y3575855D01*
Y3609178D01*
X788323Y3625839D01*
X705016Y3659162D02*
Y3725807D01*
X721678D01*
X788323Y3659162D01*
X804984D01*
X613339Y1563323D02*
X596677Y1579984D01*
X563355D01*
X546694Y1563323D01*
Y1496677D01*
X563355Y1480016D01*
X596677D01*
X613339Y1496677D01*
X713306Y1579984D02*
X679984Y1563323D01*
X646661Y1530000D01*
Y1496677D01*
X663323Y1480016D01*
X696645D01*
X713306Y1496677D01*
Y1513339D01*
X696645Y1530000D01*
X646661D01*
X1353339Y2113322D02*
X1336678Y2129984D01*
X1303355D01*
X1286694Y2113322D01*
Y2046677D01*
X1303355Y2030016D01*
X1336678D01*
X1353339Y2046677D01*
X1453306Y2129984D02*
X1386661D01*
Y2080000D01*
X1419984Y2096661D01*
X1436645D01*
X1453306Y2080000D01*
Y2046677D01*
X1436645Y2030016D01*
X1403323D01*
X1386661Y2046677D01*
X1333339Y1813323D02*
X1316678Y1829984D01*
X1283355D01*
X1266694Y1813323D01*
Y1746677D01*
X1283355Y1730016D01*
X1316678D01*
X1333339Y1746677D01*
X1416645Y1730016D02*
Y1829984D01*
X1366661Y1780000D01*
X1433307D01*
X3414178Y2350839D02*
X3397516Y2334177D01*
Y2300855D01*
X3414178Y2284194D01*
X3480823D01*
X3497484Y2300855D01*
Y2334177D01*
X3480823Y2350839D01*
X3414178Y2384161D02*
X3397516Y2400823D01*
Y2434145D01*
X3414178Y2450806D01*
X3430839D01*
X3447500Y2434145D01*
Y2417484D01*
Y2434145D01*
X3464161Y2450806D01*
X3480823D01*
X3497484Y2434145D01*
Y2400823D01*
X3480823Y2384161D01*
X3414178Y2073339D02*
X3397516Y2056677D01*
Y2023355D01*
X3414178Y2006693D01*
X3480823D01*
X3497484Y2023355D01*
Y2056677D01*
X3480823Y2073339D01*
X3497484Y2173306D02*
Y2106661D01*
X3430839Y2173306D01*
X3414178D01*
X3397516Y2156645D01*
Y2123323D01*
X3414178Y2106661D01*
X3406677Y1780000D02*
X3390016Y1763339D01*
Y1730016D01*
X3406677Y1713355D01*
X3473322D01*
X3489984Y1730016D01*
Y1763339D01*
X3473322Y1780000D01*
X3489984Y1813323D02*
Y1846645D01*
Y1829984D01*
X3390016D01*
X3406677Y1813323D01*
%TF.MD5,c7132499af776f853b64b1687378403c*%
M02*
