%TF.GenerationSoftware,Altium Limited,Altium Designer,24.10.1 (45)*%
G04 Layer_Color=16711935*
%FSLAX45Y45*%
%MOMM*%
%TF.SameCoordinates,E1515796-6FB3-4C94-B68D-87BC939BF7D9*%
%TF.FilePolarity,Negative*%
%TF.FileFunction,Soldermask,Bot*%
%TF.Part,Single*%
G01*
G75*
%TA.AperFunction,SMDPad,CuDef*%
%ADD118R,0.57600X0.67600*%
%ADD121R,0.67600X0.57600*%
%ADD122R,0.71600X0.67600*%
%ADD124R,5.15600X2.49100*%
%ADD131R,0.67600X0.71600*%
%ADD136R,0.97600X1.07600*%
%TA.AperFunction,ConnectorPad*%
%ADD138R,5.15600X2.49100*%
%TA.AperFunction,SMDPad,CuDef*%
%ADD143R,0.47600X0.37600*%
%TA.AperFunction,ComponentPad*%
%ADD162C,2.07600*%
%ADD163O,1.37600X2.67600*%
%ADD164C,4.99200*%
%ADD165R,4.99200X4.99200*%
%TA.AperFunction,ViaPad*%
%ADD166C,5.10000*%
%TA.AperFunction,ComponentPad*%
%ADD167C,2.27600*%
%ADD168O,2.07600X3.07600*%
%ADD169C,0.37600*%
%ADD170C,0.97600*%
%TA.AperFunction,ViaPad*%
%ADD171C,1.34600*%
%ADD172C,1.07600*%
%ADD173C,0.67600*%
%ADD174C,0.47600*%
%TA.AperFunction,SMDPad,CuDef*%
%ADD175R,0.37600X0.47600*%
%TA.AperFunction,ViaPad*%
%ADD176C,0.70320*%
D118*
X5817500Y4945000D02*
D03*
X5717500D02*
D03*
X4567500Y1100000D02*
D03*
X4667500D02*
D03*
D121*
X6732500Y5990000D02*
D03*
Y5890000D02*
D03*
X6882500Y5890000D02*
D03*
Y5990000D02*
D03*
D122*
X6057500Y4173500D02*
D03*
Y4261500D02*
D03*
X6175000Y4173500D02*
D03*
Y4261500D02*
D03*
X5620000Y4122500D02*
D03*
Y4210500D02*
D03*
X4345000Y3964000D02*
D03*
Y3876000D02*
D03*
X4280000Y2723500D02*
D03*
Y2811500D02*
D03*
D124*
X10475000Y1064200D02*
D03*
Y1940800D02*
D03*
D131*
X5158500Y1112500D02*
D03*
X5246500D02*
D03*
X5413500Y2492500D02*
D03*
X5501500D02*
D03*
X5408500Y2360000D02*
D03*
X5496500D02*
D03*
X5408500Y2235000D02*
D03*
X5496500D02*
D03*
X5424000Y2990000D02*
D03*
X5335999D02*
D03*
D136*
X5810000Y6270001D02*
D03*
X5945000D02*
D03*
X4825000Y6267501D02*
D03*
X4960000D02*
D03*
D138*
X10490000Y2661700D02*
D03*
Y3538300D02*
D03*
D143*
X6920000Y1035000D02*
D03*
X7010000D02*
D03*
D162*
X8802500Y819000D02*
D03*
X8548500D02*
D03*
X8294500D02*
D03*
X8040500D02*
D03*
X7786500D02*
D03*
X7532500D02*
D03*
X7278500D02*
D03*
X7024500D02*
D03*
X6770500D02*
D03*
X6516500D02*
D03*
Y565000D02*
D03*
X6770500D02*
D03*
X7024500D02*
D03*
X7278500D02*
D03*
X7532500D02*
D03*
X7786500D02*
D03*
X8040500D02*
D03*
X8294500D02*
D03*
X8548500D02*
D03*
X8802500D02*
D03*
D163*
X3652500Y375001D02*
D03*
X1762500D02*
D03*
D164*
X3252500Y1315000D02*
D03*
D165*
X2162500D02*
D03*
D166*
X10390000Y7360000D02*
D03*
X400000D02*
D03*
Y400000D02*
D03*
X10390000D02*
D03*
D167*
X445000Y5420001D02*
D03*
Y5770521D02*
D03*
X477500Y4337501D02*
D03*
Y3986981D02*
D03*
X1625520Y7447500D02*
D03*
X1275000D02*
D03*
D168*
X3038000Y7265000D02*
D03*
X3546000D02*
D03*
X2784000D02*
D03*
X3292000D02*
D03*
D169*
X1105000Y4402501D02*
D03*
X1235000D02*
D03*
X1105000Y4272501D02*
D03*
X1235000D02*
D03*
X1105000Y4142501D02*
D03*
X1235000D02*
D03*
X1105000Y4012501D02*
D03*
X1235000D02*
D03*
X1152500Y5797501D02*
D03*
X1282500D02*
D03*
X1152500Y5667501D02*
D03*
X1282500D02*
D03*
X1152500Y5537500D02*
D03*
X1282500D02*
D03*
X1152500Y5407500D02*
D03*
X1282500D02*
D03*
X1737500Y6790000D02*
D03*
Y6660000D02*
D03*
X1607500Y6790000D02*
D03*
Y6660000D02*
D03*
X1477500Y6790000D02*
D03*
Y6660000D02*
D03*
X1347500Y6790000D02*
D03*
Y6660000D02*
D03*
D170*
X4757500Y527500D02*
D03*
X5197500D02*
D03*
D171*
X2710000Y960000D02*
D03*
X710000Y1960000D02*
D03*
X2960000Y460000D02*
D03*
X1710000Y4960000D02*
D03*
Y5960000D02*
D03*
X2210000Y2960000D02*
D03*
X2460000Y6460000D02*
D03*
X1460000Y460000D02*
D03*
X2460000Y4460000D02*
D03*
X3210000Y2960000D02*
D03*
X710000Y960000D02*
D03*
X2460000Y460000D02*
D03*
X460000Y2460000D02*
D03*
X3210000Y4960000D02*
D03*
X460000Y1460000D02*
D03*
X1210000Y960000D02*
D03*
Y1960000D02*
D03*
X1960000Y460000D02*
D03*
X2460000Y5460000D02*
D03*
X1710000Y3960000D02*
D03*
X2960000Y1460000D02*
D03*
X2210000Y4960000D02*
D03*
X2960000Y6460000D02*
D03*
X960000Y460000D02*
D03*
X1460000Y1460000D02*
D03*
X1710000Y960000D02*
D03*
X2710000Y2960000D02*
D03*
X1960000Y4460000D02*
D03*
X3210000Y960000D02*
D03*
X960000Y1460000D02*
D03*
X3210000Y1960000D02*
D03*
X2960000Y5460000D02*
D03*
X9155564Y3142373D02*
D03*
X8996107Y2980810D02*
D03*
X8805382Y2857713D02*
D03*
X8582146Y2898876D02*
D03*
X9019300Y2588698D02*
D03*
X9342364Y2907661D02*
D03*
X9413324Y3288207D02*
D03*
X10548270Y3323936D02*
D03*
X10321270D02*
D03*
X10099790Y3274180D02*
D03*
X9872790D02*
D03*
X9646486Y3291936D02*
D03*
X9662082Y2908064D02*
D03*
X9888386Y2925820D02*
D03*
X10115386D02*
D03*
X10336866Y2876064D02*
D03*
X10563866D02*
D03*
D172*
X10590809Y1712819D02*
D03*
X10390809D02*
D03*
X10190935Y1705717D02*
D03*
X10009264Y1622076D02*
D03*
X9809264D02*
D03*
X9609264D02*
D03*
X9209264Y1622067D02*
D03*
X9208138Y1357935D02*
D03*
X9408138Y1357924D02*
D03*
X9608138D02*
D03*
X9808138D02*
D03*
X10008138D02*
D03*
X10198376Y1296201D02*
D03*
X10398335Y1292181D02*
D03*
X10598335D02*
D03*
D173*
X4124377Y2085000D02*
D03*
X7250000Y6097500D02*
D03*
X6550000Y6215000D02*
D03*
X7042500Y6747500D02*
D03*
X6480000Y6472500D02*
D03*
X6695000Y6612500D02*
D03*
X7000000Y5890000D02*
D03*
X6885000Y6105000D02*
D03*
X6872500Y6295000D02*
D03*
X5235000Y795000D02*
D03*
X4500000Y550000D02*
D03*
X5450000Y532500D02*
D03*
X5027500Y262500D02*
D03*
X4840000D02*
D03*
X4472500Y2410000D02*
D03*
X4425000Y2512500D02*
D03*
X5162500Y1292500D02*
D03*
X9617500Y2300000D02*
D03*
X9117500Y2170000D02*
D03*
X9537500Y1965000D02*
D03*
X9227500Y2152500D02*
D03*
X9275000Y2022500D02*
D03*
X8752500Y1765000D02*
D03*
X8977500Y2190000D02*
D03*
X8747500Y2477500D02*
D03*
X8390000Y1355000D02*
D03*
X7482500Y3090000D02*
D03*
X8575000Y3392500D02*
D03*
X6972500Y3687500D02*
D03*
X7640000Y3370000D02*
D03*
X7660000Y3502500D02*
D03*
X6252500Y2132500D02*
D03*
X6705000Y3825000D02*
D03*
X6242500Y3910000D02*
D03*
X7780000Y2382500D02*
D03*
X6865000Y2030000D02*
D03*
X6752500Y2200000D02*
D03*
X7070000Y2422500D02*
D03*
X6975000Y2340000D02*
D03*
X6832500Y2932500D02*
D03*
X6700000Y2880000D02*
D03*
X5652500Y2545000D02*
D03*
X5812500Y2615000D02*
D03*
X6982500Y3445000D02*
D03*
X6803030Y3291970D02*
D03*
X6670000Y3240000D02*
D03*
X6525105Y2859895D02*
D03*
X6340852Y2866648D02*
D03*
X5757500Y4120000D02*
D03*
X5927500Y4257500D02*
D03*
X5367500Y4455000D02*
D03*
X5615000Y1995000D02*
D03*
X5387500Y2827500D02*
D03*
X4440000Y2817500D02*
D03*
X6210000Y1850000D02*
D03*
X10350000Y4520000D02*
D03*
X10322500Y6437500D02*
D03*
X8665000Y6105000D02*
D03*
X8470000Y6110000D02*
D03*
X8670000Y6205000D02*
D03*
X8472500D02*
D03*
X8205000Y5757500D02*
D03*
X8910000Y4117500D02*
D03*
X7442500Y4602500D02*
D03*
X7450000Y4237500D02*
D03*
Y4365000D02*
D03*
X6290000Y5767500D02*
D03*
Y5577500D02*
D03*
X8042500Y6315000D02*
D03*
X7920000Y6600000D02*
D03*
X5960000Y5872500D02*
D03*
X5950000Y4950000D02*
D03*
X7127500Y1827500D02*
D03*
X7777500Y1645000D02*
D03*
X7775000Y1745000D02*
D03*
X6325000Y977500D02*
D03*
X5660000Y1335000D02*
D03*
X5665000Y1440000D02*
D03*
X5645000Y1570000D02*
D03*
X5647500Y1677500D02*
D03*
X5300000Y1230000D02*
D03*
X5002500Y2502500D02*
D03*
X4140000Y3420000D02*
D03*
X5857500Y6482500D02*
D03*
X5102500Y6487500D02*
D03*
X4052500Y1710000D02*
D03*
X4055000Y1542500D02*
D03*
X4600000Y2670000D02*
D03*
X5114590Y2489590D02*
D03*
X5647500Y2212500D02*
D03*
X4802500Y3672500D02*
D03*
X4415000Y3705000D02*
D03*
X4707500Y1280000D02*
D03*
X4535000D02*
D03*
X4055000Y5262500D02*
D03*
X4705000Y5787500D02*
D03*
X4692500Y5607500D02*
D03*
X4395000Y7022500D02*
D03*
X5397500Y6720000D02*
D03*
X3785000Y7312500D02*
D03*
X3787500Y7475000D02*
D03*
X4760000Y7352500D02*
D03*
X4527500Y7350000D02*
D03*
X4292500Y7352500D02*
D03*
X5437500Y7152500D02*
D03*
X4315000Y5255000D02*
D03*
X4065000Y4757500D02*
D03*
X4445000Y4057500D02*
D03*
X3860000Y3942500D02*
D03*
X3675000Y3505000D02*
D03*
X3477500Y3512500D02*
D03*
X3285000Y3502500D02*
D03*
X3090000D02*
D03*
X2142500Y7425000D02*
D03*
X2012500D02*
D03*
X690000Y6532500D02*
D03*
X905000D02*
D03*
X730000Y5167500D02*
D03*
X900000Y5165000D02*
D03*
X2230000Y2582500D02*
D03*
Y2402500D02*
D03*
Y2212500D02*
D03*
X2232500Y2035000D02*
D03*
X2235000Y1782500D02*
D03*
X2095000Y1780000D02*
D03*
X2092500Y2032500D02*
D03*
X2090000Y2210000D02*
D03*
Y2400000D02*
D03*
Y2580000D02*
D03*
D174*
X1005000Y3015000D02*
D03*
X1007500Y3137500D02*
D03*
X1012500Y3257500D02*
D03*
X1142500Y3015000D02*
D03*
Y3137500D02*
D03*
X1145000Y3260000D02*
D03*
D175*
X5110000Y2360000D02*
D03*
Y2270000D02*
D03*
X4992500Y2352500D02*
D03*
Y2262500D02*
D03*
D176*
X1147500Y2369500D02*
D03*
X1037500D02*
D03*
X927500D02*
D03*
X1147500Y2479500D02*
D03*
X1037500D02*
D03*
X927500D02*
D03*
X1147500Y2589500D02*
D03*
X1037500D02*
D03*
X927500D02*
D03*
X1147500Y2699500D02*
D03*
X1037500D02*
D03*
X927500D02*
D03*
%TF.MD5,26cc14764167eb890e59e7061393a033*%
M02*
