%TF.GenerationSoftware,Altium Limited,Altium Designer,24.10.1 (45)*%
G04 Layer_Color=32896*
%FSLAX45Y45*%
%MOMM*%
%TF.SameCoordinates,E1515796-6FB3-4C94-B68D-87BC939BF7D9*%
%TF.FilePolarity,Positive*%
%TF.FileFunction,Legend,Bot*%
%TF.Part,Single*%
G01*
G75*
%TA.AperFunction,NonConductor*%
%ADD111C,0.15000*%
%ADD115C,0.15300*%
G36*
X3034776Y5645720D02*
X3047448D01*
Y5649944D01*
X3049560D01*
Y5666840D01*
X2775000D01*
Y5664728D01*
X2772888D01*
Y5645720D01*
X2808792D01*
Y5643608D01*
X2817240D01*
Y5641496D01*
X2825688D01*
Y5639384D01*
X2829912D01*
Y5637272D01*
X2834136D01*
Y5635160D01*
X2838360D01*
Y5633048D01*
X2842584D01*
Y5630936D01*
X2844696D01*
Y5628824D01*
X2846808D01*
Y5626712D01*
X2848920D01*
Y5624600D01*
X2851032D01*
Y5622488D01*
X2853144D01*
Y5620376D01*
X2855256D01*
Y5614040D01*
X2857368D01*
Y5609816D01*
X2859480D01*
Y5599256D01*
X2861592D01*
Y5580248D01*
X2863704D01*
Y5356376D01*
X2859480D01*
Y5358488D01*
X2857368D01*
Y5360600D01*
X2855256D01*
Y5362712D01*
X2853144D01*
Y5364824D01*
X2851032D01*
Y5366936D01*
X2848920D01*
Y5369048D01*
X2846808D01*
Y5371160D01*
X2844696D01*
Y5373272D01*
X2842584D01*
Y5375384D01*
X2840472D01*
Y5377496D01*
X2836248D01*
Y5379608D01*
X2834136D01*
Y5381720D01*
X2832024D01*
Y5383832D01*
X2829912D01*
Y5385944D01*
X2827800D01*
Y5388056D01*
X2825688D01*
Y5390168D01*
X2823576D01*
Y5392280D01*
X2821464D01*
Y5394392D01*
X2819352D01*
Y5396504D01*
X2817240D01*
Y5398616D01*
X2813016D01*
Y5402840D01*
X2808792D01*
Y5404952D01*
X2806680D01*
Y5407064D01*
X2804568D01*
Y5409176D01*
X2802456D01*
Y5411288D01*
X2800344D01*
Y5413400D01*
X2798232D01*
Y5415512D01*
X2796120D01*
Y5417624D01*
X2794008D01*
Y5419736D01*
X2791896D01*
Y5421848D01*
X2789784D01*
Y5423960D01*
X2787672D01*
Y5426072D01*
X2785560D01*
Y5428184D01*
X2783448D01*
Y5430296D01*
X2781336D01*
Y5432408D01*
X2777112D01*
Y5434520D01*
X2775000D01*
Y5436632D01*
X2772888D01*
Y5438744D01*
X2770776D01*
Y5440856D01*
X2768664D01*
Y5442968D01*
X2766552D01*
Y5445080D01*
X2764440D01*
Y5447192D01*
X2762328D01*
Y5449304D01*
X2760216D01*
Y5451416D01*
X2758104D01*
Y5453528D01*
X2755992D01*
Y5455640D01*
X2753880D01*
Y5457752D01*
X2751768D01*
Y5459864D01*
X2749656D01*
Y5461976D01*
X2747544D01*
Y5464088D01*
X2745432D01*
Y5466200D01*
X2741208D01*
Y5468312D01*
X2739096D01*
Y5470424D01*
X2736984D01*
Y5472536D01*
X2734872D01*
Y5474648D01*
X2732760D01*
Y5476760D01*
X2730648D01*
Y5478872D01*
X2728536D01*
Y5480984D01*
X2726424D01*
Y5483096D01*
X2724312D01*
Y5485208D01*
X2722200D01*
Y5487320D01*
X2720088D01*
Y5489432D01*
X2717976D01*
Y5491544D01*
X2715864D01*
Y5493656D01*
X2713752D01*
Y5495768D01*
X2711640D01*
Y5497880D01*
X2709528D01*
Y5499992D01*
X2707416D01*
Y5502104D01*
X2705304D01*
Y5504216D01*
X2703192D01*
Y5506328D01*
X2701080D01*
Y5508440D01*
X2698968D01*
Y5510552D01*
X2696856D01*
Y5512664D01*
X2694744D01*
Y5514776D01*
X2692632D01*
Y5516888D01*
X2690520D01*
Y5519000D01*
X2688408D01*
Y5521112D01*
X2686296D01*
Y5523224D01*
X2684184D01*
Y5525336D01*
X2682072D01*
Y5527448D01*
X2679960D01*
Y5529560D01*
X2677848D01*
Y5531672D01*
X2675736D01*
Y5533784D01*
X2673624D01*
Y5535896D01*
X2671512D01*
Y5538008D01*
X2669400D01*
Y5540120D01*
X2667288D01*
Y5542232D01*
X2665176D01*
Y5544344D01*
X2663064D01*
Y5546456D01*
X2660952D01*
Y5548568D01*
X2658840D01*
Y5550680D01*
X2656728D01*
Y5554904D01*
X2654616D01*
Y5557016D01*
X2652504D01*
Y5559128D01*
X2650392D01*
Y5561240D01*
X2648280D01*
Y5563352D01*
X2646168D01*
Y5567576D01*
X2644056D01*
Y5569688D01*
X2641944D01*
Y5571800D01*
X2639832D01*
Y5573912D01*
X2637720D01*
Y5576024D01*
X2635608D01*
Y5578136D01*
X2633496D01*
Y5582360D01*
X2631384D01*
Y5584472D01*
X2629272D01*
Y5586584D01*
X2627160D01*
Y5590808D01*
X2625048D01*
Y5595032D01*
X2622936D01*
Y5597144D01*
X2620824D01*
Y5603480D01*
X2618712D01*
Y5607704D01*
X2616600D01*
Y5626712D01*
X2618712D01*
Y5630936D01*
X2620824D01*
Y5633048D01*
X2622936D01*
Y5635160D01*
X2625048D01*
Y5637272D01*
X2627160D01*
Y5639384D01*
X2631384D01*
Y5641496D01*
X2635608D01*
Y5643608D01*
X2644056D01*
Y5645720D01*
X2673624D01*
Y5664728D01*
X2439192D01*
Y5645720D01*
X2456088D01*
Y5643608D01*
X2466648D01*
Y5641496D01*
X2475096D01*
Y5639384D01*
X2481432D01*
Y5637272D01*
X2487768D01*
Y5635160D01*
X2491992D01*
Y5633048D01*
X2496216D01*
Y5630936D01*
X2500440D01*
Y5628824D01*
X2504664D01*
Y5626712D01*
X2508888D01*
Y5624600D01*
X2511000D01*
Y5622488D01*
X2515224D01*
Y5620376D01*
X2519448D01*
Y5618264D01*
X2521560D01*
Y5616152D01*
X2525784D01*
Y5614040D01*
X2530008D01*
Y5611928D01*
X2532120D01*
Y5609816D01*
X2534232D01*
Y5607704D01*
X2538456D01*
Y5605592D01*
X2540568D01*
Y5603480D01*
X2542680D01*
Y5601368D01*
X2544792D01*
Y5599256D01*
X2549016D01*
Y5597144D01*
X2551128D01*
Y5595032D01*
X2553240D01*
Y5592920D01*
X2555352D01*
Y5590808D01*
X2559576D01*
Y5588696D01*
X2561688D01*
Y5586584D01*
X2563800D01*
Y5584472D01*
X2565912D01*
Y5582360D01*
X2568024D01*
Y5580248D01*
X2570136D01*
Y5578136D01*
X2572248D01*
Y5576024D01*
X2574360D01*
Y5573912D01*
X2578584D01*
Y5571800D01*
X2580696D01*
Y5569688D01*
X2582808D01*
Y5567576D01*
X2584920D01*
Y5565464D01*
X2587032D01*
Y5563352D01*
X2589144D01*
Y5561240D01*
X2591256D01*
Y5559128D01*
X2593368D01*
Y5557016D01*
X2595480D01*
Y5554904D01*
X2597592D01*
Y5552792D01*
X2599704D01*
Y5550680D01*
X2601816D01*
Y5548568D01*
X2603928D01*
Y5546456D01*
X2606040D01*
Y5544344D01*
X2608152D01*
Y5542232D01*
X2610264D01*
Y5540120D01*
X2612376D01*
Y5538008D01*
X2614488D01*
Y5535896D01*
X2616600D01*
Y5533784D01*
X2618712D01*
Y5531672D01*
X2620824D01*
Y5529560D01*
X2622936D01*
Y5527448D01*
X2625048D01*
Y5525336D01*
X2627160D01*
Y5523224D01*
X2629272D01*
Y5521112D01*
X2631384D01*
Y5519000D01*
X2633496D01*
Y5516888D01*
X2635608D01*
Y5514776D01*
X2637720D01*
Y5512664D01*
X2639832D01*
Y5510552D01*
X2641944D01*
Y5508440D01*
X2644056D01*
Y5506328D01*
X2646168D01*
Y5504216D01*
X2648280D01*
Y5499992D01*
X2652504D01*
Y5497880D01*
X2654616D01*
Y5493656D01*
X2656728D01*
Y5491544D01*
X2658840D01*
Y5489432D01*
X2660952D01*
Y5487320D01*
X2663064D01*
Y5485208D01*
X2665176D01*
Y5483096D01*
X2667288D01*
Y5480984D01*
X2669400D01*
Y5478872D01*
X2671512D01*
Y5476760D01*
X2673624D01*
Y5474648D01*
X2675736D01*
Y5472536D01*
X2677848D01*
Y5470424D01*
X2679960D01*
Y5468312D01*
X2682072D01*
Y5466200D01*
X2684184D01*
Y5464088D01*
X2686296D01*
Y5461976D01*
X2688408D01*
Y5459864D01*
X2690520D01*
Y5457752D01*
X2692632D01*
Y5455640D01*
X2694744D01*
Y5453528D01*
X2696856D01*
Y5451416D01*
X2698968D01*
Y5449304D01*
X2701080D01*
Y5447192D01*
X2703192D01*
Y5445080D01*
X2705304D01*
Y5442968D01*
X2707416D01*
Y5440856D01*
X2709528D01*
Y5438744D01*
X2711640D01*
Y5436632D01*
X2713752D01*
Y5434520D01*
X2715864D01*
Y5432408D01*
X2717976D01*
Y5430296D01*
X2720088D01*
Y5428184D01*
X2722200D01*
Y5426072D01*
X2724312D01*
Y5423960D01*
X2726424D01*
Y5421848D01*
X2728536D01*
Y5419736D01*
X2730648D01*
Y5417624D01*
X2732760D01*
Y5415512D01*
X2734872D01*
Y5413400D01*
X2736984D01*
Y5411288D01*
X2739096D01*
Y5409176D01*
X2741208D01*
Y5407064D01*
X2743320D01*
Y5404952D01*
X2745432D01*
Y5402840D01*
X2747544D01*
Y5400728D01*
X2749656D01*
Y5398616D01*
X2751768D01*
Y5396504D01*
X2753880D01*
Y5394392D01*
X2755992D01*
Y5392280D01*
X2758104D01*
Y5390168D01*
X2760216D01*
Y5388056D01*
X2764440D01*
Y5385944D01*
X2766552D01*
Y5383832D01*
X2768664D01*
Y5381720D01*
X2770776D01*
Y5379608D01*
X2772888D01*
Y5377496D01*
X2770776D01*
Y5375384D01*
X2768664D01*
Y5373272D01*
X2766552D01*
Y5371160D01*
X2764440D01*
Y5369048D01*
X2762328D01*
Y5366936D01*
X2760216D01*
Y5364824D01*
X2758104D01*
Y5362712D01*
X2755992D01*
Y5360600D01*
X2753880D01*
Y5358488D01*
X2751768D01*
Y5356376D01*
X2749656D01*
Y5354264D01*
X2747544D01*
Y5352152D01*
X2745432D01*
Y5350040D01*
X2743320D01*
Y5347928D01*
X2741208D01*
Y5345816D01*
X2739096D01*
Y5343704D01*
X2736984D01*
Y5341592D01*
X2734872D01*
Y5339480D01*
X2732760D01*
Y5337368D01*
X2730648D01*
Y5335256D01*
X2728536D01*
Y5333144D01*
X2726424D01*
Y5331032D01*
X2724312D01*
Y5328920D01*
X2722200D01*
Y5326808D01*
X2720088D01*
Y5324696D01*
X2717976D01*
Y5322584D01*
X2715864D01*
Y5320472D01*
X2713752D01*
Y5318360D01*
X2711640D01*
Y5316248D01*
X2709528D01*
Y5314136D01*
X2707416D01*
Y5312024D01*
X2705304D01*
Y5309912D01*
X2703192D01*
Y5307800D01*
X2701080D01*
Y5305688D01*
X2698968D01*
Y5303576D01*
X2696856D01*
Y5301464D01*
X2694744D01*
Y5299352D01*
X2692632D01*
Y5297240D01*
X2690520D01*
Y5295128D01*
X2688408D01*
Y5293016D01*
X2686296D01*
Y5290904D01*
X2684184D01*
Y5288792D01*
X2682072D01*
Y5286680D01*
X2679960D01*
Y5284568D01*
X2677848D01*
Y5282456D01*
X2675736D01*
Y5280344D01*
X2673624D01*
Y5278232D01*
X2671512D01*
Y5276120D01*
X2669400D01*
Y5274008D01*
X2667288D01*
Y5271896D01*
X2665176D01*
Y5269784D01*
X2663064D01*
Y5267672D01*
X2660952D01*
Y5265560D01*
X2658840D01*
Y5263448D01*
X2656728D01*
Y5261336D01*
X2654616D01*
Y5259224D01*
X2652504D01*
Y5257112D01*
X2650392D01*
Y5255000D01*
X2648280D01*
Y5252888D01*
X2646168D01*
Y5250776D01*
X2644056D01*
Y5248664D01*
X2641944D01*
Y5246552D01*
X2639832D01*
Y5244440D01*
X2637720D01*
Y5242328D01*
X2635608D01*
Y5240216D01*
X2633496D01*
Y5238104D01*
X2631384D01*
Y5235992D01*
X2629272D01*
Y5233880D01*
X2627160D01*
Y5231768D01*
X2625048D01*
Y5229656D01*
X2622936D01*
Y5227544D01*
X2620824D01*
Y5225432D01*
X2618712D01*
Y5223320D01*
X2616600D01*
Y5221208D01*
X2614488D01*
Y5219096D01*
X2612376D01*
Y5216984D01*
X2610264D01*
Y5214872D01*
X2608152D01*
Y5212760D01*
X2606040D01*
Y5210648D01*
X2603928D01*
Y5208536D01*
X2601816D01*
Y5206424D01*
X2599704D01*
Y5204312D01*
X2597592D01*
Y5202200D01*
X2595480D01*
Y5200088D01*
X2593368D01*
Y5197976D01*
X2591256D01*
Y5195864D01*
X2589144D01*
Y5193752D01*
X2587032D01*
Y5191640D01*
X2584920D01*
Y5189528D01*
X2582808D01*
Y5187416D01*
X2580696D01*
Y5185304D01*
X2578584D01*
Y5183192D01*
X2576472D01*
Y5181080D01*
X2574360D01*
Y5178968D01*
X2572248D01*
Y5176856D01*
X2570136D01*
Y5174744D01*
X2565912D01*
Y5170520D01*
X2561688D01*
Y5166296D01*
X2557464D01*
Y5162072D01*
X2555352D01*
Y5159960D01*
X2551128D01*
Y5157848D01*
X2549016D01*
Y5155736D01*
X2546904D01*
Y5153624D01*
X2544792D01*
Y5151512D01*
X2542680D01*
Y5149400D01*
X2540568D01*
Y5147288D01*
X2538456D01*
Y5145176D01*
X2536344D01*
Y5140952D01*
X2532120D01*
Y5138840D01*
X2530008D01*
Y5136728D01*
X2527896D01*
Y5134616D01*
X2525784D01*
Y5132504D01*
X2523672D01*
Y5130392D01*
X2521560D01*
Y5128280D01*
X2519448D01*
Y5126168D01*
X2517336D01*
Y5124056D01*
X2515224D01*
Y5121944D01*
X2513112D01*
Y5119832D01*
X2511000D01*
Y5117720D01*
X2508888D01*
Y5115608D01*
X2506776D01*
Y5113496D01*
X2502552D01*
Y5111384D01*
X2500440D01*
Y5109272D01*
X2498328D01*
Y5107160D01*
X2496216D01*
Y5105048D01*
X2494104D01*
Y5102936D01*
X2491992D01*
Y5100824D01*
X2489880D01*
Y5098712D01*
X2485656D01*
Y5096600D01*
X2483544D01*
Y5094488D01*
X2481432D01*
Y5092376D01*
X2479320D01*
Y5090264D01*
X2475096D01*
Y5088152D01*
X2472984D01*
Y5086040D01*
X2470872D01*
Y5083928D01*
X2468760D01*
Y5081816D01*
X2464536D01*
Y5079704D01*
X2462424D01*
Y5077592D01*
X2458200D01*
Y5075480D01*
X2453976D01*
Y5073368D01*
X2451864D01*
Y5071256D01*
X2447640D01*
Y5069144D01*
X2443416D01*
Y5067032D01*
X2441304D01*
Y5064920D01*
X2437080D01*
Y5062808D01*
X2432856D01*
Y5060696D01*
X2428632D01*
Y5058584D01*
X2422296D01*
Y5056472D01*
X2418072D01*
Y5054360D01*
X2413848D01*
Y5052248D01*
X2407512D01*
Y5050136D01*
X2401176D01*
Y5048024D01*
X2392728D01*
Y5045912D01*
X2386392D01*
Y5043800D01*
X2375832D01*
Y5041688D01*
X2361048D01*
Y5039576D01*
X2354712D01*
Y5020568D01*
X2658840D01*
Y5039576D01*
X2644056D01*
Y5041688D01*
X2633496D01*
Y5043800D01*
X2627160D01*
Y5045912D01*
X2622936D01*
Y5048024D01*
X2620824D01*
Y5050136D01*
X2618712D01*
Y5052248D01*
X2616600D01*
Y5054360D01*
X2614488D01*
Y5056472D01*
X2612376D01*
Y5058584D01*
X2610264D01*
Y5062808D01*
X2608152D01*
Y5079704D01*
X2610264D01*
Y5086040D01*
X2612376D01*
Y5090264D01*
X2614488D01*
Y5094488D01*
X2616600D01*
Y5096600D01*
X2618712D01*
Y5098712D01*
X2620824D01*
Y5100824D01*
X2622936D01*
Y5102936D01*
X2625048D01*
Y5107160D01*
X2627160D01*
Y5109272D01*
X2629272D01*
Y5111384D01*
X2631384D01*
Y5113496D01*
X2633496D01*
Y5115608D01*
X2635608D01*
Y5117720D01*
X2637720D01*
Y5119832D01*
X2639832D01*
Y5121944D01*
X2641944D01*
Y5124056D01*
X2644056D01*
Y5126168D01*
X2646168D01*
Y5128280D01*
X2648280D01*
Y5130392D01*
X2650392D01*
Y5132504D01*
X2652504D01*
Y5134616D01*
X2654616D01*
Y5136728D01*
X2656728D01*
Y5138840D01*
X2658840D01*
Y5140952D01*
X2660952D01*
Y5143064D01*
X2663064D01*
Y5145176D01*
X2665176D01*
Y5147288D01*
X2667288D01*
Y5149400D01*
X2669400D01*
Y5151512D01*
X2671512D01*
Y5153624D01*
X2673624D01*
Y5155736D01*
X2675736D01*
Y5157848D01*
X2677848D01*
Y5159960D01*
X2679960D01*
Y5162072D01*
X2682072D01*
Y5164184D01*
X2684184D01*
Y5166296D01*
X2686296D01*
Y5168408D01*
X2688408D01*
Y5170520D01*
X2690520D01*
Y5172632D01*
X2692632D01*
Y5174744D01*
X2694744D01*
Y5176856D01*
X2696856D01*
Y5178968D01*
X2698968D01*
Y5181080D01*
X2701080D01*
Y5183192D01*
X2705304D01*
Y5187416D01*
X2707416D01*
Y5189528D01*
X2709528D01*
Y5191640D01*
X2711640D01*
Y5193752D01*
X2715864D01*
Y5195864D01*
X2717976D01*
Y5197976D01*
X2720088D01*
Y5200088D01*
X2722200D01*
Y5202200D01*
X2724312D01*
Y5204312D01*
X2726424D01*
Y5206424D01*
X2728536D01*
Y5208536D01*
X2730648D01*
Y5210648D01*
X2732760D01*
Y5212760D01*
X2734872D01*
Y5214872D01*
X2736984D01*
Y5216984D01*
X2739096D01*
Y5219096D01*
X2741208D01*
Y5221208D01*
X2743320D01*
Y5223320D01*
X2745432D01*
Y5225432D01*
X2747544D01*
Y5227544D01*
X2749656D01*
Y5229656D01*
X2751768D01*
Y5231768D01*
X2753880D01*
Y5233880D01*
X2755992D01*
Y5235992D01*
X2758104D01*
Y5238104D01*
X2760216D01*
Y5240216D01*
X2762328D01*
Y5242328D01*
X2764440D01*
Y5244440D01*
X2766552D01*
Y5246552D01*
X2768664D01*
Y5248664D01*
X2770776D01*
Y5250776D01*
X2772888D01*
Y5252888D01*
X2775000D01*
Y5255000D01*
X2777112D01*
Y5257112D01*
X2779224D01*
Y5259224D01*
X2781336D01*
Y5261336D01*
X2783448D01*
Y5263448D01*
X2785560D01*
Y5265560D01*
X2787672D01*
Y5267672D01*
X2789784D01*
Y5269784D01*
X2791896D01*
Y5271896D01*
X2794008D01*
Y5274008D01*
X2796120D01*
Y5276120D01*
X2798232D01*
Y5278232D01*
X2800344D01*
Y5280344D01*
X2802456D01*
Y5282456D01*
X2804568D01*
Y5284568D01*
X2806680D01*
Y5286680D01*
X2808792D01*
Y5288792D01*
X2810904D01*
Y5290904D01*
X2813016D01*
Y5293016D01*
X2815128D01*
Y5295128D01*
X2817240D01*
Y5297240D01*
X2819352D01*
Y5299352D01*
X2821464D01*
Y5301464D01*
X2823576D01*
Y5303576D01*
X2825688D01*
Y5305688D01*
X2827800D01*
Y5307800D01*
X2829912D01*
Y5309912D01*
X2832024D01*
Y5312024D01*
X2834136D01*
Y5314136D01*
X2836248D01*
Y5316248D01*
X2838360D01*
Y5318360D01*
X2840472D01*
Y5320472D01*
X2842584D01*
Y5322584D01*
X2844696D01*
Y5324696D01*
X2846808D01*
Y5326808D01*
X2848920D01*
Y5328920D01*
X2851032D01*
Y5331032D01*
X2853144D01*
Y5333144D01*
X2855256D01*
Y5335256D01*
X2857368D01*
Y5337368D01*
X2859480D01*
Y5339480D01*
X2863704D01*
Y5105048D01*
X2861592D01*
Y5083928D01*
X2859480D01*
Y5075480D01*
X2857368D01*
Y5069144D01*
X2855256D01*
Y5064920D01*
X2853144D01*
Y5062808D01*
X2851032D01*
Y5060696D01*
X2848920D01*
Y5058584D01*
X2844696D01*
Y5056472D01*
X2842584D01*
Y5054360D01*
X2838360D01*
Y5052248D01*
X2834136D01*
Y5050136D01*
X2829912D01*
Y5048024D01*
X2823576D01*
Y5045912D01*
X2817240D01*
Y5043800D01*
X2800344D01*
Y5041688D01*
X2772888D01*
Y5020568D01*
X3047448D01*
Y5024792D01*
X3049560D01*
Y5041688D01*
X3024216D01*
Y5043800D01*
X3005208D01*
Y5045912D01*
X2998872D01*
Y5048024D01*
X2992536D01*
Y5050136D01*
X2988312D01*
Y5052248D01*
X2981976D01*
Y5054360D01*
X2979864D01*
Y5056472D01*
X2977752D01*
Y5058584D01*
X2975640D01*
Y5060696D01*
X2973528D01*
Y5062808D01*
X2971416D01*
Y5064920D01*
X2969304D01*
Y5067032D01*
X2967192D01*
Y5071256D01*
X2965080D01*
Y5077592D01*
X2962968D01*
Y5088152D01*
X2960856D01*
Y5100824D01*
X2958744D01*
Y5595032D01*
X2960856D01*
Y5609816D01*
X2962968D01*
Y5618264D01*
X2965080D01*
Y5622488D01*
X2967192D01*
Y5624600D01*
X2969304D01*
Y5626712D01*
X2971416D01*
Y5628824D01*
X2973528D01*
Y5630936D01*
X2975640D01*
Y5633048D01*
X2979864D01*
Y5635160D01*
X2984088D01*
Y5637272D01*
X2988312D01*
Y5639384D01*
X2992536D01*
Y5641496D01*
X3000984D01*
Y5643608D01*
X3007320D01*
Y5645720D01*
X3032664D01*
X3034776D01*
D02*
G37*
G36*
X2958744Y5802008D02*
Y5808344D01*
X2956632D01*
Y5810456D01*
X2954520D01*
Y5814680D01*
X2952408D01*
Y5816792D01*
X2950296D01*
Y5818904D01*
X2948184D01*
Y5821016D01*
X2946072D01*
Y5823128D01*
X2943960D01*
Y5825240D01*
X2939736D01*
Y5827352D01*
X2937624D01*
Y5829464D01*
X2931288D01*
Y5831576D01*
X2927064D01*
Y5833688D01*
X2897496D01*
Y5831576D01*
X2893272D01*
Y5829464D01*
X2886936D01*
Y5827352D01*
X2884824D01*
Y5825240D01*
X2882712D01*
Y5823128D01*
X2878488D01*
Y5821016D01*
X2876376D01*
Y5818904D01*
X2874264D01*
Y5816792D01*
X2872152D01*
Y5812568D01*
X2870040D01*
Y5810456D01*
X2867928D01*
Y5808344D01*
X2865816D01*
Y5802008D01*
X2863704D01*
Y5797784D01*
X2861592D01*
Y5785112D01*
X2859480D01*
Y5778776D01*
X2861592D01*
Y5766104D01*
X2863704D01*
Y5761880D01*
X2865816D01*
Y5755544D01*
X2867928D01*
Y5753432D01*
X2870040D01*
Y5751320D01*
X2872152D01*
Y5747096D01*
X2874264D01*
Y5744984D01*
X2876376D01*
Y5742872D01*
X2880600D01*
Y5740760D01*
X2882712D01*
Y5738648D01*
X2884824D01*
Y5736536D01*
X2889048D01*
Y5734424D01*
X2893272D01*
Y5732312D01*
X2903832D01*
Y5730200D01*
X2920728D01*
Y5732312D01*
X2929176D01*
Y5734424D01*
X2933400D01*
Y5736536D01*
X2937624D01*
Y5738648D01*
X2939736D01*
Y5740760D01*
X2943960D01*
Y5742872D01*
X2946072D01*
Y5744984D01*
X2948184D01*
Y5747096D01*
X2950296D01*
Y5749208D01*
X2952408D01*
Y5753432D01*
X2954520D01*
Y5755544D01*
X2956632D01*
Y5757656D01*
X2958744D01*
Y5763992D01*
X2960856D01*
Y5768216D01*
X2962968D01*
Y5780888D01*
X2965080D01*
Y5783000D01*
X2962968D01*
Y5797784D01*
X2960856D01*
Y5802008D01*
X2958744D01*
D02*
G37*
D111*
X6770600Y6040000D02*
X6783300D01*
Y5840000D02*
Y6040000D01*
X6770600Y5840000D02*
X6783300D01*
X6681700D02*
X6694400D01*
X6681700D02*
Y6040000D01*
X6694400D01*
X6681700Y5940000D02*
X6783300D01*
X6087500Y4317500D02*
X6107500D01*
Y4117500D02*
Y4317500D01*
X6087500Y4117500D02*
X6107500D01*
X6007500D02*
X6027500D01*
X6007500D02*
Y4317500D01*
X6027500D01*
X6205000D02*
X6225000D01*
Y4117500D02*
Y4317500D01*
X6205000Y4117500D02*
X6225000D01*
X6125000D02*
X6145000D01*
X6125000D02*
Y4317500D01*
X6145000D01*
X5867500Y4894200D02*
Y4906900D01*
X5667500Y4894200D02*
X5867500D01*
X5667500D02*
Y4906900D01*
Y4983100D02*
Y4995800D01*
X5867500D01*
Y4983100D02*
Y4995800D01*
X5767500Y4894200D02*
Y4995800D01*
X5102500Y1062500D02*
Y1082500D01*
Y1062500D02*
X5302500D01*
Y1082500D01*
Y1142500D02*
Y1162500D01*
X5102500D02*
X5302500D01*
X5102500Y1142500D02*
Y1162500D01*
X6831700Y5940000D02*
X6933300D01*
X6831700Y6040000D02*
X6844400D01*
X6831700Y5840000D02*
Y6040000D01*
Y5840000D02*
X6844400D01*
X6920600D02*
X6933300D01*
Y6040000D01*
X6920600D02*
X6933300D01*
X5877500Y6200001D02*
Y6340001D01*
X6017500Y6310001D02*
Y6340001D01*
X5737500D02*
X6017500D01*
X5737500Y6310001D02*
Y6340001D01*
Y6200001D02*
Y6230001D01*
Y6200001D02*
X6017500D01*
Y6230001D01*
X4892500Y6197501D02*
Y6337501D01*
X5032500Y6307501D02*
Y6337501D01*
X4752500D02*
X5032500D01*
X4752500Y6307501D02*
Y6337501D01*
Y6197501D02*
Y6227501D01*
Y6197501D02*
X5032500D01*
Y6227501D01*
X5650000Y4066500D02*
X5670000D01*
Y4266500D01*
X5650000D02*
X5670000D01*
X5570000D02*
X5590000D01*
X5570000Y4066500D02*
Y4266500D01*
Y4066500D02*
X5590000D01*
X4295000Y4020000D02*
X4315000D01*
X4295000Y3820000D02*
Y4020000D01*
Y3820000D02*
X4315000D01*
X4375000D02*
X4395000D01*
Y4020000D01*
X4375000D02*
X4395000D01*
X5357500Y2442500D02*
Y2462500D01*
Y2442500D02*
X5557500D01*
Y2462500D01*
Y2522500D02*
Y2542500D01*
X5357500D02*
X5557500D01*
X5357500Y2522500D02*
Y2542500D01*
X5352500Y2310000D02*
Y2330000D01*
Y2310000D02*
X5552500D01*
Y2330000D01*
Y2390000D02*
Y2410000D01*
X5352500D02*
X5552500D01*
X5352500Y2390000D02*
Y2410000D01*
Y2185000D02*
Y2205000D01*
Y2185000D02*
X5552500D01*
Y2205000D01*
Y2265000D02*
Y2285000D01*
X5352500D02*
X5552500D01*
X5352500Y2265000D02*
Y2285000D01*
X5070000Y2315000D02*
X5150000D01*
X5138100Y2400000D02*
X5150800D01*
Y2230000D02*
Y2400000D01*
X5138100Y2230000D02*
X5150800D01*
X5069200D02*
X5081900D01*
X5069200D02*
Y2400000D01*
X5081900D01*
X4952500Y2307500D02*
X5032500D01*
X5020600Y2392500D02*
X5033300D01*
Y2222500D02*
Y2392500D01*
X5020600Y2222500D02*
X5033300D01*
X4951700D02*
X4964400D01*
X4951700D02*
Y2392500D01*
X4964400D01*
X4617500Y1049200D02*
Y1150800D01*
X4717500Y1138100D02*
Y1150800D01*
X4517500D02*
X4717500D01*
X4517500Y1138100D02*
Y1150800D01*
Y1049200D02*
Y1061900D01*
Y1049200D02*
X4717500D01*
Y1061900D01*
X6965000Y995000D02*
Y1075000D01*
X6880000Y1063100D02*
Y1075800D01*
X7050000D01*
Y1063100D02*
Y1075800D01*
Y994200D02*
Y1006900D01*
X6880000Y994200D02*
X7050000D01*
X6880000D02*
Y1006900D01*
X5480000Y3020000D02*
Y3040000D01*
X5280000D02*
X5480000D01*
X5280000Y3020000D02*
Y3040000D01*
Y2940000D02*
Y2960000D01*
Y2940000D02*
X5480000D01*
Y2960000D01*
X4310000Y2667500D02*
X4330000D01*
Y2867500D01*
X4310000D02*
X4330000D01*
X4230000D02*
X4250000D01*
X4230000Y2667500D02*
Y2867500D01*
Y2667500D02*
X4250000D01*
D115*
X6937484Y5780790D02*
X6837516D01*
Y5730806D01*
X6854177Y5714145D01*
X6887500D01*
X6904161Y5730806D01*
Y5780790D01*
Y5747467D02*
X6937484Y5714145D01*
Y5614177D02*
Y5680822D01*
X6870839Y5614177D01*
X6854177D01*
X6837516Y5630838D01*
Y5664161D01*
X6854177Y5680822D01*
Y5580854D02*
X6837516Y5564193D01*
Y5530870D01*
X6854177Y5514209D01*
X6920822D01*
X6937484Y5530870D01*
Y5564193D01*
X6920822Y5580854D01*
X6854177D01*
X6767484Y5707460D02*
X6667516D01*
Y5657476D01*
X6684178Y5640815D01*
X6717500D01*
X6734162Y5657476D01*
Y5707460D01*
Y5674137D02*
X6767484Y5640815D01*
Y5607492D02*
Y5574169D01*
Y5590831D01*
X6667516D01*
X6684178Y5607492D01*
X6667516Y5524186D02*
Y5457541D01*
X6684178D01*
X6750823Y5524186D01*
X6767484D01*
X4764202Y1144983D02*
Y1045016D01*
X4814186D01*
X4830847Y1061677D01*
Y1095000D01*
X4814186Y1111661D01*
X4764202D01*
X4797524D02*
X4830847Y1144983D01*
X4864170D02*
X4897492D01*
X4880831D01*
Y1045016D01*
X4864170Y1061677D01*
X4947476Y1144983D02*
X4980799D01*
X4964137D01*
Y1045016D01*
X4947476Y1061677D01*
X4802516Y2129960D02*
X4902484D01*
Y2079976D01*
X4885823Y2063315D01*
X4852500D01*
X4835839Y2079976D01*
Y2129960D01*
Y2096637D02*
X4802516Y2063315D01*
Y2029992D02*
Y1996669D01*
Y2013330D01*
X4902484D01*
X4885823Y2029992D01*
Y1946685D02*
X4902484Y1930024D01*
Y1896702D01*
X4885823Y1880040D01*
X4819178D01*
X4802516Y1896702D01*
Y1930024D01*
X4819178Y1946685D01*
X4885823D01*
X5005016Y2065806D02*
X5104984D01*
Y2015822D01*
X5088323Y1999161D01*
X5055000D01*
X5038339Y2015822D01*
Y2065806D01*
Y2032484D02*
X5005016Y1999161D01*
X5021678Y1965839D02*
X5005016Y1949177D01*
Y1915855D01*
X5021678Y1899194D01*
X5088323D01*
X5104984Y1915855D01*
Y1949177D01*
X5088323Y1965839D01*
X5071661D01*
X5055000Y1949177D01*
Y1899194D01*
X7043420Y1150620D02*
Y1250588D01*
X6993436D01*
X6976775Y1233926D01*
Y1200604D01*
X6993436Y1183943D01*
X7043420D01*
X7010097D02*
X6976775Y1150620D01*
X6943452Y1250588D02*
X6876807D01*
Y1233926D01*
X6943452Y1167281D01*
Y1150620D01*
X5593307Y4897516D02*
Y4997484D01*
X5543323D01*
X5526662Y4980822D01*
Y4947500D01*
X5543323Y4930838D01*
X5593307D01*
X5559984D02*
X5526662Y4897516D01*
X5426694Y4997484D02*
X5460016Y4980822D01*
X5493339Y4947500D01*
Y4914177D01*
X5476677Y4897516D01*
X5443355D01*
X5426694Y4914177D01*
Y4930838D01*
X5443355Y4947500D01*
X5493339D01*
X4927835Y6493967D02*
X4944496Y6510628D01*
X4977818D01*
X4994480Y6493967D01*
Y6427322D01*
X4977818Y6410661D01*
X4944496D01*
X4927835Y6427322D01*
X4827867Y6510628D02*
X4894512D01*
Y6460644D01*
X4861189Y6477306D01*
X4844528D01*
X4827867Y6460644D01*
Y6427322D01*
X4844528Y6410661D01*
X4877851D01*
X4894512Y6427322D01*
X4794544Y6410661D02*
X4761222D01*
X4777883D01*
Y6510628D01*
X4794544Y6493967D01*
X5946375Y6496507D02*
X5963036Y6513168D01*
X5996358D01*
X6013020Y6496507D01*
Y6429862D01*
X5996358Y6413201D01*
X5963036D01*
X5946375Y6429862D01*
X5846407Y6513168D02*
X5913052D01*
Y6463184D01*
X5879729Y6479846D01*
X5863068D01*
X5846407Y6463184D01*
Y6429862D01*
X5863068Y6413201D01*
X5896391D01*
X5913052Y6429862D01*
X5813084Y6496507D02*
X5796423Y6513168D01*
X5763100D01*
X5746439Y6496507D01*
Y6429862D01*
X5763100Y6413201D01*
X5796423D01*
X5813084Y6429862D01*
Y6496507D01*
X4256435Y3024626D02*
X4273096Y3041288D01*
X4306419D01*
X4323080Y3024626D01*
Y2957981D01*
X4306419Y2941320D01*
X4273096D01*
X4256435Y2957981D01*
X4173128Y2941320D02*
Y3041288D01*
X4223112Y2991304D01*
X4156467D01*
X4073161Y2941320D02*
Y3041288D01*
X4123144Y2991304D01*
X4056499D01*
X5404515Y3197346D02*
X5421176Y3214008D01*
X5454499D01*
X5471160Y3197346D01*
Y3130701D01*
X5454499Y3114040D01*
X5421176D01*
X5404515Y3130701D01*
X5321208Y3114040D02*
Y3214008D01*
X5371192Y3164024D01*
X5304547D01*
X5271224Y3197346D02*
X5254563Y3214008D01*
X5221241D01*
X5204579Y3197346D01*
Y3180685D01*
X5221241Y3164024D01*
X5237902D01*
X5221241D01*
X5204579Y3147363D01*
Y3130701D01*
X5221241Y3114040D01*
X5254563D01*
X5271224Y3130701D01*
X5678355Y2525822D02*
X5661694Y2542483D01*
X5628371D01*
X5611710Y2525822D01*
Y2459177D01*
X5628371Y2442516D01*
X5661694D01*
X5678355Y2459177D01*
X5761661Y2442516D02*
Y2542483D01*
X5711677Y2492499D01*
X5778322D01*
X5878290Y2442516D02*
X5811645D01*
X5878290Y2509161D01*
Y2525822D01*
X5861629Y2542483D01*
X5828307D01*
X5811645Y2525822D01*
X5880823Y2169984D02*
X5897484Y2186645D01*
Y2219967D01*
X5880823Y2236629D01*
X5814178D01*
X5797516Y2219967D01*
Y2186645D01*
X5814178Y2169984D01*
X5797516Y2086677D02*
X5897484D01*
X5847500Y2136661D01*
Y2070016D01*
X5797516Y2036693D02*
Y2003371D01*
Y2020032D01*
X5897484D01*
X5880823Y2036693D01*
X5428354Y1074177D02*
X5411693Y1057516D01*
X5378370D01*
X5361709Y1074177D01*
Y1140822D01*
X5378370Y1157483D01*
X5411693D01*
X5428354Y1140822D01*
X5511661Y1157483D02*
Y1057516D01*
X5461677Y1107499D01*
X5528322D01*
X5561645Y1074177D02*
X5578306Y1057516D01*
X5611629D01*
X5628290Y1074177D01*
Y1140822D01*
X5611629Y1157483D01*
X5578306D01*
X5561645Y1140822D01*
Y1074177D01*
X5675855Y2378322D02*
X5659194Y2394984D01*
X5625871D01*
X5609210Y2378322D01*
Y2311677D01*
X5625871Y2295016D01*
X5659194D01*
X5675855Y2311677D01*
X5709178Y2378322D02*
X5725839Y2394984D01*
X5759161D01*
X5775823Y2378322D01*
Y2361661D01*
X5759161Y2345000D01*
X5742500D01*
X5759161D01*
X5775823Y2328338D01*
Y2311677D01*
X5759161Y2295016D01*
X5725839D01*
X5709178Y2311677D01*
X5809145Y2394984D02*
X5875790D01*
Y2378322D01*
X5809145Y2311677D01*
Y2295016D01*
X5645822Y4373855D02*
X5662484Y4357193D01*
Y4323871D01*
X5645822Y4307210D01*
X5579177D01*
X5562516Y4323871D01*
Y4357193D01*
X5579177Y4373855D01*
X5645822Y4407177D02*
X5662484Y4423839D01*
Y4457161D01*
X5645822Y4473822D01*
X5629161D01*
X5612500Y4457161D01*
Y4440500D01*
Y4457161D01*
X5595838Y4473822D01*
X5579177D01*
X5562516Y4457161D01*
Y4423839D01*
X5579177Y4407177D01*
X5662484Y4573790D02*
X5645822Y4540468D01*
X5612500Y4507145D01*
X5579177D01*
X5562516Y4523807D01*
Y4557129D01*
X5579177Y4573790D01*
X5595838D01*
X5612500Y4557129D01*
Y4507145D01*
X4363323Y3551854D02*
X4379984Y3535193D01*
Y3501871D01*
X4363323Y3485209D01*
X4296678D01*
X4280016Y3501871D01*
Y3535193D01*
X4296678Y3551854D01*
X4363323Y3585177D02*
X4379984Y3601839D01*
Y3635161D01*
X4363323Y3651822D01*
X4346661D01*
X4330000Y3635161D01*
Y3618500D01*
Y3635161D01*
X4313339Y3651822D01*
X4296678D01*
X4280016Y3635161D01*
Y3601839D01*
X4296678Y3585177D01*
X4379984Y3751790D02*
Y3685145D01*
X4330000D01*
X4346661Y3718468D01*
Y3735129D01*
X4330000Y3751790D01*
X4296678D01*
X4280016Y3735129D01*
Y3701806D01*
X4296678Y3685145D01*
X6469177Y4274146D02*
X6452516Y4290807D01*
Y4324130D01*
X6469177Y4340791D01*
X6535822D01*
X6552484Y4324130D01*
Y4290807D01*
X6535822Y4274146D01*
X6469177Y4240823D02*
X6452516Y4224162D01*
Y4190839D01*
X6469177Y4174178D01*
X6485839D01*
X6502500Y4190839D01*
Y4207501D01*
Y4190839D01*
X6519161Y4174178D01*
X6535822D01*
X6552484Y4190839D01*
Y4224162D01*
X6535822Y4240823D01*
X6469177Y4140855D02*
X6452516Y4124194D01*
Y4090871D01*
X6469177Y4074210D01*
X6485839D01*
X6502500Y4090871D01*
Y4107533D01*
Y4090871D01*
X6519161Y4074210D01*
X6535822D01*
X6552484Y4090871D01*
Y4124194D01*
X6535822Y4140855D01*
X6864177Y4273146D02*
X6847516Y4289807D01*
Y4323130D01*
X6864177Y4339791D01*
X6930822D01*
X6947483Y4323130D01*
Y4289807D01*
X6930822Y4273146D01*
X6864177Y4239823D02*
X6847516Y4223162D01*
Y4189839D01*
X6864177Y4173178D01*
X6880838D01*
X6897500Y4189839D01*
Y4206501D01*
Y4189839D01*
X6914161Y4173178D01*
X6930822D01*
X6947483Y4189839D01*
Y4223162D01*
X6930822Y4239823D01*
X6947483Y4073210D02*
Y4139855D01*
X6880838Y4073210D01*
X6864177D01*
X6847516Y4089871D01*
Y4123194D01*
X6864177Y4139855D01*
%TF.MD5,7d341c7341d57d481cc800f5735a62a5*%
M02*
